/* XPM */
static char *dummy[]={
"64 64 279 2",
"Qt c None",
".y c #ffffff",
".L c #fef5f4",
"#s c #fef6f5",
".B c #fef7f6",
".R c #feffff",
".d c #ffffff",
".G c #fdfffe",
"a# c #fefefe",
"#r c #ffffff",
".J c #fcecea",
"b9 c #f0ad7f",
"al c #fdb9a0",
"ck c #ad8575",
"cu c #f4e586",
"bY c #e4876a",
".k c #fadcd9",
"as c #fcb094",
"cl c #ac7062",
"ct c #f8e562",
".f c #e32917",
"#j c #f6b8b2",
"bO c #efda67",
"aD c #fca789",
"bI c #9b694f",
"#b c #c4644f",
".P c #ca7750",
"at c #eb5c50",
"cm c #ee9256",
".m c #f29c94",
"cs c #fce24e",
"#W c #fce3de",
".o c #6c200c",
"bH c #f1dc5d",
"aO c #fc9e7c",
".S c #89513a",
"#X c #9e4c3a",
".z c #c80100",
"aY c #db2516",
"#Y c #e32816",
".b c #e32917",
".K c #e84b3c",
".r c #e95446",
".H c #ec5c4f",
"cj c #eed952",
"cr c #fbdf3a",
"cn c #fcdf3b",
"bx c #f0da4e",
"aX c #f2de7e",
".j c #e32917",
".X c #ed8c84",
".9 c #f6b8b2",
"cq c #f9dc26",
"co c #fbdc27",
".t c #e42816",
"bo c #e9d13c",
"a9 c #f2dd7d",
"a7 c #0a0601",
"aV c #1e1303",
".V c #5e3913",
"bK c #643613",
".3 c #6e3213",
".Y c #712c12",
"bP c #732f13",
"aP c #7a3815",
"by c #7b3815",
".4 c #873714",
"a1 c #8b3916",
"a0 c #8f3c16",
"#D c #8f3e15",
".Q c #942e14",
"b. c #9b6450",
".F c #9c4b16",
"bZ c #a13514",
"#e c #a43814",
"aR c #a44c15",
"aE c #a84317",
".N c #b32f15",
".Z c #b40000",
".7 c #c40000",
"#p c #c52715",
"aQ c #c65618",
".C c #c70000",
".M c #c70100",
".p c #ca5618",
".6 c #cb483b",
".8 c #cc0804",
"#I c #cd0a05",
"am c #ce0a05",
"#y c #d12e14",
"#M c #d20f08",
"#H c #d70000",
"c. c #d93516",
"#h c #da3416",
"#Z c #db0b03",
"#t c #dc2e17",
"ba c #dc5b19",
"bU c #dd3b17",
"bL c #dd4217",
"#a c #de271a",
"bM c #de3e17",
"#i c #df1e09",
"bT c #df5f1d",
"cc c #df621d",
"#1 c #df9224",
".U c #e02b16",
"bW c #e04318",
"bV c #e04418",
"bX c #e04518",
"#x c #e12816",
"#u c #e12a16",
"au c #e13617",
"b6 c #e14a19",
"#B c #e22817",
"#5 c #e22916",
"#E c #e23d17",
"a5 c #e2c708",
"#K c #e32210",
".e c #e32816",
".q c #e32817",
".1 c #e32916",
".h c #e32917",
".A c #e32a18",
".v c #e32b1a",
".# c #e33417",
".c c #e33619",
"#n c #e42816",
"aZ c #e42817",
"#3 c #e42f1d",
"#z c #e4301f",
"#q c #e4310d",
"bR c #e52816",
"ab c #e52a16",
"cd c #e55d1c",
"b8 c #e5701f",
"#c c #e62715",
"#A c #e62f17",
".g c #e63e2e",
"ag c #e69723",
"bp c #e73017",
".n c #e74333",
".s c #e74637",
"b5 c #e89122",
"b0 c #e92615",
".D c #e95b4e",
"#w c #ea2616",
"b# c #ea3018",
"#4 c #ea6650",
"bz c #eb2115",
".T c #eb2215",
"#o c #eb2a16",
"#k c #eb6457",
".x c #eb6558",
".2 c #ec2215",
"bh c #ec3218",
".i c #ec6d61",
"#. c #ec6f63",
".E c #ec7367",
"bJ c #ed2416",
"bA c #ed2616",
"bQ c #ed2c16",
"ce c #ed7220",
"bE c #edb80c",
".O c #ee2d17",
".W c #ee2f17",
"#7 c #ee3217",
"bG c #eed431",
"#m c #ef2f17",
".5 c #ef3017",
"#f c #ef3117",
"bq c #ef4419",
".I c #ef463c",
"aF c #ef621a",
"b7 c #ef7520",
"az c #efa33d",
"#d c #f05119",
"an c #f0897f",
"ao c #f09e22",
"bD c #f0d513",
"bg c #f0d969",
"b1 c #f15319",
"#6 c #f15519",
"#P c #f1641a",
"a. c #f19f22",
".a c #f29990",
"#R c #f29f21",
"#9 c #f2a120",
"bN c #f2d00e",
"ci c #f2d114",
"bu c #f2d814",
"#l c #f3631a",
".w c #f3641b",
"ae c #f39f21",
"a2 c #f3a021",
"ah c #f3b411",
"bc c #f3b90a",
"ai c #f3d110",
"a3 c #f3d312",
"bw c #f3d432",
"av c #f3d914",
"aU c #f3f3f3",
"ad c #f4711d",
"bF c #f4d110",
"ar c #f4d412",
"cp c #f4d814",
"aT c #f4d914",
"aM c #f4f3f3",
"#L c #f5b3ac",
"a4 c #f5da14",
"#O c #f6641b",
"aG c #f6661c",
"bn c #f6d533",
"b4 c #f6db15",
"ay c #f6de39",
"bd c #f6df41",
"#v c #f7671c",
".0 c #f7c6be",
"a8 c #f7d534",
"ch c #f7d813",
"aW c #f7db37",
"aN c #f7dd38",
"#V c #f8621a",
"#C c #f8681c",
"#U c #f8791e",
"c# c #f8b909",
"ap c #f8ca0c",
".u c #f8d4d1",
"aK c #f8dd17",
"cb c #f8de17",
"bk c #f8de18",
"bt c #f8df19",
"bC c #f8e01a",
"ac c #f9681b",
"#0 c #f9681c",
"#F c #f99a21",
"aj c #f9a11f",
"#Q c #f9a61d",
"bj c #f9dc16",
"a6 c #f9e01a",
"#g c #fa681b",
"aC c #fa6a1b",
"ak c #fa6b23",
"bb c #fa6c1b",
"#G c #fa9f1f",
"#S c #faa11e",
"## c #fad6d2",
"aq c #fadd17",
"af c #fadd18",
"ax c #fade18",
"br c #fade19",
"bs c #fadf19",
"bB c #fae019",
"aH c #fae119",
"aw c #fae219",
"aB c #faf7f3",
"bm c #faf8f3",
"bf c #fafdfd",
"#N c #fb681b",
"#2 c #fb8459",
"#T c #fb9c1f",
"#8 c #fb9c20",
"cf c #fbd813",
"b2 c #fbd914",
"bv c #fbda15",
"aI c #fbdb16",
"b3 c #fbdb17",
"cg c #fbdc17",
"bS c #fbdc18",
"aJ c #fbe219",
"aS c #fbe319",
"be c #fbe447",
"aL c #fbe554",
"aA c #fbe555",
"bl c #fbe654",
"bi c #fcb70d",
"ca c #fcda15",
"aa c #fefefe",
"#J c #feffff",
".l c #ffffff",
"QtQtQtQtQtQtQtQtQtQtQtQtQtQtQtQtQtQtQtQtQtQtQtQtQtQtQtQtQtQtQtQtQtQtQtQtQtQtQtQtQtQtQtQtQtQtQtQtQtQtQtQtQtQtQtQtQtQtQtQtQtQtQtQt",
"QtQtQtQtQtQtQtQtQtQtQtQtQtQtQtQtQtQtQtQtQtQtQtQtQtQtQtQtQtQtQtQtQtQtQtQtQtQtQtQtQtQtQtQtQtQtQtQtQtQtQtQtQtQtQtQtQtQtQtQtQtQtQtQt",
"QtQtQtQtQtQtQtQtQtQtQtQtQtQtQtQtQtQtQtQtQtQtQtQtQtQtQtQtQtQtQtQtQtQtQtQtQtQtQtQtQtQtQtQtQtQtQtQtQtQtQtQtQtQtQtQtQtQtQtQtQtQtQtQt",
"QtQtQtQtQtQtQtQtQtQtQtQtQtQtQtQtQtQtQtQtQtQtQtQtQtQtQtQtQtQtQtQtQtQtQtQtQtQtQtQtQtQtQtQtQtQtQtQtQtQtQtQtQtQtQtQtQtQtQtQtQtQtQtQt",
"QtQtQtQtQtQtQtQtQtQtQtQtQtQtQtQtQtQtQtQtQtQtQtQtQtQtQtQtQtQtQtQtQtQtQtQtQtQtQtQtQtQtQtQtQtQtQtQtQtQtQtQtQtQtQtQtQtQtQtQtQtQtQtQt",
"QtQtQtQtQtQtQtQtQtQtQtQtQtQtQtQtQtQtQtQtQtQtQtQtQtQtQtQtQtQtQtQtQtQtQtQtQtQtQtQtQtQtQtQtQtQtQtQtQtQtQtQtQtQtQtQtQtQtQtQtQtQtQtQt",
"QtQtQtQtQtQtQtQtQtQtQtQtQtQtQtQtQtQtQtQtQtQtQtQtQtQtQtQtQtQtQtQtQtQtQtQtQtQtQtQtQtQtQtQtQtQtQtQtQtQtQtQtQtQtQtQtQtQtQtQtQtQtQtQt",
"QtQtQtQtQtQtQtQtQtQtQtQtQtQtQtQtQtQtQtQtQtQtQtQtQtQtQtQtQtQtQtQtQtQtQtQtQtQtQtQtQtQtQtQtQtQtQtQtQtQtQtQtQtQtQtQtQtQtQtQtQtQtQtQt",
"QtQtQtQtQtQtQtQtQtQtQtQtQtQtQtQtQtQtQtQtQtQtQtQtQtQtQtQtQtQtQtQtQtQtQtQtQtQtQtQtQtQtQtQtQtQtQtQtQtQtQtQtQtQtQtQtQtQtQtQtQtQtQtQt",
"QtQtQtQtQtQtQtQtQtQtQtQtQtQtQtQtQtQtQtQtQtQtQtQtQtQtQtQtQtQtQtQtQtQtQtQtQtQtQtQtQtQtQtQtQtQtQtQtQtQtQtQtQtQtQtQtQtQtQtQtQtQtQtQt",
"QtQtQtQtQtQtQtQtQtQtQtQtQtQtQtQtQtQtQtQtQtQtQtQtQtQtQtQtQtQtQtQtQtQtQtQtQtQtQtQtQtQtQtQtQtQtQtQtQtQtQtQtQtQtQtQtQtQtQtQtQtQtQtQt",
"QtQtQtQtQtQtQtQtQtQtQtQtQtQtQtQtQtQtQtQtQtQtQtQtQtQtQtQtQtQtQtQtQtQtQtQtQtQtQtQtQtQtQtQtQtQtQtQtQtQtQtQtQtQtQtQtQtQtQtQtQtQtQtQt",
"QtQtQtQtQtQtQtQtQtQtQtQtQtQtQtQtQtQtQtQtQtQtQtQtQtQtQtQtQtQtQtQtQtQtQtQtQtQtQtQtQtQtQtQtQtQtQtQtQtQtQtQtQtQtQtQtQtQtQtQtQtQtQtQt",
"QtQtQtQtQtQtQtQtQtQtQtQtQtQtQtQtQtQtQtQtQtQtQtQtQtQtQtQtQtQtQtQtQtQtQtQtQtQtQtQtQtQtQtQtQtQtQtQtQtQtQtQtQtQtQtQtQtQtQtQtQtQtQtQt",
"QtQtQtQtQtQtQtQtQtQtQtQtQtQtQtQtQtQtQtQtQtQtQtQtQtQtQtQtQtQtQtQtQtQtQtQtQtQtQtQtQtQtQtQtQtQtQtQtQtQtQtQtQtQtQtQtQtQtQtQtQtQtQtQt",
"QtQtQtQtQtQtQtQtQtQtQtQtQtQtQtQtQtQtQtQtQtQtQtQtQtQt.#QtQtQt.a.bQtQtQtQtQtQtQtQtQtQtQtQtQtQtQtQtQtQtQtQtQtQtQtQtQtQtQtQtQtQtQtQt",
"QtQtQtQtQtQtQtQtQtQtQtQtQtQtQtQtQtQtQtQtQtQtQtQtQtQt.c.dQtQtQtQt.bQtQtQtQtQtQtQtQtQtQtQtQtQtQtQtQtQtQtQtQtQtQtQtQtQtQtQtQtQtQtQt",
"QtQtQtQtQtQtQtQtQtQtQtQtQtQtQtQtQtQtQtQtQtQtQtQtQtQt.e.fQtQtQt.g.h.dQtQtQtQtQtQtQtQtQtQtQtQtQtQtQtQtQtQtQtQtQtQtQtQtQtQtQtQtQtQt",
"QtQtQtQtQtQtQtQtQtQtQtQtQtQtQtQtQtQtQtQtQtQtQtQtQtQt.i.jQtQt.k.h.l.mQtQtQtQtQtQt.nQtQtQtQtQtQtQtQtQtQtQtQtQtQtQtQtQtQtQtQtQtQtQt",
"QtQtQtQtQtQtQtQtQtQtQtQtQtQtQtQtQtQtQtQtQtQtQtQtQtQt.h.hQtQt.o.l.h.hQt.pQtQtQtQt.qQtQtQtQtQtQtQtQtQtQtQtQtQtQtQtQtQtQtQtQtQtQtQt",
"QtQtQtQtQtQtQtQtQtQtQtQtQtQtQtQtQtQtQtQtQt.r.hQt.h.h.h.sQtQt.t.u.v.hQt.wQtQt.eQt.x.yQtQtQtQtQtQtQtQtQtQtQtQtQtQtQtQtQtQtQtQtQtQt",
"QtQtQtQtQtQtQtQtQtQtQtQtQtQtQtQtQtQtQtQt.z.A.BQtQt.h.dQtQtQt.e.C.D.E.F.w.GQt.H.I.h.JQtQtQtQtQtQtQtQtQtQtQtQtQtQtQtQtQtQtQtQtQtQt",
"QtQtQtQtQtQtQtQtQtQtQtQtQtQtQtQtQtQtQtQt.K.h.LQtQtQtQtQtQtQt.e.M.C.N.O.w.PQt.d.Q.h.fQtQtQtQtQtQtQtQtQtQtQtQtQtQtQtQtQtQtQtQtQtQt",
"QtQtQtQtQtQtQtQtQtQtQtQtQtQtQtQtQtQtQtQt.R.C.hQtQt.e.SQt.wQt.T.e.U.V.e.W.wQt.d.g.h.XQtQtQtQtQtQtQtQtQtQtQtQtQtQtQtQtQtQtQtQtQtQt",
"QtQtQtQtQtQtQtQtQtQtQtQtQtQtQtQtQtQtQtQtQt.Y.Z.0Qt.1.2.3.w.4.e.e.5.e.e.e.eQt.6.7.8.9QtQtQtQtQtQtQtQtQtQtQtQtQtQtQtQtQtQtQtQtQtQt",
"QtQtQtQtQtQtQtQtQtQtQtQtQtQtQtQtQtQtQt#.##.l#a.dQt#b.e.2#c#d.2#e#f.e.e#g.e#h.e#i.A#jQtQtQtQtQtQtQtQtQtQtQtQtQtQtQtQtQtQtQtQtQtQt",
"QtQtQtQtQtQtQtQtQtQtQtQtQtQtQtQtQtQtQtQtQt#k.#.dQtQt.e.e.e.2.2#l#m#n#o#g#p.e#n#q.C#rQtQtQtQtQtQtQtQtQtQtQtQtQtQtQtQtQtQtQtQtQtQt",
"QtQtQtQtQtQtQtQtQtQtQtQtQtQtQtQtQtQtQtQt#s.h.h.CQt.h#t.w.2.e#u#g#v.w.w.w.w#w#l.w#xQtQtQtQtQtQtQtQtQtQtQtQtQtQtQtQtQtQtQtQtQtQtQt",
"QtQtQtQtQtQtQtQtQtQtQtQtQtQtQtQtQtQtQtQt#y.l#z#A.h#B#n#C#D.2#E.5#F.w.w.w.w#g#l#G#H#rQtQtQtQtQtQtQtQtQtQtQtQtQtQtQtQtQtQtQtQtQtQt",
"QtQtQtQtQtQtQtQtQtQtQtQtQtQtQtQtQtQtQt.e#I#J.h#K#L#M.e#N#g#n#O#P#Q.w#R#l#v#S#T#U#V#WQtQtQtQtQtQtQtQtQtQtQtQtQtQtQtQtQtQtQtQtQtQt",
"QtQtQtQtQtQtQtQtQtQtQtQtQtQtQtQtQtQtQtQt#X#YQt.#.e#Z.e#0#g#g#v#1#R#Q#R#R#R#S#S.w#g#2QtQtQtQtQtQtQtQtQtQtQtQtQtQtQtQtQtQtQtQtQtQt",
"QtQtQtQtQtQtQtQtQtQtQtQtQtQtQtQtQt###3QtQtQt.d#4#5#6.e#7#N#8#v#R#R#R#9a.#R#S#S.w#g#2a#QtQtQtQtQtQtQtQtQtQtQtQtQtQtQtQtQtQtQtQtQt",
"QtQtQtQtQtQtQtQtQtQtQtQtQtQtQtQtQtQtQtQt.eQt.saa#5abac.e#g#Sadae#R#Rafagahaiaj#S#gakalQtQtQtQtQtQtQtQtQtQtQtQtQtQtQtQtQtQtQtQtQt",
"QtQtQtQtQtQtQtQtQtQtQtQtQtQtQtQtQtQtQtQtQt.eaman#5.e#g#g#g#S#R#Rafaoafapaqar#Rae.wacasQtQtQtQtQtQtQtQtQtQtQtQtQtQtQtQtQtQtQtQtQt",
"QtQtQtQtQtQtQtQtQtQtQtQtQtQtQtQtQtQtQtQtQtatau.#.e.e#gae#1#RafavawaxavafafayazaAaBaCaDQtQtQtQtQtQtQtQtQtQtQtQtQtQtQtQtQtQtQtQtQt",
"QtQtQtQtQtQtQtQtQtQtQtQtQtQtQtQtQtQtQtQtQt.RaE.#.O.eaFaG#R#RaHaIaJaJaKaHafayaLaMaBaNaOQtQtQtQtQtQtQtQtQtQtQtQtQtQtQtQtQtQtQtQtQt",
"QtQtQtQtQtQtQtQtQtQtQtQtQtQtQtQtQtQtQtQt.hQtaP.#aQ.OaR.w#RaraJawaSawawafaTaAaMaUaVaWaXQtQtQtQtQtQtQtQtQtQtQtQtQtQtQtQtQtQtQtQtQt",
"QtQtQtQtQtQtQtQtQtQtQtQtQtQtQtQtQtQtQtQtaYaZa0a1aQ.e.w#ga2a3a4a5a6aSawafavaLaMaUa7a8a9QtQtQtQtQtQtQtQtQtQtQtQtQtQtQtQtQtQtQtQtQt",
"QtQtQtQtQtQtQtQtQtQtQtQtQtQtQtQtQtQtQtQtQtb.b#.#ba.ebb#S#Rbca4a4aTavaTavavbdbebfaBa8bgQtQtQtQtQtQtQtQtQtQtQtQtQtQtQtQtQtQtQtQtQt",
"QtQtQtQtQtQtQtQtQtQtQtQtQtQtQtQtQtQtQtQtQtQtaPbh#m.e#F#Sbi#RbjawavbkavavavavavblbmbnboQtQtQtQtQtQtQtQtQtQtQtQtQtQtQtQtQtQtQtQtQt",
"QtQtQtQtQtQtQtQtQtQtQtQtQtQtQtQtQtQtQtQtQtQta#bp.2bq.w#Sbrbs#9btavavawavavavbuavbvbwbxQtQtQtQtQtQtQtQtQtQtQtQtQtQtQtQtQtQtQtQtQt",
"QtQtQtQtQtQtQtQtQtQtQtQtQtQtQtQtQtQtQtQtQtQtQtbybzbA.w#g#SaJbBaJbCbDawavavbEavavbFbGbHQtQtQtQtQtQtQtQtQtQtQtQtQtQtQtQtQtQtQtQtQt",
"QtQtQtQtQtQtQtQtQtQtQtQtQtQtQtQtQtQtQtQtQtQtQtbI.ebJbK#g#CbsaJaSaSawavavavbLbMbMbNbGbOQtQtQtQtQtQtQtQtQtQtQtQtQtQtQtQtQtQtQtQtQt",
"QtQtQtQtQtQtQtQtQtQtQtQtQtQtQtQtQtQtQtQtQtQtQtQtbP.ebQbRacbSafaHawaTaHavbTbUbVbVbWbXbYQtQtQtQtQtQtQtQtQtQtQtQtQtQtQtQtQtQtQtQtQt",
"QtQtQtQtQtQtQtQtQtQtQtQtQtQtQtQtQtQtQtQtQtQtQtQt.RbZb0b1.wb2b3afawb4avawb5bUb6b7b7b8b9QtQtQtQtQtQtQtQtQtQtQtQtQtQtQtQtQtQtQtQtQt",
"QtQtQtQtQtQtQtQtQtQtQtQtQtQtQtQtQtQtQtQtQtQtQtQtQtbPc..ec#bBb2afaJaJcabscbcccdceb7b8QtQtQtQtQtQtQtQtQtQtQtQtQtQtQtQtQtQtQtQtQtQt",
"QtQtQtQtQtQtQtQtQtQtQtQtQtQtQtQtQtQtQtQtQtQtQtQtQtQt.R.e.ecfbBaHaJbscgaJcgchb2cicjQtQtQtQtQtQtQtQtQtQtQtQtQtQtQtQtQtQtQtQtQtQtQt",
"QtQtQtQtQtQtQtQtQtQtQtQtQtQtQtQtQtQtQtQtQtQtQtQtQtQtQtQtckclcmcncocpcqcrcsctcu.RQtQtQtQtQtQtQtQtQtQtQtQtQtQtQtQtQtQtQtQtQtQtQtQt",
"QtQtQtQtQtQtQtQtQtQtQtQtQtQtQtQtQtQtQtQtQtQtQtQtQtQtQtQtQtQtQtQtQtQtQtQtQtQtQtQtQtQtQtQtQtQtQtQtQtQtQtQtQtQtQtQtQtQtQtQtQtQtQtQt",
"QtQtQtQtQtQtQtQtQtQtQtQtQtQtQtQtQtQtQtQtQtQtQtQtQtQtQtQtQtQtQtQtQtQtQtQtQtQtQtQtQtQtQtQtQtQtQtQtQtQtQtQtQtQtQtQtQtQtQtQtQtQtQtQt",
"QtQtQtQtQtQtQtQtQtQtQtQtQtQtQtQtQtQtQtQtQtQtQtQtQtQtQtQtQtQtQtQtQtQtQtQtQtQtQtQtQtQtQtQtQtQtQtQtQtQtQtQtQtQtQtQtQtQtQtQtQtQtQtQt",
"QtQtQtQtQtQtQtQtQtQtQtQtQtQtQtQtQtQtQtQtQtQtQtQtQtQtQtQtQtQtQtQtQtQtQtQtQtQtQtQtQtQtQtQtQtQtQtQtQtQtQtQtQtQtQtQtQtQtQtQtQtQtQtQt",
"QtQtQtQtQtQtQtQtQtQtQtQtQtQtQtQtQtQtQtQtQtQtQtQtQtQtQtQtQtQtQtQtQtQtQtQtQtQtQtQtQtQtQtQtQtQtQtQtQtQtQtQtQtQtQtQtQtQtQtQtQtQtQtQt",
"QtQtQtQtQtQtQtQtQtQtQtQtQtQtQtQtQtQtQtQtQtQtQtQtQtQtQtQtQtQtQtQtQtQtQtQtQtQtQtQtQtQtQtQtQtQtQtQtQtQtQtQtQtQtQtQtQtQtQtQtQtQtQtQt",
"QtQtQtQtQtQtQtQtQtQtQtQtQtQtQtQtQtQtQtQtQtQtQtQtQtQtQtQtQtQtQtQtQtQtQtQtQtQtQtQtQtQtQtQtQtQtQtQtQtQtQtQtQtQtQtQtQtQtQtQtQtQtQtQt",
"QtQtQtQtQtQtQtQtQtQtQtQtQtQtQtQtQtQtQtQtQtQtQtQtQtQtQtQtQtQtQtQtQtQtQtQtQtQtQtQtQtQtQtQtQtQtQtQtQtQtQtQtQtQtQtQtQtQtQtQtQtQtQtQt",
"QtQtQtQtQtQtQtQtQtQtQtQtQtQtQtQtQtQtQtQtQtQtQtQtQtQtQtQtQtQtQtQtQtQtQtQtQtQtQtQtQtQtQtQtQtQtQtQtQtQtQtQtQtQtQtQtQtQtQtQtQtQtQtQt",
"QtQtQtQtQtQtQtQtQtQtQtQtQtQtQtQtQtQtQtQtQtQtQtQtQtQtQtQtQtQtQtQtQtQtQtQtQtQtQtQtQtQtQtQtQtQtQtQtQtQtQtQtQtQtQtQtQtQtQtQtQtQtQtQt",
"QtQtQtQtQtQtQtQtQtQtQtQtQtQtQtQtQtQtQtQtQtQtQtQtQtQtQtQtQtQtQtQtQtQtQtQtQtQtQtQtQtQtQtQtQtQtQtQtQtQtQtQtQtQtQtQtQtQtQtQtQtQtQtQt",
"QtQtQtQtQtQtQtQtQtQtQtQtQtQtQtQtQtQtQtQtQtQtQtQtQtQtQtQtQtQtQtQtQtQtQtQtQtQtQtQtQtQtQtQtQtQtQtQtQtQtQtQtQtQtQtQtQtQtQtQtQtQtQtQt",
"QtQtQtQtQtQtQtQtQtQtQtQtQtQtQtQtQtQtQtQtQtQtQtQtQtQtQtQtQtQtQtQtQtQtQtQtQtQtQtQtQtQtQtQtQtQtQtQtQtQtQtQtQtQtQtQtQtQtQtQtQtQtQtQt",
"QtQtQtQtQtQtQtQtQtQtQtQtQtQtQtQtQtQtQtQtQtQtQtQtQtQtQtQtQtQtQtQtQtQtQtQtQtQtQtQtQtQtQtQtQtQtQtQtQtQtQtQtQtQtQtQtQtQtQtQtQtQtQtQt",
"QtQtQtQtQtQtQtQtQtQtQtQtQtQtQtQtQtQtQtQtQtQtQtQtQtQtQtQtQtQtQtQtQtQtQtQtQtQtQtQtQtQtQtQtQtQtQtQtQtQtQtQtQtQtQtQtQtQtQtQtQtQtQtQt",
"QtQtQtQtQtQtQtQtQtQtQtQtQtQtQtQtQtQtQtQtQtQtQtQtQtQtQtQtQtQtQtQtQtQtQtQtQtQtQtQtQtQtQtQtQtQtQtQtQtQtQtQtQtQtQtQtQtQtQtQtQtQtQtQt"};
