/* XPM */
static char *dummy[]={
"64 64 225 2",
"Qt c None",
".R c #feffff",
"#p c #fefefe",
".a c #feffff",
".d c #fdfffe",
".5 c #fefefe",
"#R c #feffff",
"aa c #ffffff",
".W c #fdfefe",
"bh c #f0ad7f",
"#A c #fdb9a0",
"bu c #ad8575",
"bE c #f4e586",
"a8 c #e4876a",
"#F c #fcb094",
"bv c #ac7062",
"bD c #f8e562",
"aZ c #efda67",
"#Q c #fca789",
"aT c #9b694f",
".F c #c4644f",
".q c #ca7750",
".Y c #e86850",
".b c #ea5d50",
"#i c #ea6650",
"#G c #eb5c50",
"bw c #ee9256",
"bC c #fce24e",
"#d c #fce3de",
"aS c #f1dc5d",
"#2 c #fc9e7c",
".s c #89513a",
"#e c #9e4c3a",
".E c #cb483b",
".m c #e84b3c",
".n c #e8553d",
".k c #ec5c4f",
"bt c #eed952",
".l c #ef463c",
"bB c #fbdf3a",
"bx c #fcdf3b",
"aI c #f0da4e",
"a# c #f2de7e",
"bA c #f9dc26",
"by c #fbdc27",
"aA c #e9d13c",
"ak c #f2dd7d",
"ai c #0a0601",
"#9 c #1e1303",
".v c #5e3913",
"aV c #643613",
".B c #6e3213",
".x c #732f13",
".f c #752e12",
"#3 c #7a3815",
"aJ c #7b3815",
".C c #873714",
"ac c #8b3916",
"ab c #8f3c16",
".1 c #8f3e15",
".r c #942e14",
"al c #9b6450",
".j c #9c4b16",
"a9 c #a13514",
".I c #a43814",
"#5 c #a44c15",
"#S c #a84317",
".o c #b32f15",
".Q c #c52715",
"#4 c #c65618",
".g c #ca5618",
".y c #d03f18",
".X c #d43316",
"bi c #d93516",
".L c #da3416",
"an c #dc5b19",
".S c #dd2f17",
"a4 c #dd3b17",
"aW c #dd4217",
"aX c #de3e17",
".e c #df2d16",
"a3 c #df5f1d",
"bm c #df621d",
"#g c #df9224",
".u c #e02b16",
"a6 c #e04318",
"a5 c #e04418",
"a7 c #e04518",
".T c #e12a16",
"#H c #e13617",
"be c #e14a19",
"#j c #e22916",
".2 c #e23d17",
"ag c #e2c708",
".c c #e32816",
".z c #e32916",
".# c #e33417",
".h c #e42816",
"a1 c #e52816",
"#q c #e52a16",
"bn c #e55d1c",
"bg c #e5701f",
".G c #e62715",
"#v c #e69723",
".Z c #e73017",
"bd c #e89122",
"b. c #e92615",
".V c #ea2616",
"am c #ea3018",
"aK c #eb2115",
".t c #eb2215",
".P c #eb2a16",
".A c #ec2215",
".6 c #ec3218",
"aU c #ed2416",
"aL c #ed2616",
"a0 c #ed2c16",
"bo c #ed7220",
"aP c #edb80c",
".p c #ee2d17",
".w c #ee2f17",
"#l c #ee3217",
"aR c #eed431",
".O c #ef2f17",
".D c #ef3017",
".J c #ef3117",
"aB c #ef4419",
"#T c #ef621a",
"bf c #ef7520",
"#M c #efa33d",
".H c #f05119",
".M c #f05219",
"#B c #f09e22",
"aO c #f0d513",
"at c #f0d969",
"b# c #f15319",
"#k c #f15519",
".9 c #f1641a",
"#o c #f19f22",
"## c #f29f21",
"#n c #f2a120",
"aY c #f2d00e",
"bs c #f2d114",
"aF c #f2d814",
".N c #f3631a",
".i c #f3641b",
"#t c #f39f21",
"ad c #f3a021",
"#w c #f3b411",
"ap c #f3b90a",
"#x c #f3d110",
"ae c #f3d312",
"aH c #f3d432",
"#I c #f3d914",
"#8 c #f3f3f3",
"#s c #f4711d",
"aQ c #f4d110",
"#E c #f4d412",
"bz c #f4d814",
"#7 c #f4d914",
"#0 c #f4f3f3",
"af c #f5da14",
".8 c #f6641b",
"#U c #f6661c",
"az c #f6d533",
"bc c #f6db15",
"#L c #f6de39",
"aq c #f6df41",
".U c #f7671c",
"aj c #f7d534",
"br c #f7d813",
"a. c #f7db37",
"#1 c #f7dd38",
".0 c #f8681c",
"#c c #f8791e",
"bj c #f8b909",
"#C c #f8ca0c",
"#Y c #f8dd17",
"bl c #f8de17",
"aw c #f8de18",
"aE c #f8df19",
"aN c #f8e01a",
"#r c #f9681b",
"#f c #f9681c",
".3 c #f99a21",
"#y c #f9a11f",
"#. c #f9a61d",
"av c #f9dc16",
"ah c #f9e01a",
".K c #fa681b",
"#P c #fa6a1b",
"#z c #fa6b23",
"ao c #fa6c1b",
".4 c #fa9f1f",
"#a c #faa11e",
"#D c #fadd17",
"#u c #fadd18",
"#K c #fade18",
"aC c #fade19",
"aD c #fadf19",
"aM c #fae019",
"#V c #fae119",
"#J c #fae219",
"#O c #faf7f3",
"ay c #faf8f3",
"as c #fafdfd",
".7 c #fb681b",
"#h c #fb8459",
"#b c #fb9c1f",
"#m c #fb9c20",
"bp c #fbd813",
"ba c #fbd914",
"aG c #fbda15",
"#W c #fbdb16",
"bb c #fbdb17",
"bq c #fbdc17",
"a2 c #fbdc18",
"#X c #fbe219",
"#6 c #fbe319",
"ar c #fbe447",
"#Z c #fbe554",
"#N c #fbe555",
"ax c #fbe654",
"au c #fcb70d",
"bk c #fcda15",
"QtQtQtQtQtQtQtQtQtQtQtQtQtQtQtQtQtQtQtQtQtQtQtQtQtQtQtQtQtQtQtQtQtQtQtQtQtQtQtQtQtQtQtQtQtQtQtQtQtQtQtQtQtQtQtQtQtQtQtQtQtQtQtQt",
"QtQtQtQtQtQtQtQtQtQtQtQtQtQtQtQtQtQtQtQtQtQtQtQtQtQtQtQtQtQtQtQtQtQtQtQtQtQtQtQtQtQtQtQtQtQtQtQtQtQtQtQtQtQtQtQtQtQtQtQtQtQtQtQt",
"QtQtQtQtQtQtQtQtQtQtQtQtQtQtQtQtQtQtQtQtQtQtQtQtQtQtQtQtQtQtQtQtQtQtQtQtQtQtQtQtQtQtQtQtQtQtQtQtQtQtQtQtQtQtQtQtQtQtQtQtQtQtQtQt",
"QtQtQtQtQtQtQtQtQtQtQtQtQtQtQtQtQtQtQtQtQtQtQtQtQtQtQtQtQtQtQtQtQtQtQtQtQtQtQtQtQtQtQtQtQtQtQtQtQtQtQtQtQtQtQtQtQtQtQtQtQtQtQtQt",
"QtQtQtQtQtQtQtQtQtQtQtQtQtQtQtQtQtQtQtQtQtQtQtQtQtQtQtQtQtQtQtQtQtQtQtQtQtQtQtQtQtQtQtQtQtQtQtQtQtQtQtQtQtQtQtQtQtQtQtQtQtQtQtQt",
"QtQtQtQtQtQtQtQtQtQtQtQtQtQtQtQtQtQtQtQtQtQtQtQtQtQtQtQtQtQtQtQtQtQtQtQtQtQtQtQtQtQtQtQtQtQtQtQtQtQtQtQtQtQtQtQtQtQtQtQtQtQtQtQt",
"QtQtQtQtQtQtQtQtQtQtQtQtQtQtQtQtQtQtQtQtQtQtQtQtQtQtQtQtQtQtQtQtQtQtQtQtQtQtQtQtQtQtQtQtQtQtQtQtQtQtQtQtQtQtQtQtQtQtQtQtQtQtQtQt",
"QtQtQtQtQtQtQtQtQtQtQtQtQtQtQtQtQtQtQtQtQtQtQtQtQtQtQtQtQtQtQtQtQtQtQtQtQtQtQtQtQtQtQtQtQtQtQtQtQtQtQtQtQtQtQtQtQtQtQtQtQtQtQtQt",
"QtQtQtQtQtQtQtQtQtQtQtQtQtQtQtQtQtQtQtQtQtQtQtQtQtQtQtQtQtQtQtQtQtQtQtQtQtQtQtQtQtQtQtQtQtQtQtQtQtQtQtQtQtQtQtQtQtQtQtQtQtQtQtQt",
"QtQtQtQtQtQtQtQtQtQtQtQtQtQtQtQtQtQtQtQtQtQtQtQtQtQtQtQtQtQtQtQtQtQtQtQtQtQtQtQtQtQtQtQtQtQtQtQtQtQtQtQtQtQtQtQtQtQtQtQtQtQtQtQt",
"QtQtQtQtQtQtQtQtQtQtQtQtQtQtQtQtQtQtQtQtQtQtQtQtQtQtQtQtQtQtQtQtQtQtQtQtQtQtQtQtQtQtQtQtQtQtQtQtQtQtQtQtQtQtQtQtQtQtQtQtQtQtQtQt",
"QtQtQtQtQtQtQtQtQtQtQtQtQtQtQtQtQtQtQtQtQtQtQtQtQtQtQtQtQtQtQtQtQtQtQtQtQtQtQtQtQtQtQtQtQtQtQtQtQtQtQtQtQtQtQtQtQtQtQtQtQtQtQtQt",
"QtQtQtQtQtQtQtQtQtQtQtQtQtQtQtQtQtQtQtQtQtQtQtQtQtQtQtQtQtQtQtQtQtQtQtQtQtQtQtQtQtQtQtQtQtQtQtQtQtQtQtQtQtQtQtQtQtQtQtQtQtQtQtQt",
"QtQtQtQtQtQtQtQtQtQtQtQtQtQtQtQtQtQtQtQtQtQtQtQtQtQtQtQtQtQtQtQtQtQtQtQtQtQtQtQtQtQtQtQtQtQtQtQtQtQtQtQtQtQtQtQtQtQtQtQtQtQtQtQt",
"QtQtQtQtQtQtQtQtQtQtQtQtQtQtQtQtQtQtQtQtQtQtQtQtQtQtQtQtQtQtQtQtQtQtQtQtQtQtQtQtQtQtQtQtQtQtQtQtQtQtQtQtQtQtQtQtQtQtQtQtQtQtQtQt",
"QtQtQtQtQtQtQtQtQtQtQtQtQtQtQtQtQtQtQtQtQtQtQtQtQtQtQtQtQtQtQtQtQtQtQtQtQtQtQtQtQtQtQtQtQtQtQtQtQtQtQtQtQtQtQtQtQtQtQtQtQtQtQtQt",
"QtQtQtQtQtQtQtQtQtQtQtQtQtQtQtQtQtQtQtQtQtQtQtQtQtQtQtQtQtQtQtQtQtQtQtQtQtQtQtQtQtQtQtQtQtQtQtQtQtQtQtQtQtQtQtQtQtQtQtQtQtQtQtQt",
"QtQtQtQtQtQtQtQtQtQtQtQtQtQtQtQtQtQtQtQtQtQtQtQtQtQtQtQtQtQtQtQtQtQtQtQtQtQtQtQtQtQtQtQtQtQtQtQtQtQtQtQtQtQtQtQtQtQtQtQtQtQtQtQt",
"QtQtQtQtQtQtQtQtQtQtQtQtQtQtQtQtQtQtQtQtQtQtQtQtQtQt.#QtQtQtQtQtQtQtQtQtQtQtQtQtQtQtQtQtQtQtQtQtQtQtQtQtQtQtQtQtQtQtQtQtQtQtQtQt",
"QtQtQtQtQtQtQtQtQtQtQtQtQtQtQtQtQtQtQtQtQtQtQtQtQt.a.#QtQtQtQtQtQtQtQtQtQtQtQtQtQtQtQtQtQtQtQtQtQtQtQtQtQtQtQtQtQtQtQtQtQtQtQtQt",
"QtQtQtQtQtQtQtQtQtQtQtQtQtQtQtQtQtQtQtQtQtQtQtQtQt.b.c.dQtQtQtQtQtQtQtQtQtQtQtQtQtQtQtQtQtQtQtQtQtQtQtQtQtQtQtQtQtQtQtQtQtQtQtQt",
"QtQtQtQtQtQtQtQtQtQtQtQtQtQtQtQtQtQtQtQtQtQtQtQtQt.c.c.eQtQtQtQtQtQtQtQtQtQtQtQtQtQtQtQtQtQtQtQtQtQtQtQtQtQtQtQtQtQtQtQtQtQtQtQt",
"QtQtQtQtQtQtQtQtQtQtQtQtQtQtQtQtQtQtQtQtQtQtQtQtQt.b.c.aQtQt.fQtQtQtQt.gQtQtQtQtQtQtQtQtQtQtQtQtQtQtQtQtQtQtQtQtQtQtQtQtQtQtQtQt",
"QtQtQtQtQtQtQtQtQtQtQtQtQtQtQtQtQtQtQtQtQtQtQtQtQtQt.cQtQtQt.h.aQtQt.a.iQtQt.cQtQtQtQtQtQtQtQtQtQtQtQtQtQtQtQtQtQtQtQtQtQtQtQtQt",
"QtQtQtQtQtQtQtQtQtQtQtQtQtQtQtQtQtQtQtQt.c.aQtQtQtQtQtQtQtQt.c.c.a.a.j.i.dQt.k.lQtQtQtQtQtQtQtQtQtQtQtQtQtQtQtQtQtQtQtQtQtQtQtQt",
"QtQtQtQtQtQtQtQtQtQtQtQtQtQtQtQtQtQtQtQt.m.c.nQtQtQtQtQtQtQt.c.c.c.o.p.i.qQtQt.rQtQtQtQtQtQtQtQtQtQtQtQtQtQtQtQtQtQtQtQtQtQtQtQt",
"QtQtQtQtQtQtQtQtQtQtQtQtQtQtQtQtQtQtQtQt.a.c.#.nQt.c.sQt.iQt.t.c.u.v.c.w.iQtQtQtQtQtQtQtQtQtQtQtQtQtQtQtQtQtQtQtQtQtQtQtQtQtQtQt",
"QtQtQtQtQtQtQtQtQtQtQtQtQtQtQtQtQtQtQtQtQt.x.y.#Qt.z.A.B.i.C.c.c.D.c.c.c.cQt.E.cQtQtQtQtQtQtQtQtQtQtQtQtQtQtQtQtQtQtQtQtQtQtQtQt",
"QtQtQtQtQtQtQtQtQtQtQtQtQtQtQtQtQtQtQtQtQtQtQtQtQt.F.c.A.G.H.A.I.J.c.c.K.c.L.c.MQtQtQtQtQtQtQtQtQtQtQtQtQtQtQtQtQtQtQtQtQtQtQtQt",
"QtQtQtQtQtQtQtQtQtQtQtQtQtQtQtQtQtQtQtQtQtQt.#QtQt.d.c.c.c.A.A.N.O.h.P.K.Q.c.h.i.RQtQtQtQtQtQtQtQtQtQtQtQtQtQtQtQtQtQtQtQtQtQtQt",
"QtQtQtQtQtQtQtQtQtQtQtQtQtQtQtQtQtQtQtQtQtQt.#.#QtQt.S.i.A.c.T.K.U.i.i.i.i.V.N.i.WQtQtQtQtQtQtQtQtQtQtQtQtQtQtQtQtQtQtQtQtQtQtQt",
"QtQtQtQtQtQtQtQtQtQtQtQtQtQtQtQtQtQtQtQt.XQt.Y.Z.cQt.h.0.1.A.2.D.3.i.i.i.i.K.N.4.iQtQtQtQtQtQtQtQtQtQtQtQtQtQtQtQtQtQtQtQtQtQtQt",
"QtQtQtQtQtQtQtQtQtQtQtQtQtQtQtQtQtQtQt.c.c.a.5.6.c.c.c.7.K.h.8.9#..i##.N.U#a#b#c.K#dQtQtQtQtQtQtQtQtQtQtQtQtQtQtQtQtQtQtQtQtQtQt",
"QtQtQtQtQtQtQtQtQtQtQtQtQtQtQtQtQtQtQtQt#e.cQt.#.c.i.c#f.K.K.U#g###.#######a#a.i.K#hQtQtQtQtQtQtQtQtQtQtQtQtQtQtQtQtQtQtQtQtQtQt",
"QtQtQtQtQtQtQtQtQtQtQtQtQtQtQtQtQtQtQtQtQtQtQt#i#j#k.c#l.7#m.U#######n#o###a#a.i.K#h.5QtQtQtQtQtQtQtQtQtQtQtQtQtQtQtQtQtQtQtQtQt",
"QtQtQtQtQtQtQtQtQtQtQtQtQtQtQtQtQtQtQtQt.cQtQt#p#j#q#r.c.K#a#s#t#####u#v#w#x#y#a.K#z#AQtQtQtQtQtQtQtQtQtQtQtQtQtQtQtQtQtQtQtQtQt",
"QtQtQtQtQtQtQtQtQtQtQtQtQtQtQtQtQtQtQtQtQt.c#iQt#j.c.K.K.K#a#####u#B#u#C#D#E###t.i#r#FQtQtQtQtQtQtQtQtQtQtQtQtQtQtQtQtQtQtQtQtQt",
"QtQtQtQtQtQtQtQtQtQtQtQtQtQtQtQtQtQtQtQtQt#G#H.#.c.c.K#t#g###u#I#J#K#I#u#u#L#M#N#O#P#QQtQtQtQtQtQtQtQtQtQtQtQtQtQtQtQtQtQtQtQtQt",
"QtQtQtQtQtQtQtQtQtQtQtQtQtQtQtQtQtQtQtQtQt#R#S.#.p.c#T#U#####V#W#X#X#Y#V#u#L#Z#0#O#1#2QtQtQtQtQtQtQtQtQtQtQtQtQtQtQtQtQtQtQtQtQt",
"QtQtQtQtQtQtQtQtQtQtQtQtQtQtQtQtQtQtQtQtQtQt#3.##4.p#5.i###E#X#J#6#J#J#u#7#N#0#8#9a.a#QtQtQtQtQtQtQtQtQtQtQtQtQtQtQtQtQtQtQtQtQt",
"QtQtQtQtQtQtQtQtQtQtQtQtQtQtQtQtQtQtQtQtQtaaabac#4.c.i.Kadaeafagah#6#J#u#I#Z#0#8aiajakQtQtQtQtQtQtQtQtQtQtQtQtQtQtQtQtQtQtQtQtQt",
"QtQtQtQtQtQtQtQtQtQtQtQtQtQtQtQtQtQtQtQtQtalam.#an.cao#a##apafaf#7#I#7#I#Iaqaras#OajatQtQtQtQtQtQtQtQtQtQtQtQtQtQtQtQtQtQtQtQtQt",
"QtQtQtQtQtQtQtQtQtQtQtQtQtQtQtQtQtQtQtQtQtQt#3.6.O.c.3#aau##av#J#Iaw#I#I#I#I#IaxayazaAQtQtQtQtQtQtQtQtQtQtQtQtQtQtQtQtQtQtQtQtQt",
"QtQtQtQtQtQtQtQtQtQtQtQtQtQtQtQtQtQtQtQtQtQt.5.Z.AaB.i#aaCaD#naE#I#I#J#I#I#IaF#IaGaHaIQtQtQtQtQtQtQtQtQtQtQtQtQtQtQtQtQtQtQtQtQt",
"QtQtQtQtQtQtQtQtQtQtQtQtQtQtQtQtQtQtQtQtQtQtQtaJaKaL.i.K#a#XaM#XaNaO#J#I#IaP#I#IaQaRaSQtQtQtQtQtQtQtQtQtQtQtQtQtQtQtQtQtQtQtQtQt",
"QtQtQtQtQtQtQtQtQtQtQtQtQtQtQtQtQtQtQtQtQtQtQtaT.caUaV.K.0aD#X#6#6#J#I#I#IaWaXaXaYaRaZQtQtQtQtQtQtQtQtQtQtQtQtQtQtQtQtQtQtQtQtQt",
"QtQtQtQtQtQtQtQtQtQtQtQtQtQtQtQtQtQtQtQtQtQtQtQt.x.ca0a1#ra2#u#V#J#7#V#Ia3a4a5a5a6a7a8QtQtQtQtQtQtQtQtQtQtQtQtQtQtQtQtQtQtQtQtQt",
"QtQtQtQtQtQtQtQtQtQtQtQtQtQtQtQtQtQtQtQtQtQtQtQt.aa9b.b#.ibabb#u#Jbc#I#Jbda4bebfbfbgbhQtQtQtQtQtQtQtQtQtQtQtQtQtQtQtQtQtQtQtQtQt",
"QtQtQtQtQtQtQtQtQtQtQtQtQtQtQtQtQtQtQtQtQtQtQtQtQt.xbi.cbjaMba#u#X#XbkaDblbmbnbobfbgQtQtQtQtQtQtQtQtQtQtQtQtQtQtQtQtQtQtQtQtQtQt",
"QtQtQtQtQtQtQtQtQtQtQtQtQtQtQtQtQtQtQtQtQtQtQtQtQtQt.a.c.cbpaM#V#XaDbq#XbqbrbabsbtQtQtQtQtQtQtQtQtQtQtQtQtQtQtQtQtQtQtQtQtQtQtQt",
"QtQtQtQtQtQtQtQtQtQtQtQtQtQtQtQtQtQtQtQtQtQtQtQtQtQtQtQtbubvbwbxbybzbAbBbCbDbE.aQtQtQtQtQtQtQtQtQtQtQtQtQtQtQtQtQtQtQtQtQtQtQtQt",
"QtQtQtQtQtQtQtQtQtQtQtQtQtQtQtQtQtQtQtQtQtQtQtQtQtQtQtQtQtQtQtQtQtQtQtQtQtQtQtQtQtQtQtQtQtQtQtQtQtQtQtQtQtQtQtQtQtQtQtQtQtQtQtQt",
"QtQtQtQtQtQtQtQtQtQtQtQtQtQtQtQtQtQtQtQtQtQtQtQtQtQtQtQtQtQtQtQtQtQtQtQtQtQtQtQtQtQtQtQtQtQtQtQtQtQtQtQtQtQtQtQtQtQtQtQtQtQtQtQt",
"QtQtQtQtQtQtQtQtQtQtQtQtQtQtQtQtQtQtQtQtQtQtQtQtQtQtQtQtQtQtQtQtQtQtQtQtQtQtQtQtQtQtQtQtQtQtQtQtQtQtQtQtQtQtQtQtQtQtQtQtQtQtQtQt",
"QtQtQtQtQtQtQtQtQtQtQtQtQtQtQtQtQtQtQtQtQtQtQtQtQtQtQtQtQtQtQtQtQtQtQtQtQtQtQtQtQtQtQtQtQtQtQtQtQtQtQtQtQtQtQtQtQtQtQtQtQtQtQtQt",
"QtQtQtQtQtQtQtQtQtQtQtQtQtQtQtQtQtQtQtQtQtQtQtQtQtQtQtQtQtQtQtQtQtQtQtQtQtQtQtQtQtQtQtQtQtQtQtQtQtQtQtQtQtQtQtQtQtQtQtQtQtQtQtQt",
"QtQtQtQtQtQtQtQtQtQtQtQtQtQtQtQtQtQtQtQtQtQtQtQtQtQtQtQtQtQtQtQtQtQtQtQtQtQtQtQtQtQtQtQtQtQtQtQtQtQtQtQtQtQtQtQtQtQtQtQtQtQtQtQt",
"QtQtQtQtQtQtQtQtQtQtQtQtQtQtQtQtQtQtQtQtQtQtQtQtQtQtQtQtQtQtQtQtQtQtQtQtQtQtQtQtQtQtQtQtQtQtQtQtQtQtQtQtQtQtQtQtQtQtQtQtQtQtQtQt",
"QtQtQtQtQtQtQtQtQtQtQtQtQtQtQtQtQtQtQtQtQtQtQtQtQtQtQtQtQtQtQtQtQtQtQtQtQtQtQtQtQtQtQtQtQtQtQtQtQtQtQtQtQtQtQtQtQtQtQtQtQtQtQtQt",
"QtQtQtQtQtQtQtQtQtQtQtQtQtQtQtQtQtQtQtQtQtQtQtQtQtQtQtQtQtQtQtQtQtQtQtQtQtQtQtQtQtQtQtQtQtQtQtQtQtQtQtQtQtQtQtQtQtQtQtQtQtQtQtQt",
"QtQtQtQtQtQtQtQtQtQtQtQtQtQtQtQtQtQtQtQtQtQtQtQtQtQtQtQtQtQtQtQtQtQtQtQtQtQtQtQtQtQtQtQtQtQtQtQtQtQtQtQtQtQtQtQtQtQtQtQtQtQtQtQt",
"QtQtQtQtQtQtQtQtQtQtQtQtQtQtQtQtQtQtQtQtQtQtQtQtQtQtQtQtQtQtQtQtQtQtQtQtQtQtQtQtQtQtQtQtQtQtQtQtQtQtQtQtQtQtQtQtQtQtQtQtQtQtQtQt",
"QtQtQtQtQtQtQtQtQtQtQtQtQtQtQtQtQtQtQtQtQtQtQtQtQtQtQtQtQtQtQtQtQtQtQtQtQtQtQtQtQtQtQtQtQtQtQtQtQtQtQtQtQtQtQtQtQtQtQtQtQtQtQtQt",
"QtQtQtQtQtQtQtQtQtQtQtQtQtQtQtQtQtQtQtQtQtQtQtQtQtQtQtQtQtQtQtQtQtQtQtQtQtQtQtQtQtQtQtQtQtQtQtQtQtQtQtQtQtQtQtQtQtQtQtQtQtQtQtQt"};
