/* XPM */
static char *dummy[]={
"64 64 277 2",
"Qt c None",
"#x c #fdf7f7",
".H c #fffefe",
"aK c #ffffff",
"#n c #fdf7f7",
"#K c #ffffff",
"#g c #fdf3f3",
".8 c #fefcfc",
"bE c #fefdfd",
"bV c #feffff",
".c c #fffefe",
".n c #ffffff",
"bc c #f9f6f4",
".h c #fffdfd",
".o c #fffefe",
"#Q c #ffffff",
"aw c #feffff",
".w c #fffefe",
"#L c #ffffff",
".s c #ffffff",
".7 c #fdf3f3",
"#Z c #fefefe",
".W c #fffbfb",
"b6 c #f0ad7f",
"ab c #fdb9a0",
"ci c #ad8575",
"cs c #f4e586",
"bU c #e4876a",
"aj c #fcb094",
"cj c #ac7062",
"cr c #f8e562",
".i c #e47c7a",
"a6 c #ea3018",
"ak c #eb5c50",
"bK c #efda67",
"av c #fca789",
"bu c #7e3c1a",
".y c #cd0b06",
".G c #d32823",
".q c #e16d6a",
".e c #e57e7c",
".Y c #eb9e9c",
"ck c #ee9256",
"cq c #fce24e",
"bD c #f1dc5d",
"aJ c #fc9e7c",
"bL c #732f13",
".E c #ce0c07",
".V c #ce0d08",
"#0 c #e32816",
"ch c #eed952",
"cp c #fbdf3a",
"cl c #fcdf3b",
"bt c #f0da4e",
"aV c #f2de7e",
"aW c #8f3c16",
"#o c #c20a05",
".d c #cf140f",
"ac c #e32816",
"co c #f9dc26",
"cm c #fbdc27",
"bk c #e9d13c",
"a5 c #f2dd7d",
"a3 c #0a0601",
"aT c #1e1303",
".R c #420602",
".I c #570201",
"bG c #643613",
"b7 c #732f13",
"aL c #7a3815",
"aX c #8b3916",
"#s c #8f3e15",
".6 c #930000",
"#m c #9c0000",
"bW c #a13514",
".2 c #a43814",
"aP c #a44c15",
"ax c #a84317",
"al c #af0000",
"ae c #b10000",
"ay c #b20101",
".r c #ba1d1c",
".9 c #c50905",
"#c c #c52715",
"#f c #c60000",
"aN c #c65618",
".A c #c70100",
".U c #c70a05",
".P c #c70a06",
".k c #c82f2c",
"#2 c #c90a05",
"#y c #ca0a05",
".D c #ca7750",
".v c #cb0905",
"#S c #cb0a06",
".X c #cb201c",
"#J c #cc0908",
".b c #cd0b06",
"#1 c #cd0c07",
".m c #ce0b06",
".B c #ce0c07",
".j c #ce0d08",
"az c #ce0e09",
"ad c #ce130e",
".M c #ce140f",
".f c #d11c18",
".J c #d11d19",
".O c #d11f1b",
".l c #d12a26",
"#z c #d20f08",
".a c #d42b26",
"#l c #d61f11",
"#w c #d70000",
".p c #d83e3a",
"b8 c #d93516",
".x c #da4b48",
"#M c #db0b03",
"#h c #dc2e17",
"a7 c #dc5b19",
"bQ c #dd3b17",
"bH c #dd4217",
"bI c #de3e17",
"bP c #df5f1d",
"ca c #df621d",
"#O c #df9224",
"bS c #e04318",
"bR c #e04418",
"bT c #e04518",
"#p c #e12716",
"#i c #e12a16",
"b3 c #e14a19",
"#t c #e23d17",
"a1 c #e2c708",
".z c #e32816",
".Z c #e32a18",
"aM c #e33417",
"#a c #e42816",
"#d c #e42f1d",
"#e c #e4310d",
"bN c #e52816",
"#3 c #e52a16",
".5 c #e53524",
"cb c #e55d1c",
"b5 c #e5701f",
".0 c #e62715",
"am c #e68582",
"#8 c #e69723",
"bl c #e73017",
"b2 c #e89122",
"bX c #e92615",
"#k c #ea2616",
".T c #ea5c4f",
"#q c #ea6053",
"bv c #eb2115",
".L c #eb2215",
"#b c #eb2a16",
".t c #eb6659",
".Q c #ec2215",
"bd c #ec3218",
".N c #ec6c60",
"bF c #ed2416",
"bw c #ed2616",
"bM c #ed2c16",
"cc c #ed7220",
"bA c #edb80c",
"aO c #ee2d17",
"#U c #ee3217",
"bC c #eed431",
"## c #ef2f17",
".S c #ef3017",
".3 c #ef3117",
"bm c #ef4419",
"aA c #ef621a",
"b4 c #ef7520",
"ar c #efa33d",
"af c #f09e22",
"bz c #f0d513",
"bb c #f0d969",
"bY c #f15319",
"#T c #f15519",
".1 c #f16230",
"#C c #f1641a",
"#X c #f19f22",
"#E c #f29f21",
"#W c #f2a120",
"bJ c #f2d00e",
"cg c #f2d114",
"bq c #f2d814",
"#. c #f3631a",
".C c #f3641b",
".K c #f3651d",
"#6 c #f39f21",
"aY c #f3a021",
"#9 c #f3b411",
"a9 c #f3b90a",
"a. c #f3d110",
"aZ c #f3d312",
"bs c #f3d432",
"an c #f3d914",
"aS c #f3f3f3",
"#5 c #f4711d",
"bB c #f4d110",
"ai c #f4d412",
"cn c #f4d814",
"aR c #f4d914",
"aH c #f4f3f3",
"a0 c #f5da14",
"#B c #f6641b",
"aB c #f6661c",
".g c #f6d3d2",
".F c #f6d4d3",
"bj c #f6d533",
"b1 c #f6db15",
"aq c #f6de39",
"b. c #f6df41",
"#j c #f7671c",
"#P c #f77a52",
"a4 c #f7d534",
"cf c #f7d813",
"aU c #f7db37",
".u c #f7dbdb",
"aI c #f7dd38",
"#I c #f8621a",
"#r c #f8681c",
"#H c #f8791e",
"b9 c #f8b909",
"ag c #f8ca0c",
"aF c #f8dd17",
"c# c #f8de17",
"bg c #f8de18",
"bp c #f8df19",
"by c #f8e01a",
"#4 c #f9681b",
"#N c #f9681c",
"#u c #f99a21",
"a# c #f9a11f",
"#D c #f9a61d",
"bf c #f9dc16",
".# c #f9dfdf",
"a2 c #f9e01a",
"#R c #f9e2e2",
".4 c #fa681b",
"au c #fa6a1b",
"aa c #fa6b23",
"a8 c #fa6c1b",
"#v c #fa9f1f",
"#F c #faa11e",
"ah c #fadd17",
"#7 c #fadd18",
"ap c #fade18",
"bn c #fade19",
"bo c #fadf19",
"bx c #fae019",
"aC c #fae119",
"ao c #fae219",
"at c #faf7f3",
"bi c #faf8f3",
"ba c #fafdfd",
"#A c #fb681b",
"#Y c #fb8459",
"#G c #fb9c1f",
"#V c #fb9c20",
"cd c #fbd813",
"bZ c #fbd914",
"br c #fbda15",
"aD c #fbdb16",
"b0 c #fbdb17",
"ce c #fbdc17",
"bO c #fbdc18",
"aE c #fbe219",
"aQ c #fbe319",
"b# c #fbe447",
"aG c #fbe554",
"as c #fbe555",
"bh c #fbe654",
"be c #fcb70d",
"c. c #fcda15",
"QtQtQtQtQtQtQtQtQtQtQtQtQtQtQtQtQtQtQtQtQtQtQtQtQtQtQtQtQtQtQtQtQtQtQtQtQtQtQtQtQtQtQtQtQtQtQtQtQtQtQtQtQtQtQtQtQtQtQtQtQtQtQtQt",
"QtQtQtQtQtQtQtQtQtQtQtQtQtQtQtQtQtQtQtQtQtQtQtQtQtQtQtQtQtQtQtQtQtQtQtQtQtQtQtQtQtQtQtQtQtQtQtQtQtQtQtQtQtQtQtQtQtQtQtQtQtQtQtQt",
"QtQtQtQtQtQtQtQtQtQtQtQtQtQtQtQtQtQtQtQtQtQtQtQtQtQtQtQtQtQtQtQtQtQtQtQtQtQtQtQtQtQtQtQtQtQtQtQtQtQtQtQtQtQtQtQtQtQtQtQtQtQtQtQt",
"QtQtQtQtQtQtQtQtQtQtQtQtQtQtQtQtQtQtQtQtQtQtQtQtQtQtQtQtQtQtQtQtQtQtQtQtQtQtQtQtQtQtQtQtQtQtQtQtQtQtQtQtQtQtQtQtQtQtQtQtQtQtQtQt",
"QtQtQtQtQtQtQtQtQtQtQtQtQtQtQtQtQtQtQtQtQtQtQtQtQtQtQtQtQtQtQtQtQtQtQtQtQtQtQtQtQtQtQtQtQtQtQtQtQtQtQtQtQtQtQtQtQtQtQtQtQtQtQtQt",
"QtQtQtQtQtQtQtQtQtQtQtQtQtQtQtQtQtQtQtQtQtQtQtQtQtQtQtQtQtQtQtQtQtQtQtQtQtQtQtQtQtQtQtQtQtQtQtQtQtQtQtQtQtQtQtQtQtQtQtQtQtQtQtQt",
"QtQtQtQtQtQtQtQtQtQtQtQtQtQtQtQtQtQtQtQtQtQtQtQtQtQtQtQtQtQtQtQtQtQtQtQtQtQtQtQtQtQtQtQtQtQtQtQtQtQtQtQtQtQtQtQtQtQtQtQtQtQtQtQt",
"QtQtQtQtQtQtQtQtQtQtQtQtQtQtQtQtQtQtQtQtQtQtQtQtQtQtQtQtQtQtQtQtQtQtQtQtQtQtQtQtQtQtQtQtQtQtQtQtQtQtQtQtQtQtQtQtQtQtQtQtQtQtQtQt",
"QtQtQtQtQtQtQtQtQtQtQtQtQtQtQtQtQtQtQtQtQtQtQtQtQtQtQtQtQtQtQtQtQtQtQtQtQtQtQtQtQtQtQtQtQtQtQtQtQtQtQtQtQtQtQtQtQtQtQtQtQtQtQtQt",
"QtQtQtQtQtQtQtQtQtQtQtQtQtQtQtQtQtQtQtQtQtQtQtQtQtQtQtQtQtQtQtQtQtQtQtQtQtQtQtQtQtQtQtQtQtQtQtQtQtQtQtQtQtQtQtQtQtQtQtQtQtQtQtQt",
"QtQtQtQtQtQtQtQtQtQtQtQtQtQtQtQtQtQtQtQtQtQtQtQtQtQtQtQtQtQtQtQtQtQtQtQtQtQtQtQtQtQtQtQtQtQtQtQtQtQtQtQtQtQtQtQtQtQtQtQtQtQtQtQt",
"QtQtQtQtQtQtQtQtQtQtQtQtQtQtQtQtQtQtQtQtQtQtQtQtQtQtQtQtQtQtQtQtQtQtQtQtQtQtQtQtQtQtQtQtQtQtQtQtQtQtQtQtQtQtQtQtQtQtQtQtQtQtQtQt",
"QtQtQtQtQtQtQtQtQtQtQtQtQtQtQtQtQtQtQtQtQtQtQtQtQtQtQtQtQtQtQtQtQtQtQtQtQtQtQtQtQtQtQtQtQtQtQtQtQtQtQtQtQtQtQtQtQtQtQtQtQtQtQtQt",
"QtQtQtQtQtQtQtQtQtQtQtQtQtQtQtQtQtQtQtQtQtQtQtQtQtQtQtQtQtQtQtQtQtQtQtQtQtQtQtQtQtQtQtQtQtQtQtQtQtQtQtQtQtQtQtQtQtQtQtQtQtQtQtQt",
"QtQtQtQtQtQtQtQtQtQtQtQtQtQtQtQtQtQtQtQtQtQtQtQtQtQtQtQtQtQtQtQtQtQtQtQtQtQtQtQtQtQtQtQtQtQtQtQtQtQtQtQtQtQtQtQtQtQtQtQtQtQtQtQt",
"QtQtQtQtQtQtQtQtQtQtQtQtQtQtQtQtQtQtQtQtQtQtQtQtQtQtQtQtQtQtQtQt.#QtQtQtQtQtQtQtQtQtQtQtQtQtQtQtQtQtQtQtQtQtQtQtQtQtQtQtQtQtQtQt",
"QtQtQtQtQtQtQtQtQtQtQtQtQtQtQtQtQtQtQtQtQtQtQtQtQtQt.aQtQtQtQtQt.b.cQtQtQtQtQtQtQtQtQtQtQtQtQtQtQtQtQtQtQtQtQtQtQtQtQtQtQtQtQtQt",
"QtQtQtQtQtQtQtQtQtQtQtQtQtQtQtQtQtQtQtQtQtQtQtQtQtQt.bQtQtQtQtQt.d.eQtQtQtQt.f.gQtQtQtQtQtQtQtQtQtQtQtQtQtQtQtQtQtQtQtQtQtQtQtQt",
"QtQtQtQtQtQtQtQtQtQtQtQtQtQtQtQtQtQtQtQtQtQtQtQtQt.h.bQt.bQtQtQt.i.bQtQtQtQt.f.jQtQtQtQtQtQtQtQtQtQtQtQtQtQtQtQtQtQtQtQtQtQtQtQt",
"QtQtQtQtQtQtQtQtQtQtQtQtQtQtQtQtQtQtQtQtQtQtQt.kQt.l.m.nQtQtQtQt.o.p.hQtQtQt.q.jQtQtQtQtQtQtQtQtQtQtQtQtQtQtQtQtQtQtQtQtQtQtQtQt",
"QtQtQtQtQtQtQtQtQtQtQtQtQtQtQtQtQtQtQtQtQtQtQtQt.r.b.b.sQt.t.uQtQt.b.vQtQtQt.n.bQtQtQtQtQtQtQtQtQtQtQtQtQtQtQtQtQtQtQtQtQtQtQtQt",
"QtQtQtQtQtQtQtQtQtQtQtQtQtQtQtQtQtQtQtQt.bQtQtQt.w.x.a.yQt.z.AQt.o.B.C.DQtQtQt.EQt.FQtQtQtQtQtQtQtQtQtQtQtQtQtQtQtQtQtQtQtQtQtQt",
"QtQtQtQtQtQtQtQtQtQtQtQtQtQtQtQtQtQtQtQtQt.GQtQt.H.I.J.KQt.L.zQt.M.N.b.C.bQtQt.o.B.OQtQtQtQtQtQtQtQtQtQtQtQtQtQtQtQtQtQtQtQtQtQt",
"QtQtQtQtQtQtQtQtQtQtQtQtQtQtQtQtQtQtQtQtQtQt.PQtQt.Q.R.CQt.z.z.S.z.T.U.b.b.VQt.W.X.YQtQtQtQtQtQtQtQtQtQtQtQtQtQtQtQtQtQtQtQtQtQt",
"QtQtQtQtQtQtQtQtQtQtQtQtQtQtQtQtQtQtQtQtQtQt.y.bQt.Z.Q.0.1.Q.2.3.z.z.4.z.b.5Qt.Z.6.7QtQtQtQtQtQtQtQtQtQtQtQtQtQtQtQtQtQtQtQtQtQt",
"QtQtQtQtQtQtQtQtQtQtQtQtQtQtQtQtQtQtQtQtQtQt.8.9.b.z.z.z.Q.Q#.###a#b.4#c#d#a#e#f.U.oQtQtQtQtQtQtQtQtQtQtQtQtQtQtQtQtQtQtQtQtQtQt",
"QtQtQtQtQtQtQtQtQtQtQtQtQtQtQtQtQtQtQtQtQt.b#g.b.b#h.C.Q.z#i.4#j.C.C.C.C#k#..C#l#m#nQtQtQtQtQtQtQtQtQtQtQtQtQtQtQtQtQtQtQtQtQtQt",
"QtQtQtQtQtQtQtQtQtQtQtQtQtQtQtQtQtQtQtQtQtQt#o#p#q#a#r#s.Q#t.S#u.C.C.C.C.4#.#v#w#mQtQtQtQtQtQtQtQtQtQtQtQtQtQtQtQtQtQtQtQtQtQtQt",
"QtQtQtQtQtQtQtQtQtQtQtQtQtQtQtQtQtQtQtQtQt#x.b#y#z.z#A.4#a#B#C#D.C#E#.#j#F#G#H#I#J#KQtQtQtQtQtQtQtQtQtQtQtQtQtQtQtQtQtQtQtQtQtQt",
"QtQtQtQtQtQtQtQtQtQtQtQtQtQtQtQtQtQtQtQtQt#L.b.b#M.z#N.4.4#j#O#E#D#E#E#E#F#F.C.4#P#QQtQtQtQtQtQtQtQtQtQtQtQtQtQtQtQtQtQtQtQtQtQt",
"QtQtQtQtQtQtQtQtQtQtQtQtQtQtQtQtQtQtQt.bQt#R#S.b#T.z#U#A#V#j#E#E#E#W#X#E#F#F.C.4#Y#ZQtQtQtQtQtQtQtQtQtQtQtQtQtQtQtQtQtQtQtQtQtQt",
"QtQtQtQtQtQtQtQtQtQtQtQtQtQtQtQtQtQtQt#0QtQt#1#2#3#4.z.4#F#5#6#E#E#7#8#9a.a##F.4aaabQtQtQtQtQtQtQtQtQtQtQtQtQtQtQtQtQtQtQtQtQtQt",
"QtQtQtQtQtQtQtQtQtQtQtQtQtQtQtQtQtQtQtQtacad.bae.z.4.4.4#F#E#E#7af#7agahai#E#6.C#4ajQtQtQtQtQtQtQtQtQtQtQtQtQtQtQtQtQtQtQtQtQtQt",
"QtQtQtQtQtQtQtQtQtQtQtQtQtQtQtQtQtQtQtQtakal.bam.z.4#6#O#E#7anaoapan#7#7aqarasatauavQtQtQtQtQtQtQtQtQtQtQtQtQtQtQtQtQtQtQtQtQtQt",
"QtQtQtQtQtQtQtQtQtQtQtQtQtQtQtQtQtQtQtQtawaxayaz.zaAaB#E#EaCaDaEaEaFaC#7aqaGaHataIaJQtQtQtQtQtQtQtQtQtQtQtQtQtQtQtQtQtQtQtQtQtQt",
"QtQtQtQtQtQtQtQtQtQtQtQtQtQtQtQtQtQtQtQtaKaLaMaNaOaP.C#EaiaEaoaQaoao#7aRasaHaSaTaUaVQtQtQtQtQtQtQtQtQtQtQtQtQtQtQtQtQtQtQtQtQtQt",
"QtQtQtQtQtQtQtQtQtQtQtQtQtQtQtQtQtQtQtQtQtaWaXaN.z.C.4aYaZa0a1a2aQao#7anaGaHaSa3a4a5QtQtQtQtQtQtQtQtQtQtQtQtQtQtQtQtQtQtQtQtQtQt",
"QtQtQtQtQtQtQtQtQtQtQtQtQtQtQtQtQtQtQtQtQta6aMa7.za8#F#Ea9a0a0aRanaRananb.b#baata4bbQtQtQtQtQtQtQtQtQtQtQtQtQtQtQtQtQtQtQtQtQtQt",
"QtQtQtQtQtQtQtQtQtQtQtQtQtQtQtQtQtQtQtQtQtbcbd##.z#u#Fbe#EbfaoanbganananananbhbibjbkQtQtQtQtQtQtQtQtQtQtQtQtQtQtQtQtQtQtQtQtQtQt",
"QtQtQtQtQtQtQtQtQtQtQtQtQtQtQtQtQtQtQtQtQtQtbl.Qbm.C#Fbnbo#WbpananaoanananbqanbrbsbtQtQtQtQtQtQtQtQtQtQtQtQtQtQtQtQtQtQtQtQtQtQt",
"QtQtQtQtQtQtQtQtQtQtQtQtQtQtQtQtQtQtQtQtQtQtbubvbw.C.4#FaEbxaEbybzaoananbAananbBbCbDQtQtQtQtQtQtQtQtQtQtQtQtQtQtQtQtQtQtQtQtQtQt",
"QtQtQtQtQtQtQtQtQtQtQtQtQtQtQtQtQtQtQtQtQtQtbE.zbFbG.4#rboaEaQaQaoanananbHbIbIbJbCbKQtQtQtQtQtQtQtQtQtQtQtQtQtQtQtQtQtQtQtQtQtQt",
"QtQtQtQtQtQtQtQtQtQtQtQtQtQtQtQtQtQtQtQtQtQtQtbL.zbMbN#4bO#7aCaoaRaCanbPbQbRbRbSbTbUQtQtQtQtQtQtQtQtQtQtQtQtQtQtQtQtQtQtQtQtQtQt",
"QtQtQtQtQtQtQtQtQtQtQtQtQtQtQtQtQtQtQtQtQtQtQtbVbWbXbY.CbZb0#7aob1anaob2bQb3b4b4b5b6QtQtQtQtQtQtQtQtQtQtQtQtQtQtQtQtQtQtQtQtQtQt",
"QtQtQtQtQtQtQtQtQtQtQtQtQtQtQtQtQtQtQtQtQtQtQtQtb7b8.zb9bxbZ#7aEaEc.boc#cacbccb4b5QtQtQtQtQtQtQtQtQtQtQtQtQtQtQtQtQtQtQtQtQtQtQt",
"QtQtQtQtQtQtQtQtQtQtQtQtQtQtQtQtQtQtQtQtQtQtQtQtQtbV.z.zcdbxaCaEboceaEcecfbZcgchQtQtQtQtQtQtQtQtQtQtQtQtQtQtQtQtQtQtQtQtQtQtQtQt",
"QtQtQtQtQtQtQtQtQtQtQtQtQtQtQtQtQtQtQtQtQtQtQtQtQtQtQtcicjckclcmcncocpcqcrcsbVQtQtQtQtQtQtQtQtQtQtQtQtQtQtQtQtQtQtQtQtQtQtQtQtQt",
"QtQtQtQtQtQtQtQtQtQtQtQtQtQtQtQtQtQtQtQtQtQtQtQtQtQtQtQtQtQtQtQtQtQtQtQtQtQtQtQtQtQtQtQtQtQtQtQtQtQtQtQtQtQtQtQtQtQtQtQtQtQtQtQt",
"QtQtQtQtQtQtQtQtQtQtQtQtQtQtQtQtQtQtQtQtQtQtQtQtQtQtQtQtQtQtQtQtQtQtQtQtQtQtQtQtQtQtQtQtQtQtQtQtQtQtQtQtQtQtQtQtQtQtQtQtQtQtQtQt",
"QtQtQtQtQtQtQtQtQtQtQtQtQtQtQtQtQtQtQtQtQtQtQtQtQtQtQtQtQtQtQtQtQtQtQtQtQtQtQtQtQtQtQtQtQtQtQtQtQtQtQtQtQtQtQtQtQtQtQtQtQtQtQtQt",
"QtQtQtQtQtQtQtQtQtQtQtQtQtQtQtQtQtQtQtQtQtQtQtQtQtQtQtQtQtQtQtQtQtQtQtQtQtQtQtQtQtQtQtQtQtQtQtQtQtQtQtQtQtQtQtQtQtQtQtQtQtQtQtQt",
"QtQtQtQtQtQtQtQtQtQtQtQtQtQtQtQtQtQtQtQtQtQtQtQtQtQtQtQtQtQtQtQtQtQtQtQtQtQtQtQtQtQtQtQtQtQtQtQtQtQtQtQtQtQtQtQtQtQtQtQtQtQtQtQt",
"QtQtQtQtQtQtQtQtQtQtQtQtQtQtQtQtQtQtQtQtQtQtQtQtQtQtQtQtQtQtQtQtQtQtQtQtQtQtQtQtQtQtQtQtQtQtQtQtQtQtQtQtQtQtQtQtQtQtQtQtQtQtQtQt",
"QtQtQtQtQtQtQtQtQtQtQtQtQtQtQtQtQtQtQtQtQtQtQtQtQtQtQtQtQtQtQtQtQtQtQtQtQtQtQtQtQtQtQtQtQtQtQtQtQtQtQtQtQtQtQtQtQtQtQtQtQtQtQtQt",
"QtQtQtQtQtQtQtQtQtQtQtQtQtQtQtQtQtQtQtQtQtQtQtQtQtQtQtQtQtQtQtQtQtQtQtQtQtQtQtQtQtQtQtQtQtQtQtQtQtQtQtQtQtQtQtQtQtQtQtQtQtQtQtQt",
"QtQtQtQtQtQtQtQtQtQtQtQtQtQtQtQtQtQtQtQtQtQtQtQtQtQtQtQtQtQtQtQtQtQtQtQtQtQtQtQtQtQtQtQtQtQtQtQtQtQtQtQtQtQtQtQtQtQtQtQtQtQtQtQt",
"QtQtQtQtQtQtQtQtQtQtQtQtQtQtQtQtQtQtQtQtQtQtQtQtQtQtQtQtQtQtQtQtQtQtQtQtQtQtQtQtQtQtQtQtQtQtQtQtQtQtQtQtQtQtQtQtQtQtQtQtQtQtQtQt",
"QtQtQtQtQtQtQtQtQtQtQtQtQtQtQtQtQtQtQtQtQtQtQtQtQtQtQtQtQtQtQtQtQtQtQtQtQtQtQtQtQtQtQtQtQtQtQtQtQtQtQtQtQtQtQtQtQtQtQtQtQtQtQtQt",
"QtQtQtQtQtQtQtQtQtQtQtQtQtQtQtQtQtQtQtQtQtQtQtQtQtQtQtQtQtQtQtQtQtQtQtQtQtQtQtQtQtQtQtQtQtQtQtQtQtQtQtQtQtQtQtQtQtQtQtQtQtQtQtQt",
"QtQtQtQtQtQtQtQtQtQtQtQtQtQtQtQtQtQtQtQtQtQtQtQtQtQtQtQtQtQtQtQtQtQtQtQtQtQtQtQtQtQtQtQtQtQtQtQtQtQtQtQtQtQtQtQtQtQtQtQtQtQtQtQt",
"QtQtQtQtQtQtQtQtQtQtQtQtQtQtQtQtQtQtQtQtQtQtQtQtQtQtQtQtQtQtQtQtQtQtQtQtQtQtQtQtQtQtQtQtQtQtQtQtQtQtQtQtQtQtQtQtQtQtQtQtQtQtQtQt",
"QtQtQtQtQtQtQtQtQtQtQtQtQtQtQtQtQtQtQtQtQtQtQtQtQtQtQtQtQtQtQtQtQtQtQtQtQtQtQtQtQtQtQtQtQtQtQtQtQtQtQtQtQtQtQtQtQtQtQtQtQtQtQtQt",
"QtQtQtQtQtQtQtQtQtQtQtQtQtQtQtQtQtQtQtQtQtQtQtQtQtQtQtQtQtQtQtQtQtQtQtQtQtQtQtQtQtQtQtQtQtQtQtQtQtQtQtQtQtQtQtQtQtQtQtQtQtQtQtQt",
"QtQtQtQtQtQtQtQtQtQtQtQtQtQtQtQtQtQtQtQtQtQtQtQtQtQtQtQtQtQtQtQtQtQtQtQtQtQtQtQtQtQtQtQtQtQtQtQtQtQtQtQtQtQtQtQtQtQtQtQtQtQtQtQt"};
