/* XPM */
static char *dummy[]={
"64 64 299 2",
"Qt c None",
"#w c #ffffff",
".4 c #fffefe",
"ar c #fefefe",
"aV c #feffff",
".a c #fffefe",
".b c #ffffff",
".s c #fcf2f1",
"bI c #fefefe",
".p c #fffdfd",
".A c #fffefe",
".v c #ffffff",
".U c #fffefe",
".L c #ffffff",
"aq c #fefefe",
".S c #ffffff",
"cr c #f0ad7f",
"aC c #fdb9a0",
"cE c #ad8575",
"cO c #f4e586",
"cg c #e4876a",
"aJ c #fcb094",
"cF c #ac7062",
"cN c #f8e562",
".e c #cd0b06",
"b8 c #efda67",
"aU c #fca789",
"b2 c #9b694f",
".D c #cd0b06",
"ai c #ea6650",
"aK c #eb5c50",
"cG c #ee9256",
"cM c #fce24e",
"b1 c #f1dc5d",
"a6 c #fc9e7c",
".o c #cd0b06",
".t c #cd0c07",
".E c #cf140f",
".k c #d01713",
".c c #d11f1b",
"bf c #db2516",
"#x c #dd5753",
"aE c #e22916",
".h c #eb9e9c",
"cD c #eed952",
".n c #f7d7d6",
".d c #f9dfdf",
".f c #f9e3e3",
"cL c #fbdf3a",
"cH c #fcdf3b",
"bR c #f0da4e",
"be c #f2de7e",
"cK c #f9dc26",
"cI c #fbdc27",
"bH c #e9d13c",
"bq c #f2dd7d",
"bo c #0a0601",
"bc c #1e1303",
"#f c #420602",
".5 c #570201",
"b4 c #643613",
"b9 c #732f13",
"a7 c #7a3815",
"bS c #7b3815",
"bi c #8b3916",
"bh c #8f3c16",
"#X c #8f3e15",
"#L c #960000",
"br c #9b6450",
".T c #9c0000",
"ch c #a13514",
"#q c #a43814",
"b. c #a44c15",
"aW c #a84317",
"#T c #b20000",
".K c #ba1d1c",
"#v c #c40804",
"#A c #c50905",
"#F c #c52715",
"#c c #c60a05",
"a8 c #c65618",
"#I c #c70000",
".X c #c70100",
"#i c #c70a05",
"#d c #c70a06",
".0 c #ca7750",
".O c #cb0905",
".P c #cb0b05",
"#k c #cc0804",
"ac c #cc0908",
"#b c #cc0b06",
"#y c #cd0a06",
".# c #cd0b06",
".R c #cd0c07",
".z c #ce0b06",
".Y c #ce0c07",
".j c #ce0e09",
".9 c #ce140f",
".J c #cf120d",
".l c #cf140f",
".r c #d01713",
"#m c #d11a16",
".6 c #d11d19",
".y c #d12a26",
"#4 c #d20f08",
".u c #d2231e",
".C c #d3241f",
".3 c #d32621",
".g c #d42b26",
"aD c #d52b26",
".x c #d63531",
"#1 c #d70000",
".B c #d83e3a",
"cs c #d93516",
".V c #da4b48",
"ae c #db0b03",
"#M c #dc2e17",
"bt c #dc5b19",
"cc c #dd3b17",
"b5 c #dd4217",
"b6 c #de3e17",
"#u c #df1e09",
"cb c #df5f1d",
"cw c #df621d",
".G c #df6967",
"ag c #df9224",
"ce c #e04318",
"cd c #e04418",
"cf c #e04518",
".2 c #e06b68",
"#U c #e12716",
"#Q c #e12816",
"#N c #e12a16",
"aL c #e13617",
"co c #e14a19",
"#2 c #e22110",
"aj c #e22916",
"#Y c #e23d17",
"bm c #e2c708",
".W c #e32816",
".1 c #e32917",
"#n c #e32a18",
"ad c #e33417",
"#D c #e42816",
"bg c #e42817",
"#G c #e42f1d",
"#H c #e4310d",
".q c #e47c7a",
"c# c #e52816",
"as c #e52a16",
"## c #e53423",
"#t c #e53524",
"cx c #e55d1c",
"cq c #e5701f",
".m c #e57e7c",
".w c #e57f7d",
"#o c #e62715",
"ax c #e69723",
"bJ c #e73017",
"cn c #e89122",
"ci c #e92615",
"#P c #ea2616",
"bs c #ea3018",
"#h c #ea5c4f",
"#V c #ea6053",
"bT c #eb2115",
".8 c #eb2215",
"#E c #eb2a16",
".M c #eb6659",
"#e c #ec2215",
"bA c #ec3218",
"#. c #ec6c60",
"b3 c #ed2416",
"bU c #ed2616",
"c. c #ed2c16",
"cy c #ed7220",
"#a c #ed8c84",
"#j c #eda6a5",
"bY c #edb80c",
"a9 c #ee2d17",
"al c #ee3217",
"b0 c #eed431",
"#C c #ef2f17",
"#g c #ef3017",
"#r c #ef3117",
"bK c #ef4419",
"aX c #ef621a",
"cp c #ef7520",
"aQ c #efa33d",
"#J c #efb0af",
"#R c #efb4ab",
"aF c #f09e22",
"bX c #f0d513",
"bz c #f0d969",
"cj c #f15319",
"ak c #f15519",
"#p c #f16230",
"#7 c #f1641a",
"ao c #f19f22",
"#9 c #f29f21",
"an c #f2a120",
"b7 c #f2d00e",
"cC c #f2d114",
"bO c #f2d814",
"#B c #f3631a",
".Z c #f3641b",
".7 c #f3651d",
"av c #f39f21",
"bj c #f3a021",
"ay c #f3b411",
"bv c #f3b90a",
"az c #f3d110",
"bk c #f3d312",
"bQ c #f3d432",
"aM c #f3d914",
"bb c #f3f3f3",
"au c #f4711d",
"bZ c #f4d110",
"aI c #f4d412",
"cJ c #f4d814",
"ba c #f4d914",
"a4 c #f4f3f3",
"#3 c #f5b3ac",
"bl c #f5da14",
"#6 c #f6641b",
"aY c #f6661c",
"#l c #f6b8b2",
".i c #f6d1d0",
"bG c #f6d533",
"cm c #f6db15",
"aP c #f6de39",
"bw c #f6df41",
"#O c #f7671c",
"ah c #f77a52",
"bp c #f7d534",
"cB c #f7d813",
"bd c #f7db37",
".N c #f7dbdb",
"a5 c #f7dd38",
"ab c #f8621a",
"#W c #f8681c",
"aa c #f8791e",
"ct c #f8b909",
"aG c #f8ca0c",
"a2 c #f8dd17",
".H c #f8dddd",
"cv c #f8de17",
"bD c #f8de18",
".Q c #f8dede",
"bN c #f8df19",
"bW c #f8e01a",
"at c #f9681b",
"af c #f9681c",
"#Z c #f99a21",
"aA c #f9a11f",
"#8 c #f9a61d",
"#S c #f9cfcb",
"#K c #f9d1ce",
"bC c #f9dc16",
"bn c #f9e01a",
".I c #f9e2e2",
"#s c #fa681b",
"aT c #fa6a1b",
"aB c #fa6b23",
"bu c #fa6c1b",
"#0 c #fa9f1f",
"a. c #faa11e",
"aH c #fadd17",
"aw c #fadd18",
"aO c #fade18",
"bL c #fade19",
"bM c #fadf19",
"bV c #fae019",
"aZ c #fae119",
"aN c #fae219",
"aS c #faf7f3",
"bF c #faf8f3",
"by c #fafdfd",
"#5 c #fb681b",
"ap c #fb8459",
"a# c #fb9c1f",
"am c #fb9c20",
"cz c #fbd813",
"ck c #fbd914",
"bP c #fbda15",
"a0 c #fbdb16",
"cl c #fbdb17",
"cA c #fbdc17",
"ca c #fbdc18",
"a1 c #fbe219",
"b# c #fbe319",
"bx c #fbe447",
"a3 c #fbe554",
"aR c #fbe555",
"bE c #fbe654",
"bB c #fcb70d",
"cu c #fcda15",
".F c #fffdfd",
"#z c #fffefe",
"QtQtQtQtQtQtQtQtQtQtQtQtQtQtQtQtQtQtQtQtQtQtQtQtQtQtQtQtQtQtQtQtQtQtQtQtQtQtQtQtQtQtQtQtQtQtQtQtQtQtQtQtQtQtQtQtQtQtQtQtQtQtQtQt",
"QtQtQtQtQtQtQtQtQtQtQtQtQtQtQtQtQtQtQtQtQtQtQtQtQtQtQtQtQtQtQtQtQtQtQtQtQtQtQtQtQtQtQtQtQtQtQtQtQtQtQtQtQtQtQtQtQtQtQtQtQtQtQtQt",
"QtQtQtQtQtQtQtQtQtQtQtQtQtQtQtQtQtQtQtQtQtQtQtQtQtQtQtQtQtQtQtQtQtQtQtQtQtQtQtQtQtQtQtQtQtQtQtQtQtQtQtQtQtQtQtQtQtQtQtQtQtQtQtQt",
"QtQtQtQtQtQtQtQtQtQtQtQtQtQtQtQtQtQtQtQtQtQtQtQtQtQtQtQtQtQtQtQtQtQtQtQtQtQtQtQtQtQtQtQtQtQtQtQtQtQtQtQtQtQtQtQtQtQtQtQtQtQtQtQt",
"QtQtQtQtQtQtQtQtQtQtQtQtQtQtQtQtQtQtQtQtQtQtQtQtQtQtQtQtQtQtQtQtQtQtQtQtQtQtQtQtQtQtQtQtQtQtQtQtQtQtQtQtQtQtQtQtQtQtQtQtQtQtQtQt",
"QtQtQtQtQtQtQtQtQtQtQtQtQtQtQtQtQtQtQtQtQtQtQtQtQtQtQtQtQtQtQtQtQtQtQtQtQtQtQtQtQtQtQtQtQtQtQtQtQtQtQtQtQtQtQtQtQtQtQtQtQtQtQtQt",
"QtQtQtQtQtQtQtQtQtQtQtQtQtQtQtQtQtQtQtQtQtQtQtQtQtQtQtQtQtQtQtQtQtQtQtQtQtQtQtQtQtQtQtQtQtQtQtQtQtQtQtQtQtQtQtQtQtQtQtQtQtQtQtQt",
"QtQtQtQtQtQtQtQtQtQtQtQtQtQtQtQtQtQtQtQtQtQtQtQtQtQtQtQtQtQtQtQtQtQtQtQtQtQtQtQtQtQtQtQtQtQtQtQtQtQtQtQtQtQtQtQtQtQtQtQtQtQtQtQt",
"QtQtQtQtQtQtQtQtQtQtQtQtQtQtQtQtQtQtQtQtQtQtQtQtQtQtQtQtQtQtQtQtQtQtQtQtQtQtQtQtQtQtQtQtQtQtQtQtQtQtQtQtQtQtQtQtQtQtQtQtQtQtQtQt",
"QtQtQtQtQtQtQtQtQtQtQtQtQtQtQtQtQtQtQtQtQtQtQtQtQtQtQtQtQtQtQtQtQtQtQtQtQtQtQtQtQtQtQtQtQtQtQtQtQtQtQtQtQtQtQtQtQtQtQtQtQtQtQtQt",
"QtQtQtQtQtQtQtQtQtQtQtQtQtQtQtQtQtQtQtQtQtQtQtQtQtQtQtQtQtQtQtQtQtQtQtQtQtQtQtQtQtQtQtQtQtQtQtQtQtQtQtQtQtQtQtQtQtQtQtQtQtQtQtQt",
"QtQtQtQtQtQtQtQtQtQtQtQtQtQtQtQtQtQtQtQtQtQtQtQtQtQtQtQtQtQtQtQtQtQtQtQtQtQtQtQtQtQtQtQtQtQtQtQtQtQtQtQtQtQtQtQtQtQtQtQtQtQtQtQt",
"QtQtQtQtQtQtQtQtQtQtQtQtQtQtQtQtQtQtQtQtQtQtQtQtQtQtQtQtQtQtQtQtQtQtQtQtQtQtQtQtQtQtQtQtQtQtQtQtQtQtQtQtQtQtQtQtQtQtQtQtQtQtQtQt",
"QtQtQtQtQtQtQtQtQtQtQtQtQtQtQtQtQtQtQtQtQtQtQtQtQtQtQtQtQtQtQtQtQtQtQtQtQtQtQtQtQtQtQtQtQtQtQtQtQtQtQtQtQtQtQtQtQtQtQtQtQtQtQtQt",
"QtQtQtQtQtQtQtQtQtQtQtQtQtQtQtQtQtQtQtQtQtQtQtQtQtQtQtQtQtQtQtQtQtQtQtQtQtQtQtQtQtQtQtQtQtQtQtQtQtQtQtQtQtQtQtQtQtQtQtQtQtQtQtQt",
"QtQtQtQtQtQtQtQtQtQtQtQtQtQtQtQtQtQtQtQtQtQtQtQtQtQtQtQtQtQtQt.#QtQtQtQtQtQtQtQtQtQtQtQtQtQtQtQtQtQtQtQtQtQtQtQtQtQtQtQtQtQtQtQt",
"QtQtQtQtQtQtQtQtQtQtQtQtQtQtQtQtQtQtQtQtQtQtQtQtQtQtQtQtQtQt.a.#.bQtQtQtQtQtQtQtQtQtQtQtQtQtQtQtQtQtQtQtQtQtQtQtQtQtQtQtQtQtQtQt",
"QtQtQtQtQtQtQtQtQtQtQtQtQtQtQtQtQtQtQtQtQtQtQtQt.#QtQtQtQtQt.c.#.dQtQtQtQtQtQtQtQt.#QtQtQtQtQtQtQtQtQtQtQtQtQtQtQtQtQtQtQtQtQtQt",
"QtQtQtQtQtQtQtQtQtQtQtQtQtQtQtQtQtQtQtQtQtQtQt.e.fQt.gQtQtQt.h.i.#Qt.jQtQtQtQtQtQt.#.kQtQtQtQtQtQtQtQtQtQtQtQtQtQtQtQtQtQtQtQtQt",
"QtQtQtQtQtQtQtQtQtQtQtQtQtQtQtQtQtQtQtQtQtQtQt.#QtQt.#QtQtQtQt.#.l.m.#QtQtQtQt.n.#.#.#QtQtQtQtQtQtQtQtQtQtQtQtQtQtQtQtQtQtQtQtQt",
"QtQtQtQtQtQtQtQtQtQtQtQtQtQtQtQtQtQtQtQtQtQt.oQtQt.p.#Qt.#QtQtQt.q.#.r.sQtQt.t.u.#QtQtQtQtQtQtQtQtQtQtQtQtQtQtQtQtQtQtQtQtQtQtQt",
"QtQtQtQtQtQtQtQtQtQtQtQtQtQtQtQtQtQt.v.wQtQt.xQtQt.y.z.bQtQtQtQt.A.B.C.DQtQt.E.F.G.HQtQtQtQtQtQtQtQtQtQtQtQtQtQtQtQtQtQtQtQtQtQt",
"QtQtQtQtQtQtQtQtQtQtQtQtQtQtQtQt.#.I.J.#.oQtQtQt.K.#.#.LQt.M.NQtQt.#.O.PQtQt.b.Q.R.SQtQtQtQtQtQtQtQtQtQtQtQtQtQtQtQtQtQtQtQtQtQt",
"QtQtQtQtQtQtQtQtQtQtQtQtQtQtQtQt.R.b.b.#.T.aQtQt.U.V.g.DQt.W.XQt.A.Y.Z.0.AQt.b.T.1.LQtQtQtQtQtQtQtQtQtQtQtQtQtQtQtQtQtQtQtQtQtQt",
"QtQtQtQtQtQtQtQtQtQtQtQtQtQtQtQtQtQtQt.v.2.3QtQt.4.5.6.7Qt.8.WQt.9#..#.Z.#Qt.####a.vQtQtQtQtQtQtQtQtQtQtQtQtQtQtQtQtQtQtQtQtQtQt",
"QtQtQtQtQtQtQtQtQtQtQtQtQtQtQtQtQtQtQtQt#b#c#dQtQt#e#f.ZQt.W.W#g.W#h#i.#.#.##j#k#l.bQtQtQtQtQtQtQtQtQtQtQtQtQtQtQtQtQtQtQtQtQtQt",
"QtQtQtQtQtQtQtQtQtQtQtQtQtQtQtQtQtQt.#Qt.##m.#.#Qt#n#e#o#p#e#q#r.W.W#s.W.##t#u#n#v#wQtQtQtQtQtQtQtQtQtQtQtQtQtQtQtQtQtQtQtQtQtQt",
"QtQtQtQtQtQtQtQtQtQtQtQtQtQtQtQtQtQt#x.##y#z.##A.#.W.W.W#e#e#B#C#D#E#s#F#G#D#H#I.#QtQtQtQtQtQtQtQtQtQtQtQtQtQtQtQtQtQtQtQtQtQtQt",
"QtQtQtQtQtQtQtQtQtQtQtQtQtQtQtQtQtQt.b.##J#K#L.#.##M.Z#e.W#N#s#O.Z.Z.Z.Z#P#B.Z#Q.##wQtQtQtQtQtQtQtQtQtQtQtQtQtQtQtQtQtQtQtQtQtQt",
"QtQtQtQtQtQtQtQtQtQtQtQtQtQtQtQtQtQtQt#R.##S#T#U#V#D#W#X#e#Y#g#Z.Z.Z.Z.Z#s#B#0#1.#.bQtQtQtQtQtQtQtQtQtQtQtQtQtQtQtQtQtQtQtQtQtQt",
"QtQtQtQtQtQtQtQtQtQtQtQtQtQtQtQtQtQtQtQtQtQt#2#3#4.W#5#s#D#6#7#8.Z#9#B#Oa.a#aaabac.vQtQtQtQtQtQtQtQtQtQtQtQtQtQtQtQtQtQtQtQtQtQt",
"QtQtQtQtQtQtQtQtQtQtQtQtQtQtQtQtQtQtQtQtQtQtad.Wae.Waf#s#s#Oag#9#8#9#9#9a.a..Z#sah.LQtQtQtQtQtQtQtQtQtQtQtQtQtQtQtQtQtQtQtQtQtQt",
"QtQtQtQtQtQtQtQtQtQtQtQtQtQtQtQtQtQtQtQtQtQtaiajak.Wal#5am#O#9#9#9anao#9a.a..Z#sapaqQtQtQtQtQtQtQtQtQtQtQtQtQtQtQtQtQtQtQtQtQtQt",
"QtQtQtQtQtQtQtQtQtQtQtQtQtQtQtQtQtQtQt.WQtQtarajasat.W#sa.auav#9#9awaxayazaAa.#saBaCQtQtQtQtQtQtQtQtQtQtQtQtQtQtQtQtQtQtQtQtQtQt",
"QtQtQtQtQtQtQtQtQtQtQtQtQtQtQtQtQtQtQtQt.WaDQtaE.W#s#s#sa.#9#9awaFawaGaHaI#9av.ZataJQtQtQtQtQtQtQtQtQtQtQtQtQtQtQtQtQtQtQtQtQtQt",
"QtQtQtQtQtQtQtQtQtQtQtQtQtQtQtQtQtQtQtQtaKaL.a.a.W#savag#9awaMaNaOaMawawaPaQaRaSaTaUQtQtQtQtQtQtQtQtQtQtQtQtQtQtQtQtQtQtQtQtQtQt",
"QtQtQtQtQtQtQtQtQtQtQtQtQtQtQtQtQtQtQtQtaVaWadQt.WaXaY#9#9aZa0a1a1a2aZawaPa3a4aSa5a6QtQtQtQtQtQtQtQtQtQtQtQtQtQtQtQtQtQtQtQtQtQt",
"QtQtQtQtQtQtQtQtQtQtQtQtQtQtQtQtQtQtQt.1Qta7ada8a9b..Z#9aIa1aNb#aNaNawbaaRa4bbbcbdbeQtQtQtQtQtQtQtQtQtQtQtQtQtQtQtQtQtQtQtQtQtQt",
"QtQtQtQtQtQtQtQtQtQtQtQtQtQtQtQtQtQtQtbfbgbhbia8.W.Z#sbjbkblbmbnb#aNawaMa3a4bbbobpbqQtQtQtQtQtQtQtQtQtQtQtQtQtQtQtQtQtQtQtQtQtQt",
"QtQtQtQtQtQtQtQtQtQtQtQtQtQtQtQtQtQtQtQtbrbsadbt.Wbua.#9bvblblbaaMbaaMaMbwbxbyaSbpbzQtQtQtQtQtQtQtQtQtQtQtQtQtQtQtQtQtQtQtQtQtQt",
"QtQtQtQtQtQtQtQtQtQtQtQtQtQtQtQtQtQtQtQtQta7bA#C.W#Za.bB#9bCaNaMbDaMaMaMaMaMbEbFbGbHQtQtQtQtQtQtQtQtQtQtQtQtQtQtQtQtQtQtQtQtQtQt",
"QtQtQtQtQtQtQtQtQtQtQtQtQtQtQtQtQtQtQtQtQtbIbJ#ebK.Za.bLbManbNaMaMaNaMaMaMbOaMbPbQbRQtQtQtQtQtQtQtQtQtQtQtQtQtQtQtQtQtQtQtQtQtQt",
"QtQtQtQtQtQtQtQtQtQtQtQtQtQtQtQtQtQtQtQtQtQtbSbTbU.Z#sa.a1bVa1bWbXaNaMaMbYaMaMbZb0b1QtQtQtQtQtQtQtQtQtQtQtQtQtQtQtQtQtQtQtQtQtQt",
"QtQtQtQtQtQtQtQtQtQtQtQtQtQtQtQtQtQtQtQtQtQtb2.Wb3b4#s#WbMa1b#b#aNaMaMaMb5b6b6b7b0b8QtQtQtQtQtQtQtQtQtQtQtQtQtQtQtQtQtQtQtQtQtQt",
"QtQtQtQtQtQtQtQtQtQtQtQtQtQtQtQtQtQtQtQtQtQtQtb9.Wc.c#atcaawaZaNbaaZaMcbcccdcdcecfcgQtQtQtQtQtQtQtQtQtQtQtQtQtQtQtQtQtQtQtQtQtQt",
"QtQtQtQtQtQtQtQtQtQtQtQtQtQtQtQtQtQtQtQtQtQtQtaVchcicj.ZckclawaNcmaMaNcncccocpcpcqcrQtQtQtQtQtQtQtQtQtQtQtQtQtQtQtQtQtQtQtQtQtQt",
"QtQtQtQtQtQtQtQtQtQtQtQtQtQtQtQtQtQtQtQtQtQtQtQtb9cs.WctbVckawa1a1cubMcvcwcxcycpcqQtQtQtQtQtQtQtQtQtQtQtQtQtQtQtQtQtQtQtQtQtQtQt",
"QtQtQtQtQtQtQtQtQtQtQtQtQtQtQtQtQtQtQtQtQtQtQtQtQtaV.W.WczbVaZa1bMcAa1cAcBckcCcDQtQtQtQtQtQtQtQtQtQtQtQtQtQtQtQtQtQtQtQtQtQtQtQt",
"QtQtQtQtQtQtQtQtQtQtQtQtQtQtQtQtQtQtQtQtQtQtQtQtQtQtQtcEcFcGcHcIcJcKcLcMcNcOaVQtQtQtQtQtQtQtQtQtQtQtQtQtQtQtQtQtQtQtQtQtQtQtQtQt",
"QtQtQtQtQtQtQtQtQtQtQtQtQtQtQtQtQtQtQtQtQtQtQtQtQtQtQtQtQtQtQtQtQtQtQtQtQtQtQtQtQtQtQtQtQtQtQtQtQtQtQtQtQtQtQtQtQtQtQtQtQtQtQtQt",
"QtQtQtQtQtQtQtQtQtQtQtQtQtQtQtQtQtQtQtQtQtQtQtQtQtQtQtQtQtQtQtQtQtQtQtQtQtQtQtQtQtQtQtQtQtQtQtQtQtQtQtQtQtQtQtQtQtQtQtQtQtQtQtQt",
"QtQtQtQtQtQtQtQtQtQtQtQtQtQtQtQtQtQtQtQtQtQtQtQtQtQtQtQtQtQtQtQtQtQtQtQtQtQtQtQtQtQtQtQtQtQtQtQtQtQtQtQtQtQtQtQtQtQtQtQtQtQtQtQt",
"QtQtQtQtQtQtQtQtQtQtQtQtQtQtQtQtQtQtQtQtQtQtQtQtQtQtQtQtQtQtQtQtQtQtQtQtQtQtQtQtQtQtQtQtQtQtQtQtQtQtQtQtQtQtQtQtQtQtQtQtQtQtQtQt",
"QtQtQtQtQtQtQtQtQtQtQtQtQtQtQtQtQtQtQtQtQtQtQtQtQtQtQtQtQtQtQtQtQtQtQtQtQtQtQtQtQtQtQtQtQtQtQtQtQtQtQtQtQtQtQtQtQtQtQtQtQtQtQtQt",
"QtQtQtQtQtQtQtQtQtQtQtQtQtQtQtQtQtQtQtQtQtQtQtQtQtQtQtQtQtQtQtQtQtQtQtQtQtQtQtQtQtQtQtQtQtQtQtQtQtQtQtQtQtQtQtQtQtQtQtQtQtQtQtQt",
"QtQtQtQtQtQtQtQtQtQtQtQtQtQtQtQtQtQtQtQtQtQtQtQtQtQtQtQtQtQtQtQtQtQtQtQtQtQtQtQtQtQtQtQtQtQtQtQtQtQtQtQtQtQtQtQtQtQtQtQtQtQtQtQt",
"QtQtQtQtQtQtQtQtQtQtQtQtQtQtQtQtQtQtQtQtQtQtQtQtQtQtQtQtQtQtQtQtQtQtQtQtQtQtQtQtQtQtQtQtQtQtQtQtQtQtQtQtQtQtQtQtQtQtQtQtQtQtQtQt",
"QtQtQtQtQtQtQtQtQtQtQtQtQtQtQtQtQtQtQtQtQtQtQtQtQtQtQtQtQtQtQtQtQtQtQtQtQtQtQtQtQtQtQtQtQtQtQtQtQtQtQtQtQtQtQtQtQtQtQtQtQtQtQtQt",
"QtQtQtQtQtQtQtQtQtQtQtQtQtQtQtQtQtQtQtQtQtQtQtQtQtQtQtQtQtQtQtQtQtQtQtQtQtQtQtQtQtQtQtQtQtQtQtQtQtQtQtQtQtQtQtQtQtQtQtQtQtQtQtQt",
"QtQtQtQtQtQtQtQtQtQtQtQtQtQtQtQtQtQtQtQtQtQtQtQtQtQtQtQtQtQtQtQtQtQtQtQtQtQtQtQtQtQtQtQtQtQtQtQtQtQtQtQtQtQtQtQtQtQtQtQtQtQtQtQt",
"QtQtQtQtQtQtQtQtQtQtQtQtQtQtQtQtQtQtQtQtQtQtQtQtQtQtQtQtQtQtQtQtQtQtQtQtQtQtQtQtQtQtQtQtQtQtQtQtQtQtQtQtQtQtQtQtQtQtQtQtQtQtQtQt",
"QtQtQtQtQtQtQtQtQtQtQtQtQtQtQtQtQtQtQtQtQtQtQtQtQtQtQtQtQtQtQtQtQtQtQtQtQtQtQtQtQtQtQtQtQtQtQtQtQtQtQtQtQtQtQtQtQtQtQtQtQtQtQtQt",
"QtQtQtQtQtQtQtQtQtQtQtQtQtQtQtQtQtQtQtQtQtQtQtQtQtQtQtQtQtQtQtQtQtQtQtQtQtQtQtQtQtQtQtQtQtQtQtQtQtQtQtQtQtQtQtQtQtQtQtQtQtQtQtQt",
"QtQtQtQtQtQtQtQtQtQtQtQtQtQtQtQtQtQtQtQtQtQtQtQtQtQtQtQtQtQtQtQtQtQtQtQtQtQtQtQtQtQtQtQtQtQtQtQtQtQtQtQtQtQtQtQtQtQtQtQtQtQtQtQt"};
