/* XPM */
static char *dummy[]={
"64 64 277 2",
"Qt c None",
"#K c #fdf7f7",
".N c #fffefe",
"aV c #ffffff",
"#g c #fdf7f7",
"#x c #ffffff",
"#n c #fdf3f3",
"#f c #fefcfc",
"bK c #fefdfd",
"b6 c #feffff",
".a c #fffefe",
".n c #ffffff",
"bk c #f9f6f4",
".j c #fffdfd",
".m c #fffefe",
"#L c #ffffff",
"aJ c #feffff",
".F c #fffefe",
"#Q c #ffffff",
".u c #ffffff",
".Z c #fdf3f3",
"#R c #fefefe",
".R c #fffbfb",
"bV c #f0ad7f",
"#0 c #fdb9a0",
"cs c #ad8575",
"ci c #f4e586",
"bL c #e4876a",
"ac c #fcb094",
"cr c #ac7062",
"cj c #f8e562",
".i c #e47c7a",
"bb c #ea3018",
"av c #eb5c50",
"bE c #efda67",
"ak c #fca789",
"bD c #7e3c1a",
".D c #cd0b06",
".O c #d32823",
".k c #e16d6a",
".f c #e57e7c",
".P c #eb9e9c",
"cq c #ee9256",
"ck c #fce24e",
"bu c #f1dc5d",
"aw c #fc9e7c",
"bU c #732f13",
".x c #ce0c07",
".S c #ce0d08",
"ab c #e32816",
"cd c #eed952",
"cl c #fbdf3a",
"cp c #fcdf3b",
"bl c #f0da4e",
"aK c #f2de7e",
"a5 c #8f3c16",
"#w c #c20a05",
".g c #cf140f",
"aj c #e32816",
"cm c #f9dc26",
"co c #fbdc27",
"bc c #e9d13c",
"aW c #f2dd7d",
"aY c #0a0601",
"aM c #1e1303",
".W c #420602",
".M c #570201",
"bI c #643613",
"cc c #732f13",
"aU c #7a3815",
"a4 c #8b3916",
"#s c #8f3e15",
".0 c #930000",
"#h c #9c0000",
"b5 c #a13514",
".5 c #a43814",
"aQ c #a44c15",
"aI c #a84317",
"au c #af0000",
"ah c #b10000",
"aH c #b20101",
".v c #ba1d1c",
"#e c #c50905",
"#a c #c52715",
".8 c #c60000",
"aS c #c65618",
".B c #c70100",
".T c #c70a05",
".Y c #c70a06",
".q c #c82f2c",
"a# c #c90a05",
"#J c #ca0a05",
".y c #ca7750",
".r c #cb0905",
"#Y c #cb0a06",
".Q c #cb201c",
"#y c #cc0908",
".b c #cd0b06",
"aa c #cd0c07",
".o c #ce0b06",
".A c #ce0c07",
".h c #ce0d08",
"aG c #ce0e09",
"ai c #ce130e",
".I c #ce140f",
".e c #d11c18",
".L c #d11d19",
".G c #d11f1b",
".p c #d12a26",
"#I c #d20f08",
".c c #d42b26",
"#i c #d61f11",
"#o c #d70000",
".l c #d83e3a",
"cb c #d93516",
".E c #da4b48",
"#P c #db0b03",
"#m c #dc2e17",
"ba c #dc5b19",
"bP c #dd3b17",
"bH c #dd4217",
"bG c #de3e17",
"bQ c #df5f1d",
"b9 c #df621d",
"#N c #df9224",
"bN c #e04318",
"bO c #e04418",
"bM c #e04518",
"#v c #e12716",
"#l c #e12a16",
"bY c #e14a19",
"#r c #e23d17",
"a0 c #e2c708",
".C c #e32816",
".1 c #e32a18",
"aT c #e33417",
"#. c #e42816",
"## c #e42f1d",
".9 c #e4310d",
"bS c #e52816",
"a. c #e52a16",
".2 c #e53524",
"b8 c #e55d1c",
"bW c #e5701f",
".7 c #e62715",
"at c #e68582",
"#5 c #e69723",
"bt c #e73017",
"bZ c #e89122",
"b4 c #e92615",
"#j c #ea2616",
".U c #ea5c4f",
"#u c #ea6053",
"bC c #eb2115",
".J c #eb2215",
"#b c #eb2a16",
".t c #eb6659",
".X c #ec2215",
"bj c #ec3218",
".H c #ec6c60",
"bJ c #ed2416",
"bB c #ed2616",
"bT c #ed2c16",
"b7 c #ed7220",
"bx c #edb80c",
"aR c #ee2d17",
"#W c #ee3217",
"bv c #eed431",
"#c c #ef2f17",
".V c #ef3017",
".4 c #ef3117",
"bs c #ef4419",
"aF c #ef621a",
"bX c #ef7520",
"ao c #efa33d",
"ag c #f09e22",
"by c #f0d513",
"a6 c #f0d969",
"b3 c #f15319",
"#X c #f15519",
".6 c #f16230",
"#F c #f1641a",
"#T c #f19f22",
"#D c #f29f21",
"#U c #f2a120",
"bF c #f2d00e",
"ce c #f2d114",
"bo c #f2d814",
"#d c #f3631a",
".z c #f3641b",
".K c #f3651d",
"#7 c #f39f21",
"a3 c #f3a021",
"#4 c #f3b411",
"b. c #f3b90a",
"#3 c #f3d110",
"a2 c #f3d312",
"bm c #f3d432",
"aq c #f3d914",
"aN c #f3f3f3",
"#8 c #f4711d",
"bw c #f4d110",
"ad c #f4d412",
"cn c #f4d814",
"aO c #f4d914",
"ay c #f4f3f3",
"a1 c #f5da14",
"#G c #f6641b",
"aE c #f6661c",
".d c #f6d3d2",
".w c #f6d4d3",
"bd c #f6d533",
"b0 c #f6db15",
"ap c #f6de39",
"a9 c #f6df41",
"#k c #f7671c",
"#M c #f77a52",
"aX c #f7d534",
"cf c #f7d813",
"aL c #f7db37",
".s c #f7dbdb",
"ax c #f7dd38",
"#z c #f8621a",
"#t c #f8681c",
"#A c #f8791e",
"ca c #f8b909",
"af c #f8ca0c",
"aB c #f8dd17",
"c. c #f8de17",
"bg c #f8de18",
"bp c #f8df19",
"bz c #f8e01a",
"#9 c #f9681b",
"#O c #f9681c",
"#q c #f99a21",
"#2 c #f9a11f",
"#E c #f9a61d",
"bh c #f9dc16",
".# c #f9dfdf",
"aZ c #f9e01a",
"#Z c #f9e2e2",
".3 c #fa681b",
"al c #fa6a1b",
"#1 c #fa6b23",
"b# c #fa6c1b",
"#p c #fa9f1f",
"#C c #faa11e",
"ae c #fadd17",
"#6 c #fadd18",
"ar c #fade18",
"br c #fade19",
"bq c #fadf19",
"bA c #fae019",
"aA c #fae119",
"as c #fae219",
"am c #faf7f3",
"be c #faf8f3",
"a7 c #fafdfd",
"#H c #fb681b",
"#S c #fb8459",
"#B c #fb9c1f",
"#V c #fb9c20",
"ch c #fbd813",
"b2 c #fbd914",
"bn c #fbda15",
"aD c #fbdb16",
"b1 c #fbdb17",
"cg c #fbdc17",
"bR c #fbdc18",
"aC c #fbe219",
"aP c #fbe319",
"a8 c #fbe447",
"az c #fbe554",
"an c #fbe555",
"bf c #fbe654",
"bi c #fcb70d",
"c# c #fcda15",
"QtQtQtQtQtQtQtQtQtQtQtQtQtQtQtQtQtQtQtQtQtQtQtQtQtQtQtQtQtQtQtQtQtQtQtQtQtQtQtQtQtQtQtQtQtQtQtQtQtQtQtQtQtQtQtQtQtQtQtQtQtQtQtQt",
"QtQtQtQtQtQtQtQtQtQtQtQtQtQtQtQtQtQtQtQtQtQtQtQtQtQtQtQtQtQtQtQtQtQtQtQtQtQtQtQtQtQtQtQtQtQtQtQtQtQtQtQtQtQtQtQtQtQtQtQtQtQtQtQt",
"QtQtQtQtQtQtQtQtQtQtQtQtQtQtQtQtQtQtQtQtQtQtQtQtQtQtQtQtQtQtQtQtQtQtQtQtQtQtQtQtQtQtQtQtQtQtQtQtQtQtQtQtQtQtQtQtQtQtQtQtQtQtQtQt",
"QtQtQtQtQtQtQtQtQtQtQtQtQtQtQtQtQtQtQtQtQtQtQtQtQtQtQtQtQtQtQtQtQtQtQtQtQtQtQtQtQtQtQtQtQtQtQtQtQtQtQtQtQtQtQtQtQtQtQtQtQtQtQtQt",
"QtQtQtQtQtQtQtQtQtQtQtQtQtQtQtQtQtQtQtQtQtQtQtQtQtQtQtQtQtQtQtQtQtQtQtQtQtQtQtQtQtQtQtQtQtQtQtQtQtQtQtQtQtQtQtQtQtQtQtQtQtQtQtQt",
"QtQtQtQtQtQtQtQtQtQtQtQtQtQtQtQtQtQtQtQtQtQtQtQtQtQtQtQtQtQtQtQtQtQtQtQtQtQtQtQtQtQtQtQtQtQtQtQtQtQtQtQtQtQtQtQtQtQtQtQtQtQtQtQt",
"QtQtQtQtQtQtQtQtQtQtQtQtQtQtQtQtQtQtQtQtQtQtQtQtQtQtQtQtQtQtQtQtQtQtQtQtQtQtQtQtQtQtQtQtQtQtQtQtQtQtQtQtQtQtQtQtQtQtQtQtQtQtQtQt",
"QtQtQtQtQtQtQtQtQtQtQtQtQtQtQtQtQtQtQtQtQtQtQtQtQtQtQtQtQtQtQtQtQtQtQtQtQtQtQtQtQtQtQtQtQtQtQtQtQtQtQtQtQtQtQtQtQtQtQtQtQtQtQtQt",
"QtQtQtQtQtQtQtQtQtQtQtQtQtQtQtQtQtQtQtQtQtQtQtQtQtQtQtQtQtQtQtQtQtQtQtQtQtQtQtQtQtQtQtQtQtQtQtQtQtQtQtQtQtQtQtQtQtQtQtQtQtQtQtQt",
"QtQtQtQtQtQtQtQtQtQtQtQtQtQtQtQtQtQtQtQtQtQtQtQtQtQtQtQtQtQtQtQtQtQtQtQtQtQtQtQtQtQtQtQtQtQtQtQtQtQtQtQtQtQtQtQtQtQtQtQtQtQtQtQt",
"QtQtQtQtQtQtQtQtQtQtQtQtQtQtQtQtQtQtQtQtQtQtQtQtQtQtQtQtQtQtQtQtQtQtQtQtQtQtQtQtQtQtQtQtQtQtQtQtQtQtQtQtQtQtQtQtQtQtQtQtQtQtQtQt",
"QtQtQtQtQtQtQtQtQtQtQtQtQtQtQtQtQtQtQtQtQtQtQtQtQtQtQtQtQtQtQtQtQtQtQtQtQtQtQtQtQtQtQtQtQtQtQtQtQtQtQtQtQtQtQtQtQtQtQtQtQtQtQtQt",
"QtQtQtQtQtQtQtQtQtQtQtQtQtQtQtQtQtQtQtQtQtQtQtQtQtQtQtQtQtQtQtQtQtQtQtQtQtQtQtQtQtQtQtQtQtQtQtQtQtQtQtQtQtQtQtQtQtQtQtQtQtQtQtQt",
"QtQtQtQtQtQtQtQtQtQtQtQtQtQtQtQtQtQtQtQtQtQtQtQtQtQtQtQtQtQtQtQtQtQtQtQtQtQtQtQtQtQtQtQtQtQtQtQtQtQtQtQtQtQtQtQtQtQtQtQtQtQtQtQt",
"QtQtQtQtQtQtQtQtQtQtQtQtQtQtQtQtQtQtQtQtQtQtQtQtQtQtQtQtQtQtQtQtQtQtQtQtQtQtQtQtQtQtQtQtQtQtQtQtQtQtQtQtQtQtQtQtQtQtQtQtQtQtQtQt",
"QtQtQtQtQtQtQtQtQtQtQtQtQtQtQtQtQtQtQtQtQtQtQtQtQtQtQtQtQtQtQtQtQtQtQtQtQtQtQtQtQtQtQtQtQtQtQtQtQtQtQtQtQtQtQtQtQtQtQtQtQtQtQtQt",
"QtQtQtQtQtQtQtQtQtQtQtQtQtQtQtQtQtQtQtQtQtQtQtQtQtQtQtQt.#QtQtQtQtQtQtQtQtQtQtQtQtQtQtQtQtQtQtQtQtQtQtQtQtQtQtQtQtQtQtQtQtQtQtQt",
"QtQtQtQtQtQtQtQtQtQtQtQtQtQtQtQtQtQtQtQtQtQtQtQtQtQtQt.a.bQtQtQtQtQt.cQtQtQtQtQtQtQtQtQtQtQtQtQtQtQtQtQtQtQtQtQtQtQtQtQtQtQtQtQt",
"QtQtQtQtQtQtQtQtQtQtQtQtQtQtQtQtQtQtQtQtQt.d.eQtQtQtQt.f.gQtQtQtQtQt.bQtQtQtQtQtQtQtQtQtQtQtQtQtQtQtQtQtQtQtQtQtQtQtQtQtQtQtQtQt",
"QtQtQtQtQtQtQtQtQtQtQtQtQtQtQtQtQtQtQtQtQt.h.eQtQtQtQt.b.iQtQtQt.bQt.b.jQtQtQtQtQtQtQtQtQtQtQtQtQtQtQtQtQtQtQtQtQtQtQtQtQtQtQtQt",
"QtQtQtQtQtQtQtQtQtQtQtQtQtQtQtQtQtQtQtQtQt.h.kQtQtQt.j.l.mQtQtQtQt.n.o.pQt.qQtQtQtQtQtQtQtQtQtQtQtQtQtQtQtQtQtQtQtQtQtQtQtQtQtQt",
"QtQtQtQtQtQtQtQtQtQtQtQtQtQtQtQtQtQtQtQtQt.b.nQtQtQt.r.bQtQt.s.tQt.u.b.b.vQtQtQtQtQtQtQtQtQtQtQtQtQtQtQtQtQtQtQtQtQtQtQtQtQtQtQt",
"QtQtQtQtQtQtQtQtQtQtQtQtQtQtQtQtQtQtQt.wQt.xQtQtQt.y.z.A.mQt.B.CQt.D.c.E.FQtQtQt.bQtQtQtQtQtQtQtQtQtQtQtQtQtQtQtQtQtQtQtQtQtQtQt",
"QtQtQtQtQtQtQtQtQtQtQtQtQtQtQtQtQtQtQt.G.A.mQtQt.b.z.b.H.IQt.C.JQt.K.L.M.NQtQt.OQtQtQtQtQtQtQtQtQtQtQtQtQtQtQtQtQtQtQtQtQtQtQtQt",
"QtQtQtQtQtQtQtQtQtQtQtQtQtQtQtQtQtQtQt.P.Q.RQt.S.b.b.T.U.C.V.C.CQt.z.W.XQtQt.YQtQtQtQtQtQtQtQtQtQtQtQtQtQtQtQtQtQtQtQtQtQtQtQtQt",
"QtQtQtQtQtQtQtQtQtQtQtQtQtQtQtQtQtQtQt.Z.0.1Qt.2.b.C.3.C.C.4.5.X.6.7.X.1Qt.b.DQtQtQtQtQtQtQtQtQtQtQtQtQtQtQtQtQtQtQtQtQtQtQtQtQt",
"QtQtQtQtQtQtQtQtQtQtQtQtQtQtQtQtQtQtQt.m.T.8.9#.###a.3#b#.#c#d.X.X.C.C.C.b#e#fQtQtQtQtQtQtQtQtQtQtQtQtQtQtQtQtQtQtQtQtQtQtQtQtQt",
"QtQtQtQtQtQtQtQtQtQtQtQtQtQtQtQtQtQtQt#g#h#i.z#d#j.z.z.z.z#k.3#l.C.X.z#m.b.b#n.bQtQtQtQtQtQtQtQtQtQtQtQtQtQtQtQtQtQtQtQtQtQtQtQt",
"QtQtQtQtQtQtQtQtQtQtQtQtQtQtQtQtQtQtQtQt#h#o#p#d.3.z.z.z.z#q.V#r.X#s#t#.#u#v#wQtQtQtQtQtQtQtQtQtQtQtQtQtQtQtQtQtQtQtQtQtQtQtQtQt",
"QtQtQtQtQtQtQtQtQtQtQtQtQtQtQtQtQtQtQt#x#y#z#A#B#C#k#d#D.z#E#F#G#..3#H.C#I#J.b#KQtQtQtQtQtQtQtQtQtQtQtQtQtQtQtQtQtQtQtQtQtQtQtQt",
"QtQtQtQtQtQtQtQtQtQtQtQtQtQtQtQtQtQtQt#L#M.3.z#C#C#D#D#D#E#D#N#k.3.3#O.C#P.b.b#QQtQtQtQtQtQtQtQtQtQtQtQtQtQtQtQtQtQtQtQtQtQtQtQt",
"QtQtQtQtQtQtQtQtQtQtQtQtQtQtQtQtQtQtQt#R#S.3.z#C#C#D#T#U#D#D#D#k#V#H#W.C#X.b#Y#ZQt.bQtQtQtQtQtQtQtQtQtQtQtQtQtQtQtQtQtQtQtQtQtQt",
"QtQtQtQtQtQtQtQtQtQtQtQtQtQtQtQtQtQtQt#0#1.3#C#2#3#4#5#6#D#D#7#8#C.3.C#9a.a#aaQtQtabQtQtQtQtQtQtQtQtQtQtQtQtQtQtQtQtQtQtQtQtQtQt",
"QtQtQtQtQtQtQtQtQtQtQtQtQtQtQtQtQtQtQtac#9.z#7#Dadaeaf#6ag#6#D#D#C.3.3.3.Cah.baiajQtQtQtQtQtQtQtQtQtQtQtQtQtQtQtQtQtQtQtQtQtQtQt",
"QtQtQtQtQtQtQtQtQtQtQtQtQtQtQtQtQtQtQtakalamanaoap#6#6aqarasaq#6#D#N#7.3.Cat.bauavQtQtQtQtQtQtQtQtQtQtQtQtQtQtQtQtQtQtQtQtQtQtQt",
"QtQtQtQtQtQtQtQtQtQtQtQtQtQtQtQtQtQtQtawaxamayazap#6aAaBaCaCaDaA#D#DaEaF.CaGaHaIaJQtQtQtQtQtQtQtQtQtQtQtQtQtQtQtQtQtQtQtQtQtQtQt",
"QtQtQtQtQtQtQtQtQtQtQtQtQtQtQtQtQtQtQtaKaLaMaNayanaO#6asasaPasaCad#D.zaQaRaSaTaUaVQtQtQtQtQtQtQtQtQtQtQtQtQtQtQtQtQtQtQtQtQtQtQt",
"QtQtQtQtQtQtQtQtQtQtQtQtQtQtQtQtQtQtQtaWaXaYaNayazaq#6asaPaZa0a1a2a3.3.z.CaSa4a5QtQtQtQtQtQtQtQtQtQtQtQtQtQtQtQtQtQtQtQtQtQtQtQt",
"QtQtQtQtQtQtQtQtQtQtQtQtQtQtQtQtQtQtQta6aXama7a8a9aqaqaOaqaOa1a1b.#D#Cb#.CbaaTbbQtQtQtQtQtQtQtQtQtQtQtQtQtQtQtQtQtQtQtQtQtQtQtQt",
"QtQtQtQtQtQtQtQtQtQtQtQtQtQtQtQtQtQtQtbcbdbebfaqaqaqaqaqbgaqasbh#Dbi#C#q.C#cbjbkQtQtQtQtQtQtQtQtQtQtQtQtQtQtQtQtQtQtQtQtQtQtQtQt",
"QtQtQtQtQtQtQtQtQtQtQtQtQtQtQtQtQtQtQtblbmbnaqboaqaqaqasaqaqbp#Ubqbr#C.zbs.XbtQtQtQtQtQtQtQtQtQtQtQtQtQtQtQtQtQtQtQtQtQtQtQtQtQt",
"QtQtQtQtQtQtQtQtQtQtQtQtQtQtQtQtQtQtQtbubvbwaqaqbxaqaqasbybzaCbAaC#C.3.zbBbCbDQtQtQtQtQtQtQtQtQtQtQtQtQtQtQtQtQtQtQtQtQtQtQtQtQt",
"QtQtQtQtQtQtQtQtQtQtQtQtQtQtQtQtQtQtQtbEbvbFbGbGbHaqaqaqasaPaPaCbq#t.3bIbJ.CbKQtQtQtQtQtQtQtQtQtQtQtQtQtQtQtQtQtQtQtQtQtQtQtQtQt",
"QtQtQtQtQtQtQtQtQtQtQtQtQtQtQtQtQtQtQtbLbMbNbObObPbQaqaAaOasaA#6bR#9bSbT.CbUQtQtQtQtQtQtQtQtQtQtQtQtQtQtQtQtQtQtQtQtQtQtQtQtQtQt",
"QtQtQtQtQtQtQtQtQtQtQtQtQtQtQtQtQtQtQtbVbWbXbXbYbPbZasaqb0as#6b1b2.zb3b4b5b6QtQtQtQtQtQtQtQtQtQtQtQtQtQtQtQtQtQtQtQtQtQtQtQtQtQt",
"QtQtQtQtQtQtQtQtQtQtQtQtQtQtQtQtQtQtQtQtbWbXb7b8b9c.bqc#aCaC#6b2bAca.CcbccQtQtQtQtQtQtQtQtQtQtQtQtQtQtQtQtQtQtQtQtQtQtQtQtQtQtQt",
"QtQtQtQtQtQtQtQtQtQtQtQtQtQtQtQtQtQtQtQtQtcdceb2cfcgaCcgbqaCaAbAch.C.Cb6QtQtQtQtQtQtQtQtQtQtQtQtQtQtQtQtQtQtQtQtQtQtQtQtQtQtQtQt",
"QtQtQtQtQtQtQtQtQtQtQtQtQtQtQtQtQtQtQtQtQtQtb6cicjckclcmcncocpcqcrcsQtQtQtQtQtQtQtQtQtQtQtQtQtQtQtQtQtQtQtQtQtQtQtQtQtQtQtQtQtQt",
"QtQtQtQtQtQtQtQtQtQtQtQtQtQtQtQtQtQtQtQtQtQtQtQtQtQtQtQtQtQtQtQtQtQtQtQtQtQtQtQtQtQtQtQtQtQtQtQtQtQtQtQtQtQtQtQtQtQtQtQtQtQtQtQt",
"QtQtQtQtQtQtQtQtQtQtQtQtQtQtQtQtQtQtQtQtQtQtQtQtQtQtQtQtQtQtQtQtQtQtQtQtQtQtQtQtQtQtQtQtQtQtQtQtQtQtQtQtQtQtQtQtQtQtQtQtQtQtQtQt",
"QtQtQtQtQtQtQtQtQtQtQtQtQtQtQtQtQtQtQtQtQtQtQtQtQtQtQtQtQtQtQtQtQtQtQtQtQtQtQtQtQtQtQtQtQtQtQtQtQtQtQtQtQtQtQtQtQtQtQtQtQtQtQtQt",
"QtQtQtQtQtQtQtQtQtQtQtQtQtQtQtQtQtQtQtQtQtQtQtQtQtQtQtQtQtQtQtQtQtQtQtQtQtQtQtQtQtQtQtQtQtQtQtQtQtQtQtQtQtQtQtQtQtQtQtQtQtQtQtQt",
"QtQtQtQtQtQtQtQtQtQtQtQtQtQtQtQtQtQtQtQtQtQtQtQtQtQtQtQtQtQtQtQtQtQtQtQtQtQtQtQtQtQtQtQtQtQtQtQtQtQtQtQtQtQtQtQtQtQtQtQtQtQtQtQt",
"QtQtQtQtQtQtQtQtQtQtQtQtQtQtQtQtQtQtQtQtQtQtQtQtQtQtQtQtQtQtQtQtQtQtQtQtQtQtQtQtQtQtQtQtQtQtQtQtQtQtQtQtQtQtQtQtQtQtQtQtQtQtQtQt",
"QtQtQtQtQtQtQtQtQtQtQtQtQtQtQtQtQtQtQtQtQtQtQtQtQtQtQtQtQtQtQtQtQtQtQtQtQtQtQtQtQtQtQtQtQtQtQtQtQtQtQtQtQtQtQtQtQtQtQtQtQtQtQtQt",
"QtQtQtQtQtQtQtQtQtQtQtQtQtQtQtQtQtQtQtQtQtQtQtQtQtQtQtQtQtQtQtQtQtQtQtQtQtQtQtQtQtQtQtQtQtQtQtQtQtQtQtQtQtQtQtQtQtQtQtQtQtQtQtQt",
"QtQtQtQtQtQtQtQtQtQtQtQtQtQtQtQtQtQtQtQtQtQtQtQtQtQtQtQtQtQtQtQtQtQtQtQtQtQtQtQtQtQtQtQtQtQtQtQtQtQtQtQtQtQtQtQtQtQtQtQtQtQtQtQt",
"QtQtQtQtQtQtQtQtQtQtQtQtQtQtQtQtQtQtQtQtQtQtQtQtQtQtQtQtQtQtQtQtQtQtQtQtQtQtQtQtQtQtQtQtQtQtQtQtQtQtQtQtQtQtQtQtQtQtQtQtQtQtQtQt",
"QtQtQtQtQtQtQtQtQtQtQtQtQtQtQtQtQtQtQtQtQtQtQtQtQtQtQtQtQtQtQtQtQtQtQtQtQtQtQtQtQtQtQtQtQtQtQtQtQtQtQtQtQtQtQtQtQtQtQtQtQtQtQtQt",
"QtQtQtQtQtQtQtQtQtQtQtQtQtQtQtQtQtQtQtQtQtQtQtQtQtQtQtQtQtQtQtQtQtQtQtQtQtQtQtQtQtQtQtQtQtQtQtQtQtQtQtQtQtQtQtQtQtQtQtQtQtQtQtQt",
"QtQtQtQtQtQtQtQtQtQtQtQtQtQtQtQtQtQtQtQtQtQtQtQtQtQtQtQtQtQtQtQtQtQtQtQtQtQtQtQtQtQtQtQtQtQtQtQtQtQtQtQtQtQtQtQtQtQtQtQtQtQtQtQt",
"QtQtQtQtQtQtQtQtQtQtQtQtQtQtQtQtQtQtQtQtQtQtQtQtQtQtQtQtQtQtQtQtQtQtQtQtQtQtQtQtQtQtQtQtQtQtQtQtQtQtQtQtQtQtQtQtQtQtQtQtQtQtQtQt",
"QtQtQtQtQtQtQtQtQtQtQtQtQtQtQtQtQtQtQtQtQtQtQtQtQtQtQtQtQtQtQtQtQtQtQtQtQtQtQtQtQtQtQtQtQtQtQtQtQtQtQtQtQtQtQtQtQtQtQtQtQtQtQtQt",
"QtQtQtQtQtQtQtQtQtQtQtQtQtQtQtQtQtQtQtQtQtQtQtQtQtQtQtQtQtQtQtQtQtQtQtQtQtQtQtQtQtQtQtQtQtQtQtQtQtQtQtQtQtQtQtQtQtQtQtQtQtQtQtQt"};
