/* XPM */
static char *dummy[]={
"64 64 299 2",
"Qt c None",
"#m c #ffffff",
"#. c #fffefe",
"aC c #fefefe",
"a6 c #feffff",
".b c #fffefe",
".a c #ffffff",
".q c #fcf2f1",
"bR c #fefefe",
".t c #fffdfd",
".C c #fffefe",
".H c #ffffff",
".1 c #fffefe",
".P c #ffffff",
"ai c #fefefe",
".I c #ffffff",
"ch c #f0ad7f",
"ar c #fdb9a0",
"cO c #ad8575",
"cE c #f4e586",
"b9 c #e4876a",
"aD c #fcb094",
"cN c #ac7062",
"cF c #f8e562",
".k c #cd0b06",
"b2 c #efda67",
"aK c #fca789",
"b8 c #9b694f",
".z c #cd0b06",
"aq c #ea6650",
"aU c #eb5c50",
"cM c #ee9256",
"cG c #fce24e",
"bS c #f1dc5d",
"aV c #fc9e7c",
".u c #cd0b06",
".p c #cd0c07",
".y c #cf140f",
".e c #d01713",
".d c #d11f1b",
"bq c #db2516",
"#I c #dd5753",
"aI c #e22916",
".h c #eb9e9c",
"cz c #eed952",
".l c #f7d7d6",
".c c #f9dfdf",
".j c #f9e3e3",
"cH c #fbdf3a",
"cL c #fcdf3b",
"bI c #f0da4e",
"a7 c #f2de7e",
"cI c #f9dc26",
"cK c #fbdc27",
"bA c #e9d13c",
"bf c #f2dd7d",
"bh c #0a0601",
"a9 c #1e1303",
"#h c #420602",
".9 c #570201",
"b6 c #643613",
"cg c #732f13",
"be c #7a3815",
"b1 c #7b3815",
"bn c #8b3916",
"bo c #8f3c16",
"#V c #8f3e15",
"#O c #960000",
"bz c #9b6450",
".U c #9c0000",
"cr c #a13514",
"#t c #a43814",
"bb c #a44c15",
"a5 c #a84317",
"#Z c #b20000",
".Q c #ba1d1c",
"#n c #c40804",
"#F c #c50905",
"#B c #c52715",
"#k c #c60a05",
"bd c #c65618",
"#x c #c70000",
".Y c #c70100",
"#e c #c70a05",
"#j c #c70a06",
".V c #ca7750",
".M c #cb0905",
".L c #cb0b05",
"#c c #cc0804",
"#2 c #cc0908",
"#l c #cc0b06",
"#H c #cd0a06",
".# c #cd0b06",
".J c #cd0c07",
".D c #ce0b06",
".X c #ce0c07",
".f c #ce0e09",
".5 c #ce140f",
".R c #cf120d",
".n c #cf140f",
".r c #d01713",
"#w c #d11a16",
".8 c #d11d19",
".E c #d12a26",
"aa c #d20f08",
".o c #d2231e",
".A c #d3241f",
"## c #d32621",
".i c #d42b26",
"aJ c #d52b26",
".F c #d63531",
"#R c #d70000",
".B c #d83e3a",
"cy c #d93516",
".0 c #da4b48",
"ag c #db0b03",
"#N c #dc2e17",
"bx c #dc5b19",
"cb c #dd3b17",
"b5 c #dd4217",
"b4 c #de3e17",
"#p c #df1e09",
"cc c #df5f1d",
"cu c #df621d",
".w c #df6967",
"ae c #df9224",
"c# c #e04318",
"ca c #e04418",
"c. c #e04518",
"#a c #e06b68",
"#Y c #e12716",
"#J c #e12816",
"#M c #e12a16",
"aT c #e13617",
"ck c #e14a19",
"ac c #e22110",
"ap c #e22916",
"#U c #e23d17",
"bj c #e2c708",
".Z c #e32816",
".T c #e32917",
"#o c #e32a18",
"ah c #e33417",
"#z c #e42816",
"bp c #e42817",
"#A c #e42f1d",
"#y c #e4310d",
".s c #e47c7a",
"ce c #e52816",
"aB c #e52a16",
".3 c #e53423",
"#q c #e53524",
"ct c #e55d1c",
"ci c #e5701f",
".m c #e57e7c",
".G c #e57f7d",
"#v c #e62715",
"aw c #e69723",
"bQ c #e73017",
"cl c #e89122",
"cq c #e92615",
"#K c #ea2616",
"by c #ea3018",
"#f c #ea5c4f",
"#X c #ea6053",
"b0 c #eb2115",
".6 c #eb2215",
"#C c #eb2a16",
".O c #eb6659",
"#i c #ec2215",
"bH c #ec3218",
".4 c #ec6c60",
"b7 c #ed2416",
"bZ c #ed2616",
"cf c #ed2c16",
"cs c #ed7220",
".2 c #ed8c84",
"#d c #eda6a5",
"bV c #edb80c",
"bc c #ee2d17",
"an c #ee3217",
"bT c #eed431",
"#D c #ef2f17",
"#g c #ef3017",
"#s c #ef3117",
"bP c #ef4419",
"a4 c #ef621a",
"cj c #ef7520",
"aO c #efa33d",
"#Q c #efb0af",
"#1 c #efb4ab",
"aH c #f09e22",
"bW c #f0d513",
"br c #f0d969",
"cp c #f15319",
"ao c #f15519",
"#u c #f16230",
"#9 c #f1641a",
"ak c #f19f22",
"#7 c #f29f21",
"al c #f2a120",
"b3 c #f2d00e",
"cA c #f2d114",
"bL c #f2d814",
"#E c #f3631a",
".W c #f3641b",
".7 c #f3651d",
"ay c #f39f21",
"bm c #f3a021",
"av c #f3b411",
"bv c #f3b90a",
"au c #f3d110",
"bl c #f3d312",
"bJ c #f3d432",
"aQ c #f3d914",
"b. c #f3f3f3",
"az c #f4711d",
"bU c #f4d110",
"aE c #f4d412",
"cJ c #f4d814",
"b# c #f4d914",
"aX c #f4f3f3",
"ab c #f5b3ac",
"bk c #f5da14",
"a. c #f6641b",
"a3 c #f6661c",
"#b c #f6b8b2",
".g c #f6d1d0",
"bB c #f6d533",
"cm c #f6db15",
"aP c #f6de39",
"bu c #f6df41",
"#L c #f7671c",
"ad c #f77a52",
"bg c #f7d534",
"cB c #f7d813",
"a8 c #f7db37",
".N c #f7dbdb",
"aW c #f7dd38",
"#3 c #f8621a",
"#W c #f8681c",
"#4 c #f8791e",
"cx c #f8b909",
"aG c #f8ca0c",
"a0 c #f8dd17",
".v c #f8dddd",
"cv c #f8de17",
"bE c #f8de18",
".K c #f8dede",
"bM c #f8df19",
"bX c #f8e01a",
"aA c #f9681b",
"af c #f9681c",
"#T c #f99a21",
"at c #f9a11f",
"#8 c #f9a61d",
"#0 c #f9cfcb",
"#P c #f9d1ce",
"bF c #f9dc16",
"bi c #f9e01a",
".S c #f9e2e2",
"#r c #fa681b",
"aL c #fa6a1b",
"as c #fa6b23",
"bw c #fa6c1b",
"#S c #fa9f1f",
"#6 c #faa11e",
"aF c #fadd17",
"ax c #fadd18",
"aR c #fade18",
"bO c #fade19",
"bN c #fadf19",
"bY c #fae019",
"aZ c #fae119",
"aS c #fae219",
"aM c #faf7f3",
"bC c #faf8f3",
"bs c #fafdfd",
"a# c #fb681b",
"aj c #fb8459",
"#5 c #fb9c1f",
"am c #fb9c20",
"cD c #fbd813",
"co c #fbd914",
"bK c #fbda15",
"a2 c #fbdb16",
"cn c #fbdb17",
"cC c #fbdc17",
"cd c #fbdc18",
"a1 c #fbe219",
"ba c #fbe319",
"bt c #fbe447",
"aY c #fbe554",
"aN c #fbe555",
"bD c #fbe654",
"bG c #fcb70d",
"cw c #fcda15",
".x c #fffdfd",
"#G c #fffefe",
"QtQtQtQtQtQtQtQtQtQtQtQtQtQtQtQtQtQtQtQtQtQtQtQtQtQtQtQtQtQtQtQtQtQtQtQtQtQtQtQtQtQtQtQtQtQtQtQtQtQtQtQtQtQtQtQtQtQtQtQtQtQtQtQt",
"QtQtQtQtQtQtQtQtQtQtQtQtQtQtQtQtQtQtQtQtQtQtQtQtQtQtQtQtQtQtQtQtQtQtQtQtQtQtQtQtQtQtQtQtQtQtQtQtQtQtQtQtQtQtQtQtQtQtQtQtQtQtQtQt",
"QtQtQtQtQtQtQtQtQtQtQtQtQtQtQtQtQtQtQtQtQtQtQtQtQtQtQtQtQtQtQtQtQtQtQtQtQtQtQtQtQtQtQtQtQtQtQtQtQtQtQtQtQtQtQtQtQtQtQtQtQtQtQtQt",
"QtQtQtQtQtQtQtQtQtQtQtQtQtQtQtQtQtQtQtQtQtQtQtQtQtQtQtQtQtQtQtQtQtQtQtQtQtQtQtQtQtQtQtQtQtQtQtQtQtQtQtQtQtQtQtQtQtQtQtQtQtQtQtQt",
"QtQtQtQtQtQtQtQtQtQtQtQtQtQtQtQtQtQtQtQtQtQtQtQtQtQtQtQtQtQtQtQtQtQtQtQtQtQtQtQtQtQtQtQtQtQtQtQtQtQtQtQtQtQtQtQtQtQtQtQtQtQtQtQt",
"QtQtQtQtQtQtQtQtQtQtQtQtQtQtQtQtQtQtQtQtQtQtQtQtQtQtQtQtQtQtQtQtQtQtQtQtQtQtQtQtQtQtQtQtQtQtQtQtQtQtQtQtQtQtQtQtQtQtQtQtQtQtQtQt",
"QtQtQtQtQtQtQtQtQtQtQtQtQtQtQtQtQtQtQtQtQtQtQtQtQtQtQtQtQtQtQtQtQtQtQtQtQtQtQtQtQtQtQtQtQtQtQtQtQtQtQtQtQtQtQtQtQtQtQtQtQtQtQtQt",
"QtQtQtQtQtQtQtQtQtQtQtQtQtQtQtQtQtQtQtQtQtQtQtQtQtQtQtQtQtQtQtQtQtQtQtQtQtQtQtQtQtQtQtQtQtQtQtQtQtQtQtQtQtQtQtQtQtQtQtQtQtQtQtQt",
"QtQtQtQtQtQtQtQtQtQtQtQtQtQtQtQtQtQtQtQtQtQtQtQtQtQtQtQtQtQtQtQtQtQtQtQtQtQtQtQtQtQtQtQtQtQtQtQtQtQtQtQtQtQtQtQtQtQtQtQtQtQtQtQt",
"QtQtQtQtQtQtQtQtQtQtQtQtQtQtQtQtQtQtQtQtQtQtQtQtQtQtQtQtQtQtQtQtQtQtQtQtQtQtQtQtQtQtQtQtQtQtQtQtQtQtQtQtQtQtQtQtQtQtQtQtQtQtQtQt",
"QtQtQtQtQtQtQtQtQtQtQtQtQtQtQtQtQtQtQtQtQtQtQtQtQtQtQtQtQtQtQtQtQtQtQtQtQtQtQtQtQtQtQtQtQtQtQtQtQtQtQtQtQtQtQtQtQtQtQtQtQtQtQtQt",
"QtQtQtQtQtQtQtQtQtQtQtQtQtQtQtQtQtQtQtQtQtQtQtQtQtQtQtQtQtQtQtQtQtQtQtQtQtQtQtQtQtQtQtQtQtQtQtQtQtQtQtQtQtQtQtQtQtQtQtQtQtQtQtQt",
"QtQtQtQtQtQtQtQtQtQtQtQtQtQtQtQtQtQtQtQtQtQtQtQtQtQtQtQtQtQtQtQtQtQtQtQtQtQtQtQtQtQtQtQtQtQtQtQtQtQtQtQtQtQtQtQtQtQtQtQtQtQtQtQt",
"QtQtQtQtQtQtQtQtQtQtQtQtQtQtQtQtQtQtQtQtQtQtQtQtQtQtQtQtQtQtQtQtQtQtQtQtQtQtQtQtQtQtQtQtQtQtQtQtQtQtQtQtQtQtQtQtQtQtQtQtQtQtQtQt",
"QtQtQtQtQtQtQtQtQtQtQtQtQtQtQtQtQtQtQtQtQtQtQtQtQtQtQtQtQtQtQtQtQtQtQtQtQtQtQtQtQtQtQtQtQtQtQtQtQtQtQtQtQtQtQtQtQtQtQtQtQtQtQtQt",
"QtQtQtQtQtQtQtQtQtQtQtQtQtQtQtQtQtQtQtQtQtQtQtQtQtQtQt.#QtQtQtQtQtQtQtQtQtQtQtQtQtQtQtQtQtQtQtQtQtQtQtQtQtQtQtQtQtQtQtQtQtQtQtQt",
"QtQtQtQtQtQtQtQtQtQtQtQtQtQtQtQtQtQtQtQtQtQtQtQtQtQt.a.#.bQtQtQtQtQtQtQtQtQtQtQtQtQtQtQtQtQtQtQtQtQtQtQtQtQtQtQtQtQtQtQtQtQtQtQt",
"QtQtQtQtQtQtQtQtQtQtQtQtQtQtQtQtQt.#QtQtQtQtQtQtQtQt.c.#.dQtQtQtQtQt.#QtQtQtQtQtQtQtQtQtQtQtQtQtQtQtQtQtQtQtQtQtQtQtQtQtQtQtQtQt",
"QtQtQtQtQtQtQtQtQtQtQtQtQtQtQtQt.e.#QtQtQtQtQtQt.fQt.#.g.hQtQtQt.iQt.j.kQtQtQtQtQtQtQtQtQtQtQtQtQtQtQtQtQtQtQtQtQtQtQtQtQtQtQtQt",
"QtQtQtQtQtQtQtQtQtQtQtQtQtQtQtQt.#.#.#.lQtQtQtQt.#.m.n.#QtQtQtQt.#QtQt.#QtQtQtQtQtQtQtQtQtQtQtQtQtQtQtQtQtQtQtQtQtQtQtQtQtQtQtQt",
"QtQtQtQtQtQtQtQtQtQtQtQtQtQtQtQtQtQt.#.o.pQtQt.q.r.#.sQtQtQt.#Qt.#.tQtQt.uQtQtQtQtQtQtQtQtQtQtQtQtQtQtQtQtQtQtQtQtQtQtQtQtQtQtQt",
"QtQtQtQtQtQtQtQtQtQtQtQtQtQtQtQtQt.v.w.x.yQtQt.z.A.B.CQtQtQtQt.a.D.EQtQt.FQtQt.G.HQtQtQtQtQtQtQtQtQtQtQtQtQtQtQtQtQtQtQtQtQtQtQt",
"QtQtQtQtQtQtQtQtQtQtQtQtQtQtQtQtQt.I.J.K.aQtQt.L.M.#QtQt.N.OQt.P.#.#.QQtQtQt.u.#.R.S.#QtQtQtQtQtQtQtQtQtQtQtQtQtQtQtQtQtQtQtQtQt",
"QtQtQtQtQtQtQtQtQtQtQtQtQtQtQtQtQt.P.T.U.aQt.C.V.W.X.CQt.Y.ZQt.z.i.0.1QtQt.b.U.#.a.a.JQtQtQtQtQtQtQtQtQtQtQtQtQtQtQtQtQtQtQtQtQt",
"QtQtQtQtQtQtQtQtQtQtQtQtQtQtQtQtQt.H.2.3.#Qt.#.W.#.4.5Qt.Z.6Qt.7.8.9#.QtQt###a.HQtQtQtQtQtQtQtQtQtQtQtQtQtQtQtQtQtQtQtQtQtQtQtQt",
"QtQtQtQtQtQtQtQtQtQtQtQtQtQtQtQtQt.a#b#c#d.#.#.##e#f.Z#g.Z.ZQt.W#h#iQtQt#j#k#lQtQtQtQtQtQtQtQtQtQtQtQtQtQtQtQtQtQtQtQtQtQtQtQtQt",
"QtQtQtQtQtQtQtQtQtQtQtQtQtQtQtQtQt#m#n#o#p#q.#.Z#r.Z.Z#s#t#i#u#v#i#oQt.#.##w.#Qt.#QtQtQtQtQtQtQtQtQtQtQtQtQtQtQtQtQtQtQtQtQtQtQt",
"QtQtQtQtQtQtQtQtQtQtQtQtQtQtQtQtQtQt.##x#y#z#A#B#r#C#z#D#E#i#i.Z.Z.Z.##F.##G#H.##IQtQtQtQtQtQtQtQtQtQtQtQtQtQtQtQtQtQtQtQtQtQtQt",
"QtQtQtQtQtQtQtQtQtQtQtQtQtQtQtQtQt#m.##J.W#E#K.W.W.W.W#L#r#M.Z#i.W#N.#.##O#P#Q.#.aQtQtQtQtQtQtQtQtQtQtQtQtQtQtQtQtQtQtQtQtQtQtQt",
"QtQtQtQtQtQtQtQtQtQtQtQtQtQtQtQtQt.a.##R#S#E#r.W.W.W.W#T#g#U#i#V#W#z#X#Y#Z#0.##1QtQtQtQtQtQtQtQtQtQtQtQtQtQtQtQtQtQtQtQtQtQtQtQt",
"QtQtQtQtQtQtQtQtQtQtQtQtQtQtQtQtQt.H#2#3#4#5#6#L#E#7.W#8#9a.#z#ra#.ZaaabacQtQtQtQtQtQtQtQtQtQtQtQtQtQtQtQtQtQtQtQtQtQtQtQtQtQtQt",
"QtQtQtQtQtQtQtQtQtQtQtQtQtQtQtQtQt.Pad#r.W#6#6#7#7#7#8#7ae#L#r#raf.Zag.ZahQtQtQtQtQtQtQtQtQtQtQtQtQtQtQtQtQtQtQtQtQtQtQtQtQtQtQt",
"QtQtQtQtQtQtQtQtQtQtQtQtQtQtQtQtQtaiaj#r.W#6#6#7akal#7#7#7#Lama#an.ZaoapaqQtQtQtQtQtQtQtQtQtQtQtQtQtQtQtQtQtQtQtQtQtQtQtQtQtQtQt",
"QtQtQtQtQtQtQtQtQtQtQtQtQtQtQtQtQtaras#r#6atauavawax#7#7ayaz#6#r.ZaAaBapaCQtQt.ZQtQtQtQtQtQtQtQtQtQtQtQtQtQtQtQtQtQtQtQtQtQtQtQt",
"QtQtQtQtQtQtQtQtQtQtQtQtQtQtQtQtQtaDaA.Way#7aEaFaGaxaHax#7#7#6#r#r#r.ZaIQtaJ.ZQtQtQtQtQtQtQtQtQtQtQtQtQtQtQtQtQtQtQtQtQtQtQtQtQt",
"QtQtQtQtQtQtQtQtQtQtQtQtQtQtQtQtQtaKaLaMaNaOaPaxaxaQaRaSaQax#7aeay#r.Z.b.baTaUQtQtQtQtQtQtQtQtQtQtQtQtQtQtQtQtQtQtQtQtQtQtQtQtQt",
"QtQtQtQtQtQtQtQtQtQtQtQtQtQtQtQtQtaVaWaMaXaYaPaxaZa0a1a1a2aZ#7#7a3a4.ZQtaha5a6QtQtQtQtQtQtQtQtQtQtQtQtQtQtQtQtQtQtQtQtQtQtQtQtQt",
"QtQtQtQtQtQtQtQtQtQtQtQtQtQtQtQtQta7a8a9b.aXaNb#axaSaSbaaSa1aE#7.WbbbcbdahbeQt.TQtQtQtQtQtQtQtQtQtQtQtQtQtQtQtQtQtQtQtQtQtQtQtQt",
"QtQtQtQtQtQtQtQtQtQtQtQtQtQtQtQtQtbfbgbhb.aXaYaQaxaSbabibjbkblbm#r.W.ZbdbnbobpbqQtQtQtQtQtQtQtQtQtQtQtQtQtQtQtQtQtQtQtQtQtQtQtQt",
"QtQtQtQtQtQtQtQtQtQtQtQtQtQtQtQtQtbrbgaMbsbtbuaQaQb#aQb#bkbkbv#7#6bw.ZbxahbybzQtQtQtQtQtQtQtQtQtQtQtQtQtQtQtQtQtQtQtQtQtQtQtQtQt",
"QtQtQtQtQtQtQtQtQtQtQtQtQtQtQtQtQtbAbBbCbDaQaQaQaQaQbEaQaSbF#7bG#6#T.Z#DbHbeQtQtQtQtQtQtQtQtQtQtQtQtQtQtQtQtQtQtQtQtQtQtQtQtQtQt",
"QtQtQtQtQtQtQtQtQtQtQtQtQtQtQtQtQtbIbJbKaQbLaQaQaQaSaQaQbMalbNbO#6.WbP#ibQbRQtQtQtQtQtQtQtQtQtQtQtQtQtQtQtQtQtQtQtQtQtQtQtQtQtQt",
"QtQtQtQtQtQtQtQtQtQtQtQtQtQtQtQtQtbSbTbUaQaQbVaQaQaSbWbXa1bYa1#6#r.WbZb0b1QtQtQtQtQtQtQtQtQtQtQtQtQtQtQtQtQtQtQtQtQtQtQtQtQtQtQt",
"QtQtQtQtQtQtQtQtQtQtQtQtQtQtQtQtQtb2bTb3b4b4b5aQaQaQaSbabaa1bN#W#rb6b7.Zb8QtQtQtQtQtQtQtQtQtQtQtQtQtQtQtQtQtQtQtQtQtQtQtQtQtQtQt",
"QtQtQtQtQtQtQtQtQtQtQtQtQtQtQtQtQtb9c.c#cacacbccaQaZb#aSaZaxcdaAcecf.ZcgQtQtQtQtQtQtQtQtQtQtQtQtQtQtQtQtQtQtQtQtQtQtQtQtQtQtQtQt",
"QtQtQtQtQtQtQtQtQtQtQtQtQtQtQtQtQtchcicjcjckcbclaSaQcmaSaxcnco.Wcpcqcra6QtQtQtQtQtQtQtQtQtQtQtQtQtQtQtQtQtQtQtQtQtQtQtQtQtQtQtQt",
"QtQtQtQtQtQtQtQtQtQtQtQtQtQtQtQtQtQtcicjcsctcucvbNcwa1a1axcobYcx.ZcycgQtQtQtQtQtQtQtQtQtQtQtQtQtQtQtQtQtQtQtQtQtQtQtQtQtQtQtQtQt",
"QtQtQtQtQtQtQtQtQtQtQtQtQtQtQtQtQtQtQtczcAcocBcCa1cCbNa1aZbYcD.Z.Za6QtQtQtQtQtQtQtQtQtQtQtQtQtQtQtQtQtQtQtQtQtQtQtQtQtQtQtQtQtQt",
"QtQtQtQtQtQtQtQtQtQtQtQtQtQtQtQtQtQtQtQta6cEcFcGcHcIcJcKcLcMcNcOQtQtQtQtQtQtQtQtQtQtQtQtQtQtQtQtQtQtQtQtQtQtQtQtQtQtQtQtQtQtQtQt",
"QtQtQtQtQtQtQtQtQtQtQtQtQtQtQtQtQtQtQtQtQtQtQtQtQtQtQtQtQtQtQtQtQtQtQtQtQtQtQtQtQtQtQtQtQtQtQtQtQtQtQtQtQtQtQtQtQtQtQtQtQtQtQtQt",
"QtQtQtQtQtQtQtQtQtQtQtQtQtQtQtQtQtQtQtQtQtQtQtQtQtQtQtQtQtQtQtQtQtQtQtQtQtQtQtQtQtQtQtQtQtQtQtQtQtQtQtQtQtQtQtQtQtQtQtQtQtQtQtQt",
"QtQtQtQtQtQtQtQtQtQtQtQtQtQtQtQtQtQtQtQtQtQtQtQtQtQtQtQtQtQtQtQtQtQtQtQtQtQtQtQtQtQtQtQtQtQtQtQtQtQtQtQtQtQtQtQtQtQtQtQtQtQtQtQt",
"QtQtQtQtQtQtQtQtQtQtQtQtQtQtQtQtQtQtQtQtQtQtQtQtQtQtQtQtQtQtQtQtQtQtQtQtQtQtQtQtQtQtQtQtQtQtQtQtQtQtQtQtQtQtQtQtQtQtQtQtQtQtQtQt",
"QtQtQtQtQtQtQtQtQtQtQtQtQtQtQtQtQtQtQtQtQtQtQtQtQtQtQtQtQtQtQtQtQtQtQtQtQtQtQtQtQtQtQtQtQtQtQtQtQtQtQtQtQtQtQtQtQtQtQtQtQtQtQtQt",
"QtQtQtQtQtQtQtQtQtQtQtQtQtQtQtQtQtQtQtQtQtQtQtQtQtQtQtQtQtQtQtQtQtQtQtQtQtQtQtQtQtQtQtQtQtQtQtQtQtQtQtQtQtQtQtQtQtQtQtQtQtQtQtQt",
"QtQtQtQtQtQtQtQtQtQtQtQtQtQtQtQtQtQtQtQtQtQtQtQtQtQtQtQtQtQtQtQtQtQtQtQtQtQtQtQtQtQtQtQtQtQtQtQtQtQtQtQtQtQtQtQtQtQtQtQtQtQtQtQt",
"QtQtQtQtQtQtQtQtQtQtQtQtQtQtQtQtQtQtQtQtQtQtQtQtQtQtQtQtQtQtQtQtQtQtQtQtQtQtQtQtQtQtQtQtQtQtQtQtQtQtQtQtQtQtQtQtQtQtQtQtQtQtQtQt",
"QtQtQtQtQtQtQtQtQtQtQtQtQtQtQtQtQtQtQtQtQtQtQtQtQtQtQtQtQtQtQtQtQtQtQtQtQtQtQtQtQtQtQtQtQtQtQtQtQtQtQtQtQtQtQtQtQtQtQtQtQtQtQtQt",
"QtQtQtQtQtQtQtQtQtQtQtQtQtQtQtQtQtQtQtQtQtQtQtQtQtQtQtQtQtQtQtQtQtQtQtQtQtQtQtQtQtQtQtQtQtQtQtQtQtQtQtQtQtQtQtQtQtQtQtQtQtQtQtQt",
"QtQtQtQtQtQtQtQtQtQtQtQtQtQtQtQtQtQtQtQtQtQtQtQtQtQtQtQtQtQtQtQtQtQtQtQtQtQtQtQtQtQtQtQtQtQtQtQtQtQtQtQtQtQtQtQtQtQtQtQtQtQtQtQt",
"QtQtQtQtQtQtQtQtQtQtQtQtQtQtQtQtQtQtQtQtQtQtQtQtQtQtQtQtQtQtQtQtQtQtQtQtQtQtQtQtQtQtQtQtQtQtQtQtQtQtQtQtQtQtQtQtQtQtQtQtQtQtQtQt",
"QtQtQtQtQtQtQtQtQtQtQtQtQtQtQtQtQtQtQtQtQtQtQtQtQtQtQtQtQtQtQtQtQtQtQtQtQtQtQtQtQtQtQtQtQtQtQtQtQtQtQtQtQtQtQtQtQtQtQtQtQtQtQtQt",
"QtQtQtQtQtQtQtQtQtQtQtQtQtQtQtQtQtQtQtQtQtQtQtQtQtQtQtQtQtQtQtQtQtQtQtQtQtQtQtQtQtQtQtQtQtQtQtQtQtQtQtQtQtQtQtQtQtQtQtQtQtQtQtQt",
"QtQtQtQtQtQtQtQtQtQtQtQtQtQtQtQtQtQtQtQtQtQtQtQtQtQtQtQtQtQtQtQtQtQtQtQtQtQtQtQtQtQtQtQtQtQtQtQtQtQtQtQtQtQtQtQtQtQtQtQtQtQtQtQt"};
