/* XPM */
static char *dummy[]={
"64 64 279 2",
"Qt c None",
".r c #ffffff",
".P c #fef5f4",
"#x c #fef6f5",
".H c #fef7f6",
".X c #feffff",
".c c #ffffff",
".C c #fdfffe",
"#3 c #fefefe",
"#k c #ffffff",
".z c #fcecea",
"bZ c #f0ad7f",
"aa c #fdb9a0",
"cu c #ad8575",
"ck c #f4e586",
"bP c #e4876a",
".l c #fadcd9",
"am c #fcb094",
"ct c #ac7062",
"cl c #f8e562",
".g c #e32917",
"#. c #f6b8b2",
"bI c #efda67",
"at c #fca789",
"bO c #9b694f",
"#g c #c4644f",
".L c #ca7750",
"aD c #eb5c50",
"cs c #ee9256",
".j c #f29c94",
"cm c #fce24e",
"#I c #fce3de",
".q c #6c200c",
"by c #f1dc5d",
"aE c #fc9e7c",
".W c #89513a",
"#2 c #9e4c3a",
".J c #c80100",
"a9 c #db2516",
"#1 c #e32816",
".# c #e32917",
".Q c #e84b3c",
".y c #e95446",
".B c #ec5c4f",
"cf c #eed952",
"cn c #fbdf3a",
"cr c #fcdf3b",
"bp c #f0da4e",
"aP c #f2de7e",
".m c #e32917",
".R c #ed8c84",
".Y c #f6b8b2",
"co c #f9dc26",
"cq c #fbdc27",
".w c #e42816",
"bh c #e9d13c",
"aY c #f2dd7d",
"a0 c #0a0601",
"aR c #1e1303",
".T c #5e3913",
"bM c #643613",
".4 c #6e3213",
".9 c #712c12",
"bY c #732f13",
"aX c #7a3815",
"bH c #7b3815",
".3 c #873714",
"a6 c #8b3916",
"a7 c #8f3c16",
"#C c #8f3e15",
".K c #942e14",
"bg c #9b6450",
".D c #9c4b16",
"b9 c #a13514",
"#d c #a43814",
"aV c #a44c15",
"aO c #a84317",
".N c #b32f15",
".8 c #b40000",
".0 c #c40000",
"#n c #c52715",
"aW c #c65618",
".G c #c70000",
".O c #c70100",
".p c #ca5618",
".1 c #cb483b",
".Z c #cc0804",
"#W c #cd0a05",
"as c #ce0a05",
"#H c #d12e14",
"#S c #d20f08",
"#y c #d70000",
"ce c #d93516",
"#a c #da3416",
"#0 c #db0b03",
"#w c #dc2e17",
"be c #dc5b19",
"bT c #dd3b17",
"bL c #dd4217",
"#h c #de271a",
"bK c #de3e17",
"## c #df1e09",
"bU c #df5f1d",
"ca c #df621d",
"#Y c #df9224",
".U c #e02b16",
"bR c #e04318",
"bS c #e04418",
"bQ c #e04518",
"#s c #e12816",
"#v c #e12a16",
"aC c #e13617",
"b2 c #e14a19",
"#E c #e22817",
"#9 c #e22916",
"#B c #e23d17",
"a2 c #e2c708",
"#U c #e32210",
".h c #e32816",
".o c #e32817",
".6 c #e32916",
".e c #e32917",
".I c #e32a18",
".u c #e32b1a",
".b c #e33417",
".d c #e33619",
"#m c #e42816",
"a8 c #e42817",
"a# c #e42f1d",
"#G c #e4301f",
"#l c #e4310d",
"bW c #e52816",
"ak c #e52a16",
"c# c #e55d1c",
"b0 c #e5701f",
"#f c #e62715",
"#F c #e62f17",
".f c #e63e2e",
"af c #e69723",
"bx c #e73017",
".i c #e74333",
".x c #e74637",
"b3 c #e89122",
"b8 c #e92615",
".F c #e95b4e",
"#t c #ea2616",
"bf c #ea3018",
"a. c #ea6650",
"bG c #eb2115",
".V c #eb2215",
"#o c #eb2a16",
"#r c #eb6457",
".s c #eb6558",
".5 c #ec2215",
"bo c #ec3218",
".n c #ec6d61",
"#j c #ec6f63",
".E c #ec7367",
"bN c #ed2416",
"bF c #ed2616",
"bX c #ed2c16",
"c. c #ed7220",
"bB c #edb80c",
".M c #ee2d17",
".S c #ee2f17",
"#7 c #ee3217",
"bz c #eed431",
"#p c #ef2f17",
".2 c #ef3017",
"#c c #ef3117",
"bw c #ef4419",
".A c #ef463c",
"aN c #ef621a",
"b1 c #ef7520",
"ax c #efa33d",
"#e c #f05119",
"ar c #f0897f",
"aq c #f09e22",
"bC c #f0d513",
"b. c #f0d969",
"b7 c #f15319",
"#8 c #f15519",
"#P c #f1641a",
"#4 c #f19f22",
".a c #f29990",
"#N c #f29f21",
"#5 c #f2a120",
"bJ c #f2d00e",
"cg c #f2d114",
"bs c #f2d814",
"#q c #f3631a",
".t c #f3641b",
"ah c #f39f21",
"a5 c #f3a021",
"ae c #f3b411",
"bc c #f3b90a",
"ad c #f3d110",
"a4 c #f3d312",
"bq c #f3d432",
"az c #f3d914",
"aS c #f3f3f3",
"ai c #f4711d",
"bA c #f4d110",
"an c #f4d412",
"cp c #f4d814",
"aT c #f4d914",
"aG c #f4f3f3",
"#T c #f5b3ac",
"a3 c #f5da14",
"#Q c #f6641b",
"aM c #f6661c",
"bi c #f6d533",
"b4 c #f6db15",
"ay c #f6de39",
"bb c #f6df41",
"#u c #f7671c",
".7 c #f7c6be",
"aZ c #f7d534",
"ch c #f7d813",
"aQ c #f7db37",
"aF c #f7dd38",
"#J c #f8621a",
"#D c #f8681c",
"#K c #f8791e",
"cd c #f8b909",
"ap c #f8ca0c",
".v c #f8d4d1",
"aJ c #f8dd17",
"cb c #f8de17",
"bl c #f8de18",
"bt c #f8df19",
"bD c #f8e01a",
"aj c #f9681b",
"#Z c #f9681c",
"#A c #f99a21",
"ac c #f9a11f",
"#O c #f9a61d",
"bm c #f9dc16",
"a1 c #f9e01a",
"#b c #fa681b",
"au c #fa6a1b",
"ab c #fa6b23",
"bd c #fa6c1b",
"#z c #fa9f1f",
"#M c #faa11e",
"#i c #fad6d2",
"ao c #fadd17",
"ag c #fadd18",
"aA c #fade18",
"bv c #fade19",
"bu c #fadf19",
"bE c #fae019",
"aI c #fae119",
"aB c #fae219",
"av c #faf7f3",
"bj c #faf8f3",
"b# c #fafdfd",
"#R c #fb681b",
"#X c #fb8459",
"#L c #fb9c1f",
"#6 c #fb9c20",
"cj c #fbd813",
"b6 c #fbd914",
"br c #fbda15",
"aL c #fbdb16",
"b5 c #fbdb17",
"ci c #fbdc17",
"bV c #fbdc18",
"aK c #fbe219",
"aU c #fbe319",
"ba c #fbe447",
"aH c #fbe554",
"aw c #fbe555",
"bk c #fbe654",
"bn c #fcb70d",
"cc c #fcda15",
"al c #fefefe",
"#V c #feffff",
".k c #ffffff",
"QtQtQtQtQtQtQtQtQtQtQtQtQtQtQtQtQtQtQtQtQtQtQtQtQtQtQtQtQtQtQtQtQtQtQtQtQtQtQtQtQtQtQtQtQtQtQtQtQtQtQtQtQtQtQtQtQtQtQtQtQtQtQtQt",
"QtQtQtQtQtQtQtQtQtQtQtQtQtQtQtQtQtQtQtQtQtQtQtQtQtQtQtQtQtQtQtQtQtQtQtQtQtQtQtQtQtQtQtQtQtQtQtQtQtQtQtQtQtQtQtQtQtQtQtQtQtQtQtQt",
"QtQtQtQtQtQtQtQtQtQtQtQtQtQtQtQtQtQtQtQtQtQtQtQtQtQtQtQtQtQtQtQtQtQtQtQtQtQtQtQtQtQtQtQtQtQtQtQtQtQtQtQtQtQtQtQtQtQtQtQtQtQtQtQt",
"QtQtQtQtQtQtQtQtQtQtQtQtQtQtQtQtQtQtQtQtQtQtQtQtQtQtQtQtQtQtQtQtQtQtQtQtQtQtQtQtQtQtQtQtQtQtQtQtQtQtQtQtQtQtQtQtQtQtQtQtQtQtQtQt",
"QtQtQtQtQtQtQtQtQtQtQtQtQtQtQtQtQtQtQtQtQtQtQtQtQtQtQtQtQtQtQtQtQtQtQtQtQtQtQtQtQtQtQtQtQtQtQtQtQtQtQtQtQtQtQtQtQtQtQtQtQtQtQtQt",
"QtQtQtQtQtQtQtQtQtQtQtQtQtQtQtQtQtQtQtQtQtQtQtQtQtQtQtQtQtQtQtQtQtQtQtQtQtQtQtQtQtQtQtQtQtQtQtQtQtQtQtQtQtQtQtQtQtQtQtQtQtQtQtQt",
"QtQtQtQtQtQtQtQtQtQtQtQtQtQtQtQtQtQtQtQtQtQtQtQtQtQtQtQtQtQtQtQtQtQtQtQtQtQtQtQtQtQtQtQtQtQtQtQtQtQtQtQtQtQtQtQtQtQtQtQtQtQtQtQt",
"QtQtQtQtQtQtQtQtQtQtQtQtQtQtQtQtQtQtQtQtQtQtQtQtQtQtQtQtQtQtQtQtQtQtQtQtQtQtQtQtQtQtQtQtQtQtQtQtQtQtQtQtQtQtQtQtQtQtQtQtQtQtQtQt",
"QtQtQtQtQtQtQtQtQtQtQtQtQtQtQtQtQtQtQtQtQtQtQtQtQtQtQtQtQtQtQtQtQtQtQtQtQtQtQtQtQtQtQtQtQtQtQtQtQtQtQtQtQtQtQtQtQtQtQtQtQtQtQtQt",
"QtQtQtQtQtQtQtQtQtQtQtQtQtQtQtQtQtQtQtQtQtQtQtQtQtQtQtQtQtQtQtQtQtQtQtQtQtQtQtQtQtQtQtQtQtQtQtQtQtQtQtQtQtQtQtQtQtQtQtQtQtQtQtQt",
"QtQtQtQtQtQtQtQtQtQtQtQtQtQtQtQtQtQtQtQtQtQtQtQtQtQtQtQtQtQtQtQtQtQtQtQtQtQtQtQtQtQtQtQtQtQtQtQtQtQtQtQtQtQtQtQtQtQtQtQtQtQtQtQt",
"QtQtQtQtQtQtQtQtQtQtQtQtQtQtQtQtQtQtQtQtQtQtQtQtQtQtQtQtQtQtQtQtQtQtQtQtQtQtQtQtQtQtQtQtQtQtQtQtQtQtQtQtQtQtQtQtQtQtQtQtQtQtQtQt",
"QtQtQtQtQtQtQtQtQtQtQtQtQtQtQtQtQtQtQtQtQtQtQtQtQtQtQtQtQtQtQtQtQtQtQtQtQtQtQtQtQtQtQtQtQtQtQtQtQtQtQtQtQtQtQtQtQtQtQtQtQtQtQtQt",
"QtQtQtQtQtQtQtQtQtQtQtQtQtQtQtQtQtQtQtQtQtQtQtQtQtQtQtQtQtQtQtQtQtQtQtQtQtQtQtQtQtQtQtQtQtQtQtQtQtQtQtQtQtQtQtQtQtQtQtQtQtQtQtQt",
"QtQtQtQtQtQtQtQtQtQtQtQtQtQtQtQtQtQtQtQtQtQtQtQtQtQtQtQtQtQtQtQtQtQtQtQtQtQtQtQtQtQtQtQtQtQtQtQtQtQtQtQtQtQtQtQtQtQtQtQtQtQtQtQt",
"QtQtQtQtQtQtQtQtQtQtQtQtQtQtQtQtQtQtQtQtQtQtQtQtQtQtQtQtQtQtQtQtQtQtQtQtQtQtQtQtQtQtQtQtQtQtQtQtQtQtQtQtQtQtQtQtQtQtQtQtQtQtQtQt",
"QtQtQtQtQtQtQtQtQtQtQtQtQtQtQtQtQtQtQtQtQtQtQtQtQtQtQtQtQtQtQtQtQtQtQtQtQtQtQtQtQtQtQtQtQtQtQtQtQtQtQtQtQtQtQtQtQtQtQtQtQtQtQtQt",
"QtQtQtQtQtQtQtQtQtQtQtQtQtQtQtQtQtQtQtQtQtQtQtQtQtQtQtQtQt.#.aQtQtQt.bQtQtQtQtQtQtQtQtQtQtQtQtQtQtQtQtQtQtQtQtQtQtQtQtQtQtQtQtQt",
"QtQtQtQtQtQtQtQtQtQtQtQtQtQtQtQtQtQtQtQtQtQtQtQtQtQtQtQt.#QtQtQtQt.c.dQtQtQtQtQtQtQtQtQtQtQtQtQtQtQtQtQtQtQtQtQtQtQtQtQtQtQtQtQt",
"QtQtQtQtQtQtQtQtQtQtQtQtQtQtQtQtQtQtQtQtQtQtQtQtQtQtQt.c.e.fQtQtQt.g.hQtQtQtQtQtQtQtQtQtQtQtQtQtQtQtQtQtQtQtQtQtQtQtQtQtQtQtQtQt",
"QtQtQtQtQtQtQtQtQtQtQtQtQtQtQtQtQtQtQtQt.iQtQtQtQtQtQt.j.k.e.lQtQt.m.nQtQtQtQtQtQtQtQtQtQtQtQtQtQtQtQtQtQtQtQtQtQtQtQtQtQtQtQtQt",
"QtQtQtQtQtQtQtQtQtQtQtQtQtQtQtQtQtQtQtQt.oQtQtQtQt.pQt.e.e.k.qQtQt.e.eQtQtQtQtQtQtQtQtQtQtQtQtQtQtQtQtQtQtQtQtQtQtQtQtQtQtQtQtQt",
"QtQtQtQtQtQtQtQtQtQtQtQtQtQtQtQtQtQtQt.r.sQt.hQtQt.tQt.e.u.v.wQtQt.x.e.e.eQt.e.yQtQtQtQtQtQtQtQtQtQtQtQtQtQtQtQtQtQtQtQtQtQtQtQt",
"QtQtQtQtQtQtQtQtQtQtQtQtQtQtQtQtQtQtQt.z.e.A.BQt.C.t.D.E.F.G.hQtQtQt.c.eQtQt.H.I.JQtQtQtQtQtQtQtQtQtQtQtQtQtQtQtQtQtQtQtQtQtQtQt",
"QtQtQtQtQtQtQtQtQtQtQtQtQtQtQtQtQtQtQt.g.e.K.cQt.L.t.M.N.G.O.hQtQtQtQtQtQtQt.P.e.QQtQtQtQtQtQtQtQtQtQtQtQtQtQtQtQtQtQtQtQtQtQtQt",
"QtQtQtQtQtQtQtQtQtQtQtQtQtQtQtQtQtQtQt.R.e.f.cQt.t.S.h.T.U.h.VQt.tQt.W.hQtQt.e.G.XQtQtQtQtQtQtQtQtQtQtQtQtQtQtQtQtQtQtQtQtQtQtQt",
"QtQtQtQtQtQtQtQtQtQtQtQtQtQtQtQtQtQtQt.Y.Z.0.1Qt.h.h.h.h.2.h.h.3.t.4.5.6Qt.7.8.9QtQtQtQtQtQtQtQtQtQtQtQtQtQtQtQtQtQtQtQtQtQtQtQt",
"QtQtQtQtQtQtQtQtQtQtQtQtQtQtQtQtQtQtQt#..I##.h#a.h#b.h.h#c#d.5#e#f.5.h#gQt.c#h.k#i#jQtQtQtQtQtQtQtQtQtQtQtQtQtQtQtQtQtQtQtQtQtQt",
"QtQtQtQtQtQtQtQtQtQtQtQtQtQtQtQtQtQtQt#k.G#l#m.h#n#b#o#m#p#q.5.5.h.h.hQtQt.c.b#rQtQtQtQtQtQtQtQtQtQtQtQtQtQtQtQtQtQtQtQtQtQtQtQt",
"QtQtQtQtQtQtQtQtQtQtQtQtQtQtQtQtQtQtQtQt#s.t#q#t.t.t.t.t#u#b#v.h.5.t#w.eQt.G.e.e#xQtQtQtQtQtQtQtQtQtQtQtQtQtQtQtQtQtQtQtQtQtQtQt",
"QtQtQtQtQtQtQtQtQtQtQtQtQtQtQtQtQtQtQt#k#y#z#q#b.t.t.t.t#A.2#B.5#C#D#m#E.e#F#G.k#HQtQtQtQtQtQtQtQtQtQtQtQtQtQtQtQtQtQtQtQtQtQtQt",
"QtQtQtQtQtQtQtQtQtQtQtQtQtQtQtQtQtQtQt#I#J#K#L#M#u#q#N.t#O#P#Q#m#b#R.h#S#T#U.e#V#W.hQtQtQtQtQtQtQtQtQtQtQtQtQtQtQtQtQtQtQtQtQtQt",
"QtQtQtQtQtQtQtQtQtQtQtQtQtQtQtQtQtQtQt#X#b.t#M#M#N#N#N#O#N#Y#u#b#b#Z.h#0.h.bQt#1#2QtQtQtQtQtQtQtQtQtQtQtQtQtQtQtQtQtQtQtQtQtQtQt",
"QtQtQtQtQtQtQtQtQtQtQtQtQtQtQtQtQtQt#3#X#b.t#M#M#N#4#5#N#N#N#u#6#R#7.h#8#9a..cQtQtQta##iQtQtQtQtQtQtQtQtQtQtQtQtQtQtQtQtQtQtQtQt",
"QtQtQtQtQtQtQtQtQtQtQtQtQtQtQtQtQtQtaaab#b#Macadaeafag#N#Nahai#M#b.hajak#9al.xQt.hQtQtQtQtQtQtQtQtQtQtQtQtQtQtQtQtQtQtQtQtQtQtQt",
"QtQtQtQtQtQtQtQtQtQtQtQtQtQtQtQtQtQtamaj.tah#Nanaoapagaqag#N#N#M#b#b#b.h#9aras.hQtQtQtQtQtQtQtQtQtQtQtQtQtQtQtQtQtQtQtQtQtQtQtQt",
"QtQtQtQtQtQtQtQtQtQtQtQtQtQtQtQtQtQtatauavawaxayagagazaAaBazag#N#Yah#b.h.h.baCaDQtQtQtQtQtQtQtQtQtQtQtQtQtQtQtQtQtQtQtQtQtQtQtQt",
"QtQtQtQtQtQtQtQtQtQtQtQtQtQtQtQtQtQtaEaFavaGaHayagaIaJaKaKaLaI#N#NaMaN.h.M.baO.XQtQtQtQtQtQtQtQtQtQtQtQtQtQtQtQtQtQtQtQtQtQtQtQt",
"QtQtQtQtQtQtQtQtQtQtQtQtQtQtQtQtQtQtaPaQaRaSaGawaTagaBaBaUaBaKan#N.taV.MaW.baXQt.eQtQtQtQtQtQtQtQtQtQtQtQtQtQtQtQtQtQtQtQtQtQtQt",
"QtQtQtQtQtQtQtQtQtQtQtQtQtQtQtQtQtQtaYaZa0aSaGaHazagaBaUa1a2a3a4a5#b.t.haWa6a7a8a9QtQtQtQtQtQtQtQtQtQtQtQtQtQtQtQtQtQtQtQtQtQtQt",
"QtQtQtQtQtQtQtQtQtQtQtQtQtQtQtQtQtQtb.aZavb#babbazazaTazaTa3a3bc#N#Mbd.hbe.bbfbgQtQtQtQtQtQtQtQtQtQtQtQtQtQtQtQtQtQtQtQtQtQtQtQt",
"QtQtQtQtQtQtQtQtQtQtQtQtQtQtQtQtQtQtbhbibjbkazazazazazblazaBbm#Nbn#M#A.h#pboaXQtQtQtQtQtQtQtQtQtQtQtQtQtQtQtQtQtQtQtQtQtQtQtQtQt",
"QtQtQtQtQtQtQtQtQtQtQtQtQtQtQtQtQtQtbpbqbrazbsazazazaBazazbt#5bubv#M.tbw.5bx#3QtQtQtQtQtQtQtQtQtQtQtQtQtQtQtQtQtQtQtQtQtQtQtQtQt",
"QtQtQtQtQtQtQtQtQtQtQtQtQtQtQtQtQtQtbybzbAazazbBazazaBbCbDaKbEaK#M#b.tbFbGbHQtQtQtQtQtQtQtQtQtQtQtQtQtQtQtQtQtQtQtQtQtQtQtQtQtQt",
"QtQtQtQtQtQtQtQtQtQtQtQtQtQtQtQtQtQtbIbzbJbKbKbLazazazaBaUaUaKbu#D#bbMbN.hbOQtQtQtQtQtQtQtQtQtQtQtQtQtQtQtQtQtQtQtQtQtQtQtQtQtQt",
"QtQtQtQtQtQtQtQtQtQtQtQtQtQtQtQtQtQtbPbQbRbSbSbTbUazaIaTaBaIagbVajbWbX.hbYQtQtQtQtQtQtQtQtQtQtQtQtQtQtQtQtQtQtQtQtQtQtQtQtQtQtQt",
"QtQtQtQtQtQtQtQtQtQtQtQtQtQtQtQtQtQtbZb0b1b1b2bTb3aBazb4aBagb5b6.tb7b8b9.XQtQtQtQtQtQtQtQtQtQtQtQtQtQtQtQtQtQtQtQtQtQtQtQtQtQtQt",
"QtQtQtQtQtQtQtQtQtQtQtQtQtQtQtQtQtQtQtb0b1c.c#cacbbuccaKaKagb6bEcd.hcebYQtQtQtQtQtQtQtQtQtQtQtQtQtQtQtQtQtQtQtQtQtQtQtQtQtQtQtQt",
"QtQtQtQtQtQtQtQtQtQtQtQtQtQtQtQtQtQtQtQtcfcgb6chciaKcibuaKaIbEcj.h.h.XQtQtQtQtQtQtQtQtQtQtQtQtQtQtQtQtQtQtQtQtQtQtQtQtQtQtQtQtQt",
"QtQtQtQtQtQtQtQtQtQtQtQtQtQtQtQtQtQtQtQtQt.XckclcmcncocpcqcrcsctcuQtQtQtQtQtQtQtQtQtQtQtQtQtQtQtQtQtQtQtQtQtQtQtQtQtQtQtQtQtQtQt",
"QtQtQtQtQtQtQtQtQtQtQtQtQtQtQtQtQtQtQtQtQtQtQtQtQtQtQtQtQtQtQtQtQtQtQtQtQtQtQtQtQtQtQtQtQtQtQtQtQtQtQtQtQtQtQtQtQtQtQtQtQtQtQtQt",
"QtQtQtQtQtQtQtQtQtQtQtQtQtQtQtQtQtQtQtQtQtQtQtQtQtQtQtQtQtQtQtQtQtQtQtQtQtQtQtQtQtQtQtQtQtQtQtQtQtQtQtQtQtQtQtQtQtQtQtQtQtQtQtQt",
"QtQtQtQtQtQtQtQtQtQtQtQtQtQtQtQtQtQtQtQtQtQtQtQtQtQtQtQtQtQtQtQtQtQtQtQtQtQtQtQtQtQtQtQtQtQtQtQtQtQtQtQtQtQtQtQtQtQtQtQtQtQtQtQt",
"QtQtQtQtQtQtQtQtQtQtQtQtQtQtQtQtQtQtQtQtQtQtQtQtQtQtQtQtQtQtQtQtQtQtQtQtQtQtQtQtQtQtQtQtQtQtQtQtQtQtQtQtQtQtQtQtQtQtQtQtQtQtQtQt",
"QtQtQtQtQtQtQtQtQtQtQtQtQtQtQtQtQtQtQtQtQtQtQtQtQtQtQtQtQtQtQtQtQtQtQtQtQtQtQtQtQtQtQtQtQtQtQtQtQtQtQtQtQtQtQtQtQtQtQtQtQtQtQtQt",
"QtQtQtQtQtQtQtQtQtQtQtQtQtQtQtQtQtQtQtQtQtQtQtQtQtQtQtQtQtQtQtQtQtQtQtQtQtQtQtQtQtQtQtQtQtQtQtQtQtQtQtQtQtQtQtQtQtQtQtQtQtQtQtQt",
"QtQtQtQtQtQtQtQtQtQtQtQtQtQtQtQtQtQtQtQtQtQtQtQtQtQtQtQtQtQtQtQtQtQtQtQtQtQtQtQtQtQtQtQtQtQtQtQtQtQtQtQtQtQtQtQtQtQtQtQtQtQtQtQt",
"QtQtQtQtQtQtQtQtQtQtQtQtQtQtQtQtQtQtQtQtQtQtQtQtQtQtQtQtQtQtQtQtQtQtQtQtQtQtQtQtQtQtQtQtQtQtQtQtQtQtQtQtQtQtQtQtQtQtQtQtQtQtQtQt",
"QtQtQtQtQtQtQtQtQtQtQtQtQtQtQtQtQtQtQtQtQtQtQtQtQtQtQtQtQtQtQtQtQtQtQtQtQtQtQtQtQtQtQtQtQtQtQtQtQtQtQtQtQtQtQtQtQtQtQtQtQtQtQtQt",
"QtQtQtQtQtQtQtQtQtQtQtQtQtQtQtQtQtQtQtQtQtQtQtQtQtQtQtQtQtQtQtQtQtQtQtQtQtQtQtQtQtQtQtQtQtQtQtQtQtQtQtQtQtQtQtQtQtQtQtQtQtQtQtQt",
"QtQtQtQtQtQtQtQtQtQtQtQtQtQtQtQtQtQtQtQtQtQtQtQtQtQtQtQtQtQtQtQtQtQtQtQtQtQtQtQtQtQtQtQtQtQtQtQtQtQtQtQtQtQtQtQtQtQtQtQtQtQtQtQt",
"QtQtQtQtQtQtQtQtQtQtQtQtQtQtQtQtQtQtQtQtQtQtQtQtQtQtQtQtQtQtQtQtQtQtQtQtQtQtQtQtQtQtQtQtQtQtQtQtQtQtQtQtQtQtQtQtQtQtQtQtQtQtQtQt",
"QtQtQtQtQtQtQtQtQtQtQtQtQtQtQtQtQtQtQtQtQtQtQtQtQtQtQtQtQtQtQtQtQtQtQtQtQtQtQtQtQtQtQtQtQtQtQtQtQtQtQtQtQtQtQtQtQtQtQtQtQtQtQtQt",
"QtQtQtQtQtQtQtQtQtQtQtQtQtQtQtQtQtQtQtQtQtQtQtQtQtQtQtQtQtQtQtQtQtQtQtQtQtQtQtQtQtQtQtQtQtQtQtQtQtQtQtQtQtQtQtQtQtQtQtQtQtQtQtQt"};
