/* XPM */
static char *dummy[]={
"64 64 367 2",
"Qt c None",
"bq c None",
"ci c None",
".L c None",
"bM c None",
".b c None",
".z c None",
".r c None",
".m c None",
"as c None",
"aD c None",
".i c None",
".p c None",
".A c None",
"ar c None",
"b. c None",
"dR c None",
"cw c None",
"cM c #000000",
"bp c #813515",
"b4 c #822710",
".B c #9b0c10",
"a9 c #a74011",
".Q c #a83d15",
".V c #b33720",
".K c #d34118",
".# c #de3e17",
".C c #e02b16",
"#D c #e13016",
".G c #e22a15",
"#e c #e22d16",
".h c #e32816",
".q c #e33417",
"aR c #e52e1f",
".H c #ea2115",
"b3 c #eb3118",
".P c #ee2f17",
".F c #ef3017",
"#V c #f3641b",
"dS c #faebeb",
"#T c #fafcfd",
".Y c #ec2215",
"cx c #ffffff",
".J c #de3e17",
".g c #e03717",
".5 c #ec2716",
"dx c #000000",
"bL c #943b14",
".a c #de3e17",
"c9 c #2f2c18",
".R c #df3c17",
"#S c #df3a17",
"#h c #e33317",
".l c #d83c17",
".I c #dc2d10",
".f c #de3e17",
"cX c #644215",
"#6 c #e52311",
".n c #e22614",
"dn c #ffffff",
"#A c #de3e17",
"bs c #fafdfd",
"ch c #803d1f",
"br c #b42e14",
".u c #de3e17",
".U c #de3d17",
"#j c #d43316",
"dE c #faf5f5",
"#z c #de3e17",
"#B c #fafdfd",
"dm c #f7f5f4",
"dQ c #6a3212",
"aS c #fafdfd",
".S c #de3e17",
".W c #f9fefd",
"cj c #fafcfc",
".c c #dd3e17",
".X c #de3e17",
"dP c #821711",
".x c #e32816",
"dF c #732f13",
".y c #dd3e17",
"#5 c #de3e17",
"#E c #e32816",
"dG c #832813",
"dO c #ea721f",
"#7 c #de3e17",
"#i c #de3e17",
"bN c #782d12",
"aC c #e33417",
"aQ c #e03817",
"cN c #7a3815",
"cW c #833415",
".M c #b03115",
"at c #e33417",
"aE c #e52716",
"dH c #e86e1e",
".k c #de3e17",
".6 c #e42816",
"dN c #fbdb16",
"#U c #8b2913",
"dI c #fbd914",
"aL c #e79921",
"aH c #e79921",
"#C c #de3e17",
"#c c #ee2f17",
"cP c #f09820",
"cT c #f09920",
"aw c #f09e22",
"av c #f19f22",
"cA c #f1d612",
"cI c #f2d611",
"bz c #f2d612",
"b0 c #e99b21",
"bc c #ed9b21",
"ce c #f09b21",
"ct c #f09e21",
"bl c #f09f21",
"bF c #f2da13",
"bC c #f3d813",
"bk c #f3da13",
"aW c #e79722",
"aY c #e79821",
"aI c #e79822",
"aJ c #e79921",
"a5 c #e89822",
"cJ c #e89a21",
"bh c #e89c20",
"db c #f09820",
"c5 c #f09920",
"b6 c #f19820",
"bQ c #f19920",
"bZ c #f19a21",
"cl c #f2d612",
"cm c #f2d713",
"bd c #f3d713",
"bw c #f3d813",
"b7 c #e59622",
"a2 c #e89b21",
"a1 c #e99d21",
"bx c #efd410",
"di c #f19e21",
"cS c #f2d612",
"cs c #f3db1b",
"bW c #f4d813",
"bj c #f4d913",
"a3 c #e3c906",
"aK c #e9a122",
".3 c #ee2f17",
"bE c #f0d410",
".v c #de3e17",
"aX c #e3c806",
"bR c #e3c906",
"bX c #e4ca07",
"c0 c #e7cb08",
"c4 c #e8cb09",
"bS c #f5dd35",
"dJ c #fbd914",
"dw c #782d12",
"dM c #fbd914",
".o c #de3e17",
".t c #de3e17",
"dL c #f4d814",
"dD c #e32311",
"c8 c #783118",
"dv c #db331c",
"#d c #f76b1c",
"bB c #fbe319",
"#s c #fa9b21",
"dC c #e23416",
"cD c #f1d613",
"ax c #f29f20",
"bV c #f3d914",
"cq c #f4d914",
"cb c #f8de18",
"cR c #fae119",
".d c #de3e17",
".4 c #f4651b",
"dB c #fad813",
"cL c #7e3515",
"ab c #e32816",
"au c #f29f20",
"aM c #f2a120",
"ca c #fae219",
"bm c #a75016",
"b1 c #dd5f1a",
".e c #de3e17",
"#r c #df2b16",
"#q c #e22916",
"#J c #e32816",
"bI c #e52f16",
"cu c #ec2a16",
"cU c #ed2616",
"cK c #ed2a16",
"a6 c #ed661a",
".1 c #ee2f17",
".2 c #ef2f17",
"cf c #ef3718",
"dK c #f0d612",
"bf c #f19e21",
"ay c #f1a021",
"aO c #f1a120",
"aa c #f29f20",
"ao c #f29f21",
"a4 c #f3a51e",
"bD c #f4da14",
"bH c #f5681c",
"bY c #f9a41d",
"#Z c #f9a51d",
"bU c #fae219",
"dA c #fee706",
"cB c #070707",
"cH c #151515",
"cY c #732f13",
"b# c #7a3815",
"cy c #7b3815",
"bu c #8b3916",
"bt c #8f3c16",
"bK c #8f3d17",
"#m c #8f3e15",
"#w c #924115",
"dl c #a1300f",
"d. c #a13514",
".N c #a43814",
"bb c #a44c15",
"aT c #a84317",
"ba c #c65618",
"bJ c #c95417",
"do c #d93516",
"bP c #dc5b19",
".8 c #dd2f17",
"de c #dd3e17",
".j c #de3e17",
"dz c #de3f17",
".T c #df3c17",
"#X c #df9224",
"aN c #df9424",
"#1 c #df9524",
"ds c #e03d18",
"## c #e12a16",
"aF c #e13617",
"cV c #e22816",
"#8 c #e22916",
"aq c #e23516",
"bo c #e23717",
"#n c #e23d17",
"c7 c #e32716",
".s c #e32816",
".D c #e32916",
"#R c #e32a16",
".7 c #e32b16",
"aG c #e33417",
".O c #e33a17",
"#u c #e33e17",
"#k c #e42816",
"ah c #e42916",
"#Q c #e42a16",
"cv c #e42e11",
"du c #e43216",
"a8 c #e43317",
"#y c #e52a15",
"aj c #e52a16",
"#N c #e52b16",
"b2 c #e53317",
"ck c #e73017",
"#f c #e92115",
"d# c #e92615",
"#4 c #e95219",
".9 c #e95319",
"dk c #ea2616",
"bO c #ea3018",
"cz c #eb2115",
".w c #eb2215",
".E c #ec2215",
"#. c #ec2315",
"bn c #ec2a16",
"a7 c #ec2d16",
"b5 c #ec3218",
"cO c #ed2416",
"cZ c #ed2c16",
"c6 c #ed2e16",
"#v c #ee2416",
"aU c #ee2d17",
"a. c #ee3217",
"ag c #ee3317",
".0 c #ef2f17",
"#o c #ef3017",
"cg c #ef3318",
"#t c #ef3c19",
"aV c #ef621a",
"dj c #f15318",
"da c #f15319",
"ai c #f15419",
"#9 c #f15519",
"#H c #f1641a",
"#L c #f16d1d",
"#Y c #f29f21",
".Z c #f3631a",
"bv c #f3641b",
"an c #f39f21",
"#0 c #f3a021",
"ac c #f3a121",
"c# c #f3d914",
"#g c #f4651b",
"am c #f4711d",
"ap c #f4741e",
"bT c #f4d914",
"cd c #f4d915",
"cc c #f4da15",
"by c #f5da14",
"#G c #f6641b",
"#M c #f6661c",
"#x c #f6681c",
"#2 c #f66a1d",
"#b c #f7671c",
"ad c #f7691d",
"#l c #f8681c",
"dp c #f8b909",
"cp c #f8df19",
"cE c #f8e019",
"cC c #f8e01a",
"ak c #f9681b",
"#W c #f9681c",
"aA c #f96d1c",
"#p c #f99a21",
"#K c #f9a51d",
"#I c #f9a61d",
"dt c #f9bb08",
"bA c #f9e01a",
"#a c #fa681b",
"aB c #fa6b1b",
"aP c #fa6c1b",
"al c #faa11e",
"az c #faa21d",
"c2 c #fadd18",
"cQ c #fadf19",
"dq c #fae019",
"bi c #fae119",
"c. c #fae219",
"#O c #fb671b",
"#F c #fb681b",
"#P c #fb691b",
"#3 c #fb6b1b",
"af c #fb6c1b",
"bG c #fb701a",
"ae c #fb9c1f",
"a# c #fb9c20",
"dr c #fbd714",
"dy c #fbd813",
"dc c #fbd914",
"dh c #fbdb16",
"dd c #fbdb17",
"c1 c #fbdc17",
"c3 c #fbdd18",
"aZ c #fbe219",
"be c #fbe319",
"bg c #fbe419",
"cF c #fce419",
"a0 c #fce51a",
"cG c #fefbe9",
"co c #fefefe",
"df c #ffe900",
"dg c #ffea00",
"b8 c #ffea01",
"b9 c #ffea04",
"cr c #fffffd",
"cn c #fffffe",
"QtQtQtQtQtQtQtQtQtQtQtQtQtQtQtQtQtQtQtQtQtQtQtQtQtQtQtQtQtQtQtQtQtQtQtQtQtQtQtQtQtQtQtQtQtQtQtQtQtQtQtQtQtQtQtQtQtQtQtQtQtQtQtQt",
"QtQtQtQtQtQtQtQtQtQtQtQtQtQtQtQtQtQtQtQtQtQtQtQtQtQtQtQtQtQtQtQtQtQtQtQtQtQtQtQtQtQtQtQtQtQtQtQtQtQtQtQtQtQtQtQtQtQtQtQtQtQtQtQt",
"QtQtQtQtQtQtQtQtQtQtQtQtQtQtQtQtQtQtQtQtQtQtQtQtQtQtQtQtQtQtQtQtQtQtQtQtQtQtQtQtQtQtQtQtQtQtQtQtQtQtQtQtQtQtQtQtQtQtQtQtQtQtQtQt",
"QtQtQtQtQtQtQtQtQtQtQtQtQtQtQtQtQtQtQtQtQtQtQtQtQtQtQtQtQtQtQtQtQtQtQtQtQtQtQtQtQtQtQtQtQtQtQtQtQtQtQtQtQtQtQtQtQtQtQtQtQtQtQtQt",
"QtQtQtQtQtQtQtQtQtQtQtQtQtQtQtQtQtQtQtQtQtQtQtQtQtQtQtQtQtQtQtQtQtQtQtQtQtQtQtQtQtQtQtQtQtQtQtQtQtQtQtQtQtQtQtQtQtQtQtQtQtQtQtQt",
"QtQtQtQtQtQtQtQtQtQtQtQtQtQtQtQtQtQtQtQtQtQtQtQtQtQtQtQtQtQtQtQtQtQtQtQtQtQtQtQtQtQtQtQtQtQtQtQtQtQtQtQtQtQtQtQtQtQtQtQtQtQtQtQt",
"QtQtQtQtQtQtQtQtQtQtQtQtQtQtQtQtQtQtQtQtQtQtQtQtQtQtQtQtQtQtQtQtQtQtQtQtQtQtQtQtQtQtQtQtQtQtQtQtQtQtQtQtQtQtQtQtQtQtQtQtQtQtQtQt",
"QtQtQtQtQtQtQtQtQtQtQtQtQtQtQtQtQtQtQtQtQtQtQtQtQtQtQtQtQtQtQtQtQtQtQtQtQtQtQtQtQtQtQtQtQtQtQtQtQtQtQtQtQtQtQtQtQtQtQtQtQtQtQtQt",
"QtQtQtQtQtQtQtQtQtQtQtQtQtQtQtQtQtQtQtQtQtQtQtQtQtQtQtQtQtQtQtQtQtQtQtQtQtQtQtQtQtQtQtQtQtQtQtQtQtQtQtQtQtQtQtQtQtQtQtQtQtQtQtQt",
"QtQtQtQtQtQtQtQtQtQtQtQtQtQtQtQtQtQtQtQtQtQtQtQtQtQtQtQtQtQtQtQtQtQtQtQtQtQtQtQtQtQtQtQtQtQtQtQtQtQtQtQtQtQtQtQtQtQtQtQtQtQtQtQt",
"QtQtQtQtQtQtQtQtQtQtQtQtQtQtQtQtQtQtQtQtQtQtQtQtQtQtQtQtQtQtQtQtQtQtQtQtQtQtQtQtQtQtQtQtQtQtQtQtQtQtQtQtQtQtQtQtQtQtQtQtQtQtQtQt",
"QtQtQtQtQtQtQtQtQtQtQtQtQtQtQtQtQtQtQtQtQtQtQtQtQtQtQtQtQtQtQtQtQtQtQtQtQtQtQtQtQtQtQtQtQtQtQtQtQtQtQtQtQtQtQtQtQtQtQtQtQtQtQtQt",
"QtQtQtQtQtQtQtQtQtQtQtQtQtQtQtQtQtQtQtQtQtQtQtQtQtQtQtQtQtQtQtQtQtQtQtQtQtQtQtQtQtQtQtQtQtQtQtQtQtQtQtQtQtQtQtQtQtQtQtQtQtQtQtQt",
"QtQtQtQtQtQtQtQtQtQtQtQtQtQtQtQtQtQtQtQtQtQtQtQtQtQtQtQtQtQtQtQtQtQtQtQtQtQtQtQtQtQtQtQtQtQtQtQtQtQtQtQtQtQtQtQtQtQtQtQtQtQtQtQt",
"QtQtQtQtQtQtQtQtQtQtQtQtQtQtQtQtQtQtQtQtQtQtQtQtQtQtQtQtQtQtQtQtQtQtQtQtQtQtQtQtQtQtQtQtQtQtQtQtQtQtQtQtQtQtQtQtQtQtQtQtQtQtQtQt",
"QtQtQtQtQtQtQtQtQtQtQtQtQtQtQtQtQtQtQtQtQtQtQtQtQtQtQtQtQtQtQtQtQtQtQtQtQtQtQtQtQtQtQtQtQtQtQtQtQtQtQtQtQtQtQtQtQtQtQtQtQtQtQtQt",
"QtQtQtQtQtQtQtQtQtQtQtQtQtQtQtQtQtQtQtQtQtQtQtQtQtQtQtQtQtQtQtQtQtQtQtQtQtQtQtQtQtQtQtQtQtQtQtQtQtQtQtQtQtQtQtQtQtQtQtQtQtQtQtQt",
"QtQtQtQtQtQtQtQtQtQtQtQtQtQtQtQtQtQtQtQtQtQtQtQtQtQtQtQtQtQtQtQtQtQtQtQtQtQtQtQtQtQtQtQtQtQtQtQtQtQtQtQtQtQtQtQtQtQtQtQtQtQtQtQt",
"QtQtQtQtQtQtQtQtQtQtQtQtQtQtQtQtQtQtQtQtQtQtQtQtQtQtQtQtQtQtQtQtQtQtQtQtQtQtQtQtQtQtQtQtQtQtQtQtQtQtQtQtQtQtQtQtQtQtQtQtQtQtQtQt",
"QtQtQtQtQtQtQtQtQtQtQtQtQtQtQtQtQtQtQtQtQtQtQtQtQtQtQtQtQtQtQtQtQtQtQtQtQtQtQtQtQtQtQtQtQtQtQtQtQtQtQtQtQtQtQtQtQtQtQtQtQtQtQtQt",
"QtQtQtQtQtQtQtQtQtQtQtQtQtQtQtQtQtQtQtQtQtQtQtQtQtQtQtQtQtQtQtQtQtQtQtQtQtQtQtQtQtQtQtQtQtQtQtQtQtQtQtQtQtQtQtQtQtQtQtQtQtQtQtQt",
"QtQtQtQtQtQtQtQtQtQtQtQtQtQtQtQtQtQtQtQtQtQtQtQtQtQtQtQtQtQtQtQtQtQtQtQtQtQtQtQtQtQtQtQtQtQtQtQtQtQtQtQtQtQtQtQtQtQtQtQtQtQtQtQt",
"QtQtQtQtQtQtQtQtQtQtQtQtQtQtQtQtQtQtQtQtQtQtQtQtQtQtQtQtQtQtQtQtQtQtQtQtQtQtQtQtQtQtQtQtQtQtQtQtQtQtQtQtQtQtQtQtQtQtQtQtQtQtQtQt",
"QtQtQtQtQtQtQtQtQtQtQtQtQtQtQtQtQtQtQtQtQtQtQtQtQtQtQtQtQtQtQtQtQtQtQtQtQtQtQtQtQtQtQtQtQtQtQtQtQtQtQtQtQtQtQtQtQtQtQtQtQtQtQtQt",
"QtQtQtQtQtQtQtQtQtQtQtQtQtQtQtQtQtQtQtQtQtQtQtQtQtQtQtQtQtQtQtQtQtQtQtQtQtQtQtQtQtQtQtQtQtQtQtQtQtQtQtQtQtQtQtQtQtQtQtQtQtQtQtQt",
"QtQtQtQtQtQtQtQtQtQtQtQtQtQtQtQtQtQtQtQtQtQtQtQtQtQtQtQt.#.a.bQtQtQtQtQtQtQtQtQtQtQtQtQtQtQtQtQtQtQtQtQtQtQtQtQtQtQtQtQtQtQtQtQt",
"QtQtQtQtQtQtQtQtQtQtQtQtQtQtQtQtQtQtQtQtQtQtQtQtQt.b.#.#.#QtQt.c.b.#QtQtQt.b.#.#.b.bQtQtQtQtQtQtQtQtQtQtQtQtQtQtQtQtQtQtQtQtQtQt",
"QtQtQtQtQtQtQtQtQtQtQtQtQtQtQtQtQtQtQtQtQtQtQtQtQt.d.#.b.bQtQt.e.b.#.bQtQtQtQt.b.#.bQtQtQtQtQtQtQtQtQtQtQtQtQtQtQtQtQtQtQtQtQtQt",
"QtQtQtQtQtQtQtQtQtQtQtQtQtQtQtQtQtQtQtQtQtQtQtQtQt.e.b.bQt.eQt.e.b.f.bQtQtQtQtQt.#.#QtQtQtQtQtQtQtQtQtQtQtQtQtQtQtQtQtQtQtQtQtQt",
"QtQtQtQtQtQtQtQtQtQtQtQtQtQtQtQtQtQtQt.g.h.iQtQtQt.e.b.bQt.jQt.k.l.j.#.m.h.nQt.o.f.bQt.p.q.rQtQtQtQtQtQtQtQtQtQtQtQtQtQtQtQtQtQt",
"QtQtQtQtQtQtQtQtQtQtQtQtQtQtQtQtQtQt.b.#.#Qt.qQt.s.t.uQt.v.w.xQt.y.e.b.z.A.B.a.e.f.CQt.aQtQtQtQtQtQtQtQtQtQtQtQtQtQtQtQtQtQtQtQt",
"QtQtQtQtQtQtQtQtQtQtQtQtQtQtQtQtQtQtQtQt.#.#.qQt.D.E.e.b.e.s.s.F.e.e.#.G.#Qt.e.j.H.G.I.J.K.LQtQtQtQtQtQtQtQtQtQtQtQtQtQtQtQtQtQt",
"QtQtQtQtQtQtQtQtQtQtQtQtQtQtQtQtQtQtQtQt.b.#.bQt.M.s.E.b.e.E.N.O.e.O.P.Q.R.S.e.T.U.V.e.#QtQtQtQtQtQtQtQtQtQtQtQtQtQtQtQtQtQtQtQt",
"QtQtQtQtQtQtQtQtQtQtQtQtQtQtQtQtQtQtQtQtQt.iQtQt.W.s.s.X.Y.E.Z.0.1.2.3.4.5.#.6.7.eQt.eQtQtQtQtQtQtQtQtQtQtQtQtQtQtQtQtQtQtQtQtQt",
"QtQtQtQtQtQtQtQtQtQtQtQtQtQtQtQtQtQtQtQtQt.eQtQtQt.8.9#..h###a#b#c.2#d#a#e.##f#g.jQt.e#h.b#iQtQtQtQtQtQtQtQtQtQtQtQtQtQtQtQtQtQt",
"QtQtQtQtQtQtQtQtQtQtQtQtQtQtQtQtQtQtQt#jQt.e.#.mQt#k#l#m.E#n#o#p#q#r#s#t#u#v#w#x#yQt#z#A.v.eQtQtQtQtQtQtQtQtQtQtQtQtQtQtQtQtQtQt",
"QtQtQtQtQtQtQtQtQtQtQtQtQtQtQtQtQtQt.s.s#B.e#C#D#E.s#F#a#k#G#H#I#J#J#K#L#M#N#O#P#Q#R#S.e.e#TQtQtQtQtQtQtQtQtQtQtQtQtQtQtQtQtQtQt",
"QtQtQtQtQtQtQtQtQtQtQtQtQtQtQtQtQtQtQt#U.s.e.e.##V.s#W#a#a#b#X#Y#Z#J#0#1#2#3#a#W.D#4.e#5.e#6QtQtQtQtQtQtQtQtQtQtQtQtQtQtQtQtQtQt",
"QtQtQtQtQtQtQtQtQtQtQtQtQtQtQtQtQtQtQtQtQt#7.j#8#9.sa.#Fa##b#Y#Yaaab#Yacadaeafagahai.e.e.JQtQtQtQtQtQtQtQtQtQtQtQtQtQtQtQtQtQtQt",
"QtQtQtQtQtQtQtQtQtQtQtQtQtQtQtQtQtQtQt.sQtQt.e#8ajak.s#aalaman#Yaaaaaoacapalaf#Q#aaq.e.earasQtQtQtQtQtQtQtQtQtQtQtQtQtQtQtQtQtQt",
"QtQtQtQtQtQtQtQtQtQtQtQtQtQtQtQtQtQtQtQt.satQt#8.s#a#a#aal#YauavaaaaawaxayazaAaB#P#Q#8.eaCaDQtQtQtQtQtQtQtQtQtQtQtQtQtQtQtQtQtQt",
"QtQtQtQtQtQtQtQtQtQtQtQtQtQtQtQtQtQtQtQtaEaFaG.s.s#aan#X#YaHaIaJaaaaaKaIaLaMaNaOaP#Q.s.jaQaRQtQtQtQtQtQtQtQtQtQtQtQtQtQtQtQtQtQt",
"QtQtQtQtQtQtQtQtQtQtQtQtQtQtQtQtQtQtQtQtaSaTaGaU.saVaW#YaXaJaYaZaaaaa0a1a2a3a4a5a6#Qa7a8a9b.QtQtQtQtQtQtQtQtQtQtQtQtQtQtQtQtQtQt",
"QtQtQtQtQtQtQtQtQtQtQtQtQtQtQtQtQtQtQtQtQtb#aGbaaUbbbcbdbdaZaYbeaabfbgbhbibjbkblbmbnbabobpbqQtQtQtQtQtQtQtQtQtQtQtQtQtQtQtQtQtQt",
"QtQtQtQtQtQtQtQtQtQtQtQtQtQtQtQtQtQtQtbrbsbtbuba.sbv#abwbxbybzbAaabBbAbCbDbEbFbGbHbIbJbKbLbMQtQtQtQtQtQtQtQtQtQtQtQtQtQtQtQtQtQt",
"QtQtQtQtQtQtQtQtQtQtQtQtQtQtQtQtQtQtQtQtbNbOaGbPa5bQalbRbSbybybTbUbVbTbybybWbXbYbZb0b1b2b3b4QtQtQtQtQtQtQtQtQtQtQtQtQtQtQtQtQtQt",
"QtQtQtQtQtQtQtQtQtQtQtQtQtQtQtQtQtQtQtQtQtb#b5.0b6aWb7b8b8b9c.c#cacbc#c.b8b8b8cccdcecfcgchciQtQtQtQtQtQtQtQtQtQtQtQtQtQtQtQtQtQt",
"QtQtQtQtQtQtQtQtQtQtQtQtQtQtQtQtQtQtQtQtQtcjck.Eb6clcmcncocncpc#cacqbTcpcrcocncccsctcucvcwcxQtQtQtQtQtQtQtQtQtQtQtQtQtQtQtQtQtQt",
"QtQtQtQtQtQtQtQtQtQtQtQtQtQtQtQtQtQtQtQtQtQtcyczaIcAclcncBcnaZcCbUcDcEcFcGcHcrcccIcJcKcLcMQtQtQtQtQtQtQtQtQtQtQtQtQtQtQtQtQtQtQt",
"QtQtQtQtQtQtQtQtQtQtQtQtQtQtQtQtQtQtQtQtQtQtcN.scOcPclclcQaZbebebUcRbebebgcQcSclcTcUcVcWcXQtQtQtQtQtQtQtQtQtQtQtQtQtQtQtQtQtQtQt",
"QtQtQtQtQtQtQtQtQtQtQtQtQtQtQtQtQtQtQtQtQtQtQtcY.scZb6c0c1c2bic.bUcqc.bic2c3c4c5c6c7c8c9QtQtQtQtQtQtQtQtQtQtQtQtQtQtQtQtQtQtQtQt",
"QtQtQtQtQtQtQtQtQtQtQtQtQtQtQtQtQtQtQtQtQtQtQt#Bd.d#dadbdcddde.jdfdfdfdgdgdhdidjdkdldmdnQtQtQtQtQtQtQtQtQtQtQtQtQtQtQtQtQtQtQtQt",
"QtQtQtQtQtQtQtQtQtQtQtQtQtQtQtQtQtQtQtQtQtQtQtQtcYdo.sdpdqdr.j.j.j.j.jdsdfbidtdudvdwdxQtQtQtQtQtQtQtQtQtQtQtQtQtQtQtQtQtQtQtQtQt",
"QtQtQtQtQtQtQtQtQtQtQtQtQtQtQtQtQtQtQtQtQtQtQtQtQt#B.s.sdydqbi.j#a#a#adzdAdBdCdDdEQtQtQtQtQtQtQtQtQtQtQtQtQtQtQtQtQtQtQtQtQtQtQt",
"QtQtQtQtQtQtQtQtQtQtQtQtQtQtQtQtQtQtQtQtQtQtQtQtQtQtQtdFdGdHdIdJdKdLdMdNdOdPdQdRdSQtQtQtQtQtQtQtQtQtQtQtQtQtQtQtQtQtQtQtQtQtQtQt",
"QtQtQtQtQtQtQtQtQtQtQtQtQtQtQtQtQtQtQtQtQtQtQtQtQtQtQtQtQtQtQtQtQtQtQtQtQtQtQtQtQtQtQtQtQtQtQtQtQtQtQtQtQtQtQtQtQtQtQtQtQtQtQtQt",
"QtQtQtQtQtQtQtQtQtQtQtQtQtQtQtQtQtQtQtQtQtQtQtQtQtQtQtQtQtQtQtQtQtQtQtQtQtQtQtQtQtQtQtQtQtQtQtQtQtQtQtQtQtQtQtQtQtQtQtQtQtQtQtQt",
"QtQtQtQtQtQtQtQtQtQtQtQtQtQtQtQtQtQtQtQtQtQtQtQtQtQtQtQtQtQtQtQtQtQtQtQtQtQtQtQtQtQtQtQtQtQtQtQtQtQtQtQtQtQtQtQtQtQtQtQtQtQtQtQt",
"QtQtQtQtQtQtQtQtQtQtQtQtQtQtQtQtQtQtQtQtQtQtQtQtQtQtQtQtQtQtQtQtQtQtQtQtQtQtQtQtQtQtQtQtQtQtQtQtQtQtQtQtQtQtQtQtQtQtQtQtQtQtQtQt",
"QtQtQtQtQtQtQtQtQtQtQtQtQtQtQtQtQtQtQtQtQtQtQtQtQtQtQtQtQtQtQtQtQtQtQtQtQtQtQtQtQtQtQtQtQtQtQtQtQtQtQtQtQtQtQtQtQtQtQtQtQtQtQtQt",
"QtQtQtQtQtQtQtQtQtQtQtQtQtQtQtQtQtQtQtQtQtQtQtQtQtQtQtQtQtQtQtQtQtQtQtQtQtQtQtQtQtQtQtQtQtQtQtQtQtQtQtQtQtQtQtQtQtQtQtQtQtQtQtQt",
"QtQtQtQtQtQtQtQtQtQtQtQtQtQtQtQtQtQtQtQtQtQtQtQtQtQtQtQtQtQtQtQtQtQtQtQtQtQtQtQtQtQtQtQtQtQtQtQtQtQtQtQtQtQtQtQtQtQtQtQtQtQtQtQt",
"QtQtQtQtQtQtQtQtQtQtQtQtQtQtQtQtQtQtQtQtQtQtQtQtQtQtQtQtQtQtQtQtQtQtQtQtQtQtQtQtQtQtQtQtQtQtQtQtQtQtQtQtQtQtQtQtQtQtQtQtQtQtQtQt",
"QtQtQtQtQtQtQtQtQtQtQtQtQtQtQtQtQtQtQtQtQtQtQtQtQtQtQtQtQtQtQtQtQtQtQtQtQtQtQtQtQtQtQtQtQtQtQtQtQtQtQtQtQtQtQtQtQtQtQtQtQtQtQtQt"};
