/* XPM */
static char *dummy[]={
"64 64 375 2",
"Qt c None",
"bz c None",
"cq c None",
".V c None",
"bU c None",
".# c None",
".M c None",
".y c None",
"aB c None",
"aM c None",
"#f c None",
".p c None",
".L c None",
"bh c None",
"dZ c None",
".5 c None",
"cE c None",
"cU c #000000",
"by c #813515",
"ca c #822710",
".I c #9b0c10",
"bg c #a74011",
".4 c #b33720",
".U c #d34118",
".b c #de3e17",
".K c #e02b16",
".S c #e22a15",
".o c #e32816",
".x c #e33417",
"a0 c #e52e1f",
".R c #ea2115",
".H c #eb2115",
"c# c #eb3118",
".P c #ef3017",
"d0 c #faebeb",
"#2 c #fafcfd",
".j c #de3e17",
"cF c #ffffff",
".a c #de3e17",
".n c #e03717",
"dF c #000000",
"bT c #943b14",
".c c #de3e17",
"df c #2f2c18",
"#1 c #df3a17",
"#r c #e33317",
".s c #d83c17",
".T c #dc2d10",
".k c #de3e17",
"c5 c #644215",
".w c #e33516",
"aA c #eb9389",
"ad c #e52311",
".t c #e22614",
"dv c #ffffff",
"#L c #de3e17",
"bB c #fafdfd",
"cp c #803d1f",
".v c #de3e17",
"bA c #b42e14",
".g c #de3e17",
".3 c #de3d17",
"#t c #d43316",
"dM c #faf5f5",
"#K c #de3e17",
".i c #de3e17",
"#M c #fafdfd",
"du c #f7f5f4",
"dY c #6a3212",
"a1 c #fafdfd",
".2 c #de3e17",
".6 c #f9fefd",
"cr c #fafcfc",
".J c #de3e17",
".f c #dd3e17",
".l c #de3e17",
"#u c #e32816",
"dX c #821711",
".E c #e32816",
"dN c #732f13",
".F c #dd3e17",
"ac c #de3e17",
"dO c #832813",
"dW c #ea721f",
"ae c #de3e17",
"#s c #de3e17",
"bV c #782d12",
"aL c #e33417",
"aZ c #e03817",
"cV c #7a3815",
"c4 c #833415",
".W c #b03115",
"aC c #e33417",
"aN c #e52716",
"dP c #e86e1e",
".r c #de3e17",
"#d c #e42816",
"dV c #fbdb16",
"#3 c #8b2913",
"dQ c #fbd914",
"aU c #e79921",
"aQ c #e79921",
"#p c #de3e17",
"#m c #ee2f17",
"cX c #f09820",
"c1 c #f09920",
"aF c #f09e22",
"aE c #f19f22",
"cI c #f1d612",
"cQ c #f2d611",
"bH c #f2d612",
"b8 c #e99b21",
"bl c #ed9b21",
"cm c #f09b21",
"cB c #f09e21",
"bu c #f09f21",
"bN c #f2da13",
"bK c #f3d813",
"bt c #f3da13",
"a5 c #e79722",
"a7 c #e79821",
"aR c #e79822",
"aS c #e79921",
"bc c #e89822",
"cR c #e89a21",
"bq c #e89c20",
"dj c #f09820",
"db c #f09920",
"cc c #f19820",
"bY c #f19920",
"b7 c #f19a21",
"ct c #f2d612",
"cu c #f2d713",
"bm c #f3d713",
"bE c #f3d813",
"cd c #e59622",
"b# c #e89b21",
"b. c #e99d21",
"bF c #efd410",
"dq c #f19e21",
"c0 c #f2d612",
"cA c #f3db1b",
"b4 c #f4d813",
"bs c #f4d913",
"ba c #e3c906",
"aT c #e9a122",
"## c #ee2f17",
"bM c #f0d410",
".C c #de3e17",
"a6 c #e3c806",
"bZ c #e3c906",
"b5 c #e4ca07",
"c8 c #e7cb08",
"da c #e8cb09",
"b0 c #f5dd35",
"dR c #fbd914",
"dE c #782d12",
"dU c #fbd914",
".u c #de3e17",
".7 c #ec2215",
".B c #de3e17",
".z c #de3e17",
".G c #e22c16",
"dT c #f4d814",
"dL c #e32311",
"de c #783118",
"dD c #db331c",
"#c c #de3e17",
"#n c #f76b1c",
"bJ c #fbe319",
"#D c #fa9b21",
".d c #de3e17",
"dK c #e23416",
"cL c #f1d613",
"aG c #f29f20",
"b3 c #f3d914",
"cy c #f4d914",
"cj c #f8de18",
"cZ c #fae119",
".h c #de3e17",
".Q c #e22a15",
"dJ c #fad813",
"cT c #7e3515",
".m c #de3e17",
"ak c #e32816",
"aD c #f29f20",
"aV c #f2a120",
"ci c #fae219",
"bv c #a75016",
"b9 c #dd5f1a",
".e c #de3e17",
"#C c #df2b16",
"#B c #e22916",
"#S c #e32816",
"bQ c #e52f16",
"cC c #ec2a16",
"c2 c #ed2616",
"cS c #ed2a16",
"bd c #ed661a",
".Z c #ee2f17",
"#. c #ef2f17",
"cn c #ef3718",
"dS c #f0d612",
"bo c #f19e21",
"aH c #f1a021",
"aX c #f1a120",
"aj c #f29f20",
"ax c #f29f21",
"bb c #f3a51e",
"bL c #f4da14",
"bP c #f5681c",
"b6 c #f9a41d",
"#8 c #f9a51d",
"b2 c #fae219",
"dI c #fee706",
"cJ c #070707",
"cP c #151515",
"c6 c #732f13",
"bi c #7a3815",
"cG c #7b3815",
"bD c #8b3916",
"bC c #8f3c16",
"bS c #8f3d17",
"#x c #8f3e15",
"#H c #924115",
"dt c #a1300f",
"dg c #a13514",
".X c #a43814",
"bk c #a44c15",
".0 c #a83d15",
"a2 c #a84317",
"bj c #c65618",
"bR c #c95417",
"dw c #d93516",
"bX c #dc5b19",
"#g c #dd2f17",
"dm c #dd3e17",
".q c #de3e17",
"dH c #de3f17",
".1 c #df3c17",
"#6 c #df9224",
"aW c #df9424",
"a. c #df9524",
"dA c #e03d18",
"#j c #e12a16",
"#N c #e13016",
"aO c #e13617",
"c3 c #e22816",
"af c #e22916",
"#o c #e22d16",
"az c #e23516",
"bx c #e23717",
"#y c #e23d17",
"dd c #e32716",
".A c #e32816",
".N c #e32916",
"#0 c #e32a16",
"#e c #e32b16",
"aP c #e33417",
".Y c #e33a17",
"#F c #e33e17",
"#v c #e42816",
"aq c #e42916",
"#Z c #e42a16",
"cD c #e42e11",
"dC c #e43216",
"bf c #e43317",
"#J c #e52a15",
"as c #e52a16",
"#W c #e52b16",
"c. c #e53317",
"cs c #e73017",
"#q c #e92115",
"dh c #e92615",
"ab c #e95219",
"#h c #e95319",
"ds c #ea2616",
"bW c #ea3018",
"cH c #eb2115",
".D c #eb2215",
".O c #ec2215",
"#i c #ec2315",
"#b c #ec2716",
"bw c #ec2a16",
"be c #ec2d16",
"cb c #ec3218",
"cW c #ed2416",
"c7 c #ed2c16",
"dc c #ed2e16",
"#G c #ee2416",
"a3 c #ee2d17",
"ah c #ee3217",
"ap c #ee3317",
".9 c #ef2f17",
"#z c #ef3017",
"co c #ef3318",
"#E c #ef3c19",
"a4 c #ef621a",
"dr c #f15318",
"di c #f15319",
"ar c #f15419",
"ag c #f15519",
"#Q c #f1641a",
"#U c #f16d1d",
"#7 c #f29f21",
".8 c #f3631a",
"#4 c #f3641b",
"aw c #f39f21",
"#9 c #f3a021",
"al c #f3a121",
"ch c #f3d914",
"#a c #f4651b",
"av c #f4711d",
"ay c #f4741e",
"b1 c #f4d914",
"cl c #f4d915",
"ck c #f4da15",
"bG c #f5da14",
"#P c #f6641b",
"#V c #f6661c",
"#I c #f6681c",
"a# c #f66a1d",
"#l c #f7671c",
"am c #f7691d",
"#w c #f8681c",
"dx c #f8b909",
"cx c #f8df19",
"cM c #f8e019",
"cK c #f8e01a",
"at c #f9681b",
"#5 c #f9681c",
"aJ c #f96d1c",
"#A c #f99a21",
"#T c #f9a51d",
"#R c #f9a61d",
"dB c #f9bb08",
"bI c #f9e01a",
"#k c #fa681b",
"aK c #fa6b1b",
"aY c #fa6c1b",
"au c #faa11e",
"aI c #faa21d",
"d. c #fadd18",
"cY c #fadf19",
"dy c #fae019",
"br c #fae119",
"cg c #fae219",
"#X c #fb671b",
"#O c #fb681b",
"#Y c #fb691b",
"aa c #fb6b1b",
"ao c #fb6c1b",
"bO c #fb701a",
"an c #fb9c1f",
"ai c #fb9c20",
"dz c #fbd714",
"dG c #fbd813",
"dk c #fbd914",
"dp c #fbdb16",
"dl c #fbdb17",
"c9 c #fbdc17",
"d# c #fbdd18",
"a8 c #fbe219",
"bn c #fbe319",
"bp c #fbe419",
"cN c #fce419",
"a9 c #fce51a",
"cO c #fefbe9",
"cw c #fefefe",
"dn c #ffe900",
"do c #ffea00",
"ce c #ffea01",
"cf c #ffea04",
"cz c #fffffd",
"cv c #fffffe",
"QtQtQtQtQtQtQtQtQtQtQtQtQtQtQtQtQtQtQtQtQtQtQtQtQtQtQtQtQtQtQtQtQtQtQtQtQtQtQtQtQtQtQtQtQtQtQtQtQtQtQtQtQtQtQtQtQtQtQtQtQtQtQtQt",
"QtQtQtQtQtQtQtQtQtQtQtQtQtQtQtQtQtQtQtQtQtQtQtQtQtQtQtQtQtQtQtQtQtQtQtQtQtQtQtQtQtQtQtQtQtQtQtQtQtQtQtQtQtQtQtQtQtQtQtQtQtQtQtQt",
"QtQtQtQtQtQtQtQtQtQtQtQtQtQtQtQtQtQtQtQtQtQtQtQtQtQtQtQtQtQtQtQtQtQtQtQtQtQtQtQtQtQtQtQtQtQtQtQtQtQtQtQtQtQtQtQtQtQtQtQtQtQtQtQt",
"QtQtQtQtQtQtQtQtQtQtQtQtQtQtQtQtQtQtQtQtQtQtQtQtQtQtQtQtQtQtQtQtQtQtQtQtQtQtQtQtQtQtQtQtQtQtQtQtQtQtQtQtQtQtQtQtQtQtQtQtQtQtQtQt",
"QtQtQtQtQtQtQtQtQtQtQtQtQtQtQtQtQtQtQtQtQtQtQtQtQtQtQtQtQtQtQtQtQtQtQtQtQtQtQtQtQtQtQtQtQtQtQtQtQtQtQtQtQtQtQtQtQtQtQtQtQtQtQtQt",
"QtQtQtQtQtQtQtQtQtQtQtQtQtQtQtQtQtQtQtQtQtQtQtQtQtQtQtQtQtQtQtQtQtQtQtQtQtQtQtQtQtQtQtQtQtQtQtQtQtQtQtQtQtQtQtQtQtQtQtQtQtQtQtQt",
"QtQtQtQtQtQtQtQtQtQtQtQtQtQtQtQtQtQtQtQtQtQtQtQtQtQtQtQtQtQtQtQtQtQtQtQtQtQtQtQtQtQtQtQtQtQtQtQtQtQtQtQtQtQtQtQtQtQtQtQtQtQtQtQt",
"QtQtQtQtQtQtQtQtQtQtQtQtQtQtQtQtQtQtQtQtQtQtQtQtQtQtQtQtQtQtQtQtQtQtQtQtQtQtQtQtQtQtQtQtQtQtQtQtQtQtQtQtQtQtQtQtQtQtQtQtQtQtQtQt",
"QtQtQtQtQtQtQtQtQtQtQtQtQtQtQtQtQtQtQtQtQtQtQtQtQtQtQtQtQtQtQtQtQtQtQtQtQtQtQtQtQtQtQtQtQtQtQtQtQtQtQtQtQtQtQtQtQtQtQtQtQtQtQtQt",
"QtQtQtQtQtQtQtQtQtQtQtQtQtQtQtQtQtQtQtQtQtQtQtQtQtQtQtQtQtQtQtQtQtQtQtQtQtQtQtQtQtQtQtQtQtQtQtQtQtQtQtQtQtQtQtQtQtQtQtQtQtQtQtQt",
"QtQtQtQtQtQtQtQtQtQtQtQtQtQtQtQtQtQtQtQtQtQtQtQtQtQtQtQtQtQtQtQtQtQtQtQtQtQtQtQtQtQtQtQtQtQtQtQtQtQtQtQtQtQtQtQtQtQtQtQtQtQtQtQt",
"QtQtQtQtQtQtQtQtQtQtQtQtQtQtQtQtQtQtQtQtQtQtQtQtQtQtQtQtQtQtQtQtQtQtQtQtQtQtQtQtQtQtQtQtQtQtQtQtQtQtQtQtQtQtQtQtQtQtQtQtQtQtQtQt",
"QtQtQtQtQtQtQtQtQtQtQtQtQtQtQtQtQtQtQtQtQtQtQtQtQtQtQtQtQtQtQtQtQtQtQtQtQtQtQtQtQtQtQtQtQtQtQtQtQtQtQtQtQtQtQtQtQtQtQtQtQtQtQtQt",
"QtQtQtQtQtQtQtQtQtQtQtQtQtQtQtQtQtQtQtQtQtQtQtQtQtQtQtQtQtQtQtQtQtQtQtQtQtQtQtQtQtQtQtQtQtQtQtQtQtQtQtQtQtQtQtQtQtQtQtQtQtQtQtQt",
"QtQtQtQtQtQtQtQtQtQtQtQtQtQtQtQtQtQtQtQtQtQtQtQtQtQtQtQtQtQtQtQtQtQtQtQtQtQtQtQtQtQtQtQtQtQtQtQtQtQtQtQtQtQtQtQtQtQtQtQtQtQtQtQt",
"QtQtQtQtQtQtQtQtQtQtQtQtQtQtQtQtQtQtQtQtQtQtQtQtQtQtQtQtQtQtQtQtQtQtQtQtQtQtQtQtQtQtQtQtQtQtQtQtQtQtQtQtQtQtQtQtQtQtQtQtQtQtQtQt",
"QtQtQtQtQtQtQtQtQtQtQtQtQtQtQtQtQtQtQtQtQtQtQtQtQtQtQtQtQtQtQtQtQtQtQtQtQtQtQtQtQtQtQtQtQtQtQtQtQtQtQtQtQtQtQtQtQtQtQtQtQtQtQtQt",
"QtQtQtQtQtQtQtQtQtQtQtQtQtQtQtQtQtQtQtQtQtQtQtQtQtQtQtQtQtQtQtQtQtQtQtQtQtQtQtQtQtQtQtQtQtQtQtQtQtQtQtQtQtQtQtQtQtQtQtQtQtQtQtQt",
"QtQtQtQtQtQtQtQtQtQtQtQtQtQtQtQtQtQtQtQtQtQtQtQtQtQtQtQtQtQtQtQtQtQtQtQtQtQtQtQtQtQtQtQtQtQtQtQtQtQtQtQtQtQtQtQtQtQtQtQtQtQtQtQt",
"QtQtQtQtQtQtQtQtQtQtQtQtQtQtQtQtQtQtQtQtQtQtQtQtQtQtQtQtQtQtQtQtQtQtQtQtQtQtQtQtQtQtQtQtQtQtQtQtQtQtQtQtQtQtQtQtQtQtQtQtQtQtQtQt",
"QtQtQtQtQtQtQtQtQtQtQtQtQtQtQtQtQtQtQtQtQtQtQtQtQtQtQtQtQtQtQtQtQtQtQtQtQtQtQtQtQtQtQtQtQtQtQtQtQtQtQtQtQtQtQtQtQtQtQtQtQtQtQtQt",
"QtQtQtQtQtQtQtQtQtQtQtQtQtQtQtQtQtQtQtQtQtQtQtQtQtQtQtQtQtQtQtQtQtQtQtQtQtQtQtQtQtQtQtQtQtQtQtQtQtQtQtQtQtQtQtQtQtQtQtQtQtQtQtQt",
"QtQtQtQtQtQtQtQtQtQtQtQtQtQtQtQtQtQtQtQtQtQtQtQtQtQtQtQtQtQtQtQtQtQtQtQtQtQtQtQtQtQtQtQtQtQtQtQtQtQtQtQtQtQtQtQtQtQtQtQtQtQtQtQt",
"QtQtQtQtQtQtQtQtQtQtQtQtQtQtQtQtQtQtQtQtQtQtQtQtQtQtQtQtQtQtQtQtQtQtQtQtQtQtQtQtQtQtQtQtQtQtQtQtQtQtQtQtQtQtQtQtQtQtQtQtQtQtQtQt",
"QtQtQtQtQtQtQtQtQtQtQtQtQtQtQtQtQtQtQtQtQtQtQtQtQtQtQtQtQtQtQtQtQtQtQtQtQtQtQtQtQtQtQtQtQtQtQtQtQtQtQtQtQtQtQtQtQtQtQtQtQtQtQtQt",
"QtQtQtQtQtQtQtQtQtQtQtQtQtQtQtQtQtQtQtQtQtQtQtQtQtQtQtQt.#.a.#QtQtQtQtQtQtQtQtQtQtQtQtQtQtQtQtQtQtQtQtQtQtQtQtQtQtQtQtQtQtQtQtQt",
"QtQtQtQtQtQtQtQtQtQtQtQtQtQtQtQtQtQtQtQtQtQtQtQtQtQtQtQt.b.c.#QtQtQtQtQtQtQtQtQtQtQtQtQtQtQtQtQtQtQtQtQtQtQtQtQtQtQtQtQtQtQtQtQt",
"QtQtQtQtQtQtQtQtQtQtQtQtQtQtQtQtQtQtQtQtQtQtQtQtQt.#.d.e.bQtQt.f.g.eQtQtQt.#.e.e.c.#QtQtQtQtQtQtQtQtQtQtQtQtQtQtQtQtQtQtQtQtQtQt",
"QtQtQtQtQtQtQtQtQtQtQtQtQtQtQtQtQtQtQtQtQtQtQtQtQt.h.e.b.#QtQt.e.#.e.#QtQtQtQt.i.e.jQtQtQtQtQtQtQtQtQtQtQtQtQtQtQtQtQtQtQtQtQtQt",
"QtQtQtQtQtQtQtQtQtQtQtQtQtQtQtQtQtQtQtQtQtQtQtQtQt.e.k.#Qt.eQt.e.#.e.lQtQtQtQtQt.e.mQtQtQtQtQtQtQtQtQtQtQtQtQtQtQtQtQtQtQtQtQtQt",
"QtQtQtQtQtQtQtQtQtQtQtQtQtQtQtQtQtQtQt.n.o.pQtQtQt.e.b.#Qt.qQt.r.s.q.e.o.o.tQt.u.e.vQt.w.x.yQtQtQtQtQtQtQtQtQtQtQtQtQtQtQtQtQtQt",
"QtQtQtQtQtQtQtQtQtQtQtQtQtQtQtQtQtQt.#.z.eQt.xQt.A.B.eQt.C.D.EQt.F.e.m.G.H.I.J.e.e.KQt.m.L.MQtQtQtQtQtQtQtQtQtQtQtQtQtQtQtQtQtQt",
"QtQtQtQtQtQtQtQtQtQtQtQtQtQtQtQtQtQtQtQt.m.e.xQt.N.O.e.e.e.A.A.P.e.e.q.Q.eQt.e.q.R.S.T.e.U.VQtQtQtQtQtQtQtQtQtQtQtQtQtQtQtQtQtQt",
"QtQtQtQtQtQtQtQtQtQtQtQtQtQtQtQtQtQtQtQt.#.e.#Qt.W.A.O.e.e.O.X.Y.e.Y.Z.0.1.2.e.1.3.4.e.m.5QtQtQtQtQtQtQtQtQtQtQtQtQtQtQtQtQtQtQt",
"QtQtQtQtQtQtQtQtQtQtQtQtQtQtQtQtQtQtQtQtQt.xQtQt.6.A.A.e.7.O.8.9.Z#.###a#b#c#d#e.eQt.eQt.p#fQtQtQtQtQtQtQtQtQtQtQtQtQtQtQtQtQtQt",
"QtQtQtQtQtQtQtQtQtQtQtQtQtQtQtQtQtQtQtQtQt.eQtQtQt#g#h#i.A#j#k#l#m#.#n#k#o#p#q#a.qQt.e#r.##s.#QtQtQtQtQtQtQtQtQtQtQtQtQtQtQtQtQt",
"QtQtQtQtQtQtQtQtQtQtQtQtQtQtQtQtQtQtQt#tQt.e.e#uQt#v#w#x.O#y#z#A#B#C#D#E#F#G#H#I#JQt#K#L.C.eQtQtQtQtQtQtQtQtQtQtQtQtQtQtQtQtQtQt",
"QtQtQtQtQtQtQtQtQtQtQtQtQtQtQtQtQtQt.A.A#M.e.e#N.A.A#O#k#v#P#Q#R#S#S#T#U#V#W#X#Y#Z#0#1.e.e#2QtQtQtQtQtQtQtQtQtQtQtQtQtQtQtQtQtQt",
"QtQtQtQtQtQtQtQtQtQtQtQtQtQtQtQtQtQtQt#3.A.e.e.q#4.A#5#k#k#l#6#7#8#S#9a.a#aa#k#5.Nab.eac.eadQtQtQtQtQtQtQtQtQtQtQtQtQtQtQtQtQtQt",
"QtQtQtQtQtQtQtQtQtQtQtQtQtQtQtQtQtQtQtQtQtae.qafag.Aah#Oai#l#7#7ajak#7alamanaoapaqar.e.e.eQtQtQtQtQtQtQtQtQtQtQtQtQtQtQtQtQtQtQt",
"QtQtQtQtQtQtQtQtQtQtQtQtQtQtQtQtQtQtQt.AQtQt.eafasat.A#kauavaw#7ajajaxalayauao#Z#kaz.e.eaAaBQtQtQtQtQtQtQtQtQtQtQtQtQtQtQtQtQtQt",
"QtQtQtQtQtQtQtQtQtQtQtQtQtQtQtQtQtQtQtQt.AaCQtaf.A#k#k#kau#7aDaEajajaFaGaHaIaJaK#Y#Zaf.eaLaMQtQtQtQtQtQtQtQtQtQtQtQtQtQtQtQtQtQt",
"QtQtQtQtQtQtQtQtQtQtQtQtQtQtQtQtQtQtQtQtaNaOaP.A.A#kaw#6#7aQaRaSajajaTaRaUaVaWaXaY#Z.A.qaZa0QtQtQtQtQtQtQtQtQtQtQtQtQtQtQtQtQtQt",
"QtQtQtQtQtQtQtQtQtQtQtQtQtQtQtQtQtQtQtQta1a2aPa3.Aa4a5#7a6aSa7a8ajaja9b.b#babbbcbd#ZbebfbgbhQtQtQtQtQtQtQtQtQtQtQtQtQtQtQtQtQtQt",
"QtQtQtQtQtQtQtQtQtQtQtQtQtQtQtQtQtQtQtQtQtbiaPbja3bkblbmbma8a7bnajbobpbqbrbsbtbubvbwbjbxbybzQtQtQtQtQtQtQtQtQtQtQtQtQtQtQtQtQtQt",
"QtQtQtQtQtQtQtQtQtQtQtQtQtQtQtQtQtQtQtbAbBbCbDbj.A#4#kbEbFbGbHbIajbJbIbKbLbMbNbObPbQbRbSbTbUQtQtQtQtQtQtQtQtQtQtQtQtQtQtQtQtQtQt",
"QtQtQtQtQtQtQtQtQtQtQtQtQtQtQtQtQtQtQtQtbVbWaPbXbcbYaubZb0bGbGb1b2b3b1bGbGb4b5b6b7b8b9c.c#caQtQtQtQtQtQtQtQtQtQtQtQtQtQtQtQtQtQt",
"QtQtQtQtQtQtQtQtQtQtQtQtQtQtQtQtQtQtQtQtQtbicb.9cca5cdcececfcgchcicjchcgcecececkclcmcncocpcqQtQtQtQtQtQtQtQtQtQtQtQtQtQtQtQtQtQt",
"QtQtQtQtQtQtQtQtQtQtQtQtQtQtQtQtQtQtQtQtQtcrcs.Occctcucvcwcvcxchcicyb1cxczcwcvckcAcBcCcDcEcFQtQtQtQtQtQtQtQtQtQtQtQtQtQtQtQtQtQt",
"QtQtQtQtQtQtQtQtQtQtQtQtQtQtQtQtQtQtQtQtQtQtcGcHaRcIctcvcJcva8cKb2cLcMcNcOcPczckcQcRcScTcUQtQtQtQtQtQtQtQtQtQtQtQtQtQtQtQtQtQtQt",
"QtQtQtQtQtQtQtQtQtQtQtQtQtQtQtQtQtQtQtQtQtQtcV.AcWcXctctcYa8bnbnb2cZbnbnbpcYc0ctc1c2c3c4c5QtQtQtQtQtQtQtQtQtQtQtQtQtQtQtQtQtQtQt",
"QtQtQtQtQtQtQtQtQtQtQtQtQtQtQtQtQtQtQtQtQtQtQtc6.Ac7ccc8c9d.brcgb2cycgbrd.d#dadbdcdddedfQtQtQtQtQtQtQtQtQtQtQtQtQtQtQtQtQtQtQtQt",
"QtQtQtQtQtQtQtQtQtQtQtQtQtQtQtQtQtQtQtQtQtQtQt#Mdgdhdidjdkdldm.qdndndndododpdqdrdsdtdudvQtQtQtQtQtQtQtQtQtQtQtQtQtQtQtQtQtQtQtQt",
"QtQtQtQtQtQtQtQtQtQtQtQtQtQtQtQtQtQtQtQtQtQtQtQtc6dw.Adxdydz.q.q.q.q.qdAdnbrdBdCdDdEdFQtQtQtQtQtQtQtQtQtQtQtQtQtQtQtQtQtQtQtQtQt",
"QtQtQtQtQtQtQtQtQtQtQtQtQtQtQtQtQtQtQtQtQtQtQtQtQt#M.A.AdGdybr.q#k#k#kdHdIdJdKdLdMQtQtQtQtQtQtQtQtQtQtQtQtQtQtQtQtQtQtQtQtQtQtQt",
"QtQtQtQtQtQtQtQtQtQtQtQtQtQtQtQtQtQtQtQtQtQtQtQtQtQtQtdNdOdPdQdRdSdTdUdVdWdXdYdZd0QtQtQtQtQtQtQtQtQtQtQtQtQtQtQtQtQtQtQtQtQtQtQt",
"QtQtQtQtQtQtQtQtQtQtQtQtQtQtQtQtQtQtQtQtQtQtQtQtQtQtQtQtQtQtQtQtQtQtQtQtQtQtQtQtQtQtQtQtQtQtQtQtQtQtQtQtQtQtQtQtQtQtQtQtQtQtQtQt",
"QtQtQtQtQtQtQtQtQtQtQtQtQtQtQtQtQtQtQtQtQtQtQtQtQtQtQtQtQtQtQtQtQtQtQtQtQtQtQtQtQtQtQtQtQtQtQtQtQtQtQtQtQtQtQtQtQtQtQtQtQtQtQtQt",
"QtQtQtQtQtQtQtQtQtQtQtQtQtQtQtQtQtQtQtQtQtQtQtQtQtQtQtQtQtQtQtQtQtQtQtQtQtQtQtQtQtQtQtQtQtQtQtQtQtQtQtQtQtQtQtQtQtQtQtQtQtQtQtQt",
"QtQtQtQtQtQtQtQtQtQtQtQtQtQtQtQtQtQtQtQtQtQtQtQtQtQtQtQtQtQtQtQtQtQtQtQtQtQtQtQtQtQtQtQtQtQtQtQtQtQtQtQtQtQtQtQtQtQtQtQtQtQtQtQt",
"QtQtQtQtQtQtQtQtQtQtQtQtQtQtQtQtQtQtQtQtQtQtQtQtQtQtQtQtQtQtQtQtQtQtQtQtQtQtQtQtQtQtQtQtQtQtQtQtQtQtQtQtQtQtQtQtQtQtQtQtQtQtQtQt",
"QtQtQtQtQtQtQtQtQtQtQtQtQtQtQtQtQtQtQtQtQtQtQtQtQtQtQtQtQtQtQtQtQtQtQtQtQtQtQtQtQtQtQtQtQtQtQtQtQtQtQtQtQtQtQtQtQtQtQtQtQtQtQtQt",
"QtQtQtQtQtQtQtQtQtQtQtQtQtQtQtQtQtQtQtQtQtQtQtQtQtQtQtQtQtQtQtQtQtQtQtQtQtQtQtQtQtQtQtQtQtQtQtQtQtQtQtQtQtQtQtQtQtQtQtQtQtQtQtQt",
"QtQtQtQtQtQtQtQtQtQtQtQtQtQtQtQtQtQtQtQtQtQtQtQtQtQtQtQtQtQtQtQtQtQtQtQtQtQtQtQtQtQtQtQtQtQtQtQtQtQtQtQtQtQtQtQtQtQtQtQtQtQtQtQt"};
