/* XPM */
static char *dummy[]={
"64 64 455 2",
"Qt c None",
"#e c None",
"cO c None",
"dI c None",
"#d c None",
".5 c None",
".o c None",
".A c None",
".p c None",
"cP c None",
"d# c None",
".Z c None",
".x c None",
"d. c None",
".F c None",
"#j c None",
".0 c None",
".6 c None",
"#c c None",
"aI c None",
".l c None",
".D c None",
"bZ c None",
".X c None",
".t c None",
"bY c None",
"cd c None",
"#m c None",
".7 c None",
".3 c None",
"cw c None",
".d c None",
".h c None",
"#p c None",
"a4 c None",
"a. c None",
".i c None",
"aO c None",
".v c None",
".H c None",
".P c None",
".y c None",
".b c None",
"dW c None",
".G c None",
"bA c None",
".4 c None",
".e c None",
"bh c #000000",
"#u c #6e3213",
"#. c #722f13",
"#q c #732f13",
"#k c #742e12",
".w c #752e12",
"#C c #7a2f13",
".z c #7d2b13",
"cN c #813515",
"dr c #822710",
"#v c #873714",
"bj c #8e2a13",
"#A c #8e3915",
".O c #99460b",
"cv c #a74011",
".Y c #b32f15",
"#V c #b33720",
"aM c #d43416",
".q c #de2d16",
".n c #df2d16",
"#o c #e02912",
"#l c #e02b16",
"as c #e03717",
"a6 c #e12e1c",
"aK c #e13d22",
"#E c #e22a15",
".k c #e32512",
".9 c #e32612",
".C c #e32815",
".g c #e32816",
".s c #e32916",
".Q c #e32a18",
".V c #e32d1c",
".B c #e32d1d",
".j c #e32f20",
".c c #e33215",
"bg c #e33317",
".a c #e33417",
"#n c #e33517",
"by c #e3381e",
".E c #e42816",
"bf c #e42b16",
"cc c #e52e1f",
"#L c #e62715",
".I c #e62b1c",
"aJ c #e72f17",
"at c #e73017",
"a3 c #eb2a11",
"dq c #eb3118",
"aP c #ec3218",
"#f c #ee2f17",
"#w c #ef3017",
"#B c #f2611a",
"#S c #f34f19",
"## c #f3641b",
"fe c #faebeb",
"a5 c #fafcfd",
".L c #fbffff",
".u c #fe002c",
"aL c #ffffff",
"#i c #9b0c10",
".m c #e32816",
"bx c #e32a16",
"a# c #fcffff",
"dX c #ffffff",
"#F c #da1606",
".f c #e32816",
"#X c #fe3317",
"eW c #000000",
"c9 c #943b14",
"an c #e31e0e",
"ev c #2f2c18",
".K c #e32815",
"#M c #f05119",
"ds c #4b300a",
"ao c #e33317",
"ej c #644215",
"#W c #a84420",
"aa c #e33217",
".8 c #e33516",
"bz c #e33b1e",
".T c #e52d13",
"bM c #eb9389",
"#J c #000000",
"am c #c80018",
"bi c #e52311",
"aq c #d33115",
".r c #e32915",
".M c #e42b1b",
".2 c #e22614",
".S c #e32714",
"ap c #e43316",
"ac c #e33416",
".J c #e51d09",
"eM c #ffffff",
"bW c #dd0300",
"#I c #743013",
"cR c #fafdfd",
"dH c #803d1f",
"cQ c #b42e14",
".N c #fafdfd",
".# c #fafcfc",
"ab c #e33417",
"ar c #d43316",
"e3 c #faf5f5",
".U c #fbf9fa",
"bB c #fafcfc",
"aN c #fafdfd",
"eL c #f7f5f4",
"bL c #fbf0ef",
"fd c #6a3212",
"ce c #fafdfd",
"#Y c #f9fefd",
"dJ c #fafcfc",
"#Z c #e32816",
".R c #e32815",
"bK c #e22612",
"fc c #821711",
"#b c #e32816",
"e4 c #732f13",
"e5 c #832813",
"fb c #ea721f",
"da c #782d12",
"bX c #e33417",
"cb c #e03817",
"e# c #7a3815",
"ei c #833415",
"#K c #b03115",
"bN c #e33417",
"b0 c #e52716",
"e6 c #e86e1e",
"fa c #fbdb16",
"a7 c #8b2913",
"e7 c #fbd914",
"b7 c #e79921",
"b3 c #e79921",
".1 c #e32816",
"ai c #ee2f17",
"eb c #f09820",
"ef c #f09920",
"bQ c #f09e22",
"bP c #f19f22",
"dZ c #f1d612",
"d7 c #f2d611",
"cX c #f2d612",
"dn c #e99b21",
"cA c #ed9b21",
"dE c #f09b21",
"dT c #f09e21",
"cJ c #f09f21",
"c3 c #f2da13",
"c0 c #f3d813",
"cI c #f3da13",
"ci c #e79722",
"ck c #e79821",
"b4 c #e79822",
"b5 c #e79921",
"cr c #e89822",
"d8 c #e89a21",
"cF c #e89c20",
"ez c #f09820",
"er c #f09920",
"du c #f19820",
"dd c #f19920",
"dm c #f19a21",
"dL c #f2d612",
"dM c #f2d713",
"cB c #f3d713",
"cU c #f3d813",
"dv c #e59622",
"co c #e89b21",
"cn c #e99d21",
"cV c #efd410",
"eH c #f19e21",
"ee c #f2d612",
"dS c #f3db1b",
"dj c #f4d813",
"cH c #f4d913",
"cp c #e3c906",
"b6 c #e9a122",
"#3 c #ee2f17",
"c2 c #f0d410",
"cj c #e3c806",
"de c #e3c906",
"dk c #e4ca07",
"em c #e7cb08",
"eq c #e8cb09",
"df c #f5dd35",
"e8 c #fbd914",
"eV c #782d12",
"#G c #e43417",
"f# c #fbd914",
"#0 c #ec2215",
"#g c #e32916",
"f. c #f4d814",
"#H c #d34118",
"e2 c #e32311",
"eu c #783118",
"eU c #db331c",
"aj c #f76b1c",
"cZ c #fbe319",
"aC c #fa9b21",
"e1 c #e23416",
"d2 c #f1d613",
"bR c #f29f20",
"di c #f3d914",
"dQ c #f4d914",
"dB c #f8de18",
"ed c #fae119",
"#y c #e22a15",
"e0 c #fad813",
"e. c #7e3515",
"bp c #e32816",
"bO c #f29f20",
"b8 c #f2a120",
"dA c #fae219",
"cK c #a75016",
"do c #dd5f1a",
"aB c #df2b16",
"aA c #e22916",
"aU c #e32816",
"c6 c #e52f16",
"dU c #ec2a16",
"eg c #ed2616",
"d9 c #ed2a16",
"cs c #ed661a",
"#x c #ee2f17",
"#P c #ef2f17",
"dF c #ef3718",
"e9 c #f0d612",
"cD c #f19e21",
"bS c #f1a021",
"c. c #f1a120",
"bo c #f29f20",
"bH c #f29f21",
"cq c #f3a51e",
"c1 c #f4da14",
"c5 c #f5681c",
"dl c #f9a41d",
"b# c #f9a51d",
"dh c #fae219",
"eZ c #fee706",
"d0 c #070707",
"d6 c #151515",
"ek c #732f13",
"cx c #7a3815",
"dY c #7b3815",
"cT c #8b3916",
"cS c #8f3c16",
"c8 c #8f3d17",
"aw c #8f3e15",
"aF c #924115",
"eK c #a1300f",
"ew c #a13514",
"#N c #a43814",
"cz c #a44c15",
"#Q c #a83d15",
"cf c #a84317",
"cy c #c65618",
"c7 c #c95417",
"#r c #d03f18",
"eN c #d93516",
"dc c #dc5b19",
"ad c #dd2f17",
"eC c #dd3e17",
"al c #de3117",
"eD c #de3e17",
"eY c #de3f17",
"a9 c #df9224",
"b9 c #df9424",
"bb c #df9524",
"eR c #e03d18",
"af c #e12a16",
"b1 c #e13617",
"#9 c #e2240f",
"eh c #e22816",
"bk c #e22916",
"ak c #e22d16",
"cM c #e23717",
"ax c #e23d17",
"et c #e32716",
".W c #e32816",
"#s c #e32916",
"a2 c #e32a16",
"#8 c #e32b16",
"ca c #e33317",
"b2 c #e33417",
"aE c #e33e17",
"#U c #e42715",
"#7 c #e42716",
"au c #e42816",
"bv c #e42916",
"a1 c #e42a16",
"dV c #e42e11",
"eT c #e43216",
"#z c #e52616",
"aH c #e52a15",
"bC c #e52a16",
"aY c #e52b16",
"cu c #e53217",
"dp c #e53317",
"bJ c #e62b15",
"dK c #e73017",
"#R c #e92115",
"ex c #e92615",
"#D c #ea2115",
"eJ c #ea2616",
"db c #ea3018",
"#h c #eb2115",
"#a c #eb2215",
"#6 c #ec2015",
"#t c #ec2215",
"#5 c #ec2716",
"cL c #ec2a16",
"ct c #ec2d16",
"dt c #ec3218",
"ea c #ed2416",
"el c #ed2c16",
"es c #ed2e16",
"#T c #ee2416",
"cg c #ee2d17",
"bm c #ee3217",
"bu c #ee3317",
"#2 c #ef2f17",
"ay c #ef3017",
"#O c #ef3117",
"dG c #ef3318",
"aD c #ef3c19",
"ch c #ef621a",
"eI c #f15318",
"ey c #f15319",
"bw c #f15419",
"bl c #f15519",
"aS c #f1641a",
"aW c #f16d1d",
"b. c #f29f21",
"#1 c #f3631a",
"be c #f3631b",
"ae c #f3641b",
"bG c #f39f21",
"ba c #f3a021",
"bq c #f3a121",
"dz c #f3d914",
"#4 c #f4651b",
"bF c #f4711d",
"bI c #f4741e",
"dg c #f4d914",
"dD c #f4d915",
"dC c #f4da15",
"cW c #f5da14",
"aR c #f6641b",
"aX c #f6661c",
"aG c #f6681c",
"bc c #f66a1d",
"ah c #f7671c",
"br c #f7691d",
"av c #f8681c",
"eO c #f8b909",
"dP c #f8df19",
"d3 c #f8e019",
"d1 c #f8e01a",
"bD c #f9681b",
"a8 c #f9681c",
"bU c #f96d1c",
"az c #f99a21",
"aV c #f9a51d",
"aT c #f9a61d",
"eS c #f9bb08",
"cY c #f9e01a",
"ag c #fa681b",
"bV c #fa6b1b",
"c# c #fa6c1b",
"bE c #faa11e",
"bT c #faa21d",
"eo c #fadd18",
"ec c #fadf19",
"eP c #fae019",
"cG c #fae119",
"dy c #fae219",
"aZ c #fb671b",
"aQ c #fb681b",
"a0 c #fb691b",
"bd c #fb6b1b",
"bt c #fb6c1b",
"c4 c #fb701a",
"bs c #fb9c1f",
"bn c #fb9c20",
"eQ c #fbd714",
"eX c #fbd813",
"eA c #fbd914",
"eG c #fbdb16",
"eB c #fbdb17",
"en c #fbdc17",
"ep c #fbdd18",
"cl c #fbe219",
"cC c #fbe319",
"cE c #fbe419",
"d4 c #fce419",
"cm c #fce51a",
"d5 c #fefbe9",
"dO c #fefefe",
"eE c #ffe900",
"eF c #ffea00",
"dw c #ffea01",
"dx c #ffea04",
"dR c #fffffd",
"dN c #fffffe",
"QtQtQtQtQtQtQtQtQtQtQtQtQtQtQtQtQtQtQtQtQtQtQtQtQtQtQtQtQtQtQtQtQtQtQtQtQtQtQtQtQtQtQtQtQtQtQtQtQtQtQtQtQtQtQtQtQtQtQtQtQtQtQtQt",
"QtQtQtQtQtQtQtQtQtQtQtQtQtQtQtQtQtQtQtQtQtQtQtQtQtQtQtQtQtQtQtQtQtQtQtQtQtQtQtQtQtQtQtQtQtQtQtQtQtQtQtQtQtQtQtQtQtQtQtQtQtQtQtQt",
"QtQtQtQtQtQtQtQtQtQtQtQtQtQtQtQtQtQtQtQtQtQtQtQtQtQtQtQtQtQtQtQtQtQtQtQtQtQtQtQtQtQtQtQtQtQtQtQtQtQtQtQtQtQtQtQtQtQtQtQtQtQtQtQt",
"QtQtQtQtQtQtQtQtQtQtQtQtQtQtQtQtQtQtQtQtQtQtQtQtQtQtQtQtQtQtQtQtQtQtQtQtQtQtQtQtQtQtQtQtQtQtQtQtQtQtQtQtQtQtQtQtQtQtQtQtQtQtQtQt",
"QtQtQtQtQtQtQtQtQtQtQtQtQtQtQtQtQtQtQtQtQtQtQtQtQtQtQtQtQtQtQtQtQtQtQtQtQtQtQtQtQtQtQtQtQtQtQtQtQtQtQtQtQtQtQtQtQtQtQtQtQtQtQtQt",
"QtQtQtQtQtQtQtQtQtQtQtQtQtQtQtQtQtQtQtQtQtQtQtQtQtQtQtQtQtQtQtQtQtQtQtQtQtQtQtQtQtQtQtQtQtQtQtQtQtQtQtQtQtQtQtQtQtQtQtQtQtQtQtQt",
"QtQtQtQtQtQtQtQtQtQtQtQtQtQtQtQtQtQtQtQtQtQtQtQtQtQtQtQtQtQtQtQtQtQtQtQtQtQtQtQtQtQtQtQtQtQtQtQtQtQtQtQtQtQtQtQtQtQtQtQtQtQtQtQt",
"QtQtQtQtQtQtQtQtQtQtQtQtQtQtQtQtQtQtQtQtQtQtQtQtQtQtQtQtQtQtQtQtQtQtQtQtQtQtQtQtQtQtQtQtQtQtQtQtQtQtQtQtQtQtQtQtQtQtQtQtQtQtQtQt",
"QtQtQtQtQtQtQtQtQtQtQtQtQtQtQtQtQtQtQtQtQtQtQtQtQtQtQtQtQtQtQtQtQtQtQtQtQtQtQtQtQtQtQtQtQtQtQtQtQtQtQtQtQtQtQtQtQtQtQtQtQtQtQtQt",
"QtQtQtQtQtQtQtQtQtQtQtQtQtQtQtQtQtQtQtQtQtQtQtQtQtQtQtQtQtQtQtQtQtQtQtQtQtQtQtQtQtQtQtQtQtQtQtQtQtQtQtQtQtQtQtQtQtQtQtQtQtQtQtQt",
"QtQtQtQtQtQtQtQtQtQtQtQtQtQtQtQtQtQtQtQtQtQtQtQtQtQtQtQtQtQtQtQtQtQtQtQtQtQtQtQtQtQtQtQtQtQtQtQtQtQtQtQtQtQtQtQtQtQtQtQtQtQtQtQt",
"QtQtQtQtQtQtQtQtQtQtQtQtQtQtQtQtQtQtQtQtQtQtQtQtQtQtQtQtQtQtQtQtQtQtQtQtQtQtQtQtQtQtQtQtQtQtQtQtQtQtQtQtQtQtQtQtQtQtQtQtQtQtQtQt",
"QtQtQtQtQtQtQtQtQtQtQtQtQtQtQtQtQtQtQtQtQtQtQtQtQtQtQtQtQtQtQtQtQtQtQtQtQtQtQtQtQtQtQtQtQtQtQtQtQtQtQtQtQtQtQtQtQtQtQtQtQtQtQtQt",
"QtQtQtQtQtQtQtQtQtQtQtQtQtQtQtQtQtQtQtQtQtQtQtQtQtQtQtQtQtQtQtQtQtQtQtQtQtQtQtQtQtQtQtQtQtQtQtQtQtQtQtQtQtQtQtQtQtQtQtQtQtQtQtQt",
"QtQtQtQtQtQtQtQtQtQtQtQtQtQtQtQtQtQtQtQtQtQtQtQtQtQtQtQtQtQtQtQtQtQtQtQtQtQtQtQtQtQtQtQtQtQtQtQtQtQtQtQtQtQtQtQtQtQtQtQtQtQtQtQt",
"QtQtQtQtQtQtQtQtQtQtQtQtQtQtQtQtQtQtQtQtQtQtQtQtQtQtQtQtQtQtQtQtQtQtQtQtQtQtQtQtQtQtQtQtQtQtQtQtQtQtQtQtQtQtQtQtQtQtQtQtQtQtQtQt",
"QtQtQtQtQtQtQtQtQtQtQtQtQtQtQtQtQtQtQtQtQtQtQtQtQtQtQtQtQtQtQtQtQtQtQtQtQtQtQtQtQtQtQtQtQtQtQtQtQtQtQtQtQtQtQtQtQtQtQtQtQtQtQtQt",
"QtQtQtQtQtQtQtQtQtQtQtQtQtQtQtQtQtQtQtQtQtQtQtQtQtQtQtQtQtQtQtQtQtQtQtQtQtQtQtQtQtQtQtQtQtQtQtQtQtQtQtQtQtQtQtQtQtQtQtQtQtQtQtQt",
"QtQtQtQtQtQtQtQtQtQtQtQtQtQtQtQtQtQtQtQtQtQtQtQtQtQtQtQtQtQtQtQtQtQtQtQtQtQtQtQtQtQtQtQtQtQtQtQtQtQtQtQtQtQtQtQtQtQtQtQtQtQtQtQt",
"QtQtQtQtQtQtQtQtQtQtQtQtQtQtQtQtQtQtQtQtQtQtQtQtQtQtQtQtQtQtQtQtQtQtQtQtQtQtQtQtQtQtQtQtQtQtQtQtQtQtQtQtQtQtQtQtQtQtQtQtQtQtQtQt",
"QtQtQtQtQtQtQtQtQtQtQtQtQtQtQtQtQtQtQtQtQtQtQtQtQtQtQtQtQtQtQtQtQtQtQtQtQtQtQtQtQtQtQtQtQtQtQtQtQtQtQtQtQtQtQtQtQtQtQtQtQtQtQtQt",
"QtQtQtQtQtQtQtQtQtQtQtQtQtQtQtQtQtQtQtQtQtQtQtQtQtQtQtQtQtQtQtQtQtQtQtQtQtQtQtQtQtQtQtQtQtQtQtQtQtQtQtQtQtQtQtQtQtQtQtQtQtQtQtQt",
"QtQtQtQtQtQtQtQtQtQtQtQtQtQtQtQtQtQtQtQtQtQtQtQt.#.aQtQtQtQtQtQtQtQtQtQtQtQtQt.b.c.d.eQtQtQtQtQtQtQtQtQtQtQtQtQtQtQtQtQtQtQtQtQt",
"QtQtQtQtQtQtQtQtQtQtQtQtQtQtQtQtQtQtQtQtQtQtQtQt.f.g.hQtQtQtQtQtQtQtQtQtQtQtQt.i.j.k.lQtQtQtQtQtQtQtQtQtQtQtQtQtQtQtQtQtQtQtQtQt",
"QtQtQtQtQtQtQtQtQtQtQtQtQtQtQtQtQtQtQtQtQtQtQtQt.g.m.nQtQtQtQtQtQtQtQtQt.o.pQt.q.r.s.tQt.uQtQtQtQtQtQtQtQtQtQtQtQtQtQtQtQtQtQtQt",
"QtQtQtQtQtQtQtQtQtQtQtQtQtQtQtQtQtQtQtQtQtQtQtQt.g.g.vQtQt.wQtQtQtQt.x.y.z.AQt.e.B.C.DQtQtQtQtQtQtQtQtQtQtQtQtQtQtQtQtQtQtQtQtQt",
"QtQtQtQtQtQtQtQtQtQtQtQtQtQtQtQtQtQtQtQtQtQtQtQtQt.gQtQtQt.E.vQtQt.F.G.H.I.JQtQt.g.KQtQtQt.L.MQtQtQtQtQtQtQtQtQtQtQtQtQtQtQtQtQt",
"QtQtQtQtQtQtQtQtQtQtQtQtQtQtQtQtQtQtQt.g.vQtQtQtQtQtQtQtQt.g.g.v.N.O.P.Q.R.SQtQtQtQtQtQt.T.U.VQtQtQtQtQtQtQtQtQtQtQtQtQtQtQtQtQt",
"QtQtQtQtQtQtQtQtQtQtQtQtQtQtQtQtQtQtQt.g.g.aQtQtQtQtQtQtQt.W.X.X.Y.Z.0.1.W.2.3.4.5.6.7.8.a.9.VQtQtQtQtQtQtQtQtQtQtQtQtQtQtQtQtQt",
"QtQtQtQtQtQtQtQtQtQtQtQtQtQtQtQtQtQtQt.v.W.a.aQt.W#.Qt##Qt#a#b#c#d#e#f#g#h#i###j#k#l#m.a#n#o#pQtQtQtQtQtQtQtQtQtQtQtQtQtQtQtQtQt",
"QtQtQtQtQtQtQtQtQtQtQtQtQtQtQtQtQtQtQtQt#q#r.aQt#s#t#u###v.W.W#w.g#f#x#y#z#A#B#C#D#E#F#G#H#I#JQtQtQtQtQtQtQtQtQtQtQtQtQtQtQtQtQt",
"QtQtQtQtQtQtQtQtQtQtQtQtQtQtQtQtQtQtQtQtQtQtQtQt#K.W#t#L#M#t#N#O.g#P#x#Q#R#S#L#T#U#V#WQt#XQtQtQtQtQtQtQtQtQtQtQtQtQtQtQtQtQtQtQt",
"QtQtQtQtQtQtQtQtQtQtQtQtQtQtQtQtQtQtQtQtQt.aQtQt#Y.W.W#Z#0#t#1#2#x#P#3#4#5#6#7#8#9a.a#aaabacQtQtQtQtQtQtQtQtQtQtQtQtQtQtQtQtQtQt",
"QtQtQtQtQtQtQtQtQtQtQtQtQtQtQtQtQtQtQtQtQt.a.aQtQtadae#t.Wafagahai#Pajagak.W#R#4alamanao.aapaqQtQtQtQtQtQtQtQtQtQtQtQtQtQtQtQtQt",
"QtQtQtQtQtQtQtQtQtQtQtQtQtQtQtQtQtQtQtarQtasat.WQtauavaw#taxayazaAaBaCaDaE#TaFaGaHaI.gaJaKaLaMQtQtQtQtQtQtQtQtQtQtQtQtQtQtQtQtQt",
"QtQtQtQtQtQtQtQtQtQtQtQtQtQtQtQtQtQt.W.WaNaOaP.W.W.WaQagauaRaSaTaUaUaVaWaXaYaZa0a1a2.ga3a4a5a6QtQtQtQtQtQtQtQtQtQtQtQtQtQtQtQtQt",
"QtQtQtQtQtQtQtQtQtQtQtQtQtQtQtQtQtQtQta7.WQt.a.Wae.Wa8agagaha9b.b#aUbabbbcbdaga8#sbebfbgbhbibjQtQtQtQtQtQtQtQtQtQtQtQtQtQtQtQtQt",
"QtQtQtQtQtQtQtQtQtQtQtQtQtQtQtQtQtQtQtQtQtQt.abkbl.WbmaQbnahb.b.bobpb.bqbrbsbtbubvbwbxbybzQtbAQtQtQtQtQtQtQtQtQtQtQtQtQtQtQtQtQt",
"QtQtQtQtQtQtQtQtQtQtQtQtQtQtQtQtQtQtQt.WQtQtbBbkbCbD.WagbEbFbGb.bobobHbqbIbEbta1agbJbKbLbM.t.gQtQtQtQtQtQtQtQtQtQtQtQtQtQtQtQtQt",
"QtQtQtQtQtQtQtQtQtQtQtQtQtQtQtQtQtQtQtQt.WbNQtbk.WagagagbEb.bObPbobobQbRbSbTbUbVa0a1bkbWbXbYbZQtQtQtQtQtQtQtQtQtQtQtQtQtQtQtQtQt",
"QtQtQtQtQtQtQtQtQtQtQtQtQtQtQtQtQtQtQtQtb0b1b2.W.WagbGa9b.b3b4b5bobob6b4b7b8b9c.c#a1.WcacbcccdQtQtQtQtQtQtQtQtQtQtQtQtQtQtQtQtQt",
"QtQtQtQtQtQtQtQtQtQtQtQtQtQtQtQtQtQtQtQtcecfb2cg.Wchcib.cjb5ckclbobocmcncocpcqcrcsa1ctcucvcw.eQtQtQtQtQtQtQtQtQtQtQtQtQtQtQtQtQt",
"QtQtQtQtQtQtQtQtQtQtQtQtQtQtQtQtQtQtQtQtQtcxb2cycgczcAcBcBclckcCbocDcEcFcGcHcIcJcKcLcycMcNcOcPQtQtQtQtQtQtQtQtQtQtQtQtQtQtQtQtQt",
"QtQtQtQtQtQtQtQtQtQtQtQtQtQtQtQtQtQtQtcQcRcScTcy.WaeagcUcVcWcXcYbocZcYc0c1c2c3c4c5c6c7c8c9d.d#QtQtQtQtQtQtQtQtQtQtQtQtQtQtQtQtQt",
"QtQtQtQtQtQtQtQtQtQtQtQtQtQtQtQtQtQtQtQtdadbb2dccrddbEdedfcWcWdgdhdidgcWcWdjdkdldmdndodpdqdrdsQtQtQtQtQtQtQtQtQtQtQtQtQtQtQtQtQt",
"QtQtQtQtQtQtQtQtQtQtQtQtQtQtQtQtQtQtQtQtQtcxdt#2ducidvdwdwdxdydzdAdBdzdydwdwdwdCdDdEdFdGdHdIQtQtQtQtQtQtQtQtQtQtQtQtQtQtQtQtQtQt",
"QtQtQtQtQtQtQtQtQtQtQtQtQtQtQtQtQtQtQtQtQtdJdK#tdudLdMdNdOdNdPdzdAdQdgdPdRdOdNdCdSdTdUdVdWdXQtQtQtQtQtQtQtQtQtQtQtQtQtQtQtQtQtQt",
"QtQtQtQtQtQtQtQtQtQtQtQtQtQtQtQtQtQtQtQtQtQtdY#hb4dZdLdNd0dNcld1dhd2d3d4d5d6dRdCd7d8d9e.bhQtQtQtQtQtQtQtQtQtQtQtQtQtQtQtQtQtQtQt",
"QtQtQtQtQtQtQtQtQtQtQtQtQtQtQtQtQtQtQtQtQtQte#.WeaebdLdLecclcCcCdhedcCcCcEeceedLefegeheiejQtQtQtQtQtQtQtQtQtQtQtQtQtQtQtQtQtQtQt",
"QtQtQtQtQtQtQtQtQtQtQtQtQtQtQtQtQtQtQtQtQtQtQtek.WelduemeneocGdydhdQdycGeoepeqereseteuevQtQtQtQtQtQtQtQtQtQtQtQtQtQtQtQtQtQtQtQt",
"QtQtQtQtQtQtQtQtQtQtQtQtQtQtQtQtQtQtQtQtQtQtQtaNewexeyezeAeBeCeDeEeEeEeFeFeGeHeIeJeKeLeMQtQtQtQtQtQtQtQtQtQtQtQtQtQtQtQtQtQtQtQt",
"QtQtQtQtQtQtQtQtQtQtQtQtQtQtQtQtQtQtQtQtQtQtQtQtekeN.WeOePeQeDeDeDeDeDeReEcGeSeTeUeVeWQtQtQtQtQtQtQtQtQtQtQtQtQtQtQtQtQtQtQtQtQt",
"QtQtQtQtQtQtQtQtQtQtQtQtQtQtQtQtQtQtQtQtQtQtQtQtQtaN.W.WeXePcGeDagagageYeZe0e1e2e3QtQtQtQtQtQtQtQtQtQtQtQtQtQtQtQtQtQtQtQtQtQtQt",
"QtQtQtQtQtQtQtQtQtQtQtQtQtQtQtQtQtQtQtQtQtQtQtQtQtQtQte4e5e6e7e8e9f.f#fafbfcfd.vfeQtQtQtQtQtQtQtQtQtQtQtQtQtQtQtQtQtQtQtQtQtQtQt",
"QtQtQtQtQtQtQtQtQtQtQtQtQtQtQtQtQtQtQtQtQtQtQtQtQtQtQtQtQtQtQtQtQtQtQtQtQtQtQtQtQtQtQtQtQtQtQtQtQtQtQtQtQtQtQtQtQtQtQtQtQtQtQtQt",
"QtQtQtQtQtQtQtQtQtQtQtQtQtQtQtQtQtQtQtQtQtQtQtQtQtQtQtQtQtQtQtQtQtQtQtQtQtQtQtQtQtQtQtQtQtQtQtQtQtQtQtQtQtQtQtQtQtQtQtQtQtQtQtQt",
"QtQtQtQtQtQtQtQtQtQtQtQtQtQtQtQtQtQtQtQtQtQtQtQtQtQtQtQtQtQtQtQtQtQtQtQtQtQtQtQtQtQtQtQtQtQtQtQtQtQtQtQtQtQtQtQtQtQtQtQtQtQtQtQt",
"QtQtQtQtQtQtQtQtQtQtQtQtQtQtQtQtQtQtQtQtQtQtQtQtQtQtQtQtQtQtQtQtQtQtQtQtQtQtQtQtQtQtQtQtQtQtQtQtQtQtQtQtQtQtQtQtQtQtQtQtQtQtQtQt",
"QtQtQtQtQtQtQtQtQtQtQtQtQtQtQtQtQtQtQtQtQtQtQtQtQtQtQtQtQtQtQtQtQtQtQtQtQtQtQtQtQtQtQtQtQtQtQtQtQtQtQtQtQtQtQtQtQtQtQtQtQtQtQtQt",
"QtQtQtQtQtQtQtQtQtQtQtQtQtQtQtQtQtQtQtQtQtQtQtQtQtQtQtQtQtQtQtQtQtQtQtQtQtQtQtQtQtQtQtQtQtQtQtQtQtQtQtQtQtQtQtQtQtQtQtQtQtQtQtQt",
"QtQtQtQtQtQtQtQtQtQtQtQtQtQtQtQtQtQtQtQtQtQtQtQtQtQtQtQtQtQtQtQtQtQtQtQtQtQtQtQtQtQtQtQtQtQtQtQtQtQtQtQtQtQtQtQtQtQtQtQtQtQtQtQt",
"QtQtQtQtQtQtQtQtQtQtQtQtQtQtQtQtQtQtQtQtQtQtQtQtQtQtQtQtQtQtQtQtQtQtQtQtQtQtQtQtQtQtQtQtQtQtQtQtQtQtQtQtQtQtQtQtQtQtQtQtQtQtQtQt",
"QtQtQtQtQtQtQtQtQtQtQtQtQtQtQtQtQtQtQtQtQtQtQtQtQtQtQtQtQtQtQtQtQtQtQtQtQtQtQtQtQtQtQtQtQtQtQtQtQtQtQtQtQtQtQtQtQtQtQtQtQtQtQtQt",
"QtQtQtQtQtQtQtQtQtQtQtQtQtQtQtQtQtQtQtQtQtQtQtQtQtQtQtQtQtQtQtQtQtQtQtQtQtQtQtQtQtQtQtQtQtQtQtQtQtQtQtQtQtQtQtQtQtQtQtQtQtQtQtQt"};
