/* XPM */
static char *dummy[]={
"64 64 418 2",
"Qt c None",
"cL c None",
".P c None",
".W c None",
"ct c None",
"#3 c None",
".t c None",
"bi c None",
".F c None",
".U c None",
".y c None",
".a c None",
".E c None",
"bQ c None",
"eF c None",
"#c c None",
"ak c None",
".K c None",
"#F c None",
"d9 c None",
"ei c #000000",
"#q c #743013",
"aB c #8b2913",
"b9 c #b02700",
"#D c #b33720",
"#p c #d34118",
"#n c #da1606",
".v c #df2d16",
"#b c #e02912",
".9 c #e02b16",
"#4 c #e03717",
"#P c #e2240f",
".s c #e32512",
".m c #e32816",
".g c #e32916",
".d c #e33417",
"#C c #e42715",
"aA c #e43321",
"bw c #e52e1f",
"#z c #e62616",
"#e c #ec2215",
"#h c #ef3017",
"#w c #ef3117",
"#. c #f00a12",
".I c #fbffff",
".z c #fe002c",
".k c #ffffff",
".T c #e32816",
".l c #e32916",
".3 c #e32e16",
"aC c #e33417",
"#l c #ea2115",
"#Q c #fcffff",
".h c #fdffff",
"dh c #ffffff",
".f c #e32916",
".o c #e32916",
"dU c #2f2c18",
"#E c #a84420",
".V c #e32916",
".J c #e42b1b",
"#m c #e22a15",
"dI c #644215",
".Z c #e33516",
".Q c #e52d13",
"bx c #e62b1d",
"#r c #000000",
"#1 c #c80018",
".N c #e32916",
"b8 c #3f1e03",
"ai c #e32816",
"cK c #822710",
"ah c #e12415",
"#G c #e32916",
".# c #e32916",
"c# c #fafdfd",
"c. c #b42e14",
"es c #faf5f5",
".A c #e32916",
"#2 c #e22916",
".O c #fafdfd",
"cs c #d5c8c5",
"ej c #fafdfd",
"d8 c #f7f5f4",
"a1 c #fafcfc",
"aj c #fafdfd",
".R c #fbf9fa",
"al c #ec3218",
".j c #f4cbc7",
"eE c #6a3212",
"by c #fafdfd",
".q c #fafbfc",
"c5 c #fafcfc",
"dg c #fef6f5",
"#d c #e32916",
"aN c #e32916",
".b c #e32916",
"#o c #e43417",
"eD c #821711",
".L c #e32916",
".G c #e32916",
"#S c #e32916",
".X c #e32816",
"et c #732f13",
".H c #e32916",
"#5 c #e73017",
".Y c #e32916",
".p c #e32916",
"#i c #e32916",
"eu c #832813",
"eC c #ea721f",
"cu c #782d12",
".2 c #e32d1c",
"dy c #7a3815",
"dH c #833415",
"b# c #e33417",
"bj c #e52716",
"ev c #e86e1e",
"eh c #782d12",
"eB c #fbdb16",
"## c #e33417",
".0 c #e33417",
"#x c #e32816",
"ew c #fbd914",
"#k c #e32916",
"bq c #e79921",
"bm c #e79921",
".8 c #e32916",
"#j c #e32916",
"#W c #ee2f17",
"dA c #f09820",
"dE c #f09920",
"bc c #f09e22",
"bb c #f19f22",
"dk c #f1d612",
"du c #f2d611",
"cf c #f2d612",
"dl c #f2d712",
"cG c #e99b21",
"dt c #f3d913",
"bU c #ed9b21",
"c1 c #f09b21",
"dd c #f09e21",
"b3 c #f09f21",
"cl c #f2da13",
"ci c #f3d813",
"b2 c #f3da13",
"bC c #e79722",
"bE c #e79821",
"bn c #e79822",
"bo c #e79921",
"c0 c #e79a21",
"bL c #e89822",
"dv c #e89a21",
"bZ c #e89c20",
"c9 c #e99921",
"db c #e99e21",
"dY c #f09820",
"dQ c #f09920",
"cQ c #f0d410",
"cN c #f19820",
"cx c #f19920",
"cF c #f19a21",
"c7 c #f2d612",
"da c #f2d613",
"c8 c #f2d713",
"dc c #f2d913",
"bV c #f3d713",
"cc c #f3d813",
"cO c #e59622",
"cZ c #e69a21",
"bI c #e89b21",
"dr c #e99c21",
"bH c #e99d21",
"cd c #efd410",
"cX c #f0d410",
"d4 c #f19e21",
"dD c #f2d612",
"cC c #f4d813",
"b1 c #f4d913",
"bJ c #e3c906",
"bp c #e9a122",
"#J c #ee2f17",
"ck c #f0d410",
"#R c #e33417",
"bD c #e3c806",
"cy c #e3c906",
"cD c #e4ca07",
"dL c #e7cb08",
"dP c #e8cb09",
"ex c #fbd914",
"eA c #fbd914",
".u c #e32916",
".x c #de2d16",
".7 c #e32916",
".B c #e32916",
"ez c #f4d814",
"el c #fade18",
"er c #e32311",
".5 c #e32916",
"ec c #fbe219",
"dT c #783118",
"eg c #db331c",
"c4 c #803d1f",
"#X c #f76b1c",
"ch c #fbe319",
"e. c #732f13",
"#f c #e32916",
".r c #e32f20",
"dm c #fbe219",
"ab c #fa9b21",
"ds c #fbe119",
"eq c #e23416",
"am c #e32816",
".w c #e32916",
".i c #e33215",
"do c #f1d613",
"bd c #f29f20",
"cB c #f3d914",
"d# c #f4d914",
"d1 c #f6db15",
"cV c #f8de18",
"dC c #fae119",
".D c #e32916",
".S c #e32d1c",
"#a c #e33517",
"ep c #fad813",
"dx c #7e3515",
"aT c #e32816",
".n c #e32916",
"ba c #f29f20",
"br c #f2a120",
"eo c #fade18",
"en c #fae119",
"cU c #fae219",
"b4 c #a75016",
"cH c #dd5f1a",
"aa c #df2b16",
"a# c #e22916",
"ar c #e32816",
".e c #e32916",
"co c #e52f16",
"de c #ec2a16",
"dF c #ed2616",
"dw c #ed2a16",
"bM c #ed661a",
".6 c #ee2f17",
"#y c #ef2f17",
"c2 c #ef3718",
"ey c #f0d612",
"bX c #f19e21",
"be c #f1a021",
"bt c #f1a120",
"aS c #f29f20",
"a7 c #f29f21",
"bK c #f3a51e",
"cj c #f4da14",
"cn c #f5681c",
"cE c #f9a41d",
"aH c #f9a51d",
"cW c #f9dc17",
"em c #fae119",
"cA c #fae219",
"cY c #fcb70c",
"dJ c #732f13",
"bR c #7a3815",
"di c #7b3815",
"b7 c #813515",
"cb c #8b3916",
"ca c #8f3c16",
"cq c #8f3d17",
"#7 c #8f3e15",
"ae c #924115",
"cr c #943b14",
"d7 c #a1300f",
"dV c #a13514",
"#v c #a43814",
"bT c #a44c15",
"bP c #a74011",
"bz c #a84317",
"bS c #c65618",
"cp c #c95417",
"#g c #d32b16",
"e# c #d93516",
"cw c #dc5b19",
"#0 c #de3117",
"aF c #df9224",
"bs c #df9424",
"aJ c #df9524",
"bv c #e03817",
".C c #e12916",
"#T c #e12a16",
"bk c #e13617",
"b. c #e22612",
"dG c #e22816",
"aO c #e22916",
"#Y c #e22d16",
"b6 c #e23717",
"#8 c #e23d17",
".1 c #e32612",
"dS c #e32716",
".M c #e32816",
".c c #e32916",
"az c #e32a16",
"#O c #e32b16",
"bl c #e33417",
"ad c #e33e17",
"#N c #e42716",
"#s c #e42816",
"aZ c #e42916",
"ay c #e42a16",
"df c #e42e11",
"ef c #e43216",
"ag c #e52a15",
"a2 c #e52a16",
"av c #e52b16",
"bO c #e53217",
"cI c #e53317",
"a9 c #e62b15",
"c6 c #e73017",
"aM c #e73817",
"#Z c #e92115",
"dW c #e92615",
"d6 c #ea2616",
"cv c #ea3018",
"dj c #eb2115",
".4 c #eb2215",
"cJ c #eb3118",
"#M c #ec2015",
"#u c #ec2215",
"#L c #ec2716",
"b5 c #ec2a16",
"bN c #ec2d16",
"cM c #ec3218",
"dz c #ed2416",
"dK c #ed2c16",
"dR c #ed2e16",
"#B c #ee2416",
"bA c #ee2d17",
"aQ c #ee3217",
"aY c #ee3317",
"#I c #ef2f17",
"#9 c #ef3017",
"c3 c #ef3318",
"ac c #ef3c19",
"bB c #ef621a",
"#t c #f05119",
"d5 c #f15318",
"dX c #f15319",
"a0 c #f15419",
"aP c #f15519",
"ap c #f1641a",
"at c #f16d1d",
"aG c #f29f21",
"#A c #f34f19",
"#H c #f3631a",
"aD c #f3641b",
"a6 c #f39f21",
"aI c #f3a021",
"aU c #f3a121",
"cT c #f3d914",
"#K c #f4651b",
"a5 c #f4711d",
"a8 c #f4741e",
"cz c #f4d914",
"ce c #f5da14",
"ao c #f6641b",
"au c #f6661c",
"af c #f6681c",
"aK c #f66a1d",
"#V c #f7671c",
"aV c #f7691d",
"#6 c #f8681c",
"ea c #f8b909",
"d. c #f8df19",
"dp c #f8e019",
"dn c #f8e01a",
"a3 c #f9681b",
"aE c #f9681c",
"bg c #f96d1c",
"a. c #f99a21",
"as c #f9a51d",
"aq c #f9a61d",
"ee c #f9bb08",
"cR c #f9dc16",
"cg c #f9e01a",
"#U c #fa681b",
"bh c #fa6b1b",
"bu c #fa6c1b",
"a4 c #faa11e",
"bf c #faa21d",
"dN c #fadd18",
"d2 c #fade18",
"ed c #fade19",
"dB c #fadf19",
"eb c #fae019",
"b0 c #fae119",
"cS c #fae219",
"aw c #fb671b",
"an c #fb681b",
"ax c #fb691b",
"aL c #fb6b1b",
"aX c #fb6c1b",
"cm c #fb701a",
"aW c #fb9c1f",
"aR c #fb9c20",
"ek c #fbd813",
"dZ c #fbd914",
"d3 c #fbdb16",
"d0 c #fbdb17",
"dM c #fbdc17",
"dO c #fbdd18",
"bF c #fbe219",
"bW c #fbe319",
"bY c #fbe419",
"cP c #fcb70d",
"dq c #fce419",
"bG c #fce51a",
"QtQtQtQtQtQtQtQtQtQtQtQtQtQtQtQtQtQtQtQtQtQtQtQtQtQtQtQtQtQtQtQtQtQtQtQtQtQtQtQtQtQtQtQtQtQtQtQtQtQtQtQtQtQtQtQtQtQtQtQtQtQtQtQt",
"QtQtQtQtQtQtQtQtQtQtQtQtQtQtQtQtQtQtQtQtQtQtQtQtQtQtQtQtQtQtQtQtQtQtQtQtQtQtQtQtQtQtQtQtQtQtQtQtQtQtQtQtQtQtQtQtQtQtQtQtQtQtQtQt",
"QtQtQtQtQtQtQtQtQtQtQtQtQtQtQtQtQtQtQtQtQtQtQtQtQtQtQtQtQtQtQtQtQtQtQtQtQtQtQtQtQtQtQtQtQtQtQtQtQtQtQtQtQtQtQtQtQtQtQtQtQtQtQtQt",
"QtQtQtQtQtQtQtQtQtQtQtQtQtQtQtQtQtQtQtQtQtQtQtQtQtQtQtQtQtQtQtQtQtQtQtQtQtQtQtQtQtQtQtQtQtQtQtQtQtQtQtQtQtQtQtQtQtQtQtQtQtQtQtQt",
"QtQtQtQtQtQtQtQtQtQtQtQtQtQtQtQtQtQtQtQtQtQtQtQtQtQtQtQtQtQtQtQtQtQtQtQtQtQtQtQtQtQtQtQtQtQtQtQtQtQtQtQtQtQtQtQtQtQtQtQtQtQtQtQt",
"QtQtQtQtQtQtQtQtQtQtQtQtQtQtQtQtQtQtQtQtQtQtQtQtQtQtQtQtQtQtQtQtQtQtQtQtQtQtQtQtQtQtQtQtQtQtQtQtQtQtQtQtQtQtQtQtQtQtQtQtQtQtQtQt",
"QtQtQtQtQtQtQtQtQtQtQtQtQtQtQtQtQtQtQtQtQtQtQtQtQtQtQtQtQtQtQtQtQtQtQtQtQtQtQtQtQtQtQtQtQtQtQtQtQtQtQtQtQtQtQtQtQtQtQtQtQtQtQtQt",
"QtQtQtQtQtQtQtQtQtQtQtQtQtQtQtQtQtQtQtQtQtQtQtQtQtQtQtQtQtQtQtQtQtQtQtQtQtQtQtQtQtQtQtQtQtQtQtQtQtQtQtQtQtQtQtQtQtQtQtQtQtQtQtQt",
"QtQtQtQtQtQtQtQtQtQtQtQtQtQtQtQtQtQtQtQtQtQtQtQtQtQtQtQtQtQtQtQtQtQtQtQtQtQtQtQtQtQtQtQtQtQtQtQtQtQtQtQtQtQtQtQtQtQtQtQtQtQtQtQt",
"QtQtQtQtQtQtQtQtQtQtQtQtQtQtQtQtQtQtQtQtQtQtQtQtQtQtQtQtQtQtQtQtQtQtQtQtQtQtQtQtQtQtQtQtQtQtQtQtQtQtQtQtQtQtQtQtQtQtQtQtQtQtQtQt",
"QtQtQtQtQtQtQtQtQtQtQtQtQtQtQtQtQtQtQtQtQtQtQtQtQtQtQtQtQtQtQtQtQtQtQtQtQtQtQtQtQtQtQtQtQtQtQtQtQtQtQtQtQtQtQtQtQtQtQtQtQtQtQtQt",
"QtQtQtQtQtQtQtQtQtQtQtQtQtQtQtQtQtQtQtQtQtQtQtQtQtQtQtQtQtQtQtQtQtQtQtQtQtQtQtQtQtQtQtQtQtQtQtQtQtQtQtQtQtQtQtQtQtQtQtQtQtQtQtQt",
"QtQtQtQtQtQtQtQtQtQtQtQtQtQtQtQtQtQtQtQtQtQtQtQtQtQtQtQtQtQtQtQtQtQtQtQtQtQtQtQtQtQtQtQtQtQtQtQtQtQtQtQtQtQtQtQtQtQtQtQtQtQtQtQt",
"QtQtQtQtQtQtQtQtQtQtQtQtQtQtQtQtQtQtQtQtQtQtQtQtQtQtQtQtQtQtQtQtQtQtQtQtQtQtQtQtQtQtQtQtQtQtQtQtQtQtQtQtQtQtQtQtQtQtQtQtQtQtQtQt",
"QtQtQtQtQtQtQtQtQtQtQtQtQtQtQtQtQtQtQtQtQtQtQtQtQtQtQtQtQtQtQtQtQtQtQtQtQtQtQtQtQtQtQtQtQtQtQtQtQtQtQtQtQtQtQtQtQtQtQtQtQtQtQtQt",
"QtQtQtQtQtQtQtQtQtQtQtQtQtQtQtQtQtQtQtQtQtQtQtQtQtQtQtQtQtQtQtQtQtQtQtQtQtQtQtQtQtQtQtQtQtQtQtQtQtQtQtQtQtQtQtQtQtQtQtQtQtQtQtQt",
"QtQtQtQtQtQtQtQtQtQtQtQtQtQtQtQtQtQtQtQtQtQtQtQtQtQtQtQtQtQtQtQtQtQtQtQtQtQtQtQtQtQtQtQtQtQtQtQtQtQtQtQtQtQtQtQtQtQtQtQtQtQtQtQt",
"QtQtQtQtQtQtQtQtQtQtQtQtQtQtQtQtQtQtQtQtQtQtQtQtQtQtQtQtQtQtQtQtQtQtQtQtQtQtQtQtQtQtQtQtQtQtQtQtQtQtQtQtQtQtQtQtQtQtQtQtQtQtQtQt",
"QtQtQtQtQtQtQtQtQtQtQtQtQtQtQtQtQtQtQtQtQtQtQtQtQtQtQtQtQtQtQtQtQtQtQtQtQtQtQtQtQtQtQtQtQtQtQtQtQtQtQtQtQtQtQtQtQtQtQtQtQtQtQtQt",
"QtQtQtQtQtQtQtQtQtQtQtQtQtQtQtQtQtQtQtQtQtQtQtQtQtQtQtQtQtQtQtQt.#.aQtQtQtQtQtQtQtQtQtQtQtQtQtQtQtQtQtQtQtQtQtQtQtQtQtQtQtQtQtQt",
"QtQtQtQtQtQtQtQtQtQtQtQtQtQtQtQtQtQtQtQtQtQtQtQtQtQtQtQtQtQt.a.b.cQtQtQtQtQtQtQtQtQtQtQtQtQtQtQtQtQtQtQtQtQtQtQtQtQtQtQtQtQtQtQt",
"QtQtQtQtQtQtQtQtQtQtQtQtQtQtQtQtQtQtQtQtQtQtQtQt.dQtQtQtQtQt.a.e.e.aQtQt.f.g.h.i.j.kQtQtQtQtQtQtQtQtQtQtQtQtQtQtQtQtQtQtQtQtQtQt",
"QtQtQtQtQtQtQtQtQtQtQtQtQtQtQtQtQtQtQtQtQtQt.l.m.mQtQt.nQtQt.e.e.oQtQt.p.fQt.q.r.s.tQtQtQtQtQtQtQtQtQtQtQtQtQtQtQtQtQtQtQtQtQtQt",
"QtQtQtQtQtQtQtQtQtQtQtQtQtQtQtQtQtQtQtQtQt.u.e.mQt.vQt.eQtQt.c.eQtQtQt.w.gQt.x.y.a.yQt.zQtQtQtQtQtQtQtQtQtQtQtQtQtQtQtQtQtQtQtQt",
"QtQtQtQtQtQtQtQtQtQtQtQtQtQtQtQtQtQtQtQtQt.A.e.BQtQt.a.e.C.gQtQtQtQt.D.e.gQt.g.E.F.gQtQtQtQtQtQtQtQtQtQtQtQtQtQtQtQtQtQtQtQtQtQt",
"QtQtQtQtQtQtQtQtQtQtQtQtQtQtQtQtQtQtQtQtQt.a.G.e.mQt.o.e.c.gQtQtQtQt.c.H.g.a.gQt.a.gQtQt.I.JQtQtQtQtQtQtQtQtQtQtQtQtQtQtQtQtQtQt",
"QtQtQtQtQtQtQtQtQtQtQtQtQtQtQtQtQtQt.m.KQtQt.L.eQt.a.e.e.M.N.a.O.P.e.c.c.g.gQtQt.e.#Qt.Q.R.SQtQtQtQtQtQtQtQtQtQtQtQtQtQtQtQtQtQt",
"QtQtQtQtQtQtQtQtQtQtQtQtQtQtQtQtQtQt.T.U.dQtQt.gQt.a.e.e.M.V.g.W.g.e.c.X.g.l.Y.e.cQt.Z.0.1.2QtQtQtQtQtQtQtQtQtQtQtQtQtQtQtQtQtQt",
"QtQtQtQtQtQtQtQtQtQtQtQtQtQtQtQtQtQtQt.gQt.3.n.g.gQt.c.e.4.m.g.g.5.6.7.g.g.e.8.c.9#.###a#b#cQtQtQtQtQtQtQtQtQtQtQtQtQtQtQtQtQtQt",
"QtQtQtQtQtQtQtQtQtQtQtQtQtQtQtQtQtQt.l#dQt.d.n.g#e#f.c#g.M.M#h#i.6.6.c.g#j#k.c#l#m#n#o#p#q#rQtQtQtQtQtQtQtQtQtQtQtQtQtQtQtQtQtQt",
"QtQtQtQtQtQtQtQtQtQtQtQtQtQtQtQtQtQt.g.aQtQt.e.a.U#s.c#t#u#v#w#x#y.6.c#z#A.c#B#C#D#EQt#FQtQtQtQtQtQtQtQtQtQtQtQtQtQtQtQtQtQtQtQt",
"QtQtQtQtQtQtQtQtQtQtQtQtQtQtQtQtQtQt.g#G.dQt.e.g.U.M.M#u#u#H#I.6#y#J#K#L#M#N#O#PQt#Q.eQt.V.a.gQtQtQtQtQtQtQtQtQtQtQtQtQtQtQtQtQt",
"QtQtQtQtQtQtQtQtQtQtQtQtQtQtQtQtQtQt.a.e.d#R.e.f#S.c#u.M#T#U#V#W#y#X#U#Y.M#Z#K#0#1#2.e.f.g.a.gQtQtQtQtQtQtQtQtQtQtQtQtQtQtQtQtQt",
"QtQtQtQtQtQtQtQtQtQtQtQtQtQtQtQtQtQt#3.n#4#5.M.e.g#6#7#u#8#9a.a#aaabacad#Baeafagah.e.e.g.g.g.aQtQtQtQtQtQtQtQtQtQtQtQtQtQtQtQtQt",
"QtQtQtQtQtQtQtQtQtQtQtQtQtQtQtQtQtai.Uajakal.M.Maman#U#saoapaqararasatauavawaxayaz.e.e.gaA.gQtQtQtQtQtQtQtQtQtQtQtQtQtQtQtQtQtQt",
"QtQtQtQtQtQtQtQtQtQtQtQtQtQtQtQtQtQtaB.MQtaC.MaD.MaE#U#U#VaFaGaHaraIaJaKaL#UaE.caM.c.eaN.gQtQtQtQtQtQtQtQtQtQtQtQtQtQtQtQtQtQtQt",
"QtQtQtQtQtQtQtQtQtQtQtQtQtQtQtQtQtQtQtQtQt.daOaP.MaQanaR#VaGaGaSaTaGaUaVaWaXaYaZa0az.c.c.aQtQtQtQtQtQtQtQtQtQtQtQtQtQtQtQtQtQtQt",
"QtQtQtQtQtQtQtQtQtQtQtQtQtQtQtQtQtQt.mQtQta1aOa2a3.M#Ua4a5a6aGaSaSa7aUa8a4aXay#Ua9b..c.c.y.mQtQtQtQtQtQtQtQtQtQtQtQtQtQtQtQtQtQt",
"QtQtQtQtQtQtQtQtQtQtQtQtQtQtQtQtQtQtQt.Mb#QtaO.M#U#U#Ua4aGbabbaSaSbcbdbebfbgbhaxayaO.c.c.gbiQtQtQtQtQtQtQtQtQtQtQtQtQtQtQtQtQtQt",
"QtQtQtQtQtQtQtQtQtQtQtQtQtQtQtQtQtQtQtbjbkbl.M.M#Ua6aFaGbmbnboaSaSbpbnbqbrbsbtbuay.M.cbvbwbxQtQtQtQtQtQtQtQtQtQtQtQtQtQtQtQtQtQt",
"QtQtQtQtQtQtQtQtQtQtQtQtQtQtQtQtQtQtQtbybzblbA.MbBbCaGbDbobEbFaSaSbGbHbIbJbKbLbMaybNbObPbQ.kQtQtQtQtQtQtQtQtQtQtQtQtQtQtQtQtQtQt",
"QtQtQtQtQtQtQtQtQtQtQtQtQtQtQtQtQtQtQtQtbRblbSbAbTbUbVbVbFbEbWaSbXbYbZb0b1b2b3b4b5bSb6b7b8b9QtQtQtQtQtQtQtQtQtQtQtQtQtQtQtQtQtQt",
"QtQtQtQtQtQtQtQtQtQtQtQtQtQtQtQtQtQtc.c#cacbbS.MaD#UcccdcecfcgaSchcgcicjckclcmcncocpcqcrcsctQtQtQtQtQtQtQtQtQtQtQtQtQtQtQtQtQtQt",
"QtQtQtQtQtQtQtQtQtQtQtQtQtQtQtQtQtQtQtcucvblcwbLcxa4cycccececzcAcBczcececCcDcEcFcGcHcIcJcKcLQtQtQtQtQtQtQtQtQtQtQtQtQtQtQtQtQtQt",
"QtQtQtQtQtQtQtQtQtQtQtQtQtQtQtQtQtQtQtQtbRcM#IcNbCcOcPcQcRcScTcUcVcTcScWcXcYcZc0c1c2c3c4QtQtQtQtQtQtQtQtQtQtQtQtQtQtQtQtQtQtQtQt",
"QtQtQtQtQtQtQtQtQtQtQtQtQtQtQtQtQtQtQtQtc5c6#ucNc7c8bbc9c8d.cTcUd#czd.dadbbcc7dcdddedfdgdhQtQtQtQtQtQtQtQtQtQtQtQtQtQtQtQtQtQtQt",
"QtQtQtQtQtQtQtQtQtQtQtQtQtQtQtQtQtQtQtQtQtdidjbndkc7dldmbobFdncAdodpdqdrdsdtc7dudvdwdx#rQtQtQtQtQtQtQtQtQtQtQtQtQtQtQtQtQtQtQtQt",
"QtQtQtQtQtQtQtQtQtQtQtQtQtQtQtQtQtQtQtQtQtdy.MdzdAc7c7dBbFbWbWcAdCbWbWbYdBdDc7dEdFdGdHdIQtQtQtQtQtQtQtQtQtQtQtQtQtQtQtQtQtQtQtQt",
"QtQtQtQtQtQtQtQtQtQtQtQtQtQtQtQtQtQtQtQtQtQtdJ.MdKcNdLdMdNb0cScAd#cSb0dNdOdPdQdRdSdTdUQtQtQtQtQtQtQtQtQtQtQtQtQtQtQtQtQtQtQtQtQt",
"QtQtQtQtQtQtQtQtQtQtQtQtQtQtQtQtQtQtQtQtQtQtajdVdWdXdYdZd0dNcScAd1cSd2d0d3d4d5d6d7d8d9QtQtQtQtQtQtQtQtQtQtQtQtQtQtQtQtQtQtQtQtQt",
"QtQtQtQtQtQtQtQtQtQtQtQtQtQtQtQtQtQtQtQtQtQtQte.e#.MeaebdZdNbFcAecbWeddZb0eeefegeheiQtQtQtQtQtQtQtQtQtQtQtQtQtQtQtQtQtQtQtQtQtQt",
"QtQtQtQtQtQtQtQtQtQtQtQtQtQtQtQtQtQtQtQtQtQtQtQtej.M.Mekebb0bFcAelemeneoepeqeresQtQtQtQtQtQtQtQtQtQtQtQtQtQtQtQtQtQtQtQtQtQtQtQt",
"QtQtQtQtQtQtQtQtQtQtQtQtQtQtQtQtQtQtQtQtQtQtQtQtQtQteteuevewexeyezeAeBeCeDeE.KeFQtQtQtQtQtQtQtQtQtQtQtQtQtQtQtQtQtQtQtQtQtQtQtQt",
"QtQtQtQtQtQtQtQtQtQtQtQtQtQtQtQtQtQtQtQtQtQtQtQtQtQtQtQtQtQtQtQtQtQtQtQtQtQtQtQtQtQtQtQtQtQtQtQtQtQtQtQtQtQtQtQtQtQtQtQtQtQtQtQt",
"QtQtQtQtQtQtQtQtQtQtQtQtQtQtQtQtQtQtQtQtQtQtQtQtQtQtQtQtQtQtQtQtQtQtQtQtQtQtQtQtQtQtQtQtQtQtQtQtQtQtQtQtQtQtQtQtQtQtQtQtQtQtQtQt",
"QtQtQtQtQtQtQtQtQtQtQtQtQtQtQtQtQtQtQtQtQtQtQtQtQtQtQtQtQtQtQtQtQtQtQtQtQtQtQtQtQtQtQtQtQtQtQtQtQtQtQtQtQtQtQtQtQtQtQtQtQtQtQtQt",
"QtQtQtQtQtQtQtQtQtQtQtQtQtQtQtQtQtQtQtQtQtQtQtQtQtQtQtQtQtQtQtQtQtQtQtQtQtQtQtQtQtQtQtQtQtQtQtQtQtQtQtQtQtQtQtQtQtQtQtQtQtQtQtQt",
"QtQtQtQtQtQtQtQtQtQtQtQtQtQtQtQtQtQtQtQtQtQtQtQtQtQtQtQtQtQtQtQtQtQtQtQtQtQtQtQtQtQtQtQtQtQtQtQtQtQtQtQtQtQtQtQtQtQtQtQtQtQtQtQt",
"QtQtQtQtQtQtQtQtQtQtQtQtQtQtQtQtQtQtQtQtQtQtQtQtQtQtQtQtQtQtQtQtQtQtQtQtQtQtQtQtQtQtQtQtQtQtQtQtQtQtQtQtQtQtQtQtQtQtQtQtQtQtQtQt",
"QtQtQtQtQtQtQtQtQtQtQtQtQtQtQtQtQtQtQtQtQtQtQtQtQtQtQtQtQtQtQtQtQtQtQtQtQtQtQtQtQtQtQtQtQtQtQtQtQtQtQtQtQtQtQtQtQtQtQtQtQtQtQtQt",
"QtQtQtQtQtQtQtQtQtQtQtQtQtQtQtQtQtQtQtQtQtQtQtQtQtQtQtQtQtQtQtQtQtQtQtQtQtQtQtQtQtQtQtQtQtQtQtQtQtQtQtQtQtQtQtQtQtQtQtQtQtQtQtQt",
"QtQtQtQtQtQtQtQtQtQtQtQtQtQtQtQtQtQtQtQtQtQtQtQtQtQtQtQtQtQtQtQtQtQtQtQtQtQtQtQtQtQtQtQtQtQtQtQtQtQtQtQtQtQtQtQtQtQtQtQtQtQtQtQt",
"QtQtQtQtQtQtQtQtQtQtQtQtQtQtQtQtQtQtQtQtQtQtQtQtQtQtQtQtQtQtQtQtQtQtQtQtQtQtQtQtQtQtQtQtQtQtQtQtQtQtQtQtQtQtQtQtQtQtQtQtQtQtQtQt",
"QtQtQtQtQtQtQtQtQtQtQtQtQtQtQtQtQtQtQtQtQtQtQtQtQtQtQtQtQtQtQtQtQtQtQtQtQtQtQtQtQtQtQtQtQtQtQtQtQtQtQtQtQtQtQtQtQtQtQtQtQtQtQtQt"};
