/* XPM */
static char *dummy[]={
"64 64 437 2",
"Qt c None",
"c5 c None",
"cN c None",
".t c None",
".H c None",
".X c None",
".z c None",
".a c None",
"eY c None",
"#f c None",
"aN c None",
"#U c None",
"ax c None",
".O c None",
"#I c None",
"au c None",
"eB c #000000",
"#s c #743013",
"a5 c #8e2a13",
".S c #99460b",
"cr c #b02700",
"#G c #b33720",
".0 c #b42f15",
"#r c #d34118",
"ab c #d43316",
"av c #d43416",
"#p c #da1606",
".v c #df2d16",
"#e c #e02912",
"#a c #e02b16",
"ac c #e03717",
"#T c #e2240f",
".s c #e32512",
".m c #e32816",
".y c #e32915",
".g c #e32916",
".G c #e32d1d",
"a3 c #e33317",
".d c #e33417",
"#F c #e42715",
"aM c #eb2a11",
"#h c #ec2215",
"#b c #f00a12",
".M c #fbffff",
".A c #fe002c",
".k c #ffffff",
".W c #e32816",
".l c #e32916",
".6 c #e32e16",
"aR c #e33417",
"#n c #ea2115",
"#V c #fcffff",
".h c #fdffff",
"dB c #ffffff",
".f c #e32916",
"#K c #e32816",
".o c #e32916",
"ec c #2f2c18",
"#H c #a84420",
"bD c #e32315",
".N c #e42b1b",
"#o c #e22a15",
"d2 c #644215",
".2 c #e33516",
".T c #e52d13",
"bR c #e62b1d",
"#t c #000000",
"#9 c #c80018",
"a. c #e31e0e",
"cq c #3f1e03",
"bt c #e32915",
"#W c #e33217",
"#Y c #e33416",
"c4 c #822710",
"aq c #e12415",
".# c #e32916",
"at c #e13d22",
"ct c #fafdfd",
"cs c #b42e14",
"eL c #faf5f5",
".B c #e32916",
".L c #e32916",
".J c #e32916",
".R c #fafdfd",
"cM c #d5c8c5",
"eC c #fafdfd",
"eq c #f7f5f4",
"bi c #fafcfc",
"aw c #fafdfd",
".U c #fbf9fa",
"a4 c #df2816",
"ay c #ec3218",
"aO c #fafcfd",
".j c #f4cbc7",
"eX c #6a3212",
"bS c #fafdfd",
"c. c #f3f4f4",
".q c #fafbfc",
"dn c #fafcfc",
"dA c #fef6f5",
".b c #e32916",
"#q c #e43417",
"#Z c #e32916",
"eW c #821711",
".P c #e32916",
".I c #e32916",
"aa c #e33417",
"eM c #732f13",
".K c #e32916",
"ad c #e73017",
".1 c #e32916",
".Y c #e32916",
".p c #e32916",
"eN c #832813",
"eV c #ea721f",
"cO c #782d12",
".5 c #e32d1c",
"dS c #7a3815",
"d1 c #833415",
"bu c #e33417",
"bE c #e52716",
"eO c #e86e1e",
"bQ c #e52e1f",
"eA c #782d12",
"#g c #e32916",
"#C c #e62616",
"eU c #fbdb16",
"#c c #e33417",
"bh c #e32916",
".3 c #e33417",
"aQ c #8b2913",
"#A c #e32816",
"eP c #fbd914",
"#J c #e32916",
"#m c #e32916",
"bK c #e79921",
"bG c #e79921",
"## c #e32916",
"#u c #e32916",
"#4 c #ee2f17",
"dU c #f09820",
"dY c #f09920",
".Z c #e32916",
"bx c #f09e22",
"bw c #f19f22",
"dE c #f1d612",
"dO c #f2d611",
"cz c #f2d612",
"dF c #f2d712",
"c0 c #e99b21",
"dN c #f3d913",
"cc c #ed9b21",
"dj c #f09b21",
"dx c #f09e21",
"cl c #f09f21",
"cF c #f2da13",
"cC c #f3d813",
"ck c #f3da13",
"bW c #e79722",
"bY c #e79821",
"bH c #e79822",
"bI c #e79921",
"di c #e79a21",
"b5 c #e89822",
"dP c #e89a21",
"ch c #e89c20",
"dr c #e99921",
"dv c #e99e21",
"eg c #f09820",
"e. c #f09920",
"d. c #f0d410",
"c7 c #f19820",
"cR c #f19920",
"cZ c #f19a21",
"dp c #f2d612",
"du c #f2d613",
"dq c #f2d713",
"dw c #f2d913",
"cd c #f3d713",
"cw c #f3d813",
"c8 c #e59622",
"dh c #e69a21",
"b2 c #e89b21",
"dL c #e99c21",
"b1 c #e99d21",
"cx c #efd410",
"df c #f0d410",
"em c #f19e21",
"dX c #f2d612",
"cW c #f4d813",
"cj c #f4d913",
"b3 c #e3c906",
"bJ c #e9a122",
"#N c #ee2f17",
"cE c #f0d410",
"#0 c #e33417",
"bX c #e3c806",
"cS c #e3c906",
"cX c #e4ca07",
"d5 c #e7cb08",
"d9 c #e8cb09",
"eQ c #fbd914",
"eT c #fbd914",
"#. c #e32916",
".u c #e32916",
"bs c #e32916",
"aP c #e32916",
".x c #de2d16",
".9 c #e32916",
".C c #e32916",
"eS c #f4d814",
"eE c #fade18",
"eK c #e32311",
"#l c #e32916",
"ev c #fbe219",
"eb c #783118",
"ez c #db331c",
".F c #e32916",
"dm c #803d1f",
"#5 c #f76b1c",
"cB c #fbe319",
"er c #732f13",
"#i c #e32916",
".r c #e32f20",
"dG c #fbe219",
"ar c #e32816",
"ak c #fa9b21",
"dM c #fbe119",
"eJ c #e23416",
".w c #e32916",
".i c #e33215",
"a# c #e33317",
"dI c #f1d613",
"by c #f29f20",
"cV c #f3d914",
"dt c #f4d914",
"ej c #f6db15",
"dd c #f8de18",
"dW c #fae119",
".E c #e32916",
".V c #e32d1c",
"#d c #e33517",
"eI c #fad813",
"dR c #7e3515",
"b# c #e32816",
".n c #e32916",
"as c #e72f17",
"bv c #f29f20",
"bL c #f2a120",
"eH c #fade18",
"eG c #fae119",
"dc c #fae219",
"cm c #a75016",
"c1 c #dd5f1a",
"aj c #df2b16",
"ai c #e22916",
"aD c #e32816",
".e c #e32916",
"cI c #e52f16",
"dy c #ec2a16",
"dZ c #ed2616",
"dQ c #ed2a16",
"b6 c #ed661a",
".8 c #ee2f17",
"#B c #ef2f17",
"dk c #ef3718",
"eR c #f0d612",
"cf c #f19e21",
"bz c #f1a021",
"bN c #f1a120",
"b. c #f29f20",
"bo c #f29f21",
"b4 c #f3a51e",
"cD c #f4da14",
"cH c #f5681c",
"cY c #f9a41d",
"aW c #f9a51d",
"de c #f9dc17",
"eF c #fae119",
"cU c #fae219",
"dg c #fcb70c",
"d3 c #732f13",
"c# c #7a3815",
"dC c #7b3815",
"cp c #813515",
"cv c #8b3916",
"cu c #8f3c16",
"cK c #8f3d17",
"af c #8f3e15",
"an c #924115",
"cL c #943b14",
"ep c #a1300f",
"ed c #a13514",
"#y c #a43814",
"cb c #a44c15",
"b9 c #a74011",
"bT c #a84317",
"ca c #c65618",
"cJ c #c95417",
"#j c #d32b16",
"es c #d93516",
"cQ c #dc5b19",
"#8 c #de3117",
"aU c #df9224",
"bM c #df9424",
"aY c #df9524",
"bP c #e03817",
".D c #e12916",
"#1 c #e12a16",
"bF c #e13617",
"br c #e22612",
"d0 c #e22816",
"a6 c #e22916",
"#6 c #e22d16",
"co c #e23717",
"ag c #e23d17",
".4 c #e32612",
"ea c #e32716",
".Q c #e32816",
".c c #e32916",
"aL c #e32a16",
"#S c #e32b16",
"#X c #e33417",
"am c #e33e17",
"#R c #e42716",
"#v c #e42816",
"bf c #e42916",
"aK c #e42a16",
"a2 c #e42b16",
"dz c #e42e11",
"ey c #e43216",
"ap c #e52a15",
"bj c #e52a16",
"aH c #e52b16",
"b8 c #e53217",
"c2 c #e53317",
"bq c #e62b15",
"do c #e73017",
"#7 c #e92115",
"ee c #e92615",
"eo c #ea2616",
"cP c #ea3018",
"dD c #eb2115",
".7 c #eb2215",
"c3 c #eb3118",
"#Q c #ec2015",
"#x c #ec2215",
"#P c #ec2716",
"cn c #ec2a16",
"b7 c #ec2d16",
"c6 c #ec3218",
"dT c #ed2416",
"d4 c #ed2c16",
"e# c #ed2e16",
"#E c #ee2416",
"bU c #ee2d17",
"a8 c #ee3217",
"be c #ee3317",
"#M c #ef2f17",
"#k c #ef3017",
"#z c #ef3117",
"dl c #ef3318",
"al c #ef3c19",
"bV c #ef621a",
"#w c #f05119",
"en c #f15318",
"ef c #f15319",
"bg c #f15419",
"a7 c #f15519",
"aB c #f1641a",
"aF c #f16d1d",
"aV c #f29f21",
"#D c #f34f19",
"#L c #f3631a",
"a1 c #f3631b",
"aS c #f3641b",
"bn c #f39f21",
"aX c #f3a021",
"ba c #f3a121",
"db c #f3d914",
"#O c #f4651b",
"bm c #f4711d",
"bp c #f4741e",
"cT c #f4d914",
"cy c #f5da14",
"aA c #f6641b",
"aG c #f6661c",
"ao c #f6681c",
"aZ c #f66a1d",
"#3 c #f7671c",
"bb c #f7691d",
"ae c #f8681c",
"et c #f8b909",
"ds c #f8df19",
"dJ c #f8e019",
"dH c #f8e01a",
"bk c #f9681b",
"aT c #f9681c",
"bB c #f96d1c",
"ah c #f99a21",
"aE c #f9a51d",
"aC c #f9a61d",
"ex c #f9bb08",
"d# c #f9dc16",
"cA c #f9e01a",
"#2 c #fa681b",
"bC c #fa6b1b",
"bO c #fa6c1b",
"bl c #faa11e",
"bA c #faa21d",
"d7 c #fadd18",
"ek c #fade18",
"ew c #fade19",
"dV c #fadf19",
"eu c #fae019",
"ci c #fae119",
"da c #fae219",
"aI c #fb671b",
"az c #fb681b",
"aJ c #fb691b",
"a0 c #fb6b1b",
"bd c #fb6c1b",
"cG c #fb701a",
"bc c #fb9c1f",
"a9 c #fb9c20",
"eD c #fbd813",
"eh c #fbd914",
"el c #fbdb16",
"ei c #fbdb17",
"d6 c #fbdc17",
"d8 c #fbdd18",
"bZ c #fbe219",
"ce c #fbe319",
"cg c #fbe419",
"c9 c #fcb70d",
"dK c #fce419",
"b0 c #fce51a",
"QtQtQtQtQtQtQtQtQtQtQtQtQtQtQtQtQtQtQtQtQtQtQtQtQtQtQtQtQtQtQtQtQtQtQtQtQtQtQtQtQtQtQtQtQtQtQtQtQtQtQtQtQtQtQtQtQtQtQtQtQtQtQtQt",
"QtQtQtQtQtQtQtQtQtQtQtQtQtQtQtQtQtQtQtQtQtQtQtQtQtQtQtQtQtQtQtQtQtQtQtQtQtQtQtQtQtQtQtQtQtQtQtQtQtQtQtQtQtQtQtQtQtQtQtQtQtQtQtQt",
"QtQtQtQtQtQtQtQtQtQtQtQtQtQtQtQtQtQtQtQtQtQtQtQtQtQtQtQtQtQtQtQtQtQtQtQtQtQtQtQtQtQtQtQtQtQtQtQtQtQtQtQtQtQtQtQtQtQtQtQtQtQtQtQt",
"QtQtQtQtQtQtQtQtQtQtQtQtQtQtQtQtQtQtQtQtQtQtQtQtQtQtQtQtQtQtQtQtQtQtQtQtQtQtQtQtQtQtQtQtQtQtQtQtQtQtQtQtQtQtQtQtQtQtQtQtQtQtQtQt",
"QtQtQtQtQtQtQtQtQtQtQtQtQtQtQtQtQtQtQtQtQtQtQtQtQtQtQtQtQtQtQtQtQtQtQtQtQtQtQtQtQtQtQtQtQtQtQtQtQtQtQtQtQtQtQtQtQtQtQtQtQtQtQtQt",
"QtQtQtQtQtQtQtQtQtQtQtQtQtQtQtQtQtQtQtQtQtQtQtQtQtQtQtQtQtQtQtQtQtQtQtQtQtQtQtQtQtQtQtQtQtQtQtQtQtQtQtQtQtQtQtQtQtQtQtQtQtQtQtQt",
"QtQtQtQtQtQtQtQtQtQtQtQtQtQtQtQtQtQtQtQtQtQtQtQtQtQtQtQtQtQtQtQtQtQtQtQtQtQtQtQtQtQtQtQtQtQtQtQtQtQtQtQtQtQtQtQtQtQtQtQtQtQtQtQt",
"QtQtQtQtQtQtQtQtQtQtQtQtQtQtQtQtQtQtQtQtQtQtQtQtQtQtQtQtQtQtQtQtQtQtQtQtQtQtQtQtQtQtQtQtQtQtQtQtQtQtQtQtQtQtQtQtQtQtQtQtQtQtQtQt",
"QtQtQtQtQtQtQtQtQtQtQtQtQtQtQtQtQtQtQtQtQtQtQtQtQtQtQtQtQtQtQtQtQtQtQtQtQtQtQtQtQtQtQtQtQtQtQtQtQtQtQtQtQtQtQtQtQtQtQtQtQtQtQtQt",
"QtQtQtQtQtQtQtQtQtQtQtQtQtQtQtQtQtQtQtQtQtQtQtQtQtQtQtQtQtQtQtQtQtQtQtQtQtQtQtQtQtQtQtQtQtQtQtQtQtQtQtQtQtQtQtQtQtQtQtQtQtQtQtQt",
"QtQtQtQtQtQtQtQtQtQtQtQtQtQtQtQtQtQtQtQtQtQtQtQtQtQtQtQtQtQtQtQtQtQtQtQtQtQtQtQtQtQtQtQtQtQtQtQtQtQtQtQtQtQtQtQtQtQtQtQtQtQtQtQt",
"QtQtQtQtQtQtQtQtQtQtQtQtQtQtQtQtQtQtQtQtQtQtQtQtQtQtQtQtQtQtQtQtQtQtQtQtQtQtQtQtQtQtQtQtQtQtQtQtQtQtQtQtQtQtQtQtQtQtQtQtQtQtQtQt",
"QtQtQtQtQtQtQtQtQtQtQtQtQtQtQtQtQtQtQtQtQtQtQtQtQtQtQtQtQtQtQtQtQtQtQtQtQtQtQtQtQtQtQtQtQtQtQtQtQtQtQtQtQtQtQtQtQtQtQtQtQtQtQtQt",
"QtQtQtQtQtQtQtQtQtQtQtQtQtQtQtQtQtQtQtQtQtQtQtQtQtQtQtQtQtQtQtQtQtQtQtQtQtQtQtQtQtQtQtQtQtQtQtQtQtQtQtQtQtQtQtQtQtQtQtQtQtQtQtQt",
"QtQtQtQtQtQtQtQtQtQtQtQtQtQtQtQtQtQtQtQtQtQtQtQtQtQtQtQtQtQtQtQtQtQtQtQtQtQtQtQtQtQtQtQtQtQtQtQtQtQtQtQtQtQtQtQtQtQtQtQtQtQtQtQt",
"QtQtQtQtQtQtQtQtQtQtQtQtQtQtQtQtQtQtQtQtQtQtQtQtQtQtQtQtQtQtQtQtQtQtQtQtQtQtQtQtQtQtQtQtQtQtQtQtQtQtQtQtQtQtQtQtQtQtQtQtQtQtQtQt",
"QtQtQtQtQtQtQtQtQtQtQtQtQtQtQtQtQtQtQtQtQtQtQtQtQtQtQtQtQtQtQtQtQtQtQtQtQtQtQtQtQtQtQtQtQtQtQtQtQtQtQtQtQtQtQtQtQtQtQtQtQtQtQtQt",
"QtQtQtQtQtQtQtQtQtQtQtQtQtQtQtQtQtQtQtQtQtQtQtQtQtQtQtQtQtQtQtQtQtQtQtQtQtQtQtQtQtQtQtQtQtQtQtQtQtQtQtQtQtQtQtQtQtQtQtQtQtQtQtQt",
"QtQtQtQtQtQtQtQtQtQtQtQtQtQtQtQtQtQtQtQtQtQtQtQtQtQtQtQtQtQtQtQt.#.aQtQtQtQtQtQtQtQtQtQtQtQtQtQtQtQtQtQtQtQtQtQtQtQtQtQtQtQtQtQt",
"QtQtQtQtQtQtQtQtQtQtQtQtQtQtQtQtQtQtQtQtQtQtQtQtQtQtQtQtQtQt.a.b.cQtQtQtQtQtQtQtQtQtQtQtQtQtQtQtQtQtQtQtQtQtQtQtQtQtQtQtQtQtQtQt",
"QtQtQtQtQtQtQtQtQtQtQtQtQtQtQtQtQtQtQtQtQtQtQtQt.dQtQtQtQtQt.a.e.e.aQtQt.f.g.h.i.j.kQtQtQtQtQtQtQtQtQtQtQtQtQtQtQtQtQtQtQtQtQtQt",
"QtQtQtQtQtQtQtQtQtQtQtQtQtQtQtQtQtQtQtQtQtQt.l.m.mQtQt.nQtQt.e.e.oQtQt.p.fQt.q.r.s.tQtQtQtQtQtQtQtQtQtQtQtQtQtQtQtQtQtQtQtQtQtQt",
"QtQtQtQtQtQtQtQtQtQtQtQtQtQtQtQtQtQtQtQtQt.u.e.mQt.vQt.eQtQt.c.eQtQtQt.w.gQt.x.y.g.zQt.AQtQtQtQtQtQtQtQtQtQtQtQtQtQtQtQtQtQtQtQt",
"QtQtQtQtQtQtQtQtQtQtQtQtQtQtQtQtQtQtQtQtQt.B.e.CQtQt.a.e.D.gQtQtQtQt.E.e.gQt.F.G.H.gQtQtQtQtQtQtQtQtQtQtQtQtQtQtQtQtQtQtQtQtQtQt",
"QtQtQtQtQtQtQtQtQtQtQtQtQtQtQtQtQtQtQtQtQt.a.I.e.mQt.o.e.c.JQtQtQtQt.c.K.g.L.eQt.a.gQtQt.M.NQtQtQtQtQtQtQtQtQtQtQtQtQtQtQtQtQtQt",
"QtQtQtQtQtQtQtQtQtQtQtQtQtQtQtQtQtQt.m.OQtQt.P.eQt.a.e.e.Q.e.g.R.S.e.c.c.e.eQtQt.e.#Qt.T.U.VQtQtQtQtQtQtQtQtQtQtQtQtQtQtQtQtQtQt",
"QtQtQtQtQtQtQtQtQtQtQtQtQtQtQtQtQtQt.W.X.dQtQt.gQt.a.e.e.Q.Y.Z.0.e.e.c.Q.e.e.1.e.cQt.2.3.4.5QtQtQtQtQtQtQtQtQtQtQtQtQtQtQtQtQtQt",
"QtQtQtQtQtQtQtQtQtQtQtQtQtQtQtQtQtQtQt.wQt.6.n.g.gQt.c.e.7.Q.c.e.E.8.9.c#..e##.c#a#b#c#d#e#fQtQtQtQtQtQtQtQtQtQtQtQtQtQtQtQtQtQt",
"QtQtQtQtQtQtQtQtQtQtQtQtQtQtQtQtQtQt.f#gQt.d.n.g#h#i.c#j.Q.Q#k#l.8.8.c.c.e#m.c#n#o#p#q#r#s#tQtQtQtQtQtQtQtQtQtQtQtQtQtQtQtQtQtQt",
"QtQtQtQtQtQtQtQtQtQtQtQtQtQtQtQtQtQt#u.aQtQt.e.e.m#v.c#w#x#y#z#A#B.8.c#C#D.c#E#F#G#HQt#IQtQtQtQtQtQtQtQtQtQtQtQtQtQtQtQtQtQtQtQt",
"QtQtQtQtQtQtQtQtQtQtQtQtQtQtQtQtQtQt#J.B.dQt.e.e#K.Q.Q#x#x#L#M.8#B#N#O#P#Q#R#S#T#U#V#W#X#YQtQtQtQtQtQtQtQtQtQtQtQtQtQtQtQtQtQtQt",
"QtQtQtQtQtQtQtQtQtQtQtQtQtQtQtQtQtQt#Z.e.d#0.e.e.c.c#x.Q#1#2#3#4#B#5#2#6.Q#7#O#8#9a.a#aaQtQtQtQtQtQtQtQtQtQtQtQtQtQtQtQtQtQtQtQt",
"QtQtQtQtQtQtQtQtQtQtQtQtQtQtQtQtQtQtab.nacad.Q.e.caeaf#xag#kahaiajakalam#EanaoapaqarasatauavQtQtQtQtQtQtQtQtQtQtQtQtQtQtQtQtQtQt",
"QtQtQtQtQtQtQtQtQtQtQtQtQtQtQtQtQt.Q.mawaxay.Q.Q.Qaz#2#vaAaBaCaDaDaEaFaGaHaIaJaKaL.QaMaNaOaPQtQtQtQtQtQtQtQtQtQtQtQtQtQtQtQtQtQt",
"QtQtQtQtQtQtQtQtQtQtQtQtQtQtQtQtQtQtaQ.QQtaR.QaS.QaT#2#2#3aUaVaWaDaXaYaZa0#2aT.ca1a2a3a4.ea5QtQtQtQtQtQtQtQtQtQtQtQtQtQtQtQtQtQt",
"QtQtQtQtQtQtQtQtQtQtQtQtQtQtQtQtQtQtQtQtQt.da6a7.Qa8aza9#3aVaVb.b#aVbabbbcbdbebfbgaL.n#lbh.aQtQtQtQtQtQtQtQtQtQtQtQtQtQtQtQtQtQt",
"QtQtQtQtQtQtQtQtQtQtQtQtQtQtQtQtQtQt.QQtQtbia6bjbk.Q#2blbmbnaVb.b.bobabpblbdaK#2bqbrbs.ebt.mQtQtQtQtQtQtQtQtQtQtQtQtQtQtQtQtQtQt",
"QtQtQtQtQtQtQtQtQtQtQtQtQtQtQtQtQtQtQt.QbuQta6.Q#2#2#2blaVbvbwb.b.bxbybzbAbBbCaJaKa6.n.c.cbDQtQtQtQtQtQtQtQtQtQtQtQtQtQtQtQtQtQt",
"QtQtQtQtQtQtQtQtQtQtQtQtQtQtQtQtQtQtQtbEbF#X.Q.Q#2bnaUaVbGbHbIb.b.bJbHbKbLbMbNbOaK.Q.cbPbQbRQtQtQtQtQtQtQtQtQtQtQtQtQtQtQtQtQtQt",
"QtQtQtQtQtQtQtQtQtQtQtQtQtQtQtQtQtQtQtbSbT#XbU.QbVbWaVbXbIbYbZb.b.b0b1b2b3b4b5b6aKb7b8b9c..kQtQtQtQtQtQtQtQtQtQtQtQtQtQtQtQtQtQt",
"QtQtQtQtQtQtQtQtQtQtQtQtQtQtQtQtQtQtQtQtc##XcabUcbcccdcdbZbYceb.cfcgchcicjckclcmcncacocpcqcrQtQtQtQtQtQtQtQtQtQtQtQtQtQtQtQtQtQt",
"QtQtQtQtQtQtQtQtQtQtQtQtQtQtQtQtQtQtcsctcucvca.QaS#2cwcxcyczcAb.cBcAcCcDcEcFcGcHcIcJcKcLcMcNQtQtQtQtQtQtQtQtQtQtQtQtQtQtQtQtQtQt",
"QtQtQtQtQtQtQtQtQtQtQtQtQtQtQtQtQtQtQtcOcP#XcQb5cRblcScwcycycTcUcVcTcycycWcXcYcZc0c1c2c3c4c5QtQtQtQtQtQtQtQtQtQtQtQtQtQtQtQtQtQt",
"QtQtQtQtQtQtQtQtQtQtQtQtQtQtQtQtQtQtQtQtc#c6#Mc7bWc8c9d.d#dadbdcdddbdadedfdgdhdidjdkdldmQtQtQtQtQtQtQtQtQtQtQtQtQtQtQtQtQtQtQtQt",
"QtQtQtQtQtQtQtQtQtQtQtQtQtQtQtQtQtQtQtQtdndo#xc7dpdqbwdrdqdsdbdcdtcTdsdudvbxdpdwdxdydzdAdBQtQtQtQtQtQtQtQtQtQtQtQtQtQtQtQtQtQtQt",
"QtQtQtQtQtQtQtQtQtQtQtQtQtQtQtQtQtQtQtQtQtdCdDbHdEdpdFdGbIbZdHcUdIdJdKdLdMdNdpdOdPdQdR#tQtQtQtQtQtQtQtQtQtQtQtQtQtQtQtQtQtQtQtQt",
"QtQtQtQtQtQtQtQtQtQtQtQtQtQtQtQtQtQtQtQtQtdS.QdTdUdpdpdVbZcececUdWcececgdVdXdpdYdZd0d1d2QtQtQtQtQtQtQtQtQtQtQtQtQtQtQtQtQtQtQtQt",
"QtQtQtQtQtQtQtQtQtQtQtQtQtQtQtQtQtQtQtQtQtQtd3.Qd4c7d5d6d7cidacUdtdacid7d8d9e.e#eaebecQtQtQtQtQtQtQtQtQtQtQtQtQtQtQtQtQtQtQtQtQt",
"QtQtQtQtQtQtQtQtQtQtQtQtQtQtQtQtQtQtQtQtQtQtawedeeefegeheid7dacUejdaekeielemeneoepeqauQtQtQtQtQtQtQtQtQtQtQtQtQtQtQtQtQtQtQtQtQt",
"QtQtQtQtQtQtQtQtQtQtQtQtQtQtQtQtQtQtQtQtQtQtQteres.Qeteuehd7bZcUevceewehciexeyezeAeBQtQtQtQtQtQtQtQtQtQtQtQtQtQtQtQtQtQtQtQtQtQt",
"QtQtQtQtQtQtQtQtQtQtQtQtQtQtQtQtQtQtQtQtQtQtQtQteC.Q.QeDeucibZcUeEeFeGeHeIeJeKeLQtQtQtQtQtQtQtQtQtQtQtQtQtQtQtQtQtQtQtQtQtQtQtQt",
"QtQtQtQtQtQtQtQtQtQtQtQtQtQtQtQtQtQtQtQtQtQtQtQtQtQteMeNeOePeQeReSeTeUeVeWeX.OeYQtQtQtQtQtQtQtQtQtQtQtQtQtQtQtQtQtQtQtQtQtQtQtQt",
"QtQtQtQtQtQtQtQtQtQtQtQtQtQtQtQtQtQtQtQtQtQtQtQtQtQtQtQtQtQtQtQtQtQtQtQtQtQtQtQtQtQtQtQtQtQtQtQtQtQtQtQtQtQtQtQtQtQtQtQtQtQtQtQt",
"QtQtQtQtQtQtQtQtQtQtQtQtQtQtQtQtQtQtQtQtQtQtQtQtQtQtQtQtQtQtQtQtQtQtQtQtQtQtQtQtQtQtQtQtQtQtQtQtQtQtQtQtQtQtQtQtQtQtQtQtQtQtQtQt",
"QtQtQtQtQtQtQtQtQtQtQtQtQtQtQtQtQtQtQtQtQtQtQtQtQtQtQtQtQtQtQtQtQtQtQtQtQtQtQtQtQtQtQtQtQtQtQtQtQtQtQtQtQtQtQtQtQtQtQtQtQtQtQtQt",
"QtQtQtQtQtQtQtQtQtQtQtQtQtQtQtQtQtQtQtQtQtQtQtQtQtQtQtQtQtQtQtQtQtQtQtQtQtQtQtQtQtQtQtQtQtQtQtQtQtQtQtQtQtQtQtQtQtQtQtQtQtQtQtQt",
"QtQtQtQtQtQtQtQtQtQtQtQtQtQtQtQtQtQtQtQtQtQtQtQtQtQtQtQtQtQtQtQtQtQtQtQtQtQtQtQtQtQtQtQtQtQtQtQtQtQtQtQtQtQtQtQtQtQtQtQtQtQtQtQt",
"QtQtQtQtQtQtQtQtQtQtQtQtQtQtQtQtQtQtQtQtQtQtQtQtQtQtQtQtQtQtQtQtQtQtQtQtQtQtQtQtQtQtQtQtQtQtQtQtQtQtQtQtQtQtQtQtQtQtQtQtQtQtQtQt",
"QtQtQtQtQtQtQtQtQtQtQtQtQtQtQtQtQtQtQtQtQtQtQtQtQtQtQtQtQtQtQtQtQtQtQtQtQtQtQtQtQtQtQtQtQtQtQtQtQtQtQtQtQtQtQtQtQtQtQtQtQtQtQtQt",
"QtQtQtQtQtQtQtQtQtQtQtQtQtQtQtQtQtQtQtQtQtQtQtQtQtQtQtQtQtQtQtQtQtQtQtQtQtQtQtQtQtQtQtQtQtQtQtQtQtQtQtQtQtQtQtQtQtQtQtQtQtQtQtQt",
"QtQtQtQtQtQtQtQtQtQtQtQtQtQtQtQtQtQtQtQtQtQtQtQtQtQtQtQtQtQtQtQtQtQtQtQtQtQtQtQtQtQtQtQtQtQtQtQtQtQtQtQtQtQtQtQtQtQtQtQtQtQtQtQt",
"QtQtQtQtQtQtQtQtQtQtQtQtQtQtQtQtQtQtQtQtQtQtQtQtQtQtQtQtQtQtQtQtQtQtQtQtQtQtQtQtQtQtQtQtQtQtQtQtQtQtQtQtQtQtQtQtQtQtQtQtQtQtQtQt",
"QtQtQtQtQtQtQtQtQtQtQtQtQtQtQtQtQtQtQtQtQtQtQtQtQtQtQtQtQtQtQtQtQtQtQtQtQtQtQtQtQtQtQtQtQtQtQtQtQtQtQtQtQtQtQtQtQtQtQtQtQtQtQtQt",
"QtQtQtQtQtQtQtQtQtQtQtQtQtQtQtQtQtQtQtQtQtQtQtQtQtQtQtQtQtQtQtQtQtQtQtQtQtQtQtQtQtQtQtQtQtQtQtQtQtQtQtQtQtQtQtQtQtQtQtQtQtQtQtQt"};
