/* XPM */
static char *dummy[]={
"64 64 424 2",
"Qt c None",
".6 c None",
"cX c None",
"cF c None",
".r c None",
".B c None",
".# c None",
".l c None",
"eL c None",
"#d c None",
"aH c None",
".D c None",
"#H c None",
"ap c None",
"eo c #000000",
"#s c #743013",
"aW c #8e2a13",
".O c #99460b",
"cj c #b02700",
"#f c #d03f18",
"#r c #d34118",
"#8 c #d43316",
"aq c #d43416",
".u c #df2d16",
".W c #e02909",
"#c c #e02912",
".q c #e32512",
".J c #e32815",
".t c #e32816",
".z c #e32915",
".A c #e32916",
".I c #e32d1d",
"aU c #e33317",
".U c #e33417",
"aG c #eb2a11",
".L c #fbffff",
".C c #fe002c",
".i c #ffffff",
"#T c #fcffff",
".f c #fdffff",
"dq c #ffffff",
"#p c #da1606",
"d1 c #2f2c18",
"bv c #e32315",
".M c #e42b1b",
"## c #f00a12",
"dQ c #644215",
"#G c #a84420",
".X c #e33516",
".Q c #e52d13",
"bJ c #e62b1d",
"#t c #000000",
"#4 c #c80018",
"#5 c #e31e0e",
"ci c #3f1e03",
"bm c #e32915",
"#U c #e33217",
"#V c #e33416",
"cW c #822710",
"al c #e12415",
"ao c #e13d22",
".a c #e32916",
"cl c #fafdfd",
"ck c #b42e14",
".H c #ffffff",
"ey c #faf5f5",
".b c #fafcfc",
".N c #fafdfd",
"cE c #d5c8c5",
"ep c #fafdfd",
"ed c #f7f5f4",
"bb c #fafcfc",
".1 c #fafdfd",
".R c #fbf9fa",
"aV c #df2816",
"aI c #fafcfd",
".h c #f4cbc7",
"eK c #6a3212",
"bK c #fafdfd",
"b2 c #f3f4f4",
"#I c #f9fefd",
".o c #fafbfc",
"ar c #fafcfc",
"dp c #fef6f5",
"#S c #faf6f5",
"#q c #e43417",
".v c #e32916",
"eJ c #821711",
"#7 c #e33417",
"ez c #732f13",
".k c #e32816",
"eA c #832813",
"eI c #ea721f",
".P c #e32916",
"cG c #782d12",
".0 c #e32d1c",
"dG c #7a3815",
"dP c #833415",
"#u c #b03115",
"#9 c #e03717",
".j c #e32816",
"aX c #e33417",
"bw c #e52716",
"eB c #e86e1e",
"#F c #b33720",
"bI c #e52e1f",
"en c #782d12",
".w c #e22916",
"eH c #fbdb16",
"#a c #e33417",
"ba c #e32916",
".Y c #e33417",
"aJ c #8b2913",
".T c #e32816",
"eC c #fbd914",
"bC c #e79921",
"by c #e79921",
"#j c #e32816",
".5 c #5e3913",
".V c #b42f15",
"#0 c #ee2f17",
"dI c #f09820",
"dM c #f09920",
"bp c #f09e22",
"bo c #f19f22",
"ds c #f1d612",
"dC c #f2d611",
"cr c #f2d612",
"dt c #f2d712",
"cS c #e99b21",
"dB c #f3d913",
"b6 c #ed9b21",
"da c #f09b21",
"dm c #f09e21",
"cd c #f09f21",
"cx c #f2da13",
"cu c #f3d813",
"cc c #f3da13",
".x c #e32916",
"bO c #e79722",
"bQ c #e79821",
"bz c #e79822",
"bA c #e79921",
"d# c #e79a21",
"bX c #e89822",
"dD c #e89a21",
"c# c #e89c20",
"dg c #e99921",
"dk c #e99e21",
"d5 c #f09820",
"dX c #f09920",
"c1 c #f0d410",
"cY c #f19820",
"cJ c #f19920",
"cR c #f19a21",
"de c #f2d612",
"dj c #f2d613",
"df c #f2d713",
"dl c #f2d913",
"b7 c #f3d713",
"co c #f3d813",
"cZ c #e59622",
"d. c #e69a21",
"bU c #e89b21",
"dz c #e99c21",
"bT c #e99d21",
"cp c #efd410",
"c8 c #f0d410",
"e# c #f19e21",
"dL c #f2d612",
"cO c #f4d813",
"cb c #f4d913",
"bV c #e3c906",
"bB c #e9a122",
"#L c #ee2f17",
"cw c #f0d410",
"bP c #e3c806",
"cK c #e3c906",
"cP c #e4ca07",
"dS c #e7cb08",
"dW c #e8cb09",
"eD c #fbd914",
"eG c #fbd914",
"bl c #e32916",
".d c #e32916",
".y c #de2d16",
".8 c #e32916",
"eF c #f4d814",
"er c #fade18",
"ex c #e32311",
"b# c #e32916",
"ei c #fbe219",
"d0 c #783118",
"em c #db331c",
"dd c #803d1f",
"#1 c #f76b1c",
"ct c #fbe319",
"ee c #732f13",
".p c #e32f20",
"du c #fbe219",
"am c #e32816",
".e c #e32916",
"af c #fa9b21",
"dA c #fbe119",
"ew c #e23416",
".g c #e33215",
"#6 c #e33317",
"dw c #f1d613",
"bq c #f29f20",
"cN c #f3d914",
"di c #f4d914",
"d8 c #f6db15",
"c6 c #f8de18",
"dK c #fae119",
"#k c #e22a15",
".F c #e32916",
".S c #e32d1c",
"#b c #e33517",
"ev c #fad813",
"dF c #7e3515",
"#o c #e22a15",
"a3 c #e32816",
".m c #e32916",
"an c #e72f17",
"bn c #f29f20",
"bD c #f2a120",
"eu c #fade18",
"et c #fae119",
"c5 c #fae219",
"ce c #a75016",
"cT c #dd5f1a",
"ae c #df2b16",
"ad c #e22916",
"ax c #e32816",
".n c #e32916",
"cA c #e52f16",
"dn c #ec2a16",
"dN c #ed2616",
"dE c #ed2a16",
"bY c #ed661a",
".7 c #ee2f17",
"#z c #ef2f17",
"db c #ef3718",
"eE c #f0d612",
"b9 c #f19e21",
"br c #f1a021",
"bF c #f1a120",
"a2 c #f29f20",
"bh c #f29f21",
"bW c #f3a51e",
"cv c #f4da14",
"cz c #f5681c",
"cQ c #f9a41d",
"aN c #f9a51d",
"c7 c #f9dc17",
"es c #fae119",
"cM c #fae219",
"c9 c #fcb70c",
"#e c #732f13",
".E c #752e12",
"b3 c #7a3815",
"dr c #7b3815",
"ch c #813515",
"#h c #873714",
"cn c #8b3916",
"cm c #8f3c16",
"cC c #8f3d17",
"aa c #8f3e15",
"ai c #924115",
"cD c #943b14",
"ec c #a1300f",
"d2 c #a13514",
"#x c #a43814",
"b5 c #a44c15",
"b1 c #a74011",
"#A c #a83d15",
"bL c #a84317",
"b4 c #c65618",
"cB c #c95417",
"ef c #d93516",
"#m c #db2a16",
"cI c #dc5b19",
"#W c #dd2f17",
"#3 c #de3117",
"aL c #df9224",
"bE c #df9424",
"aP c #df9524",
".4 c #e02b16",
"bH c #e03817",
"#X c #e12a16",
"bx c #e13617",
"#R c #e2240f",
"bk c #e22612",
"dO c #e22816",
"aY c #e22916",
"#2 c #e22d16",
"cg c #e23717",
"ab c #e23d17",
".Z c #e32612",
"dZ c #e32716",
".s c #e32816",
".G c #e32916",
"aF c #e32a16",
"#Q c #e32b16",
".c c #e33417",
"ah c #e33e17",
"#E c #e42715",
"#P c #e42716",
".K c #e42816",
"a9 c #e42916",
"aE c #e42a16",
"aT c #e42b16",
"do c #e42e11",
"el c #e43216",
"#l c #e52616",
"ak c #e52a15",
"bc c #e52a16",
"aB c #e52b16",
"b0 c #e53217",
"cU c #e53317",
"#v c #e62715",
"bj c #e62b15",
"a. c #e73017",
"#B c #e92115",
"d3 c #e92615",
"#n c #ea2115",
"eb c #ea2616",
"cH c #ea3018",
".9 c #eb2115",
".3 c #eb2215",
"cV c #eb3118",
"#. c #eb4618",
"#O c #ec2015",
"#g c #ec2215",
"#N c #ec2716",
"cf c #ec2a16",
"bZ c #ec2d16",
"as c #ec3218",
"dH c #ed2416",
"dR c #ed2c16",
"dY c #ed2e16",
"#D c #ee2416",
"bM c #ee2d17",
"a0 c #ee3217",
"a8 c #ee3317",
"#K c #ef2f17",
"#i c #ef3017",
"#y c #ef3117",
"dc c #ef3318",
"ag c #ef3c19",
"bN c #ef621a",
"#w c #f05119",
"ea c #f15318",
"d4 c #f15319",
"b. c #f15419",
"aZ c #f15519",
"av c #f1641a",
"az c #f16d1d",
"aM c #f29f21",
"#C c #f34f19",
"#J c #f3631a",
"aS c #f3631b",
".2 c #f3641b",
"bg c #f39f21",
"aO c #f3a021",
"a4 c #f3a121",
"c4 c #f3d914",
"#M c #f4651b",
"bf c #f4711d",
"bi c #f4741e",
"cL c #f4d914",
"cq c #f5da14",
"au c #f6641b",
"aA c #f6661c",
"aj c #f6681c",
"aQ c #f66a1d",
"#Z c #f7671c",
"a5 c #f7691d",
"a# c #f8681c",
"eg c #f8b909",
"dh c #f8df19",
"dx c #f8e019",
"dv c #f8e01a",
"bd c #f9681b",
"aK c #f9681c",
"bt c #f96d1c",
"ac c #f99a21",
"ay c #f9a51d",
"aw c #f9a61d",
"ek c #f9bb08",
"c2 c #f9dc16",
"cs c #f9e01a",
"#Y c #fa681b",
"bu c #fa6b1b",
"bG c #fa6c1b",
"be c #faa11e",
"bs c #faa21d",
"dU c #fadd18",
"d9 c #fade18",
"ej c #fade19",
"dJ c #fadf19",
"eh c #fae019",
"ca c #fae119",
"c3 c #fae219",
"aC c #fb671b",
"at c #fb681b",
"aD c #fb691b",
"aR c #fb6b1b",
"a7 c #fb6c1b",
"cy c #fb701a",
"a6 c #fb9c1f",
"a1 c #fb9c20",
"eq c #fbd813",
"d6 c #fbd914",
"e. c #fbdb16",
"d7 c #fbdb17",
"dT c #fbdc17",
"dV c #fbdd18",
"bR c #fbe219",
"b8 c #fbe319",
"c. c #fbe419",
"c0 c #fcb70d",
"dy c #fce419",
"bS c #fce51a",
"QtQtQtQtQtQtQtQtQtQtQtQtQtQtQtQtQtQtQtQtQtQtQtQtQtQtQtQtQtQtQtQtQtQtQtQtQtQtQtQtQtQtQtQtQtQtQtQtQtQtQtQtQtQtQtQtQtQtQtQtQtQtQtQt",
"QtQtQtQtQtQtQtQtQtQtQtQtQtQtQtQtQtQtQtQtQtQtQtQtQtQtQtQtQtQtQtQtQtQtQtQtQtQtQtQtQtQtQtQtQtQtQtQtQtQtQtQtQtQtQtQtQtQtQtQtQtQtQtQt",
"QtQtQtQtQtQtQtQtQtQtQtQtQtQtQtQtQtQtQtQtQtQtQtQtQtQtQtQtQtQtQtQtQtQtQtQtQtQtQtQtQtQtQtQtQtQtQtQtQtQtQtQtQtQtQtQtQtQtQtQtQtQtQtQt",
"QtQtQtQtQtQtQtQtQtQtQtQtQtQtQtQtQtQtQtQtQtQtQtQtQtQtQtQtQtQtQtQtQtQtQtQtQtQtQtQtQtQtQtQtQtQtQtQtQtQtQtQtQtQtQtQtQtQtQtQtQtQtQtQt",
"QtQtQtQtQtQtQtQtQtQtQtQtQtQtQtQtQtQtQtQtQtQtQtQtQtQtQtQtQtQtQtQtQtQtQtQtQtQtQtQtQtQtQtQtQtQtQtQtQtQtQtQtQtQtQtQtQtQtQtQtQtQtQtQt",
"QtQtQtQtQtQtQtQtQtQtQtQtQtQtQtQtQtQtQtQtQtQtQtQtQtQtQtQtQtQtQtQtQtQtQtQtQtQtQtQtQtQtQtQtQtQtQtQtQtQtQtQtQtQtQtQtQtQtQtQtQtQtQtQt",
"QtQtQtQtQtQtQtQtQtQtQtQtQtQtQtQtQtQtQtQtQtQtQtQtQtQtQtQtQtQtQtQtQtQtQtQtQtQtQtQtQtQtQtQtQtQtQtQtQtQtQtQtQtQtQtQtQtQtQtQtQtQtQtQt",
"QtQtQtQtQtQtQtQtQtQtQtQtQtQtQtQtQtQtQtQtQtQtQtQtQtQtQtQtQtQtQtQtQtQtQtQtQtQtQtQtQtQtQtQtQtQtQtQtQtQtQtQtQtQtQtQtQtQtQtQtQtQtQtQt",
"QtQtQtQtQtQtQtQtQtQtQtQtQtQtQtQtQtQtQtQtQtQtQtQtQtQtQtQtQtQtQtQtQtQtQtQtQtQtQtQtQtQtQtQtQtQtQtQtQtQtQtQtQtQtQtQtQtQtQtQtQtQtQtQt",
"QtQtQtQtQtQtQtQtQtQtQtQtQtQtQtQtQtQtQtQtQtQtQtQtQtQtQtQtQtQtQtQtQtQtQtQtQtQtQtQtQtQtQtQtQtQtQtQtQtQtQtQtQtQtQtQtQtQtQtQtQtQtQtQt",
"QtQtQtQtQtQtQtQtQtQtQtQtQtQtQtQtQtQtQtQtQtQtQtQtQtQtQtQtQtQtQtQtQtQtQtQtQtQtQtQtQtQtQtQtQtQtQtQtQtQtQtQtQtQtQtQtQtQtQtQtQtQtQtQt",
"QtQtQtQtQtQtQtQtQtQtQtQtQtQtQtQtQtQtQtQtQtQtQtQtQtQtQtQtQtQtQtQtQtQtQtQtQtQtQtQtQtQtQtQtQtQtQtQtQtQtQtQtQtQtQtQtQtQtQtQtQtQtQtQt",
"QtQtQtQtQtQtQtQtQtQtQtQtQtQtQtQtQtQtQtQtQtQtQtQtQtQtQtQtQtQtQtQtQtQtQtQtQtQtQtQtQtQtQtQtQtQtQtQtQtQtQtQtQtQtQtQtQtQtQtQtQtQtQtQt",
"QtQtQtQtQtQtQtQtQtQtQtQtQtQtQtQtQtQtQtQtQtQtQtQtQtQtQtQtQtQtQtQtQtQtQtQtQtQtQtQtQtQtQtQtQtQtQtQtQtQtQtQtQtQtQtQtQtQtQtQtQtQtQtQt",
"QtQtQtQtQtQtQtQtQtQtQtQtQtQtQtQtQtQtQtQtQtQtQtQtQtQtQtQtQtQtQtQtQtQtQtQtQtQtQtQtQtQtQtQtQtQtQtQtQtQtQtQtQtQtQtQtQtQtQtQtQtQtQtQt",
"QtQtQtQtQtQtQtQtQtQtQtQtQtQtQtQtQtQtQtQtQtQtQtQtQtQtQtQtQtQtQtQtQtQtQtQtQtQtQtQtQtQtQtQtQtQtQtQtQtQtQtQtQtQtQtQtQtQtQtQtQtQtQtQt",
"QtQtQtQtQtQtQtQtQtQtQtQtQtQtQtQtQtQtQtQtQtQtQtQtQtQtQtQtQtQtQtQtQtQtQtQtQtQtQtQtQtQtQtQtQtQtQtQtQtQtQtQtQtQtQtQtQtQtQtQtQtQtQtQt",
"QtQtQtQtQtQtQtQtQtQtQtQtQtQtQtQtQtQtQtQtQtQtQtQtQtQtQtQtQtQtQtQtQtQtQtQtQtQtQtQtQtQtQtQtQtQtQtQtQtQtQtQtQtQtQtQtQtQtQtQtQtQtQtQt",
"QtQtQtQtQtQtQtQtQtQtQtQtQtQtQtQtQtQtQtQtQtQtQtQtQtQtQtQtQtQt.#.aQtQtQtQtQtQtQtQtQtQtQtQtQtQtQtQtQtQtQtQtQtQtQtQtQtQtQtQtQtQtQtQt",
"QtQtQtQtQtQtQtQtQtQtQtQtQtQtQtQtQtQtQtQtQtQtQt.b.cQtQtQtQtQtQtQtQtQtQtQt.d.e.f.g.h.iQtQtQtQtQtQtQtQtQtQtQtQtQtQtQtQtQtQtQtQtQtQt",
"QtQtQtQtQtQtQtQtQtQtQtQtQtQtQtQtQtQtQtQtQtQtQt.j.k.lQtQtQt.#.m.nQtQt.#.n.nQt.o.p.q.rQtQtQtQtQtQtQtQtQtQtQtQtQtQtQtQtQtQtQtQtQtQt",
"QtQtQtQtQtQtQtQtQtQtQtQtQtQtQtQtQtQtQtQtQtQtQt.s.t.uQtQtQt.v.m.#QtQtQt.w.xQt.y.z.A.BQt.CQtQtQtQtQtQtQtQtQtQtQtQtQtQtQtQtQtQtQtQt",
"QtQtQtQtQtQtQtQtQtQtQtQtQtQtQtQtQtQtQtQtQtQtQt.j.t.DQtQt.E.n.nQtQtQt.F.G.nQt.H.I.J.nQtQtQtQtQtQtQtQtQtQtQtQtQtQtQtQtQtQtQtQtQtQt",
"QtQtQtQtQtQtQtQtQtQtQtQtQtQtQtQtQtQtQtQtQtQtQtQt.sQtQtQt.K.m.nQtQtQt.n.G.nQtQt.t.#.nQtQt.L.MQtQtQtQtQtQtQtQtQtQtQtQtQtQtQtQtQtQt",
"QtQtQtQtQtQtQtQtQtQtQtQtQtQtQtQtQtQt.s.DQtQt.#.nQtQtQtQt.s.s.n.N.OQt.G.G.n.mQtQt.n.PQt.Q.R.SQtQtQtQtQtQtQtQtQtQtQtQtQtQtQtQtQtQt",
"QtQtQtQtQtQtQtQtQtQtQtQtQtQtQtQtQtQt.T.t.UQtQt.nQtQtQtQt.s.s.s.VQt.W.G.s.n.G.n.n.GQt.X.Y.Z.0QtQtQtQtQtQtQtQtQtQtQtQtQtQtQtQtQtQt",
"QtQtQtQtQtQtQtQtQtQtQtQtQtQtQtQtQtQt.1.s.U.UQt.G.GQt.2Qt.3.s.4.5.6.7.8.9.m#..n.G.4###a#b#c#dQtQtQtQtQtQtQtQtQtQtQtQtQtQtQtQtQtQt",
"QtQtQtQtQtQtQtQtQtQtQtQtQtQtQtQtQtQtQt#e#f.UQt.G#g.G.2#h.s.s#i#j.7.7#k#l#m.G.G#n#o#p#q#r#s#tQtQtQtQtQtQtQtQtQtQtQtQtQtQtQtQtQtQt",
"QtQtQtQtQtQtQtQtQtQtQtQtQtQtQtQtQtQtQtQtQtQtQt#u.s#g#v#w#g#x#y.T#z.7#A#B#C.G#D#E#F#GQt#HQtQtQtQtQtQtQtQtQtQtQtQtQtQtQtQtQtQtQtQt",
"QtQtQtQtQtQtQtQtQtQtQtQtQtQtQtQtQtQtQtQt.cQtQt#I.s.s.s#g#g#J#K.7#z#L#M#N#O#P#Q#R#S#T#U.c#VQtQtQtQtQtQtQtQtQtQtQtQtQtQtQtQtQtQtQt",
"QtQtQtQtQtQtQtQtQtQtQtQtQtQtQtQtQtQtQtQt.c.cQtQt#W.2#g.s#X#Y#Z#0#z#1#Y#2.s#B#M#3#4#5#6#7QtQtQtQtQtQtQtQtQtQtQtQtQtQtQtQtQtQtQtQt",
"QtQtQtQtQtQtQtQtQtQtQtQtQtQtQtQtQtQt#8Qt#9a..sQt.Ka#aa#gab#iacadaeafagah#DaiajakalamanaoapaqQtQtQtQtQtQtQtQtQtQtQtQtQtQtQtQtQtQt",
"QtQtQtQtQtQtQtQtQtQtQtQtQtQtQtQtQt.s.t.1aras.s.s.sat#Y.KauavawaxaxayazaAaBaCaDaEaF.saGaHaI.dQtQtQtQtQtQtQtQtQtQtQtQtQtQtQtQtQtQt",
"QtQtQtQtQtQtQtQtQtQtQtQtQtQtQtQtQtQtaJ.sQt.c.s.2.saK#Y#Y#ZaLaMaNaxaOaPaQaR#YaK.GaSaTaUaV.naWQtQtQtQtQtQtQtQtQtQtQtQtQtQtQtQtQtQt",
"QtQtQtQtQtQtQtQtQtQtQtQtQtQtQtQtQtQtQtQtQtaXaYaZ.sa0ata1#ZaMaMa2a3aMa4a5a6a7a8a9b.aF.mb#ba.#QtQtQtQtQtQtQtQtQtQtQtQtQtQtQtQtQtQt",
"QtQtQtQtQtQtQtQtQtQtQtQtQtQtQtQtQtQt.sQtQtbbaYbcbd.s#YbebfbgaMa2a2bha4bibea7aE#Ybjbkbl.nbm.tQtQtQtQtQtQtQtQtQtQtQtQtQtQtQtQtQtQt",
"QtQtQtQtQtQtQtQtQtQtQtQtQtQtQtQtQtQtQt.saXQtaY.s#Y#Y#YbeaMbnboa2a2bpbqbrbsbtbuaDaEaY.m.G.GbvQtQtQtQtQtQtQtQtQtQtQtQtQtQtQtQtQtQt",
"QtQtQtQtQtQtQtQtQtQtQtQtQtQtQtQtQtQtQtbwbx.c.s.s#YbgaLaMbybzbAa2a2bBbzbCbDbEbFbGaE.s.GbHbIbJQtQtQtQtQtQtQtQtQtQtQtQtQtQtQtQtQtQt",
"QtQtQtQtQtQtQtQtQtQtQtQtQtQtQtQtQtQtQtbKbL.cbM.sbNbOaMbPbAbQbRa2a2bSbTbUbVbWbXbYaEbZb0b1b2.iQtQtQtQtQtQtQtQtQtQtQtQtQtQtQtQtQtQt",
"QtQtQtQtQtQtQtQtQtQtQtQtQtQtQtQtQtQtQtQtb3.cb4bMb5b6b7b7bRbQb8a2b9c.c#cacbcccdcecfb4cgchcicjQtQtQtQtQtQtQtQtQtQtQtQtQtQtQtQtQtQt",
"QtQtQtQtQtQtQtQtQtQtQtQtQtQtQtQtQtQtckclcmcnb4.s.2#Ycocpcqcrcsa2ctcscucvcwcxcyczcAcBcCcDcEcFQtQtQtQtQtQtQtQtQtQtQtQtQtQtQtQtQtQt",
"QtQtQtQtQtQtQtQtQtQtQtQtQtQtQtQtQtQtQtcGcH.ccIbXcJbecKcocqcqcLcMcNcLcqcqcOcPcQcRcScTcUcVcWcXQtQtQtQtQtQtQtQtQtQtQtQtQtQtQtQtQtQt",
"QtQtQtQtQtQtQtQtQtQtQtQtQtQtQtQtQtQtQtQtb3as#KcYbOcZc0c1c2c3c4c5c6c4c3c7c8c9d.d#dadbdcddQtQtQtQtQtQtQtQtQtQtQtQtQtQtQtQtQtQtQtQt",
"QtQtQtQtQtQtQtQtQtQtQtQtQtQtQtQtQtQtQtQtara.#gcYdedfbodgdfdhc4c5dicLdhdjdkbpdedldmdndodpdqQtQtQtQtQtQtQtQtQtQtQtQtQtQtQtQtQtQtQt",
"QtQtQtQtQtQtQtQtQtQtQtQtQtQtQtQtQtQtQtQtQtdr.9bzdsdedtdubAbRdvcMdwdxdydzdAdBdedCdDdEdF#tQtQtQtQtQtQtQtQtQtQtQtQtQtQtQtQtQtQtQtQt",
"QtQtQtQtQtQtQtQtQtQtQtQtQtQtQtQtQtQtQtQtQtdG.sdHdIdededJbRb8b8cMdKb8b8c.dJdLdedMdNdOdPdQQtQtQtQtQtQtQtQtQtQtQtQtQtQtQtQtQtQtQtQt",
"QtQtQtQtQtQtQtQtQtQtQtQtQtQtQtQtQtQtQtQtQtQt#e.sdRcYdSdTdUcac3cMdic3cadUdVdWdXdYdZd0d1QtQtQtQtQtQtQtQtQtQtQtQtQtQtQtQtQtQtQtQtQt",
"QtQtQtQtQtQtQtQtQtQtQtQtQtQtQtQtQtQtQtQtQtQt.1d2d3d4d5d6d7dUc3cMd8c3d9d7e.e#eaebecedapQtQtQtQtQtQtQtQtQtQtQtQtQtQtQtQtQtQtQtQtQt",
"QtQtQtQtQtQtQtQtQtQtQtQtQtQtQtQtQtQtQtQtQtQtQteeef.segehd6dUbRcMeib8ejd6caekelemeneoQtQtQtQtQtQtQtQtQtQtQtQtQtQtQtQtQtQtQtQtQtQt",
"QtQtQtQtQtQtQtQtQtQtQtQtQtQtQtQtQtQtQtQtQtQtQtQtep.s.seqehcabRcMereseteuevewexeyQtQtQtQtQtQtQtQtQtQtQtQtQtQtQtQtQtQtQtQtQtQtQtQt",
"QtQtQtQtQtQtQtQtQtQtQtQtQtQtQtQtQtQtQtQtQtQtQtQtQtQtezeAeBeCeDeEeFeGeHeIeJeK.DeLQtQtQtQtQtQtQtQtQtQtQtQtQtQtQtQtQtQtQtQtQtQtQtQt",
"QtQtQtQtQtQtQtQtQtQtQtQtQtQtQtQtQtQtQtQtQtQtQtQtQtQtQtQtQtQtQtQtQtQtQtQtQtQtQtQtQtQtQtQtQtQtQtQtQtQtQtQtQtQtQtQtQtQtQtQtQtQtQtQt",
"QtQtQtQtQtQtQtQtQtQtQtQtQtQtQtQtQtQtQtQtQtQtQtQtQtQtQtQtQtQtQtQtQtQtQtQtQtQtQtQtQtQtQtQtQtQtQtQtQtQtQtQtQtQtQtQtQtQtQtQtQtQtQtQt",
"QtQtQtQtQtQtQtQtQtQtQtQtQtQtQtQtQtQtQtQtQtQtQtQtQtQtQtQtQtQtQtQtQtQtQtQtQtQtQtQtQtQtQtQtQtQtQtQtQtQtQtQtQtQtQtQtQtQtQtQtQtQtQtQt",
"QtQtQtQtQtQtQtQtQtQtQtQtQtQtQtQtQtQtQtQtQtQtQtQtQtQtQtQtQtQtQtQtQtQtQtQtQtQtQtQtQtQtQtQtQtQtQtQtQtQtQtQtQtQtQtQtQtQtQtQtQtQtQtQt",
"QtQtQtQtQtQtQtQtQtQtQtQtQtQtQtQtQtQtQtQtQtQtQtQtQtQtQtQtQtQtQtQtQtQtQtQtQtQtQtQtQtQtQtQtQtQtQtQtQtQtQtQtQtQtQtQtQtQtQtQtQtQtQtQt",
"QtQtQtQtQtQtQtQtQtQtQtQtQtQtQtQtQtQtQtQtQtQtQtQtQtQtQtQtQtQtQtQtQtQtQtQtQtQtQtQtQtQtQtQtQtQtQtQtQtQtQtQtQtQtQtQtQtQtQtQtQtQtQtQt",
"QtQtQtQtQtQtQtQtQtQtQtQtQtQtQtQtQtQtQtQtQtQtQtQtQtQtQtQtQtQtQtQtQtQtQtQtQtQtQtQtQtQtQtQtQtQtQtQtQtQtQtQtQtQtQtQtQtQtQtQtQtQtQtQt",
"QtQtQtQtQtQtQtQtQtQtQtQtQtQtQtQtQtQtQtQtQtQtQtQtQtQtQtQtQtQtQtQtQtQtQtQtQtQtQtQtQtQtQtQtQtQtQtQtQtQtQtQtQtQtQtQtQtQtQtQtQtQtQtQt",
"QtQtQtQtQtQtQtQtQtQtQtQtQtQtQtQtQtQtQtQtQtQtQtQtQtQtQtQtQtQtQtQtQtQtQtQtQtQtQtQtQtQtQtQtQtQtQtQtQtQtQtQtQtQtQtQtQtQtQtQtQtQtQtQt",
"QtQtQtQtQtQtQtQtQtQtQtQtQtQtQtQtQtQtQtQtQtQtQtQtQtQtQtQtQtQtQtQtQtQtQtQtQtQtQtQtQtQtQtQtQtQtQtQtQtQtQtQtQtQtQtQtQtQtQtQtQtQtQtQt",
"QtQtQtQtQtQtQtQtQtQtQtQtQtQtQtQtQtQtQtQtQtQtQtQtQtQtQtQtQtQtQtQtQtQtQtQtQtQtQtQtQtQtQtQtQtQtQtQtQtQtQtQtQtQtQtQtQtQtQtQtQtQtQtQt",
"QtQtQtQtQtQtQtQtQtQtQtQtQtQtQtQtQtQtQtQtQtQtQtQtQtQtQtQtQtQtQtQtQtQtQtQtQtQtQtQtQtQtQtQtQtQtQtQtQtQtQtQtQtQtQtQtQtQtQtQtQtQtQtQt",
"QtQtQtQtQtQtQtQtQtQtQtQtQtQtQtQtQtQtQtQtQtQtQtQtQtQtQtQtQtQtQtQtQtQtQtQtQtQtQtQtQtQtQtQtQtQtQtQtQtQtQtQtQtQtQtQtQtQtQtQtQtQtQtQt"};
