/* XPM */
static char * calci4_xpm[] = {
"64 64 408 2",
"  	c None",
". 	c #AD707B",
"+ 	c #C39490",
"@ 	c #D1B1A5",
"# 	c #6E5967",
"$ 	c #B77F83",
"% 	c #DCCABE",
"& 	c #FAFCFC",
"* 	c #E33417",
"= 	c #FDFFFF",
"- 	c #E33215",
"; 	c #F4CBC7",
"> 	c #FFFFFF",
", 	c #E32816",
"' 	c #F9FEFD",
") 	c #FAFBFC",
"! 	c #E32F20",
"~ 	c #E32512",
"{ 	c #E22811",
"] 	c #DF2D16",
"^ 	c #752F12",
"/ 	c #DE2D16",
"( 	c #E32915",
"_ 	c #E32916",
": 	c #FE002C",
"< 	c #FAFDFD",
"[ 	c #752E12",
"} 	c #FBFFFF",
"| 	c #7D2B13",
"1 	c #7C2B12",
"2 	c #E32D1D",
"3 	c #E32815",
"4 	c #E22815",
"5 	c #E42816",
"6 	c #FBF9FB",
"7 	c #E62B1C",
"8 	c #E51D09",
"9 	c #E42B1B",
"0 	c #99460B",
"a 	c #E32A18",
"b 	c #E32714",
"c 	c #C39390",
"d 	c #E52D13",
"e 	c #FBF9FA",
"f 	c #E32D1C",
"g 	c #B32F15",
"h 	c #E02909",
"i 	c #E22614",
"j 	c #F3641A",
"k 	c #6A3013",
"l 	c #E02A16",
"m 	c #E33516",
"n 	c #E32612",
"o 	c #722F13",
"p 	c #F3641B",
"q 	c #EB2215",
"r 	c #E02B16",
"s 	c #5E3913",
"t 	c #EE2F17",
"u 	c #EB2115",
"v 	c #9B0C10",
"w 	c #DF601A",
"x 	c #742E12",
"y 	c #F00A12",
"z 	c #E33517",
"A 	c #E02912",
"B 	c #FAF2F1",
"C 	c #732F13",
"D 	c #D03F18",
"E 	c #EC2215",
"F 	c #6E3213",
"G 	c #873714",
"H 	c #EF3017",
"I 	c #E22A15",
"J 	c #E52616",
"K 	c #8E3915",
"L 	c #F2611A",
"M 	c #7A2F13",
"N 	c #EA2115",
"O 	c #DA1606",
"P 	c #E43417",
"Q 	c #D34118",
"R 	c #743013",
"S 	c #000000",
"T 	c #C1908E",
"U 	c #C2938F",
"V 	c #B03115",
"W 	c #E62715",
"X 	c #F05119",
"Y 	c #A43814",
"Z 	c #EF3117",
"` 	c #EF2F17",
" .	c #A83D15",
"..	c #E92115",
"+.	c #F34F19",
"@.	c #EE2416",
"#.	c #E42715",
"$.	c #B33720",
"%.	c #A84420",
"&.	c #FE3317",
"*.	c #F3631A",
"=.	c #F4651B",
"-.	c #EC2716",
";.	c #EC2015",
">.	c #E42716",
",.	c #E32B16",
"'.	c #E2240F",
").	c #FAF6F5",
"!.	c #FCFFFF",
"~.	c #E33217",
"{.	c #E33416",
"].	c #DD2F17",
"^.	c #E12A16",
"/.	c #FA681B",
"(.	c #F7671C",
"_.	c #F76B1C",
":.	c #E22D16",
"<.	c #DE3117",
"[.	c #C80018",
"}.	c #E31E0E",
"|.	c #E33317",
"1.	c #E43316",
"2.	c #D33115",
"3.	c #D43316",
"4.	c #E03717",
"5.	c #E73017",
"6.	c #F8681C",
"7.	c #8F3E15",
"8.	c #E23D17",
"9.	c #F99A21",
"0.	c #E22916",
"a.	c #DF2B16",
"b.	c #FA9B21",
"c.	c #EF3C19",
"d.	c #E33E17",
"e.	c #924115",
"f.	c #F6681C",
"g.	c #E52A15",
"h.	c #E12415",
"i.	c #E72F17",
"j.	c #E13D22",
"k.	c #D43416",
"l.	c #EC3218",
"m.	c #FB681B",
"n.	c #F6641B",
"o.	c #F1641A",
"p.	c #F9A61D",
"q.	c #F9A51D",
"r.	c #F16D1D",
"s.	c #F6661C",
"t.	c #E52B16",
"u.	c #FB671B",
"v.	c #FB691B",
"w.	c #E42A16",
"x.	c #E32A16",
"y.	c #EB2A11",
"z.	c #FAF5F3",
"A.	c #FAFCFD",
"B.	c #E12E1C",
"C.	c #8B2913",
"D.	c #F9681C",
"E.	c #DF9224",
"F.	c #F29F21",
"G.	c #F3A021",
"H.	c #DF9524",
"I.	c #F66A1D",
"J.	c #FB6B1B",
"K.	c #F3631B",
"L.	c #E42B16",
"M.	c #E52311",
"N.	c #8E2A13",
"O.	c #F15519",
"P.	c #EE3217",
"Q.	c #FB9C20",
"R.	c #F29F20",
"S.	c #F3A121",
"T.	c #F7691D",
"U.	c #FB9C1F",
"V.	c #FB6C1B",
"W.	c #EE3317",
"X.	c #E42916",
"Y.	c #F15419",
"Z.	c #E3381E",
"`.	c #E33B1E",
" +	c #FF1E12",
".+	c #E52A16",
"++	c #F9681B",
"@+	c #FAA11E",
"#+	c #F4711D",
"$+	c #F39F21",
"%+	c #F4741E",
"&+	c #E62B15",
"*+	c #E22612",
"=+	c #FBF0EF",
"-+	c #EB9389",
";+	c #F19F22",
">+	c #F09E22",
",+	c #F1A021",
"'+	c #FAA21D",
")+	c #F96D1C",
"!+	c #FA6B1B",
"~+	c #DD0300",
"{+	c #E32315",
"]+	c #765F6B",
"^+	c #E52716",
"/+	c #E13617",
"(+	c #E79921",
"_+	c #E79822",
":+	c #E9A122",
"<+	c #F2A120",
"[+	c #DF9424",
"}+	c #F1A120",
"|+	c #FA6C1B",
"1+	c #E03817",
"2+	c #E52E1F",
"3+	c #E62B1D",
"4+	c #A84317",
"5+	c #EE2D17",
"6+	c #EF621A",
"7+	c #E79722",
"8+	c #E3C806",
"9+	c #E79821",
"0+	c #FBE219",
"a+	c #FCE51A",
"b+	c #E99D21",
"c+	c #E89B21",
"d+	c #E3C906",
"e+	c #F3A51E",
"f+	c #E89822",
"g+	c #ED661A",
"h+	c #EC2D16",
"i+	c #E53217",
"j+	c #A74011",
"k+	c #F3F4F4",
"l+	c #7A3815",
"m+	c #C65618",
"n+	c #A44C15",
"o+	c #ED9B21",
"p+	c #F3D713",
"q+	c #FBE319",
"r+	c #F19E21",
"s+	c #FBE419",
"t+	c #E89C20",
"u+	c #FAE119",
"v+	c #F4D913",
"w+	c #F3DA13",
"x+	c #F09F21",
"y+	c #A75016",
"z+	c #EC2A16",
"A+	c #E23717",
"B+	c #813515",
"C+	c #3F1E03",
"D+	c #B02700",
"E+	c #B42E14",
"F+	c #8F3C16",
"G+	c #8B3916",
"H+	c #F3D813",
"I+	c #EFD410",
"J+	c #F5DA14",
"K+	c #F2D612",
"L+	c #F9E01A",
"M+	c #F4DA14",
"N+	c #F0D410",
"O+	c #F2DA13",
"P+	c #FB701A",
"Q+	c #F5681C",
"R+	c #E52F16",
"S+	c #C95417",
"T+	c #8F3D17",
"U+	c #943B14",
"V+	c #D5C8C5",
"W+	c #B84336",
"X+	c #782D12",
"Y+	c #EA3018",
"Z+	c #DC5B19",
"`+	c #F19920",
" @	c #F5DD35",
".@	c #F4D914",
"+@	c #FAE219",
"@@	c #F3D914",
"#@	c #F4D813",
"$@	c #E4CA07",
"%@	c #F9A41D",
"&@	c #F19A21",
"*@	c #E99B21",
"=@	c #DD5F1A",
"-@	c #E53317",
";@	c #EB3118",
">@	c #822710",
",@	c #4B300A",
"'@	c #F19820",
")@	c #E59622",
"!@	c #FFEA01",
"~@	c #FFEA04",
"{@	c #F8DE18",
"]@	c #F4DA15",
"^@	c #F4D915",
"/@	c #F09B21",
"(@	c #EF3718",
"_@	c #EF3318",
":@	c #803D1F",
"<@	c #4D472C",
"[@	c #F2D713",
"}@	c #FFFFFE",
"|@	c #FEFEFE",
"1@	c #F8DF19",
"2@	c #FFFFFD",
"3@	c #F3DB1B",
"4@	c #F09E21",
"5@	c #E42E11",
"6@	c #FEF6F5",
"7@	c #7B3815",
"8@	c #F1D612",
"9@	c #070707",
"0@	c #F8E01A",
"a@	c #F1D613",
"b@	c #F8E019",
"c@	c #FCE419",
"d@	c #FEFBE9",
"e@	c #151515",
"f@	c #F2D611",
"g@	c #E89A21",
"h@	c #ED2A16",
"i@	c #7E3515",
"j@	c #ED2416",
"k@	c #F09820",
"l@	c #FADF19",
"m@	c #F09920",
"n@	c #ED2616",
"o@	c #E22816",
"p@	c #833415",
"q@	c #644215",
"r@	c #ED2C16",
"s@	c #E7CB08",
"t@	c #FBDC17",
"u@	c #FADD18",
"v@	c #FBDD18",
"w@	c #E8CB09",
"x@	c #ED2E16",
"y@	c #E32716",
"z@	c #783118",
"A@	c #2F2C18",
"B@	c #A13514",
"C@	c #E92615",
"D@	c #F15319",
"E@	c #FBD914",
"F@	c #FBDB17",
"G@	c #DD3E17",
"H@	c #DE3E17",
"I@	c #FFE900",
"J@	c #FFEA00",
"K@	c #FBDB16",
"L@	c #F15318",
"M@	c #EA2616",
"N@	c #A1300F",
"O@	c #F7F5F4",
"P@	c #D93516",
"Q@	c #F8B909",
"R@	c #FAE019",
"S@	c #FBD714",
"T@	c #E03D18",
"U@	c #F9BB08",
"V@	c #E43216",
"W@	c #DB331C",
"X@	c #FBD813",
"Y@	c #DE3F17",
"Z@	c #FEE706",
"`@	c #FAD813",
" #	c #E23416",
".#	c #E32311",
"+#	c #FAF5F5",
"@#	c #832813",
"##	c #E86E1E",
"$#	c #F0D612",
"%#	c #F4D814",
"&#	c #EA721F",
"*#	c #821711",
"=#	c #6A3212",
"-#	c #FAEBEB",
";#	c #AC8485",
">#	c #B38988",
",#	c #B58A89",
"'#	c #C0928F",
")#	c #B98D8B",
"!#	c #B28888",
"~#	c #AA8284",
"{#	c #AB8384",
"]#	c #AD8485",
"^#	c #B18887",
"/#	c #B68B8A",
"(#	c #C1928F",
"_#	c #A66E79",
":#	c #B88D8B",
"<#	c #BB8E8C",
"[#	c #C1938F",
"}#	c #BC8F8D",
"|#	c #BB8F8C",
"1#	c #BC8F8C",
"2#	c #B48989",
"3#	c #BA8E8C",
"4#	c #B48A89",
"5#	c #715B69",
"6#	c #6F5967",
"7#	c #6F5A68",
"8#	c #6F5A67",
"9#	c #705B68",
"0#	c #765E6B",
"a#	c #725B69",
". + + + + @ @ @ @ @ + + @ + + + + + + + + + + + + + + + + + . # . + + + + @ @ @ @ @ + + @ + + + + + + + + + + + + + + + + + . # ",
"+ + + + + + + + + + + + + + + + + + + + + + + + + + + + + + + # + + + + + + + + + + + + + + + + + + + + + + + + + + + + + + + # ",
"+ + + + + + + + + + + + + + + + + + + + . + . . . . . + + # # # + + + + + + + + + + + + + + + + + + + + . + . . . . . + + # # # ",
"+ + + + + + + + + + + + + + + + + + + + + @ + @ @ @ + + + + $ # + + + + + + + + + + + + + + + + + + + + + @ + @ @ @ + + + + $ # ",
"+ + + + + + + + + + + + + + + + + + + + + + + + + + + + + + + # + + + + + + + + + + + + + + + + + + + + + + + + + + + + + + + # ",
"+ + + + + + + + + + + + + + + + + + + + + + + + + + + + + + + # + + + + + + + + + + + + + + + + + + + + + + + + + + + + + + + # ",
". + + + + + + + + + + + + + + + + + + + + + + + + + + + + + . # . + + + + + + + + + + + + + + + + + + + + + + + + + + + + + . # ",
"# # # # # # # # # # # # # # # # # # # # # # # # # # # # # # # # # # # # # # # # # # # # # # # # # # # # # # # # # # # # # # # # ",
"@ @ @ + + + + + + + + + + + . # . + + + @ + @ @ @ @ @ + + + + + @ @ @ + + + + + + + + + + + . # . + + + @ + @ @ @ @ @ + + + + + ",
"+ + + + + + + + + + + + + + + # + + + + + + + + + + + + + + + + + + + + + + + + + + + + + + + # + + + + + + + + + + + + + + + + ",
"+ + + + + + + . . + . + + # # # + + + + + + + + + + + + + + + + + + + + + + + . . + . + + # # # + + + + + + + + + + + + + + + + ",
"+ + + + + + @ + @ @ + + + + $ # + + + + + + + + + + + + + + + + + + + + + + @ + @ @ + + + + $ # + + + + + + + + + + + + + + + + ",
"+ + + + + + + + + + + + + + + # + + + + + + + + + + + + + + + + + + + + + + + + + + + + + + + # + + + + + + + + + + + + + + + + ",
"+ + + + + + + + + + + + + + + # + + + + + + + + + + + + + + + + + + + + + + + + + + + + + + + # + + + + + + + + + + + + + + + + ",
"+ + + + + + + + + + + + + + . # . + + + + + + + + + + + + + + + + + + + + + + + + + + + + + . # . + + + + + + + + + + + + + + + ",
"# # # # # # # # # # # # # # # # # # # # # # # # # # # # # # # # # # # # # # # # # # # # # # # # # # # # # # # # # # # # # # # # ",
". + + + @ + @ @ % % % @ + @ @ + + + + + + + + + + + + + + + . # . + + + @ + @ @ % % % @ + @ @ + + + + + + + + + + + + + + + . # ",
"+ + + + + + + + + + + + + + + + + + + + + + + + + + + + + + + # + + + + + + + + + + + + + + + + + + + + + + + + + + + + + + + # ",
"+ + + + + + + + + + + + + + + + + + + + + + + + + + + + + + + # + + + + + + + + + + + + + + + + + + + + + + + + + + + + + + + # ",
"+ + + + + + + + + + + + + + + + + + + + + + + + + + + + + + $ # + + + + + + + + + + + + + + + + + + + + + + + + + + + + + + $ # ",
"+ + + + + + + + + + + + + + + + + + + + + + . . + . + # # # # # + + + + + + + + + + + + + + + + + + + + + + . . + . + # # # # # ",
"+ + + + + + + + + + + + + + + + + + + + + + + + & * @ @ + + + # + + + + + + + = - ; > + + + + + + + + + + + + + @ + @ @ + + + # ",
". + + + + + + + + + + + + + + + + + + + + + + + , , ' + + + . # . + + + + + + ) ! ~ { + + + + + + + + + + + + + + + + + + + . # ",
"# # # # # # # # # # # # # # # # # # # # # # # # , , ] # # # # # # # # # ^ # # / ( _ ( # : # # # # # # # # # # # # # # # # # # # ",
"+ + + + + + + + + + + + + + . # . + + + @ + @ @ , , < % @ [ + + + + + } | 1 + > 2 3 4 + + + . # . + + + @ + @ @ @ % % % @ @ + + ",
"+ + + + + + + + + + + + + + + # + + + + + + + + + , + + + 5 < + + + + 6 7 8 + + , 3 + + + } 9 # + + + + + + + + + + + + + + + + ",
"+ + + + . . . + + . + + # # # # + + + , < + + + + + + + + , , < < 0 + a 3 b + + + c + + d e f # + + + + + + + + + + + + + + + + ",
"+ + + + + @ + + + @ @ + @ + $ # + + + , , * + + + + + + + , , , g + h , , i j + k l + m * n f # + + + + + + + + + + + + + + + + ",
"+ + + + + + + + + + + + + + + # + + + < , * * + , o + p + q , r s + t _ u v p w x r y * z A B # + + + + + + + + + + + + + + + + ",
"+ + + + + + + + + + + + + + + # + + + + C D * + _ E F p G , , H , t t I J K L M N I O P Q R S # + + + + + + + + + + + + + + + + ",
"+ + + + + + + + + + + + + + . # . + + + T U + + V , E W X E Y Z , ` t  ...+.W @.#.$.%.T &.+ . # . + + + + + + + + + + + + + + + ",
"# # # # # # # # # # # # # # # # # # # # # * # # ' , , , E E *.` t ` t =.-.;.>.,.'.).!.~.* {.# # # # # # # # # # # # # # # # # # ",
". + + + + @ @ @ @ @ + + @ + + + + + + + + * * + + ].p E , ^./.(.t ` _./.:., ..=.<.[.}.|.* 1.2.+ + + + + + + + + + + + + + + . # ",
"+ + + + + + + + + + + + + + + + + + + 3.+ 4.5., + 5 6.7.E 8.H 9.0.a.b.c.d.@.e.f.g.h., i.j.> k.+ + + + + + + + + + + + + + + + # ",
"+ + + + + + + + + + + + + + + + + + , , < & l., , , m./.5 n.o.p., , q.r.s.t.u.v.w.x., y.z.A.B.+ + + + + . + . . . . . + + # # # ",
"+ + + + + + + + + + + + + + + + + + + C., + * , p , D././.(.E.F.q., G.H.I.J./.D._ K.L.|.S M.N.+ + + + + + @ + @ @ @ + + + + $ # ",
"+ + + + + + + + + + + + + + + + + + + + + + * 0.O., P.m.Q.(.F.F.R., F.S.T.U.V.W.X.Y.x.Z.`.+  ++ + + + + + + + + + + + + + + + # ",
"+ + + + + + + + + + + + + + + + + + + , + + & 0..+++, /.@+#+$+F.R.R.F.S.%+@+V.w./.&+*+=+-+( , + + + + + + + + + + + + + + + + # ",
". + + + + + + + + + + + + + + + + + + + , * + 0., /././.@+F.R.;+R.R.>+R.,+'+)+!+v.w.0.~+* _ {++ + + + + + + + + + + + + + + . # ",
"# # # # # # # # # # # # # # # # # # # ]+^+/+* , , /.$+E.F.(+_+(+R.R.:+_+(+<+[+}+|+w., |.1+2+3+# # # # # # # # # # # # # # # # # ",
"@ @ @ + + + + + + + + + + + . # . + + + < 4+* 5+, 6+7+F.8+(+9+0+R.R.a+b+c+d+e+f+g+w.h+i+j+k+> # . + + + @ + @ @ @ @ @ + + + + + ",
"+ + + + + + + + + + + + + + + # + + + + + l+* m+5+n+o+p+p+0+9+q+R.r+s+t+u+v+w+x+y+z+m+A+B+C+D+# + + + + + + + + + + + + + + + + ",
"+ + + + + + + . . + . + + # # # + + + E+< F+G+m+, p /.H+I+J+K+L+R.q+L+H+M+N+O+P+Q+R+S+T+U+V+W+# + + + + + + + + + + + + + + + + ",
"+ + + + + + @ + @ @ + + + + $ # + + + + X+Y+* Z+f+`+@+d+ @J+J+.@+@@@.@J+J+#@$@%@&@*@=@-@;@>@,@# + + + + + + + + + + + + + + + + ",
"+ + + + + + + + + + + + + + + # + + + + + l+l.` '@7+)@!@!@~@+@@@+@{@@@+@!@!@!@]@^@/@(@_@:@<@$ # + + + + + + + + + + + + + + + + ",
"+ + + + + + + + + + + + + + + # + + + + + & 5.E '@K+[@}@|@}@1@@@+@.@.@1@2@|@}@]@3@4@z+5@6@> + # + + + + + + + + + + + + + + + + ",
"+ + + + + + + + + + + + + + . # . + + + + + 7@u _+8@K+}@9@}@0+0@+@a@b@c@d@e@2@]@f@g@h@i@S + . # . + + + + + + + + + + + + + + + ",
"# # # # # # # # # # # # # # # # # # # # # # l+, j@k@K+K+l@0+q+q++@u+q+q+s+l@K+K+m@n@o@p@q@# # # # # # # # # # # # # # # # # # # ",
". + + + @ + @ @ % % % @ + @ @ + + + + + + + + C , r@'@s@t@u@u++@+@.@+@u+u@v@w@m@x@y@z@A@+ @ @ + + + + + + + + + + + + + + + . # ",
"+ + + + + + + + + + + + + + + + + + + + + + + < B@C@D@k@E@F@G@H@I@I@I@J@J@K@r+L@M@N@O@> + + + + + + + + + + + + + + + + + + + # ",
"+ + + + + + + + + + + + + + + + + + + + + + + + C P@, Q@R@S@H@H@H@H@H@T@I@u+U@V@W@X+S + + + + + + + + + + + + + + + + + + + + # ",
"+ + + + + + + + + + + + + + + + + + + + + + + + + < , , X@R@u+H@/././.Y@Z@`@ #.#+#+ + + + + + + + + + + + + + + + + + + + + $ # ",
"+ + + + + + + + + + + + + + + + + + + + + + . . + . + C @###E@E@$#%#E@K@&#*#=#+ -#+ + + + + + + + + + + + + . . + . + # # # # # ",
"+ + + + + + + + + + + + + + + + + + + + + + + + @ + @ @ + + + # + + + + + + + + + + + + + + + + + + + + + + + + @ + @ @ + + + # ",
". + + + + + + + + + + + + + + + + + + + + + + + + + + + + + . # . + + + + + + + + + + + + + + + + + + + + + + + + + + + + + . # ",
"# # # # # # # # # # # # # # # # # # # # # # # # # # # # # # # # # # # # # # # # # # # # # # # # # # # # # # # # # # # # # # # # ",
"+ + + + + + + + + + + + + + . # . + + + @ + @ @ @ % % % @ @ + + + + + + + + + + + + + + + + . # . + + + @ + @ @ @ % % % @ @ + + ",
"+ + + + + + + + + + + + + + + # + + + + + + + + + + + + + + + + + + + + + + + + + + + + + + + # + + + + + + + + + + + + + + + + ",
"+ + + + . . . + + . + + # # # # + + + + + + + + + + + + + + + + + + + + . . . + + . + + # # # # + + + + + + + + + + + + + + + + ",
"+ + + + + @ + + + @ @ + @ + $ # + + + + + + + + + + + + + + + + + + + + + @ + + + @ @ + @ + $ # + + + + + + + + + + + + + + + + ",
"+ + + + + + + + + + + + + + + # + + + + + + + + + + + + + + + + + + + + + + + + + + + + + + + # + + + + + + + + + + + + + + + + ",
"+ + + + + + + + + + + + + + + # + + + + + + + + + + + + + + + + + + + + + + + + + + + + + + + # + + + + + + + + + + + + + + + + ",
"+ + + + + + + + + + + + + + . # . + + + + + U ;#>#,#'#+ + + + + '#)#!#~#{#]#^#/#(#+ + + + + . # _#:#<#[#+ + + }#|#}#1#/#2#3#3#4#",
"5#6#6#7#8#9#0#a#8## # # # # # # # # # # # # # # # # # # # # # # # # # # # # # # # # # # # # # # # # # # # # # # # # # # # # # # "};
