/* XPM */
static char * calci2_xpm[] = {
"64 64 266 2",
"  	c None",
". 	c #AD707B",
"+ 	c #C39490",
"@ 	c #D1B1A5",
"# 	c #6E5967",
"$ 	c #B77F83",
"% 	c #DCCABE",
"& 	c #E33417",
"* 	c #FEFFFF",
"= 	c #FDFFFE",
"- 	c #E32816",
"; 	c #EA5D50",
"> 	c #DF2D16",
", 	c #CA5618",
"' 	c #752E12",
") 	c #F3641B",
"! 	c #E42816",
"~ 	c #EF463C",
"{ 	c #EC5C4F",
"] 	c #9C4B16",
"^ 	c #942E14",
"/ 	c #CA7750",
"( 	c #EE2D17",
"_ 	c #B32F15",
": 	c #E8553D",
"< 	c #E84B3C",
"[ 	c #EE2F17",
"} 	c #5E3913",
"| 	c #E02B16",
"1 	c #EB2215",
"2 	c #89513A",
"3 	c #CB483B",
"4 	c #EF3017",
"5 	c #873714",
"6 	c #6E3213",
"7 	c #EC2215",
"8 	c #E32916",
"9 	c #D03F18",
"0 	c #732F13",
"a 	c #F05219",
"b 	c #DA3416",
"c 	c #FA681B",
"d 	c #EF3117",
"e 	c #A43814",
"f 	c #F05119",
"g 	c #E62715",
"h 	c #C4644F",
"i 	c #C52715",
"j 	c #EB2A16",
"k 	c #EF2F17",
"l 	c #F3631A",
"m 	c #C1908E",
"n 	c #FDFEFE",
"o 	c #EA2616",
"p 	c #F7671C",
"q 	c #E12A16",
"r 	c #DD2F17",
"s 	c #C29390",
"t 	c #FA9F1F",
"u 	c #F99A21",
"v 	c #E23D17",
"w 	c #8F3E15",
"x 	c #F8681C",
"y 	c #7E656F",
"z 	c #E73017",
"A 	c #E86850",
"B 	c #7F656F",
"C 	c #D43316",
"D 	c #8C6E75",
"E 	c #745D6A",
"F 	c #FCE3DE",
"G 	c #F8791E",
"H 	c #FB9C1F",
"I 	c #FAA11E",
"J 	c #F29F21",
"K 	c #F9A61D",
"L 	c #F1641A",
"M 	c #F6641B",
"N 	c #FB681B",
"O 	c #EC3218",
"P 	c #FEFEFE",
"Q 	c #C1918E",
"R 	c #FB8459",
"S 	c #DF9224",
"T 	c #F9681C",
"U 	c #9E4C3A",
"V 	c #F19F22",
"W 	c #F2A120",
"X 	c #FB9C20",
"Y 	c #EE3217",
"Z 	c #F15519",
"` 	c #E22916",
" .	c #EA6650",
"..	c #FDB9A0",
"+.	c #FA6B23",
"@.	c #F9A11F",
"#.	c #F3D110",
"$.	c #F3B411",
"%.	c #E69723",
"&.	c #FADD18",
"*.	c #F39F21",
"=.	c #F4711D",
"-.	c #F9681B",
";.	c #E52A16",
">.	c #FCB094",
",.	c #F4D412",
"'.	c #FADD17",
").	c #F8CA0C",
"!.	c #F09E22",
"~.	c #FCA789",
"{.	c #FA6A1B",
"].	c #FAF7F3",
"^.	c #FBE555",
"/.	c #EFA33D",
"(.	c #F6DE39",
"_.	c #F3D914",
":.	c #FADE18",
"<.	c #FAE219",
"[.	c #E13617",
"}.	c #EB5C50",
"|.	c #FC9E7C",
"1.	c #F7DD38",
"2.	c #F4F3F3",
"3.	c #FBE554",
"4.	c #FAE119",
"5.	c #F8DD17",
"6.	c #FBE219",
"7.	c #FBDB16",
"8.	c #F6661C",
"9.	c #EF621A",
"0.	c #A84317",
"a.	c #F2DE7E",
"b.	c #F7DB37",
"c.	c #1E1303",
"d.	c #F3F3F3",
"e.	c #F4D914",
"f.	c #FBE319",
"g.	c #A44C15",
"h.	c #C65618",
"i.	c #7A3815",
"j.	c #846871",
"k.	c #6F5A67",
"l.	c #F2DD7D",
"m.	c #F7D534",
"n.	c #0A0601",
"o.	c #F9E01A",
"p.	c #E2C708",
"q.	c #F5DA14",
"r.	c #F3D312",
"s.	c #F3A021",
"t.	c #8B3916",
"u.	c #8F3C16",
"v.	c #FFFFFF",
"w.	c #F0D969",
"x.	c #FAFDFD",
"y.	c #FBE447",
"z.	c #F6DF41",
"A.	c #F3B90A",
"B.	c #FA6C1B",
"C.	c #DC5B19",
"D.	c #EA3018",
"E.	c #9B6450",
"F.	c #E9D13C",
"G.	c #F6D533",
"H.	c #FAF8F3",
"I.	c #FBE654",
"J.	c #F8DE18",
"K.	c #F9DC16",
"L.	c #FCB70D",
"M.	c #F0DA4E",
"N.	c #F3D432",
"O.	c #FBDA15",
"P.	c #F2D814",
"Q.	c #F8DF19",
"R.	c #FADF19",
"S.	c #FADE19",
"T.	c #EF4419",
"U.	c #F1DC5D",
"V.	c #EED431",
"W.	c #F4D110",
"X.	c #EDB80C",
"Y.	c #F0D513",
"Z.	c #F8E01A",
"`.	c #FAE019",
" +	c #ED2616",
".+	c #EB2115",
"++	c #7B3815",
"@+	c #EFDA67",
"#+	c #F2D00E",
"$+	c #DE3E17",
"%+	c #DD4217",
"&+	c #643613",
"*+	c #ED2416",
"=+	c #9B694F",
"-+	c #E4876A",
";+	c #E04518",
">+	c #E04318",
",+	c #E04418",
"'+	c #DD3B17",
")+	c #DF5F1D",
"!+	c #FBDC18",
"~+	c #E52816",
"{+	c #ED2C16",
"]+	c #F0AD7F",
"^+	c #E5701F",
"/+	c #EF7520",
"(+	c #E14A19",
"_+	c #E89122",
":+	c #F6DB15",
"<+	c #FBDB17",
"[+	c #FBD914",
"}+	c #F15319",
"|+	c #E92615",
"1+	c #A13514",
"2+	c #ED7220",
"3+	c #E55D1C",
"4+	c #DF621D",
"5+	c #F8DE17",
"6+	c #FCDA15",
"7+	c #F8B909",
"8+	c #D93516",
"9+	c #EED952",
"0+	c #F2D114",
"a+	c #F7D813",
"b+	c #FBDC17",
"c+	c #FBD813",
"d+	c #F4E586",
"e+	c #F8E562",
"f+	c #FCE24E",
"g+	c #FBDF3A",
"h+	c #F9DC26",
"i+	c #F4D814",
"j+	c #FBDC27",
"k+	c #FCDF3B",
"l+	c #EE9256",
"m+	c #AC7062",
"n+	c #AD8575",
"o+	c #C2938F",
"p+	c #AC8485",
"q+	c #B38988",
"r+	c #B58A89",
"s+	c #C0928F",
"t+	c #B98D8B",
"u+	c #B28888",
"v+	c #AA8284",
"w+	c #AB8384",
"x+	c #AD8485",
"y+	c #B18887",
"z+	c #B68B8A",
"A+	c #C1928F",
"B+	c #A66E79",
"C+	c #B88D8B",
"D+	c #BB8E8C",
"E+	c #C1938F",
"F+	c #BC8F8D",
"G+	c #BB8F8C",
"H+	c #BC8F8C",
"I+	c #B48989",
"J+	c #BA8E8C",
"K+	c #B48A89",
"L+	c #715B69",
"M+	c #6F5967",
"N+	c #6F5A68",
"O+	c #705B68",
"P+	c #765E6B",
"Q+	c #725B69",
". + + + + @ @ @ @ @ + + @ + + + + + + + + + + + + + + + + + . # . + + + + @ @ @ @ @ + + @ + + + + + + + + + + + + + + + + + . # ",
"+ + + + + + + + + + + + + + + + + + + + + + + + + + + + + + + # + + + + + + + + + + + + + + + + + + + + + + + + + + + + + + + # ",
"+ + + + + + + + + + + + + + + + + + + + . + . . . . . + + # # # + + + + + + + + + + + + + + + + + + + + . + . . . . . + + # # # ",
"+ + + + + + + + + + + + + + + + + + + + + @ + @ @ @ + + + + $ # + + + + + + + + + + + + + + + + + + + + + @ + @ @ @ + + + + $ # ",
"+ + + + + + + + + + + + + + + + + + + + + + + + + + + + + + + # + + + + + + + + + + + + + + + + + + + + + + + + + + + + + + + # ",
"+ + + + + + + + + + + + + + + + + + + + + + + + + + + + + + + # + + + + + + + + + + + + + + + + + + + + + + + + + + + + + + + # ",
". + + + + + + + + + + + + + + + + + + + + + + + + + + + + + . # . + + + + + + + + + + + + + + + + + + + + + + + + + + + + + . # ",
"# # # # # # # # # # # # # # # # # # # # # # # # # # # # # # # # # # # # # # # # # # # # # # # # # # # # # # # # # # # # # # # # ",
"@ @ @ + + + + + + + + + + + . # . + + + @ + @ @ @ @ @ + + + + + @ @ @ + + + + + + + + + + + . # . + + + @ + @ @ @ @ @ + + + + + ",
"+ + + + + + + + + + + + + + + # + + + + + + + + + + + + + + + + + + + + + + + + + + + + + + + # + + + + + + + + + + + + + + + + ",
"+ + + + + + + . . + . + + # # # + + + + + + + + + + + + + + + + + + + + + + + . . + . + + # # # + + + + + + + + + + + + + + + + ",
"+ + + + + + @ + @ @ + + + + $ # + + + + + + + + + + + + + + + + + + + + + + @ + @ @ + + + + $ # + + + + + + + + + + + + + + + + ",
"+ + + + + + + + + + + + + + + # + + + + + + + + + + + + + + + + + + + + + + + + + + + + + + + # + + + + + + + + + + + + + + + + ",
"+ + + + + + + + + + + + + + + # + + + + + + + + + + + + + + + + + + + + + + + + + + + + + + + # + + + + + + + + + + + + + + + + ",
"+ + + + + + + + + + + + + + . # . + + + + + + + + + + + + + + + + + + + + + + + + + + + + + . # . + + + + + + + + + + + + + + + ",
"# # # # # # # # # # # # # # # # # # # # # # # # # # # # # # # # # # # # # # # # # # # # # # # # # # # # # # # # # # # # # # # # ",
". + + + @ + @ @ % % % @ + @ @ + + + + + + + + + + + + + + + . # . + + + @ + @ @ % % % @ + @ @ + + + + + + + + + + + + + + + . # ",
"+ + + + + + + + + + + + + + + + + + + + + + + + + + + + + + + # + + + + + + + + + + + + + + + + + + + + + + + + + + + + + + + # ",
"+ + + + + + + + + + + + + + + + + + + + + + + + + + + + + + + # + + + & + + + + + + + + + + + + + + + + + + + + + + + + + + + # ",
"+ + + + + + + + + + + + + + + + + + + + + + + + + + + + + + $ # + + + & * + + + + + + + + + + + + + + + + + + + + + + + + + $ # ",
"+ + + + + + + + + + + + + + + + + + + + + + . . + . + # # # # # + + = - ; + + + + + + + + + + + + + + + + + . . + . + # # # # # ",
"+ + + + + + + + + + + + + + + + + + + + + + + + @ + @ @ + + + # + + > - - + + + + + + + + + + + + + + + + + + + @ + @ @ + + + # ",
". + + + + + + + + + + + + + + + + + + + + + + + + + , + + + . ' . + * - ; + + + + + + + + + + + + + + + + + + + + + + + + + . # ",
"# # # # # # # # # # # # # # # # # # # # # # # - # # ) * # # * ! # # # - # # # # # # # # # # # # # # # # # # # # # # # # # # # # ",
"+ + + + + + + + + + + + + + . # . + + + @ + ~ { @ = ) ] * * - - + + + + + + + + * - + + + + . # . + + + @ + @ @ @ % % % @ @ + + ",
"+ + + + + + + + + + + + + + + # + + + + + + ^ + + / ) ( _ - - - + + + + + + + : - < + + + + + # + + + + + + + + + + + + + + + + ",
"+ + + + . . . + + . + + # # # # + + + + + + + + + ) [ - } | - 1 + ) + 2 - + : & - * + + + + + # + + + + + + + + + + + + + + + + ",
"+ + + + + @ + + + @ @ + @ + $ # + + + + + + - 3 + - - - - 4 - - 5 ) 6 7 8 + & 9 0 + + + + + + # + + + + + + + + + + + + + + + + ",
"+ + + + + + + + + + + + + + + # + + + + + + a - b - c - - d e 7 f g 7 - h + + + + + + + + + + # + + + + + + + + + + + + + + + + ",
"+ + + + + + + + + + + + + + + # + + + + + * ) ! - i c j ! k l 7 7 - - - = + + & + + + + + + + # + + + + + + + + + + + + + + + + ",
"+ + + + + + + + + + + + + + . # . + + + m n ) l o ) ) ) ) p c q - 7 ) r + + & & s + + m + + . # . + + + + + + + + + + + + + + + ",
"# # # # # # # # # # # # # # # # # # # # # ) t l c ) ) ) ) u 4 v 7 w x ! y - z A B C D E # # # # # # # # # # # # # # # # # # # # ",
". + + + + @ @ @ @ @ + + @ + + + + + + + F c G H I p l J ) K L M ! c N - - - O P * - - Q + + + + + + + + + + + + + + + + + + . # ",
"+ + + + + + + + + + + + + + + + + + + + R c ) I I J J J K J S p c c T - ) - & + - U + + + + + + + + + + + + + + + + + + + + + # ",
"+ + + + + + + + + + + + + + + + + + + P R c ) I I J V W J J J p X N Y - Z `  .+ + + + + + + + + + + + + . + . . . . . + + # # # ",
"+ + + + + + + + + + + + + + + + + + + ..+.c I @.#.$.%.&.J J *.=.I c - -.;.` P + + - + + + + + + + + + + + @ + @ @ @ + + + + $ # ",
"+ + + + + + + + + + + + + + + + + + + >.-.) *.J ,.'.).&.!.&.J J I c c c - ` +  .- + + + + + + + + + + + + + + + + + + + + + + # ",
"+ + + + + + + + + + + + + + + + + + + ~.{.].^./.(.&.&._.:.<._.&.J S *.c - - & [.}.+ + + + + + + + + + + + + + + + + + + + + + # ",
". + + + + + + + + + + + + + + + + + + |.1.].2.3.(.&.4.5.6.6.7.4.J J 8.9.- ( & 0.* + m Q + + + + + + + + + + + + + + + + + + . # ",
"# # # # # # # # # # # # # # # # # # # a.b.c.d.2.^.e.&.<.<.f.<.6.,.J ) g.( h.& i.j.k.# # # # # # # # # # # # # # # # # # # # # # ",
"@ @ @ + + + + + + + + + + + . # . + + l.m.n.d.2.3._.&.<.f.o.p.q.r.s.c ) - h.t.u.v.+ + + + + . # . + + + @ + @ @ @ @ @ + + + + + ",
"+ + + + + + + + + + + + + + + # + + + w.m.].x.y.z._._.e._.e.q.q.A.J I B.- C.& D.E.+ + + + + + # + + + + + + + + + + + + + + + + ",
"+ + + + + + + . . + . + + # # # + + + F.G.H.I._._._._._.J._.<.K.J L.I u - k O i.+ + + + + + + # + + + + + + + + + + + + + + + + ",
"+ + + + + + @ + @ @ + + + + $ # + + + M.N.O._.P._._._.<._._.Q.W R.S.I ) T.7 z P . + . + # # # # + + + + + + + + + + + + + + + + ",
"+ + + + + + + + + + + + + + + # + + + U.V.W._._.X._._.<.Y.Z.6.`.6.I c )  +.++++ @ @ + + + + $ # + + + + + + + + + + + + + + + + ",
"+ + + + + + + + + + + + + + + # + + + @+V.#+$+$+%+_._._.<.f.f.6.R.x c &+*+- =++ + + + + + + + # + + + + + + + + + + + + + + + + ",
"+ + + + + + + + + + + + + + . # . + + -+;+>+,+,+'+)+_.4.e.<.4.&.!+-.~+{+- 0 + + + + + + + + . # . + + + + + + + + + + + + + + + ",
"# # # # # # # # # # # # # # # # # # # ]+^+/+/+(+'+_+<._.:+<.&.<+[+) }+|+1+* # # # # # # # # # # # # # # # # # # # # # # # # # # ",
". + + + @ + @ @ % % % @ + @ @ + + + + + ^+/+2+3+4+5+R.6+6.6.&.[+`.7+- 8+0 + @ @ % % % @ + @ @ + + + + + + + + + + + + + + + . # ",
"+ + + + + + + + + + + + + + + + + + + + + 9+0+[+a+b+6.b+R.6.4.`.c+- - * + + + + + + + + + + + + + + + + + + + + + + + + + + + # ",
"+ + + + + + + + + + + + + + + + + + + + + + * d+e+f+g+h+i+j+k+l+m+n++ + + + + + + + + + + + + + + + + + + + + + + + + + + + + # ",
"+ + + + + + + + + + + + + + + + + + + + + + + + + + + + + + $ # + + + + + + + + + + + + + + + + + + + + + + + + + + + + + + $ # ",
"+ + + + + + + + + + + + + + + + + + + + + + . . + . + # # # # # + + + + + + + + + + + + + + + + + + + + + + . . + . + # # # # # ",
"+ + + + + + + + + + + + + + + + + + + + + + + + @ + @ @ + + + # + + + + + + + + + + + + + + + + + + + + + + + + @ + @ @ + + + # ",
". + + + + + + + + + + + + + + + + + + + + + + + + + + + + + . # . + + + + + + + + + + + + + + + + + + + + + + + + + + + + + . # ",
"# # # # # # # # # # # # # # # # # # # # # # # # # # # # # # # # # # # # # # # # # # # # # # # # # # # # # # # # # # # # # # # # ",
"+ + + + + + + + + + + + + + . # . + + + @ + @ @ @ % % % @ @ + + + + + + + + + + + + + + + + . # . + + + @ + @ @ @ % % % @ @ + + ",
"+ + + + + + + + + + + + + + + # + + + + + + + + + + + + + + + + + + + + + + + + + + + + + + + # + + + + + + + + + + + + + + + + ",
"+ + + + . . . + + . + + # # # # + + + + + + + + + + + + + + + + + + + + . . . + + . + + # # # # + + + + + + + + + + + + + + + + ",
"+ + + + + @ + + + @ @ + @ + $ # + + + + + + + + + + + + + + + + + + + + + @ + + + @ @ + @ + $ # + + + + + + + + + + + + + + + + ",
"+ + + + + + + + + + + + + + + # + + + + + + + + + + + + + + + + + + + + + + + + + + + + + + + # + + + + + + + + + + + + + + + + ",
"+ + + + + + + + + + + + + + + # + + + + + + + + + + + + + + + + + + + + + + + + + + + + + + + # + + + + + + + + + + + + + + + + ",
"+ + + + + + + + + + + + + + . # . + + + + + o+p+q+r+s++ + + + + s+t+u+v+w+x+y+z+A++ + + + + . # B+C+D+E++ + + F+G+F+H+z+I+J+J+K+",
"L+M+M+N+k.O+P+Q+k.# # # # # # # # # # # # # # # # # # # # # # # # # # # # # # # # # # # # # # # # # # # # # # # # # # # # # # # "};
