/* XPM */
static char * calci3_xpm[] = {
"64 64 401 2",
"  	c None",
". 	c #AD707B",
"+ 	c #C39490",
"@ 	c #D1B1A5",
"# 	c #6E5967",
"$ 	c #B77F83",
"% 	c #DCCABE",
"& 	c #FAFCFC",
"* 	c #E33417",
"= 	c #FDFFFF",
"- 	c #E33215",
"; 	c #F4CBC7",
"> 	c #FFFFFF",
", 	c #E32816",
"' 	c #F9FEFD",
") 	c #FAFBFC",
"! 	c #E32F20",
"~ 	c #E32512",
"{ 	c #E22811",
"] 	c #DF2D16",
"^ 	c #752F12",
"/ 	c #DE2D16",
"( 	c #E32915",
"_ 	c #E32916",
": 	c #FE002C",
"< 	c #FAFDFD",
"[ 	c #752E12",
"} 	c #FBFFFF",
"| 	c #7D2B13",
"1 	c #7C2B12",
"2 	c #E32D1D",
"3 	c #E32815",
"4 	c #E22815",
"5 	c #E42816",
"6 	c #FBF9FB",
"7 	c #E62B1C",
"8 	c #E51D09",
"9 	c #E42B1B",
"0 	c #99460B",
"a 	c #E32A18",
"b 	c #E32714",
"c 	c #E52D13",
"d 	c #FBF9FA",
"e 	c #E32D1C",
"f 	c #B32F15",
"g 	c #E02909",
"h 	c #E22614",
"i 	c #F3641A",
"j 	c #6A3013",
"k 	c #E02A16",
"l 	c #E33516",
"m 	c #E32612",
"n 	c #722F13",
"o 	c #F3641B",
"p 	c #EB2215",
"q 	c #E02B16",
"r 	c #5E3913",
"s 	c #EE2F17",
"t 	c #EB2115",
"u 	c #9B0C10",
"v 	c #DF601A",
"w 	c #742E12",
"x 	c #F00A12",
"y 	c #E33517",
"z 	c #E02912",
"A 	c #FAF2F1",
"B 	c #732F13",
"C 	c #D03F18",
"D 	c #EC2215",
"E 	c #6E3213",
"F 	c #873714",
"G 	c #EF3017",
"H 	c #E22A15",
"I 	c #E52616",
"J 	c #8E3915",
"K 	c #F2611A",
"L 	c #7A2F13",
"M 	c #EA2115",
"N 	c #DA1606",
"O 	c #E43417",
"P 	c #D34118",
"Q 	c #743013",
"R 	c #000000",
"S 	c #B03115",
"T 	c #E62715",
"U 	c #F05119",
"V 	c #A43814",
"W 	c #EF3117",
"X 	c #EF2F17",
"Y 	c #A83D15",
"Z 	c #E92115",
"` 	c #F34F19",
" .	c #EE2416",
"..	c #E42715",
"+.	c #B33720",
"@.	c #A84420",
"#.	c #FE3317",
"$.	c #F3631A",
"%.	c #F4651B",
"&.	c #EC2716",
"*.	c #EC2015",
"=.	c #E42716",
"-.	c #E32B16",
";.	c #E2240F",
">.	c #FAF6F5",
",.	c #FCFFFF",
"'.	c #E33217",
").	c #E33416",
"!.	c #DD2F17",
"~.	c #E12A16",
"{.	c #FA681B",
"].	c #F7671C",
"^.	c #F76B1C",
"/.	c #E22D16",
"(.	c #DE3117",
"_.	c #C80018",
":.	c #E31E0E",
"<.	c #E33317",
"[.	c #E43316",
"}.	c #D33115",
"|.	c #D43316",
"1.	c #E03717",
"2.	c #E73017",
"3.	c #F8681C",
"4.	c #8F3E15",
"5.	c #E23D17",
"6.	c #F99A21",
"7.	c #E22916",
"8.	c #DF2B16",
"9.	c #FA9B21",
"0.	c #EF3C19",
"a.	c #E33E17",
"b.	c #924115",
"c.	c #F6681C",
"d.	c #E52A15",
"e.	c #E12415",
"f.	c #E72F17",
"g.	c #E13D22",
"h.	c #D43416",
"i.	c #EC3218",
"j.	c #FB681B",
"k.	c #F6641B",
"l.	c #F1641A",
"m.	c #F9A61D",
"n.	c #F9A51D",
"o.	c #F16D1D",
"p.	c #F6661C",
"q.	c #E52B16",
"r.	c #FB671B",
"s.	c #FB691B",
"t.	c #E42A16",
"u.	c #E32A16",
"v.	c #EB2A11",
"w.	c #FAF5F3",
"x.	c #FAFCFD",
"y.	c #E12E1C",
"z.	c #8B2913",
"A.	c #F9681C",
"B.	c #DF9224",
"C.	c #F29F21",
"D.	c #F3A021",
"E.	c #DF9524",
"F.	c #F66A1D",
"G.	c #FB6B1B",
"H.	c #F3631B",
"I.	c #E42B16",
"J.	c #E52311",
"K.	c #8E2A13",
"L.	c #F15519",
"M.	c #EE3217",
"N.	c #FB9C20",
"O.	c #F29F20",
"P.	c #F3A121",
"Q.	c #F7691D",
"R.	c #FB9C1F",
"S.	c #FB6C1B",
"T.	c #EE3317",
"U.	c #E42916",
"V.	c #F15419",
"W.	c #E3381E",
"X.	c #E33B1E",
"Y.	c #FF1E12",
"Z.	c #E52A16",
"`.	c #F9681B",
" +	c #FAA11E",
".+	c #F4711D",
"++	c #F39F21",
"@+	c #F4741E",
"#+	c #E62B15",
"$+	c #E22612",
"%+	c #FBF0EF",
"&+	c #EB9389",
"*+	c #F19F22",
"=+	c #F09E22",
"-+	c #F1A021",
";+	c #FAA21D",
">+	c #F96D1C",
",+	c #FA6B1B",
"'+	c #DD0300",
")+	c #E32315",
"!+	c #E52716",
"~+	c #E13617",
"{+	c #E79921",
"]+	c #E79822",
"^+	c #E9A122",
"/+	c #F2A120",
"(+	c #DF9424",
"_+	c #F1A120",
":+	c #FA6C1B",
"<+	c #E03817",
"[+	c #E52E1F",
"}+	c #E62B1D",
"|+	c #A84317",
"1+	c #EE2D17",
"2+	c #EF621A",
"3+	c #E79722",
"4+	c #E3C806",
"5+	c #E79821",
"6+	c #FBE219",
"7+	c #FCE51A",
"8+	c #E99D21",
"9+	c #E89B21",
"0+	c #E3C906",
"a+	c #F3A51E",
"b+	c #E89822",
"c+	c #ED661A",
"d+	c #EC2D16",
"e+	c #E53217",
"f+	c #A74011",
"g+	c #F3F4F4",
"h+	c #7A3815",
"i+	c #C65618",
"j+	c #A44C15",
"k+	c #ED9B21",
"l+	c #F3D713",
"m+	c #FBE319",
"n+	c #F19E21",
"o+	c #FBE419",
"p+	c #E89C20",
"q+	c #FAE119",
"r+	c #F4D913",
"s+	c #F3DA13",
"t+	c #F09F21",
"u+	c #A75016",
"v+	c #EC2A16",
"w+	c #E23717",
"x+	c #813515",
"y+	c #3F1E03",
"z+	c #B02700",
"A+	c #B42E14",
"B+	c #8F3C16",
"C+	c #8B3916",
"D+	c #F3D813",
"E+	c #EFD410",
"F+	c #F5DA14",
"G+	c #F2D612",
"H+	c #F9E01A",
"I+	c #F4DA14",
"J+	c #F0D410",
"K+	c #F2DA13",
"L+	c #FB701A",
"M+	c #F5681C",
"N+	c #E52F16",
"O+	c #C95417",
"P+	c #8F3D17",
"Q+	c #943B14",
"R+	c #D5C8C5",
"S+	c #B84336",
"T+	c #782D12",
"U+	c #EA3018",
"V+	c #DC5B19",
"W+	c #F19920",
"X+	c #F4D914",
"Y+	c #FAE219",
"Z+	c #F3D914",
"`+	c #F4D813",
" @	c #E4CA07",
".@	c #F9A41D",
"+@	c #F19A21",
"@@	c #E99B21",
"#@	c #DD5F1A",
"$@	c #E53317",
"%@	c #EB3118",
"&@	c #822710",
"*@	c #4B300A",
"=@	c #F19820",
"-@	c #E59622",
";@	c #FCB70D",
">@	c #F9DC16",
",@	c #F8DE18",
"'@	c #F9DC17",
")@	c #FCB70C",
"!@	c #E69A21",
"~@	c #E79A21",
"{@	c #F09B21",
"]@	c #EF3718",
"^@	c #EF3318",
"/@	c #803D1F",
"(@	c #4D472C",
"_@	c #F2D713",
":@	c #E99921",
"<@	c #F8DF19",
"[@	c #F2D613",
"}@	c #E99E21",
"|@	c #F2D913",
"1@	c #F09E21",
"2@	c #E42E11",
"3@	c #FEF6F5",
"4@	c #7B3815",
"5@	c #F1D612",
"6@	c #F2D712",
"7@	c #F8E01A",
"8@	c #F1D613",
"9@	c #F8E019",
"0@	c #FCE419",
"a@	c #E99C21",
"b@	c #FBE119",
"c@	c #F3D913",
"d@	c #F2D611",
"e@	c #E89A21",
"f@	c #ED2A16",
"g@	c #7E3515",
"h@	c #ED2416",
"i@	c #F09820",
"j@	c #FADF19",
"k@	c #F09920",
"l@	c #ED2616",
"m@	c #E22816",
"n@	c #833415",
"o@	c #644215",
"p@	c #ED2C16",
"q@	c #E7CB08",
"r@	c #FBDC17",
"s@	c #FADD18",
"t@	c #FBDD18",
"u@	c #E8CB09",
"v@	c #ED2E16",
"w@	c #E32716",
"x@	c #783118",
"y@	c #2F2C18",
"z@	c #A13514",
"A@	c #E92615",
"B@	c #F15319",
"C@	c #FBD914",
"D@	c #FBDB17",
"E@	c #F6DB15",
"F@	c #FADE18",
"G@	c #FBDB16",
"H@	c #F15318",
"I@	c #EA2616",
"J@	c #A1300F",
"K@	c #F7F5F4",
"L@	c #D93516",
"M@	c #F8B909",
"N@	c #FAE019",
"O@	c #FADE19",
"P@	c #F9BB08",
"Q@	c #E43216",
"R@	c #DB331C",
"S@	c #FBD813",
"T@	c #FAD813",
"U@	c #E23416",
"V@	c #E32311",
"W@	c #FAF5F5",
"X@	c #832813",
"Y@	c #E86E1E",
"Z@	c #F0D612",
"`@	c #F4D814",
" #	c #EA721F",
".#	c #821711",
"+#	c #6A3212",
"@#	c #C2938F",
"##	c #AC8485",
"$#	c #B38988",
"%#	c #B58A89",
"&#	c #C0928F",
"*#	c #B98D8B",
"=#	c #B28888",
"-#	c #AA8284",
";#	c #AB8384",
">#	c #AD8485",
",#	c #B18887",
"'#	c #B68B8A",
")#	c #C1928F",
"!#	c #A66E79",
"~#	c #B88D8B",
"{#	c #BB8E8C",
"]#	c #C1938F",
"^#	c #BC8F8D",
"/#	c #BB8F8C",
"(#	c #BC8F8C",
"_#	c #B48989",
":#	c #BA8E8C",
"<#	c #B48A89",
"[#	c #715B69",
"}#	c #6F5967",
"|#	c #6F5A68",
"1#	c #6F5A67",
"2#	c #705B68",
"3#	c #765E6B",
"4#	c #725B69",
". + + + + @ @ @ @ @ + + @ + + + + + + + + + + + + + + + + + . # . + + + + @ @ @ @ @ + + @ + + + + + + + + + + + + + + + + + . # ",
"+ + + + + + + + + + + + + + + + + + + + + + + + + + + + + + + # + + + + + + + + + + + + + + + + + + + + + + + + + + + + + + + # ",
"+ + + + + + + + + + + + + + + + + + + + . + . . . . . + + # # # + + + + + + + + + + + + + + + + + + + + . + . . . . . + + # # # ",
"+ + + + + + + + + + + + + + + + + + + + + @ + @ @ @ + + + + $ # + + + + + + + + + + + + + + + + + + + + + @ + @ @ @ + + + + $ # ",
"+ + + + + + + + + + + + + + + + + + + + + + + + + + + + + + + # + + + + + + + + + + + + + + + + + + + + + + + + + + + + + + + # ",
"+ + + + + + + + + + + + + + + + + + + + + + + + + + + + + + + # + + + + + + + + + + + + + + + + + + + + + + + + + + + + + + + # ",
". + + + + + + + + + + + + + + + + + + + + + + + + + + + + + . # . + + + + + + + + + + + + + + + + + + + + + + + + + + + + + . # ",
"# # # # # # # # # # # # # # # # # # # # # # # # # # # # # # # # # # # # # # # # # # # # # # # # # # # # # # # # # # # # # # # # ",
"@ @ @ + + + + + + + + + + + . # . + + + @ + @ @ @ @ @ + + + + + @ @ @ + + + + + + + + + + + . # . + + + @ + @ @ @ @ @ + + + + + ",
"+ + + + + + + + + + + + + + + # + + + + + + + + + + + + + + + + + + + + + + + + + + + + + + + # + + + + + + + + + + + + + + + + ",
"+ + + + + + + . . + . + + # # # + + + + + + + + + + + + + + + + + + + + + + + . . + . + + # # # + + + + + + + + + + + + + + + + ",
"+ + + + + + @ + @ @ + + + + $ # + + + + + + + + + + + + + + + + + + + + + + @ + @ @ + + + + $ # + + + + + + + + + + + + + + + + ",
"+ + + + + + + + + + + + + + + # + + + + + + + + + + + + + + + + + + + + + + + + + + + + + + + # + + + + + + + + + + + + + + + + ",
"+ + + + + + + + + + + + + + + # + + + + + + + + + + + + + + + + + + + + + + + + + + + + + + + # + + + + + + + + + + + + + + + + ",
"+ + + + + + + + + + + + + + . # . + + + + + + + + + + + + + + + + + + + + + + + + + + + + + . # . + + + + + + + + + + + + + + + ",
"# # # # # # # # # # # # # # # # # # # # # # # # # # # # # # # # # # # # # # # # # # # # # # # # # # # # # # # # # # # # # # # # ",
". + + + @ + @ @ % % % @ + @ @ + + + + + + + + + + + + + + + . # . + + + @ + @ @ % % % @ + @ @ + + + + + + + + + + + + + + + . # ",
"+ + + + + + + + + + + + + + + + + + + + + + + + + + + + + + + # + + + + + + + + + + + + + + + + + + + + + + + + + + + + + + + # ",
"+ + + + + + + + + + + + + + + + + + + + + + + & * + + + + + + # + + + + + + = - ; > + + + + + + + + + + + + + + + + + + + + + # ",
"+ + + + + + + + + + + + + + + + + + + + + + + , , ' + + + + $ # + + + + + + ) ! ~ { + + + + + + + + + + + + + + + + + + + + $ # ",
"+ + + + + + + + + + + + + + + + + + + + + + . , , ] + # # # # # + + + ^ + + / ( _ ( + : + + + + + + + + + + . . + . + # # # # # ",
"+ + + + + + + + + + + + + + + + + + + + + + + , , < @ @ [ + + # + + } | 1 + > 2 3 4 + + + + + + + + + + + + + + @ + @ @ + + + # ",
". + + + + + + + + + + + + + + + + + + + + + + + , + + + 5 < . # . + 6 7 8 + + , 3 + + + } 9 + + + + + + + + + + + + + + + + . # ",
"# # # # # # # # # # # # # # # # # # , < # # # # # # # # , , < < 0 # a 3 b # # # # # # c d e # # # # # # # # # # # # # # # # # # ",
"+ + + + + + + + + + + + + + . # . + , , * + @ @ @ % % % , , , f + g , , h i + j k + l * m e . # . + + + @ + @ @ @ % % % @ @ + + ",
"+ + + + + + + + + + + + + + + # + + < , * * + , n + o + p , q r + s _ t u o v w q x * y z A + # + + + + + + + + + + + + + + + + ",
"+ + + + . . . + + . + + # # # # + + + B C * + _ D E o F , , G , s s H I J K L M H N O P Q R + # + + + + + + + + + + + + + + + + ",
"+ + + + + @ + + + @ @ + @ + $ # + + + + + + + S , D T U D V W , X s Y Z ` T  ...+.@.+ #.+ + + # + + + + + + + + + + + + + + + + ",
"+ + + + + + + + + + + + + + + # + + + + * + + ' , , , D D $.X s X s %.&.*.=.-.;.>.,.'.* ).+ + # + + + + + + + + + + + + + + + + ",
"+ + + + + + + + + + + + + + + # + + + + * * + + !.o D , ~.{.].s X ^.{./., Z %.(._.:.<.* [.}.+ # + + + + + + + + + + + + + + + + ",
"+ + + + + + + + + + + + + + . # . + |.+ 1.2., + 5 3.4.D 5.G 6.7.8.9.0.a. .b.c.d.e., f.g.> h.. # . + + + + + + + + + + + + + + + ",
"# # # # # # # # # # # # # # # # # , , < & i., , , j.{.5 k.l.m., , n.o.p.q.r.s.t.u., v.w.x.y.# # # # # # # # # # # # # # # # # # ",
". + + + + @ @ @ @ @ + + @ + + + + + z., + * , o , A.{.{.].B.C.n., D.E.F.G.{.A._ H.I.<.R J.K.+ + + + + + + + + + + + + + + + . # ",
"+ + + + + + + + + + + + + + + + + + + + + * 7.L., M.j.N.].C.C.O., C.P.Q.R.S.T.U.V.u.W.X.+ Y.+ + + + + + + + + + + + + + + + + # ",
"+ + + + + + + + + + + + + + + + + + , + + & 7.Z.`., {. +.+++C.O.O.C.P.@+ +S.t.{.#+$+%+&+( , + + + + + + . + . . . . . + + # # # ",
"+ + + + + + + + + + + + + + + + + + + , * + 7., {.{.{. +C.O.*+O.O.=+O.-+;+>+,+s.t.7.'+* _ )++ + + + + + + @ + @ @ @ + + + + $ # ",
"+ + + + + + + + + + + + + + + + + + + !+~+* , , {.++B.C.{+]+{+O.O.^+]+{+/+(+_+:+t., <.<+[+}++ + + + + + + + + + + + + + + + + # ",
"+ + + + + + + + + + + + + + + + + + + < |+* 1+, 2+3+C.4+{+5+6+O.O.7+8+9+0+a+b+c+t.d+e+f+g+> + + + + + + + + + + + + + + + + + # ",
". + + + + + + + + + + + + + + + + + + + h+* i+1+j+k+l+l+6+5+m+O.n+o+p+q+r+s+t+u+v+i+w+x+y+z++ + + + + + + + + + + + + + + + . # ",
"# # # # # # # # # # # # # # # # # # A+< B+C+i+, o {.D+E+F+G+H+O.m+H+D+I+J+K+L+M+N+O+P+Q+R+S+# # # # # # # # # # # # # # # # # # ",
"@ @ @ + + + + + + + + + + + . # . + + T+U+* V+b+W+ +0+D+F+F+X+Y+Z+X+F+F+`+ @.@+@@@#@$@%@&@*@. # . + + + @ + @ @ @ @ @ + + + + + ",
"+ + + + + + + + + + + + + + + # + + + + h+i.X =@3+-@;@J+>@Y+Z+Y+,@Z+Y+'@J+)@!@~@{@]@^@/@(@+ + # + + + + + + + + + + + + + + + + ",
"+ + + + + + + . . + . + + # # # + + + + & 2.D =@G+_@*+:@_@<@Z+Y+X+X+<@[@}@=+G+|@1@v+2@3@> + + # + + + + + + + + + + + + + + + + ",
"+ + + + + + @ + @ @ + + + + $ # + + + + + 4@t ]+5@G+6@6+{+6+7@Y+8@9@0@a@b@c@G+d@e@f@g@R # # # # + + + + + + + + + + + + + + + + ",
"+ + + + + + + + + + + + + + + # + + + + + h+, h@i@G+G+j@6+m+m+Y+q+m+m+o+j@G+G+k@l@m@n@o@+ + $ # + + + + + + + + + + + + + + + + ",
"+ + + + + + + + + + + + + + + # + + + + + + B , p@=@q@r@s@q+Y+Y+X+Y+q+s@t@u@k@v@w@x@y@+ + + + # + + + + + + + + + + + + + + + + ",
"+ + + + + + + + + + + + + + . # . + + + + + < z@A@B@i@C@D@s@Y+Y+E@Y+F@D@G@n+H@I@J@K@+ + + + . # . + + + + + + + + + + + + + + + ",
"# # # # # # # # # # # # # # # # # # # # # # # B L@, M@N@C@s@6+Y+6+m+O@C@q+P@Q@R@T+R # # # # # # # # # # # # # # # # # # # # # # ",
". + + + @ + @ @ % % % @ + @ @ + + + + + + + + + < , , S@N@q+6+Y+F@q+q+F@T@U@V@W@% % % @ + @ @ + + + + + + + + + + + + + + + . # ",
"+ + + + + + + + + + + + + + + + + + + + + + + + + + B X@Y@C@C@Z@`@C@G@ #.#+#+ + + + + + + + + + + + + + + + + + + + + + + + + # ",
"+ + + + + + + + + + + + + + + + + + + + + + + + + + + + + + + # + + + + + + + + + + + + + + + + + + + + + + + + + + + + + + + # ",
"+ + + + + + + + + + + + + + + + + + + + + + + + + + + + + + $ # + + + + + + + + + + + + + + + + + + + + + + + + + + + + + + $ # ",
"+ + + + + + + + + + + + + + + + + + + + + + . . + . + # # # # # + + + + + + + + + + + + + + + + + + + + + + . . + . + # # # # # ",
"+ + + + + + + + + + + + + + + + + + + + + + + + @ + @ @ + + + # + + + + + + + + + + + + + + + + + + + + + + + + @ + @ @ + + + # ",
". + + + + + + + + + + + + + + + + + + + + + + + + + + + + + . # . + + + + + + + + + + + + + + + + + + + + + + + + + + + + + . # ",
"# # # # # # # # # # # # # # # # # # # # # # # # # # # # # # # # # # # # # # # # # # # # # # # # # # # # # # # # # # # # # # # # ",
"+ + + + + + + + + + + + + + . # . + + + @ + @ @ @ % % % @ @ + + + + + + + + + + + + + + + + . # . + + + @ + @ @ @ % % % @ @ + + ",
"+ + + + + + + + + + + + + + + # + + + + + + + + + + + + + + + + + + + + + + + + + + + + + + + # + + + + + + + + + + + + + + + + ",
"+ + + + . . . + + . + + # # # # + + + + + + + + + + + + + + + + + + + + . . . + + . + + # # # # + + + + + + + + + + + + + + + + ",
"+ + + + + @ + + + @ @ + @ + $ # + + + + + + + + + + + + + + + + + + + + + @ + + + @ @ + @ + $ # + + + + + + + + + + + + + + + + ",
"+ + + + + + + + + + + + + + + # + + + + + + + + + + + + + + + + + + + + + + + + + + + + + + + # + + + + + + + + + + + + + + + + ",
"+ + + + + + + + + + + + + + + # + + + + + + + + + + + + + + + + + + + + + + + + + + + + + + + # + + + + + + + + + + + + + + + + ",
"+ + + + + + + + + + + + + + . # . + + + + + @###$#%#&#+ + + + + &#*#=#-#;#>#,#'#)#+ + + + + . # !#~#{#]#+ + + ^#/#^#(#'#_#:#:#<#",
"[#}#}#|#1#2#3#4#1## # # # # # # # # # # # # # # # # # # # # # # # # # # # # # # # # # # # # # # # # # # # # # # # # # # # # # # "};
