/* XPM */
static char * calci1_xpm[] = {
"64 64 265 2",
"  	c None",
". 	c #AD707B",
"+ 	c #C39490",
"@ 	c #D1B1A5",
"# 	c #6E5967",
"$ 	c #B77F83",
"% 	c #DCCABE",
"& 	c #E33417",
"* 	c #FEFFFF",
"= 	c #EA5D50",
"- 	c #E32816",
"; 	c #FDFFFE",
"> 	c #DF2D16",
", 	c #752E12",
"' 	c #CA5618",
") 	c #E42816",
"! 	c #F3641B",
"~ 	c #9C4B16",
"{ 	c #EC5C4F",
"] 	c #EF463C",
"^ 	c #E84B3C",
"/ 	c #E8553D",
"( 	c #B32F15",
"_ 	c #EE2D17",
": 	c #CA7750",
"< 	c #942E14",
"[ 	c #89513A",
"} 	c #EB2215",
"| 	c #E02B16",
"1 	c #5E3913",
"2 	c #EE2F17",
"3 	c #C39390",
"4 	c #732F13",
"5 	c #D03F18",
"6 	c #E32916",
"7 	c #EC2215",
"8 	c #6E3213",
"9 	c #873714",
"0 	c #EF3017",
"a 	c #CB483B",
"b 	c #C4644F",
"c 	c #E62715",
"d 	c #F05119",
"e 	c #A43814",
"f 	c #EF3117",
"g 	c #FA681B",
"h 	c #DA3416",
"i 	c #F05219",
"j 	c #F3631A",
"k 	c #EF2F17",
"l 	c #EB2A16",
"m 	c #C52715",
"n 	c #C1908E",
"o 	c #C2938F",
"p 	c #DD2F17",
"q 	c #E12A16",
"r 	c #F7671C",
"s 	c #EA2616",
"t 	c #FDFEFE",
"u 	c #D43316",
"v 	c #E86850",
"w 	c #E73017",
"x 	c #F8681C",
"y 	c #8F3E15",
"z 	c #E23D17",
"A 	c #F99A21",
"B 	c #FA9F1F",
"C 	c #806570",
"D 	c #8C6E75",
"E 	c #745D6A",
"F 	c #FEFEFE",
"G 	c #EC3218",
"H 	c #FB681B",
"I 	c #F6641B",
"J 	c #F1641A",
"K 	c #F9A61D",
"L 	c #F29F21",
"M 	c #FAA11E",
"N 	c #FB9C1F",
"O 	c #F8791E",
"P 	c #FCE3DE",
"Q 	c #C1918E",
"R 	c #9E4C3A",
"S 	c #F9681C",
"T 	c #DF9224",
"U 	c #FB8459",
"V 	c #EA6650",
"W 	c #E22916",
"X 	c #F15519",
"Y 	c #EE3217",
"Z 	c #FB9C20",
"` 	c #F2A120",
" .	c #F19F22",
"..	c #E52A16",
"+.	c #F9681B",
"@.	c #F4711D",
"#.	c #F39F21",
"$.	c #FADD18",
"%.	c #E69723",
"&.	c #F3B411",
"*.	c #F3D110",
"=.	c #F9A11F",
"-.	c #FA6B23",
";.	c #FDB9A0",
">.	c #F09E22",
",.	c #F8CA0C",
"'.	c #FADD17",
").	c #F4D412",
"!.	c #FCB094",
"~.	c #EB5C50",
"{.	c #E13617",
"].	c #F3D914",
"^.	c #FAE219",
"/.	c #FADE18",
"(.	c #F6DE39",
"_.	c #EFA33D",
":.	c #FBE555",
"<.	c #FAF7F3",
"[.	c #FA6A1B",
"}.	c #FCA789",
"|.	c #A84317",
"1.	c #EF621A",
"2.	c #F6661C",
"3.	c #FAE119",
"4.	c #FBDB16",
"5.	c #FBE219",
"6.	c #F8DD17",
"7.	c #FBE554",
"8.	c #F4F3F3",
"9.	c #F7DD38",
"0.	c #FC9E7C",
"a.	c #765F6B",
"b.	c #715B69",
"c.	c #6F5967",
"d.	c #7A3815",
"e.	c #C65618",
"f.	c #A44C15",
"g.	c #FBE319",
"h.	c #F4D914",
"i.	c #F3F3F3",
"j.	c #1E1303",
"k.	c #F7DB37",
"l.	c #F2DE7E",
"m.	c #BB8F8C",
"n.	c #FFFFFF",
"o.	c #8F3C16",
"p.	c #8B3916",
"q.	c #F3A021",
"r.	c #F3D312",
"s.	c #F5DA14",
"t.	c #E2C708",
"u.	c #F9E01A",
"v.	c #0A0601",
"w.	c #F7D534",
"x.	c #F2DD7D",
"y.	c #9B6450",
"z.	c #EA3018",
"A.	c #DC5B19",
"B.	c #FA6C1B",
"C.	c #F3B90A",
"D.	c #F6DF41",
"E.	c #FBE447",
"F.	c #FAFDFD",
"G.	c #F0D969",
"H.	c #FCB70D",
"I.	c #F9DC16",
"J.	c #F8DE18",
"K.	c #FBE654",
"L.	c #FAF8F3",
"M.	c #F6D533",
"N.	c #E9D13C",
"O.	c #EF4419",
"P.	c #FADE19",
"Q.	c #FADF19",
"R.	c #F8DF19",
"S.	c #F2D814",
"T.	c #FBDA15",
"U.	c #F3D432",
"V.	c #F0DA4E",
"W.	c #7B3815",
"X.	c #EB2115",
"Y.	c #ED2616",
"Z.	c #FAE019",
"`.	c #F8E01A",
" +	c #F0D513",
".+	c #EDB80C",
"++	c #F4D110",
"@+	c #EED431",
"#+	c #F1DC5D",
"$+	c #9B694F",
"%+	c #ED2416",
"&+	c #643613",
"*+	c #DD4217",
"=+	c #DE3E17",
"-+	c #F2D00E",
";+	c #EFDA67",
">+	c #ED2C16",
",+	c #E52816",
"'+	c #FBDC18",
")+	c #DF5F1D",
"!+	c #DD3B17",
"~+	c #E04418",
"{+	c #E04318",
"]+	c #E04518",
"^+	c #E4876A",
"/+	c #A13514",
"(+	c #E92615",
"_+	c #F15319",
":+	c #FBD914",
"<+	c #FBDB17",
"[+	c #F6DB15",
"}+	c #E89122",
"|+	c #E14A19",
"1+	c #EF7520",
"2+	c #E5701F",
"3+	c #F0AD7F",
"4+	c #D93516",
"5+	c #F8B909",
"6+	c #FCDA15",
"7+	c #F8DE17",
"8+	c #DF621D",
"9+	c #E55D1C",
"0+	c #ED7220",
"a+	c #FBD813",
"b+	c #FBDC17",
"c+	c #F7D813",
"d+	c #F2D114",
"e+	c #EED952",
"f+	c #AD8575",
"g+	c #AC7062",
"h+	c #EE9256",
"i+	c #FCDF3B",
"j+	c #FBDC27",
"k+	c #F4D814",
"l+	c #F9DC26",
"m+	c #FBDF3A",
"n+	c #FCE24E",
"o+	c #F8E562",
"p+	c #F4E586",
"q+	c #AC8485",
"r+	c #B38988",
"s+	c #B58A89",
"t+	c #C0928F",
"u+	c #B98D8B",
"v+	c #B28888",
"w+	c #AA8284",
"x+	c #AB8384",
"y+	c #AD8485",
"z+	c #B18887",
"A+	c #B68B8A",
"B+	c #C1928F",
"C+	c #A66E79",
"D+	c #B88D8B",
"E+	c #BB8E8C",
"F+	c #C1938F",
"G+	c #BC8F8D",
"H+	c #BC8F8C",
"I+	c #B48989",
"J+	c #BA8E8C",
"K+	c #B48A89",
"L+	c #6F5A68",
"M+	c #6F5A67",
"N+	c #705B68",
"O+	c #765E6B",
"P+	c #725B69",
". + + + + @ @ @ @ @ + + @ + + + + + + + + + + + + + + + + + . # . + + + + @ @ @ @ @ + + @ + + + + + + + + + + + + + + + + + . # ",
"+ + + + + + + + + + + + + + + + + + + + + + + + + + + + + + + # + + + + + + + + + + + + + + + + + + + + + + + + + + + + + + + # ",
"+ + + + + + + + + + + + + + + + + + + + . + . . . . . + + # # # + + + + + + + + + + + + + + + + + + + + . + . . . . . + + # # # ",
"+ + + + + + + + + + + + + + + + + + + + + @ + @ @ @ + + + + $ # + + + + + + + + + + + + + + + + + + + + + @ + @ @ @ + + + + $ # ",
"+ + + + + + + + + + + + + + + + + + + + + + + + + + + + + + + # + + + + + + + + + + + + + + + + + + + + + + + + + + + + + + + # ",
"+ + + + + + + + + + + + + + + + + + + + + + + + + + + + + + + # + + + + + + + + + + + + + + + + + + + + + + + + + + + + + + + # ",
". + + + + + + + + + + + + + + + + + + + + + + + + + + + + + . # . + + + + + + + + + + + + + + + + + + + + + + + + + + + + + . # ",
"# # # # # # # # # # # # # # # # # # # # # # # # # # # # # # # # # # # # # # # # # # # # # # # # # # # # # # # # # # # # # # # # ",
"@ @ @ + + + + + + + + + + + . # . + + + @ + @ @ @ @ @ + + + + + @ @ @ + + + + + + + + + + + . # . + + + @ + @ @ @ @ @ + + + + + ",
"+ + + + + + + + + + + + + + + # + + + + + + + + + + + + + + + + + + + + + + + + + + + + + + + # + + + + + + + + + + + + + + + + ",
"+ + + + + + + . . + . + + # # # + + + + + + + + + + + + + + + + + + + + + + + . . + . + + # # # + + + + + + + + + + + + + + + + ",
"+ + + + + + @ + @ @ + + + + $ # + + + + + + + + + + + + + + + + + + + + + + @ + @ @ + + + + $ # + + + + + + + + + + + + + + + + ",
"+ + + + + + + + + + + + + + + # + + + + + + + + + + + + + + + + + + + + + + + + + + + + + + + # + + + + + + + + + + + + + + + + ",
"+ + + + + + + + + + + + + + + # + + + + + + + + + + + + + + + + + + + + + + + + + + + + + + + # + + + + + + + + + + + + + + + + ",
"+ + + + + + + + + + + + + + . # . + + + + + + + + + + + + + + + + + + + + + + + + + + + + + . # . + + + + + + + + + + + + + + + ",
"# # # # # # # # # # # # # # # # # # # # # # # # # # # # # # # # # # # # # # # # # # # # # # # # # # # # # # # # # # # # # # # # ",
". + + + @ + @ @ % % % @ + @ @ + + + + + + + + + + + + + + + . # . + + + @ + @ @ % % % @ + @ @ + + + + + + + + + + + + + + + . # ",
"+ + + + + + + + + + + + + + + + + + + + + + + + + + + + + + + # + + + + + + + + + + + + + + + + + + + + + + + + + + + + + + + # ",
"+ + + + + + + + + + + + + + + + + + + + + + + + + + & + + + + # + + + + + + + + + + + + + + + + + + + + + + + + + + + + + + + # ",
"+ + + + + + + + + + + + + + + + + + + + + + + + + * & + + + $ # + + + + + + + + + + + + + + + + + + + + + + + + + + + + + + $ # ",
"+ + + + + + + + + + + + + + + + + + + + + + . . + = - ; # # # # + + + + + + + + + + + + + + + + + + + + + + . . + . + # # # # # ",
"+ + + + + + + + + + + + + + + + + + + + + + + + @ - - > + + + # + + + + + + + + + + + + + + + + + + + + + + + + @ + @ @ + + + # ",
". + + + + + + + + + + + + + + + + + + + + + + + + = - * + + , # . + + ' + + + + + + + + + + + + + + + + + + + + + + + + + + . # ",
"# # # # # # # # # # # # # # # # # # # # # # # # # # - # # # ) * # # * ! # # - # # # # # # # # # # # # # # # # # # # # # # # # # ",
"+ + + + + + + + + + + + + + . # . + + + - * @ @ @ % % % @ @ - - * * ~ ! ; + { ] + + + + + + . # . + + + @ + @ @ @ % % % @ @ + + ",
"+ + + + + + + + + + + + + + + # + + + + ^ - / + + + + + + + - - - ( _ ! : + + < + + + + + + + # + + + + + + + + + + + + + + + + ",
"+ + + + . . . + + . + + # # # # + + + + * - & / + - [ + ! + } - | 1 - 2 ! + + + + 3 + + + + + # + + + + + + + + + + + + + + + + ",
"+ + + + + @ + + + @ @ + @ + $ # + + + + + 4 5 & + 6 7 8 ! 9 - - 0 - - - - + a - + + + + + + + # + + + + + + + + + + + + + + + + ",
"+ + + + + + + + + + + + + + + # + + + + + + + + + b - 7 c d 7 e f - - g - h - i + + + + + + + # + + + + + + + + + + + + + + + + ",
"+ + + + + + + + + + + + + + + # + + + + + + & + + ; - - - 7 7 j k ) l g m - ) ! * + + + + + + # + + + + + + + + + + + + + + + + ",
"+ + + + + + + + + + + + + + . # . + + + n o & & + + p ! 7 - q g r ! ! ! ! s j ! t + + n + + . # . + + + + + + + + + + + + + + + ",
"# # # # # # # # # # # # # # # # # # # # u # v w - # ) x y 7 z 0 A ! ! ! ! g j B ! C D E # # # # # # # # # # # # # # # # # # # # ",
". + + + + @ @ @ @ @ + + @ + + + + + + - - * F G - - - H g ) I J K ! L j r M N O g P o Q + + + + + + + + + + + + + + + + + + . # ",
"+ + + + + + + + + + + + + + + + + + + + R - + & - ! - S g g r T L K L L L M M ! g U + + + + + + + + + + + + + + + + + + + + + # ",
"+ + + + + + + + + + + + + + + + + + + + + + + V W X - Y H Z r L L L `  .L M M ! g U F + + + + + + + + + . + . . . . . + + # # # ",
"+ + + + + + + + + + + + + + + + + + + + - + + F W ..+.- g M @.#.L L $.%.&.*.=.M g -.;.+ + + + + + + + + + @ + @ @ @ + + + + $ # ",
"+ + + + + + + + + + + + + + + + + + + + + - V + W - g g g M L L $.>.$.,.'.).L #.! +.!.+ + + + + + + + + + + + + + + + + + + + # ",
"+ + + + + + + + + + + + + + + + + + + + + ~.{.& - - g #.T L $.].^./.].$.$.(._.:.<.[.}.+ + + + + + + + + + + + + + + + + + + + # ",
". + + + + + + + + + + + + + + + + + + + + * |.& _ - 1.2.L L 3.4.5.5.6.3.$.(.7.8.<.9.0.Q + + + + + + + + + + + + + + + + + + . # ",
"# # # # # # # # # # # # # # # # # # # a.b.c.d.& e._ f.! L ).5.^.g.^.^.$.h.:.8.i.j.k.l.# # # # # # # # # # # # # # # # # # # # # ",
"@ @ @ + + + + + + + + + + + . # . + + + m.n.o.p.e.- ! g q.r.s.t.u.g.^.$.].7.8.i.v.w.x.+ + + . # . + + + @ + @ @ @ @ @ + + + + + ",
"+ + + + + + + + + + + + + + + # + + + + + y.z.& A.- B.M L C.s.s.h.].h.].].D.E.F.<.w.G.+ + + + # + + + + + + + + + + + + + + + + ",
"+ + + + + + + . . + . + + # # # + + + + + + d.G k - A M H.L I.^.].J.].].].].].K.L.M.N.+ + + + # + + + + + + + + + + + + + + + + ",
"+ + + + + + @ + @ @ + + + + $ # + + + + + + F w 7 O.! M P.Q.` R.].].^.].].].S.].T.U.V.+ # # # # + + + + + + + + + + + + + + + + ",
"+ + + + + + + + + + + + + + + # + + + + + + + W.X.Y.! g M 5.Z.5.`. +^.].]..+].].++@+#++ + + $ # + + + + + + + + + + + + + + + + ",
"+ + + + + + + + + + + + + + + # + + + + + + + $+- %+&+g x Q.5.g.g.^.].].].*+=+=+-+@+;++ + + + # + + + + + + + + + + + + + + + + ",
"+ + + + + + + + + + + + + + . # . + + + + + + + 4 - >+,++.'+$.3.^.h.3.].)+!+~+~+{+]+^++ + + . # . + + + + + + + + + + + + + + + ",
"# # # # # # # # # # # # # # # # # # # # # # # # * /+(+_+! :+<+$.^.[+].^.}+!+|+1+1+2+3+# # # # # # # # # # # # # # # # # # # # # ",
". + + + @ + @ @ % % % @ + @ @ + + + + + + + + + + 4 4+- 5+Z.:+$.5.5.6+Q.7+8+9+0+1+2+% @ + @ @ + + + + + + + + + + + + + + + . # ",
"+ + + + + + + + + + + + + + + + + + + + + + + + + + * - - a+Z.3.5.Q.b+5.b+c+:+d+e++ + + + + + + + + + + + + + + + + + + + + + # ",
"+ + + + + + + + + + + + + + + + + + + + + + + + + + + + f+g+h+i+j+k+l+m+n+o+p+* + + + + + + + + + + + + + + + + + + + + + + + # ",
"+ + + + + + + + + + + + + + + + + + + + + + + + + + + + + + $ # + + + + + + + + + + + + + + + + + + + + + + + + + + + + + + $ # ",
"+ + + + + + + + + + + + + + + + + + + + + + . . + . + # # # # # + + + + + + + + + + + + + + + + + + + + + + . . + . + # # # # # ",
"+ + + + + + + + + + + + + + + + + + + + + + + + @ + @ @ + + + # + + + + + + + + + + + + + + + + + + + + + + + + @ + @ @ + + + # ",
". + + + + + + + + + + + + + + + + + + + + + + + + + + + + + . # . + + + + + + + + + + + + + + + + + + + + + + + + + + + + + . # ",
"# # # # # # # # # # # # # # # # # # # # # # # # # # # # # # # # # # # # # # # # # # # # # # # # # # # # # # # # # # # # # # # # ",
"+ + + + + + + + + + + + + + . # . + + + @ + @ @ @ % % % @ @ + + + + + + + + + + + + + + + + . # . + + + @ + @ @ @ % % % @ @ + + ",
"+ + + + + + + + + + + + + + + # + + + + + + + + + + + + + + + + + + + + + + + + + + + + + + + # + + + + + + + + + + + + + + + + ",
"+ + + + . . . + + . + + # # # # + + + + + + + + + + + + + + + + + + + + . . . + + . + + # # # # + + + + + + + + + + + + + + + + ",
"+ + + + + @ + + + @ @ + @ + $ # + + + + + + + + + + + + + + + + + + + + + @ + + + @ @ + @ + $ # + + + + + + + + + + + + + + + + ",
"+ + + + + + + + + + + + + + + # + + + + + + + + + + + + + + + + + + + + + + + + + + + + + + + # + + + + + + + + + + + + + + + + ",
"+ + + + + + + + + + + + + + + # + + + + + + + + + + + + + + + + + + + + + + + + + + + + + + + # + + + + + + + + + + + + + + + + ",
"+ + + + + + + + + + + + + + . # . + + + + + o q+r+s+t++ + + + + t+u+v+w+x+y+z+A+B++ + + + + . # C+D+E+F++ + + G+m.G+H+A+I+J+J+K+",
"b.c.c.L+M+N+O+P+M+# # # # # # # # # # # # # # # # # # # # # # # # # # # # # # # # # # # # # # # # # # # # # # # # # # # # # # # "};
