/* XPM */
static char *dummy[]={
"64 64 98 2",
"#B c #6e5967",
"#r c #6e5967",
"#A c #6e5967",
"#D c #6e5967",
"#C c #6e5967",
"#l c #725b69",
"#F c #6e5967",
"#z c #6e5967",
"#x c #6e5967",
"#E c #6e5967",
"#y c #6e5967",
"#q c #6e5967",
"#w c #6e5967",
"#v c #6e5967",
"#u c #6e5967",
"#m c #6f5a67",
"#s c #6e5967",
"#t c #6e5967",
"#k c #765e6b",
"#n c #6e5967",
"#o c #6e5967",
"#p c #6e5967",
".o c #21181b",
".r c #22191c",
".q c #23191d",
".t c #24191c",
".s c #24191d",
".u c #241a1d",
".p c #241a1e",
".x c #251a1d",
".v c #291c1f",
".w c #2a1d20",
".A c #2a1e24",
".y c #2b1d21",
".z c #2c1e23",
".J c #352329",
".I c #38242c",
".G c #382631",
".H c #3a262d",
".T c #3b2027",
".D c #3d2936",
".O c #404973",
".K c #412932",
".L c #4e313c",
".F c #50323e",
".M c #51333e",
".E c #52333f",
".P c #686f99",
".b c #6e5967",
"#g c #6f5967",
"#i c #6f5a67",
"#h c #6f5a68",
"#j c #705b68",
"#f c #715b69",
".V c #7d3833",
".C c #8f4d57",
".9 c #a66e79",
".3 c #aa8284",
".U c #ab5130",
".4 c #ab8384",
".X c #ac8485",
"Qt c #ad707b",
".5 c #ad8485",
".6 c #b18887",
".2 c #b28888",
".Y c #b38988",
"#c c #b48989",
"#e c #b48a89",
".Z c #b58a89",
".7 c #b68b8a",
".c c #b77f83",
"#. c #b88d8b",
".f c #b98c89",
".1 c #b98d8b",
"#d c #ba8e8c",
".e c #bb8e8a",
"## c #bb8e8c",
"#b c #bb8f8c",
".g c #bc8e8a",
".m c #bc8f8b",
".n c #bc8f8c",
"#a c #bc8f8d",
".N c #bd6a62",
".i c #bd8f8c",
".l c #be908c",
".h c #bf918d",
".d c #c0928e",
".0 c #c0928f",
".8 c #c1928f",
".j c #c1938f",
".W c #c2938f",
".k c #c29490",
".# c #c39490",
".Q c #cf752b",
".a c #d1b1a5",
".B c #dccabe",
".S c #f0b541",
".R c #ffee83",
"Qt.#.#.#.#.a.a.a.a.a.#.#.a.#.#.#.#.#.#.#.#.#.#.#.#.#.#.#.#.#Qt.bQt.#.#.#.#.a.a.a.a.a.#.#.a.#.#.#.#.#.#.#.#.#.#.#.#.#.#.#.#.#Qt.b",
".#.#.#.#.#.#.#.#.#.#.#.#.#.#.#.#.#.#.#.#.#.#.#.#.#.#.#.#.#.#.#.b.#.#.#.#.#.#.#.#.#.#.#.#.#.#.#.#.#.#.#.#.#.#.#.#.#.#.#.#.#.#.#.b",
".#.#.#.#.#.#.#.#.#.#.#.#.#.#.#.#.#.#.#.#Qt.#QtQtQtQtQt.#.#.b.b.b.#.#.#.#.#.#.#.#.#.#.#.#.#.#.#.#.#.#.#.#Qt.#QtQtQtQtQt.#.#.b.b.b",
".#.#.#.#.#.#.#.#.#.#.#.#.#.#.#.#.#.#.#.#.#.a.#.a.a.a.#.#.#.#.c.b.#.#.#.#.#.#.#.#.#.#.#.#.#.#.#.#.#.#.#.#.#.a.#.a.a.a.#.#.#.#.c.b",
".#.#.#.#.#.#.#.#.#.#.#.#.#.#.#.#.#.#.#.#.#.#.#.#.#.#.#.#.#.#.#.b.#.#.#.#.#.#.#.#.#.#.#.#.#.#.#.#.#.#.#.#.#.#.#.#.#.#.#.#.#.#.#.b",
".#.#.#.#.#.#.#.#.#.#.#.#.#.#.#.#.#.#.#.#.#.#.#.#.#.#.#.#.#.#.#.b.#.#.#.#.#.#.#.#.#.#.#.#.#.#.#.#.#.#.#.#.#.#.#.#.#.#.#.#.#.#.#.b",
"Qt.#.#.#.#.#.#.#.#.#.#.#.#.#.#.#.#.#.#.#.#.#.#.#.#.#.#.#.#.#Qt.bQt.#.#.#.#.#.#.#.#.#.#.#.#.#.#.#.#.#.#.#.#.#.#.#.#.#.#.#.#.#Qt.b",
".b.b.b.b.b.b.b.b.b.b.b.b.b.b.b.b.b.b.b.b.b.b.b.b.b.b.b.b.b.b.b.b.b.b.b.b.b.b.b.b.b.b.b.b.b.b.b.b.b.b.b.b.b.b.b.b.b.b.b.b.b.b.b.b",
".a.a.a.#.#.#.#.#.#.#.#.#.#.#Qt.bQt.#.#.#.a.#.a.a.a.a.a.#.#.#.#.#.a.a.a.#.#.#.#.#.#.#.#.#.#.#Qt.bQt.#.#.#.a.#.a.a.a.a.a.#.#.#.#.#",
".#.#.#.#.#.#.#.#.#.#.#.#.#.#.#.b.#.#.#.#.#.#.#.#.#.#.#.#.#.#.#.#.#.#.#.#.#.#.#.#.#.#.#.#.#.#.#.b.#.#.#.#.#.#.#.#.#.#.#.#.#.#.#.#",
".#.#.#.#.#.#.#QtQt.#Qt.#.#.b.b.b.#.#.#.#.#.#.#.#.#.#.#.#.#.#.#.#.#.#.#.#.#.#.#QtQt.#Qt.#.#.b.b.b.#.#.#.#.#.#.#.#.#.#.#.#.#.#.#.#",
".#.#.#.#.#.#.a.#.a.a.#.#.#.#.c.b.#.#.#.#.#.#.#.#.#.#.#.#.#.#.#.#.#.#.#.#.#.#.a.#.a.a.#.#.#.#.c.b.#.#.#.#.#.#.#.#.#.#.#.#.#.#.#.#",
".#.#.#.#.#.#.#.#.#.#.#.#.#.#.#.b.#.#.#.#.#.#.#.#.#.#.#.#.#.#.#.#.#.#.#.#.#.#.#.#.#.#.#.#.#.#.#.b.#.#.#.#.#.#.#.#.#.#.#.#.#.#.#.#",
".#.#.#.#.#.#.#.#.#.#.#.#.#.#.#.b.#.#.#.#.#.#.#.#.#.#.#.#.#.#.#.#.#.#.#.#.#.#.#.#.#.#.#.#.#.#.#.b.#.#.#.#.#.#.#.#.#.#.#.#.#.#.#.#",
".#.#.#.#.#.#.#.#.#.#.#.#.#.#Qt.bQt.#.#.#.#.#.#.d.e.f.g.h.h.i.j.#.k.l.m.j.j.#.d.n.#.#.#.#.#.#Qt.bQt.#.#.#.#.#.#.#.#.#.#.#.#.#.#.#",
".b.b.b.b.b.b.b.b.b.b.b.b.b.b.b.b.b.b.b.b.b.b.b.o.p.q.r.s.t.t.p.r.u.v.w.x.x.y.z.A.o.b.b.b.b.b.b.b.b.b.b.b.b.b.b.b.b.b.b.b.b.b.b.b",
"Qt.#.#.#.a.#.a.a.B.B.B.a.#.a.a.#.#.#.#.#.#.o.o.o.C.D.E.E.E.E.F.G.H.I.J.K.L.M.D.E.o.o.o.a.#.a.a.#.#.#.#.#.#.#.#.#.#.#.#.#.#.#Qt.b",
".#.#.#.#.#.#.#.#.#.#.#.#.#.#.#.#.#.#.#.#.o.E.E.D.E.C.D.D.D.D.D.D.D.D.D.D.D.D.C.E.D.E.E.o.#.#.#.#.#.#.#.#.#.#.#.#.#.#.#.#.#.#.#.b",
".#.#.#.#.#.#.#.#.#.#.#.#.#.#.#.#.#.#.#.o.D.E.C.D.D.E.D.C.C.C.C.C.C.E.D.C.C.C.E.D.D.C.E.D.o.#.#.#.#.#.#.#.#.#.#.#.#.#.#.#.#.#.#.b",
".#.#.#.#.#.#.#.#.#.#.#.#.#.#.#.#.#.o.o.E.D.N.C.D.C.D.D.E.E.E.E.E.E.E.D.E.E.E.D.D.D.C.N.D.E.o.o.#.#.#.#.#.#.#.#.#.#.#.#.#.#.#.c.b",
".#.#.#.#.#.#.#.#.#.#.#.#.#.#.#.#.o.E.N.E.D.N.C.D.C.C.D.D.D.D.D.D.D.D.D.D.D.D.E.D.D.C.N.D.C.N.E.o.#.#.#.#.#.#QtQt.#Qt.#.b.b.b.b.b",
".#.#.#.#.#.#.#.#.#.#.#.#.#.#.#.#.o.E.N.C.D.N.C.N.E.C.C.C.C.C.E.D.C.C.C.C.C.C.E.D.N.C.N.D.C.N.E.o.#.#.#.#.#.#.#.#.a.#.a.a.#.#.#.b",
"Qt.#.#.#.#.#.#.#.#.#.#.#.#.#.#.#.o.E.N.C.D.N.C.C.N.E.E.E.E.E.E.D.E.E.E.E.E.E.E.N.C.C.N.D.C.N.E.o.#.#.#.#.#.#.#.#.#.#.#.#.#.#Qt.b",
".b.b.b.b.b.b.b.b.b.b.b.b.b.b.b.b.o.E.N.C.D.N.C.C.C.N.N.N.N.N.N.N.N.N.N.N.N.N.N.C.C.C.N.D.C.N.E.o.b.b.b.b.b.b.b.b.b.b.b.b.b.b.b.b",
".#.#.#.#.#.#.#.#.#.#.#.#.#.#Qt.b.o.E.N.C.D.N.C.C.C.C.C.C.C.C.C.C.C.C.C.C.C.C.C.C.C.C.N.D.C.N.E.oQt.#.#.#.a.#.a.a.a.B.B.B.a.a.#.#",
".#.#.#.#.#.#.#.#.#.#.#.#.#.#.#.b.o.E.N.N.D.N.N.N.N.N.C.C.N.N.N.C.C.C.N.C.C.N.N.N.N.N.N.D.N.N.E.o.#.#.#.#.#.#.#.#.#.#.#.#.#.#.#.#",
".#.#.#.#QtQtQt.#.#Qt.#.#.b.b.b.b.o.E.N.E.E.D.D.D.D.D.D.D.D.D.D.D.D.D.D.D.D.D.D.D.D.D.D.E.E.N.E.o.#.#.#.#.#.#.#.#.#.#.#.#.#.#.#.#",
".#.#.#.#.#.a.#.#.#.a.a.#.a.#.c.b.o.N.E.D.D.C.C.C.C.C.E.D.C.C.C.C.C.C.E.D.C.C.C.C.C.C.C.D.D.E.N.o.#.#.#.#.#.#.#.#.#.#.#.#.#.#.#.#",
".#.#.#.#.#.#.#.#.#.#.#.#.#.#.#.b.o.E.D.E.E.E.E.E.E.E.E.D.E.E.E.E.E.E.E.D.E.E.E.E.E.E.E.E.E.D.E.o.#.#.#.#.#.#.#.#.#.#.#.#.#.#.#.#",
".#.#.#.#.#.#.#.#.#.#.#.#.#.#.#.b.o.D.D.D.D.D.D.D.D.D.D.D.D.D.D.D.D.D.D.D.D.D.D.D.D.D.D.D.D.D.D.o.#.#.#.#.#.#.#.#.#.#.#.#.#.#.#.#",
".#.#.#.#.#.#.#.#.#.#.#.#.#.#Qt.b.o.C.C.C.C.C.C.E.D.C.C.C.C.C.C.C.D.C.C.C.C.C.C.E.D.C.C.C.C.C.E.oQt.#.#.#.#.#.#.#.#.#.#.#.#.#.#.#",
".b.b.b.b.b.b.b.b.b.b.b.b.b.b.b.b.o.E.E.E.E.E.E.E.D.E.E.E.E.o.o.o.o.o.o.E.E.E.E.E.D.E.E.E.E.E.E.o.b.b.b.b.b.b.b.b.b.b.b.b.b.b.b.b",
"Qt.#.#.#.#.a.a.a.a.a.#.#.a.#.#.#.o.D.D.D.D.D.D.D.D.D.o.o.o.D.D.D.D.D.o.o.o.o.D.D.D.D.D.D.D.D.D.o.#.#.#.#.#.#.#.#.#.#.#.#.#.#Qt.b",
".#.#.#.#.#.#.#.#.#.#.#.#.#.#.#.#.o.C.C.C.C.C.C.E.o.o.o.o.o.o.o.o.o.o.o.o.o.o.o.o.C.C.C.C.D.C.C.o.#.#.#.#.#.#.#.#.#.#.#.#.#.#.#.b",
".#.#.#.#.#.#.#.#.#.#.#.#.#.#.#.#.o.E.E.E.E.E.E.o.E.E.E.E.D.o.E.E.E.E.E.E.D.o.E.E.o.E.E.E.D.E.E.o.#.#.#.#Qt.#QtQtQtQtQt.#.#.b.b.b",
".#.#.#.#.#.#.#.#.#.#.#.#.#.#.#.#.o.D.D.D.D.D.o.D.D.D.D.D.D.o.D.D.D.D.D.D.D.o.D.D.D.o.D.D.D.D.D.o.#.#.#.#.#.a.#.a.a.a.#.#.#.#.c.b",
".#.#.#.#.#.#.#.#.#.#.#.#.#.#.#.#.o.C.O.C.C.o.o.o.o.o.o.o.o.o.o.o.o.o.o.o.o.o.o.o.o.o.o.C.C.C.C.o.#.#.#.#.#.#.#.#.#.#.#.#.#.#.#.b",
".#.#.#.#.#.#.#.#.#.#.#.#.#.#.#.#.o.E.P.E.E.o.E.E.E.D.o.E.E.E.E.E.E.D.o.E.E.E.E.E.E.D.o.E.E.E.E.o.#.#.#.#.#.#.#.#.#.#.#.#.#.#.#.b",
"Qt.#.#.#.#.#.#.#.#.#.#.#.#.#.#.#.o.D.P.D.o.D.D.D.D.D.o.D.D.D.D.D.D.D.o.D.D.D.D.D.D.D.o.o.D.D.D.o.#.#.#.#.#.#.#.#.#.#.#.#.#.#Qt.b",
".b.b.b.b.b.b.b.b.b.b.b.b.b.b.b.b.o.C.P.C.o.o.o.o.o.o.o.o.o.o.o.o.o.o.o.o.o.o.o.o.o.o.o.o.D.C.C.o.b.b.b.b.b.b.b.b.b.b.b.b.b.b.b.b",
".a.a.a.#.#.#.#.#.#.#.#.#.#.#Qt.b.o.E.P.E.o.o.E.E.E.E.E.Q.D.o.E.E.E.R.E.E.D.o.E.E.E.E.D.o.D.E.E.oQt.#.#.#.a.#.a.a.a.a.a.#.#.#.#.#",
".#.#.#.#.#.#.#.#.#.#.#.#.#.#.#.b.o.D.P.D.o.o.D.D.D.Q.D.D.D.o.D.D.D.D.D.D.D.o.D.D.R.D.D.o.D.D.D.o.#.#.#.#.#.#.#.#.#.#.#.#.#.#.#.#",
".#.#.#.#.#.#.#QtQt.#Qt.#.#.b.b.b.o.C.P.C.o.o.o.o.o.S.Q.o.o.o.o.o.o.Q.o.o.o.o.o.o.o.o.o.o.C.C.C.o.#.#.#.#.#.#.#.#.#.#.#.#.#.#.#.#",
".#.#.#.#.#.#.a.#.a.a.#.#.#.#.c.b.o.E.P.E.o.E.E.E.E.S.S.E.E.E.E.E.Q.Q.o.E.E.E.E.Q.E.D.o.o.E.E.E.o.#.#.#.#.#.#.#.#.#.#.#.#.#.#.#.#",
".#.#.#.#.#.#.#.#.#.#.#.#.#.#.#.b.o.D.P.D.o.D.D.D.Q.D.o.D.D.D.D.D.D.D.o.Q.D.D.D.D.D.D.o.o.D.D.D.o.#.#.#.#.#.#.#.#.#.#.#.#.#.#.#.#",
".#.#.#.#.#.#.#.#.#.#.#.#.#.#.#.b.o.C.P.C.o.o.o.o.Q.Q.Q.Q.o.o.Q.Q.Q.Q.o.Q.S.S.Q.Q.Q.o.o.o.D.C.C.o.#.#.#.#.#.#.#.#.#.#.#.#.#.#.#.#",
".#.#.#.#.#.#.#.#.#.#.#.#.#.#Qt.b.o.E.P.E.o.T.T.T.U.Q.S.Q.U.U.Q.Q.S.Q.Q.Q.R.R.S.Q.Q.E.E.o.D.E.E.oQt.#.#.#.#.#.#.#.#.#.#.#.#.#.#.#",
".b.b.b.b.b.b.b.b.b.b.b.b.b.b.b.b.o.O.P.O.o.E.T.U.V.V.S.S.V.Q.Q.V.S.T.V.V.Q.R.R.S.V.Q.E.o.D.D.D.o.b.b.b.b.b.b.b.b.b.b.b.b.b.b.b.b",
"Qt.#.#.#.a.#.a.a.B.B.B.a.#.a.a.#.o.O.P.O.o.E.o.T.V.V.R.R.S.Q.U.V.R.Q.V.V.V.V.V.U.V.U.T.o.C.C.C.o.#.#.#.#.#.#.#.#.#.#.#.#.#.#Qt.b",
".#.#.#.#.#.#.#.#.#.#.#.#.#.#.#.#.o.O.O.O.o.T.o.T.T.T.Q.R.R.Q.o.Q.R.R.T.Q.R.S.T.o.V.o.T.o.E.E.E.o.#.#.#.#.#.#.#.#.#.#.#.#.#.#.#.b",
".#.#.#.#.#.#.#.#.#.#.#.#.#.#.#.#.o.P.P.P.o.E.T.o.P.T.Q.R.R.T.T.Q.P.R.T.Q.R.Q.Q.P.o.T.E.o.D.D.D.o.#.#.#.#.#.#.#.#.#.#.#.#.#.#.#.b",
".#.#.#.#.#.#.#.#.#.#.#.#.#.#.#.#.o.C.P.C.o.E.E.P.O.O.O.O.O.O.O.O.O.O.O.O.O.O.O.O.P.T.E.o.D.C.C.o.#.#.#.#.#.#.#.#.#.#.#.#.#.#.c.b",
".#.#.#.#.#.#.#.#.#.#.#.#.#.#.#.#.o.E.E.E.o.E.T.T.T.T.T.T.T.T.T.T.T.T.T.T.T.T.T.T.T.o.T.o.D.E.E.o.#.#.#.#.#.#QtQt.#Qt.#.b.b.b.b.b",
".#.#.#.#.#.#.#.#.#.#.#.#.#.#.#.#.o.D.D.D.o.o.o.o.o.o.o.o.o.o.o.o.o.o.o.o.o.o.o.o.o.o.o.o.D.D.D.o.#.#.#.#.#.#.#.#.a.#.a.a.#.#.#.b",
"Qt.#.#.#.#.#.#.#.#.#.#.#.#.#.#.#.o.C.C.C.C.C.C.E.D.C.C.C.C.C.C.E.D.C.C.C.C.C.C.E.D.C.C.C.C.C.E.o.#.#.#.#.#.#.#.#.#.#.#.#.#.#Qt.b",
".b.b.b.b.b.b.b.b.b.b.b.b.b.b.b.b.o.E.E.E.E.E.E.E.D.E.E.E.E.E.E.E.D.E.E.E.E.E.E.E.D.E.E.E.E.E.E.o.b.b.b.b.b.b.b.b.b.b.b.b.b.b.b.b",
".#.#.#.#.#.#.#.#.#.#.#.#.#.#Qt.bQt.o.o.o.o.o.o.o.o.o.o.o.o.o.o.o.o.o.o.o.o.o.o.o.o.o.o.o.o.o.o.bQt.#.#.#.a.#.a.a.a.B.B.B.a.a.#.#",
".#.#.#.#.#.#.#.#.#.#.#.#.#.#.#.b.#.#.#.#.#.#.#.#.#.#.#.#.#.#.#.#.#.#.#.#.#.#.#.#.#.#.#.#.#.#.#.b.#.#.#.#.#.#.#.#.#.#.#.#.#.#.#.#",
".#.#.#.#QtQtQt.#.#Qt.#.#.b.b.b.b.#.#.#.#.#.#.#.#.#.#.#.#.#.#.#.#.#.#.#.#QtQtQt.#.#Qt.#.#.b.b.b.b.#.#.#.#.#.#.#.#.#.#.#.#.#.#.#.#",
".#.#.#.#.#.a.#.#.#.a.a.#.a.#.c.b.#.#.#.#.#.#.#.#.#.#.#.#.#.#.#.#.#.#.#.#.#.a.#.#.#.a.a.#.a.#.c.b.#.#.#.#.#.#.#.#.#.#.#.#.#.#.#.#",
".#.#.#.#.#.#.#.#.#.#.#.#.#.#.#.b.#.#.#.#.#.#.#.#.#.#.#.#.#.#.#.#.#.#.#.#.#.#.#.#.#.#.#.#.#.#.#.b.#.#.#.#.#.#.#.#.#.#.#.#.#.#.#.#",
".#.#.#.#.#.#.#.#.#.#.#.#.#.#.#.b.#.#.#.#.#.#.#.#.#.#.#.#.#.#.#.#.#.#.#.#.#.#.#.#.#.#.#.#.#.#.#.b.#.#.#.#.#.#.#.#.#.#.#.#.#.#.#.#",
".#.#.#.#.#.#.#.#.#.#.#.#.#.#Qt.bQt.#.#.#.#.#.W.X.Y.Z.0.#.#.#.#.#.0.1.2.3.4.5.6.7.8.#.#.#.#.#Qt.b.9#.##.j.#.#.##a#b#a.n.7#c#d#d#e",
"#f#g#g#h#i#j#k#l#m#n#o#p#n#n#q#r#s#o.b#n#t#p.b#p#p#u#t#p#o#n#t#p#p#v#s#w#x#y#q#y#z#A#r#B#u#p.b.b.b#p#p#o#t#C#D#E#F#F#w#t#t#t#s#s"};
