/* XPM */
static char *dummy[]={
"64 64 126 2",
"#s c #c39490",
".x c #6e5967",
"#l c #6e5967",
"#k c #6f5a67",
".5 c #c2938f",
"#Y c #6e5967",
"## c #6e5967",
"#3 c #6e5967",
"#5 c #6e5967",
"#c c #6e5967",
".u c #c29390",
"#a c #6e5967",
".4 c #c39390",
"#4 c #6e5967",
"#. c #6f5a67",
".6 c #c39390",
".1 c #c39490",
"#S c #725b69",
"#7 c #6e5967",
"#2 c #6e5967",
".n c #c2938f",
".t c #c39490",
"#b c #6e5967",
".2 c #c39490",
"#6 c #6e5967",
".8 c #715b69",
".v c #c39490",
"#1 c #6e5967",
".s c #c39490",
"#X c #6e5967",
"#f c #6f5a68",
".0 c #c39490",
".m c #c1908e",
".h c #c39490",
"#0 c #6e5967",
".7 c #c1908e",
".r c #c39490",
".k c #c39490",
"#e c #6e5967",
".9 c #6f5967",
".Y c #c39490",
"#Z c #6e5967",
"#T c #6f5a67",
"#r c #c2938f",
".q c #c29390",
".l c #c39490",
"#d c #6e5967",
".o c #c39490",
"#m c #6e5967",
"#R c #765e6b",
".Q c #c2938f",
".p c #c39490",
"#U c #6e5967",
"#n c #bb8f8c",
".j c #c39390",
".e c #c39490",
".y c #6e5967",
".f c #c39490",
"#V c #6e5967",
".3 c #7c636e",
"#q c #bf918e",
".i c #c39490",
"#W c #6e5967",
"#p c #bf928e",
"#o c #c0928f",
".g c #c39490",
".b c #6e5967",
".z c #6f5967",
".C c #6f5a67",
"#P c #6f5a68",
".D c #705a68",
"#Q c #705b68",
"#O c #715b69",
".A c #715c68",
".N c #745d6a",
".Z c #755e6b",
".X c #765e6a",
".V c #765f6b",
".P c #775f6b",
"#g c #775f6c",
".B c #78606b",
".T c #79616c",
"#j c #79616d",
"#i c #7a626c",
".F c #7b616d",
"#h c #7c636e",
".E c #7d646e",
".G c #7e656f",
".K c #7f656f",
".L c #806570",
".J c #816771",
".H c #846871",
".I c #856972",
".M c #8c6e75",
"#F c #a66e79",
"#z c #aa8284",
"#A c #ab8384",
"#u c #ac8485",
"Qt c #ad707b",
"#B c #ad8485",
"#C c #b18887",
"#y c #b28888",
"#v c #b38988",
"#M c #b48989",
".O c #b48a89",
"#w c #b58a89",
"#D c #b68b8a",
".c c #b77f83",
"#G c #b88d8b",
"#x c #b98d8b",
"#N c #ba8e8c",
"#H c #bb8e8c",
"#K c #bb8f8c",
"#L c #bc8f8c",
"#J c #bc8f8d",
".S c #be908e",
".W c #be918d",
".U c #c0928f",
".w c #c1908e",
".R c #c1918e",
"#E c #c1928f",
"#I c #c1938f",
"#t c #c2938f",
".# c #c39490",
".a c #d1b1a5",
".d c #dccabe",
"Qt.#.#.#.#.a.a.a.a.a.#.#.a.#.#.#.#.#.#.#.#.#.#.#.#.#.#.#.#.#Qt.bQt.#.#.#.#.a.a.a.a.a.#.#.a.#.#.#.#.#.#.#.#.#.#.#.#.#.#.#.#.#Qt.b",
".#.#.#.#.#.#.#.#.#.#.#.#.#.#.#.#.#.#.#.#.#.#.#.#.#.#.#.#.#.#.#.b.#.#.#.#.#.#.#.#.#.#.#.#.#.#.#.#.#.#.#.#.#.#.#.#.#.#.#.#.#.#.#.b",
".#.#.#.#.#.#.#.#.#.#.#.#.#.#.#.#.#.#.#.#Qt.#QtQtQtQtQt.#.#.b.b.b.#.#.#.#.#.#.#.#.#.#.#.#.#.#.#.#.#.#.#.#Qt.#QtQtQtQtQt.#.#.b.b.b",
".#.#.#.#.#.#.#.#.#.#.#.#.#.#.#.#.#.#.#.#.#.a.#.a.a.a.#.#.#.#.c.b.#.#.#.#.#.#.#.#.#.#.#.#.#.#.#.#.#.#.#.#.#.a.#.a.a.a.#.#.#.#.c.b",
".#.#.#.#.#.#.#.#.#.#.#.#.#.#.#.#.#.#.#.#.#.#.#.#.#.#.#.#.#.#.#.b.#.#.#.#.#.#.#.#.#.#.#.#.#.#.#.#.#.#.#.#.#.#.#.#.#.#.#.#.#.#.#.b",
".#.#.#.#.#.#.#.#.#.#.#.#.#.#.#.#.#.#.#.#.#.#.#.#.#.#.#.#.#.#.#.b.#.#.#.#.#.#.#.#.#.#.#.#.#.#.#.#.#.#.#.#.#.#.#.#.#.#.#.#.#.#.#.b",
"Qt.#.#.#.#.#.#.#.#.#.#.#.#.#.#.#.#.#.#.#.#.#.#.#.#.#.#.#.#.#Qt.bQt.#.#.#.#.#.#.#.#.#.#.#.#.#.#.#.#.#.#.#.#.#.#.#.#.#.#.#.#.#Qt.b",
".b.b.b.b.b.b.b.b.b.b.b.b.b.b.b.b.b.b.b.b.b.b.b.b.b.b.b.b.b.b.b.b.b.b.b.b.b.b.b.b.b.b.b.b.b.b.b.b.b.b.b.b.b.b.b.b.b.b.b.b.b.b.b.b",
".a.a.a.#.#.#.#.#.#.#.#.#.#.#Qt.bQt.#.#.#.a.#.a.a.a.a.a.#.#.#.#.#.a.a.a.#.#.#.#.#.#.#.#.#.#.#Qt.bQt.#.#.#.a.#.a.a.a.a.a.#.#.#.#.#",
".#.#.#.#.#.#.#.#.#.#.#.#.#.#.#.b.#.#.#.#.#.#.#.#.#.#.#.#.#.#.#.#.#.#.#.#.#.#.#.#.#.#.#.#.#.#.#.b.#.#.#.#.#.#.#.#.#.#.#.#.#.#.#.#",
".#.#.#.#.#.#.#QtQt.#Qt.#.#.b.b.b.#.#.#.#.#.#.#.#.#.#.#.#.#.#.#.#.#.#.#.#.#.#.#QtQt.#Qt.#.#.b.b.b.#.#.#.#.#.#.#.#.#.#.#.#.#.#.#.#",
".#.#.#.#.#.#.a.#.a.a.#.#.#.#.c.b.#.#.#.#.#.#.#.#.#.#.#.#.#.#.#.#.#.#.#.#.#.#.a.#.a.a.#.#.#.#.c.b.#.#.#.#.#.#.#.#.#.#.#.#.#.#.#.#",
".#.#.#.#.#.#.#.#.#.#.#.#.#.#.#.b.#.#.#.#.#.#.#.#.#.#.#.#.#.#.#.#.#.#.#.#.#.#.#.#.#.#.#.#.#.#.#.b.#.#.#.#.#.#.#.#.#.#.#.#.#.#.#.#",
".#.#.#.#.#.#.#.#.#.#.#.#.#.#.#.b.#.#.#.#.#.#.#.#.#.#.#.#.#.#.#.#.#.#.#.#.#.#.#.#.#.#.#.#.#.#.#.b.#.#.#.#.#.#.#.#.#.#.#.#.#.#.#.#",
".#.#.#.#.#.#.#.#.#.#.#.#.#.#Qt.bQt.#.#.#.#.#.#.#.#.#.#.#.#.#.#.#.#.#.#.#.#.#.#.#.#.#.#.#.#.#Qt.bQt.#.#.#.#.#.#.#.#.#.#.#.#.#.#.#",
".b.b.b.b.b.b.b.b.b.b.b.b.b.b.b.b.b.b.b.b.b.b.b.b.b.b.b.b.b.b.b.b.b.b.b.b.b.b.b.b.b.b.b.b.b.b.b.b.b.b.b.b.b.b.b.b.b.b.b.b.b.b.b.b",
"Qt.#.#.#.a.#.a.a.d.d.d.a.#.a.a.#.#.#.#.#.#.#.#.#.#.#.#.#.#.#Qt.bQt.#.#.#.a.#.a.a.d.d.d.a.#.a.a.#.#.#.#.#.#.#.#.#.#.#.#.#.#.#Qt.b",
".#.#.#.#.#.#.#.#.#.#.#.#.#.#.#.#.#.#.#.#.#.#.#.#.#.#.#.#.#.#.#.b.#.#.#.#.#.#.#.#.#.#.#.#.#.#.#.#.#.#.#.#.#.#.#.#.#.#.#.#.#.#.#.b",
".#.#.#.#.#.#.#.#.#.#.#.#.#.#.#.#.#.#.#.#.#.#.#.#.#.#.#.#.#.#.#.b.#.#.#.#.#.#.#.#.#.#.#.#.#.#.#.#.#.#.#.#.#.#.#.#.#.#.#.#.#.#.#.b",
".#.#.#.#.#.#.#.#.#.#.#.#.#.#.#.#.#.#.#.#.#.#.#.#.#.#.#.#.#.#.c.b.#.#.#.#.#.#.#.#.#.#.#.#.#.#.#.#.#.#.#.#.#.#.#.#.#.#.#.#.#.#.c.b",
".#.#.#.#.#.#.#.#.#.#.#.#.#.#.#.#.#.#.#.#.#.#QtQt.#Qt.#.b.b.b.b.b.#.#.#.#.#.#.#.#.#.#.#.#.#.#.#.#.#.#.#.#.#.#QtQt.#Qt.#.b.b.b.b.b",
".#.#.#.#.#.#.#.#.#.#.#.#.#.#.#.#.#.#.#.#.#.#.#.#.a.#.a.a.#.#.#.b.#.#.#.#.#.#.#.#.#.#.#.#.#.#.#.#.#.#.#.#.#.#.#.#.a.#.a.a.#.#.#.b",
"Qt.#.#.#.#.#.#.#.#.#.#.#.#.#.#.#.#.#.#.#.#.#.#.#.#.#.#.#.#.#Qt.bQt.#.#.#.#.#.#.#.#.#.#.#.#.#.#.#.#.#.#.#.#.#.#.#.#.#.#.#.#.#Qt.b",
".b.b.b.b.b.b.b.b.b.b.b.b.b.b.b.b.b.b.b.b.b.b.b.b.b.b.b.b.b.b.b.b.b.b.b.b.b.b.b.b.b.b.b.b.b.b.b.b.b.b.b.b.b.b.b.b.b.b.b.b.b.b.b.b",
".#.#.#.#.#.#.#.#.#.#.#.#.#.#Qt.bQt.#.#.#.a.#.a.a.a.d.d.d.a.a.#.#.#.#.#.#.#.#.#.#.#.#.#.#.#.#Qt.bQt.#.#.#.a.#.a.a.a.d.d.d.a.a.#.#",
".#.#.#.#.#.#.#.#.#.#.#.#.#.#.#.b.#.#.#.#.#.#.#.#.#.#.#.#.#.#.#.#.#.#.#.e.f.e.g.#.#.#.#.#.#.#.#.b.#.#.#.#.#.#.#.#.#.#.#.#.#.#.#.#",
".#.#.#.#QtQtQt.#.#Qt.#.#.b.b.b.b.#.#.#.#.#.h.g.#.#.g.g.i.g.g.i.e.i.i.g.#.i.g.g.g.i.j.#.#.#.#.#.b.#.#.#.#.#.#.#.#.#.#.#.#.#.#.#.#",
".#.#.#.#.#.a.#.#.#.a.a.#.a.#.c.b.#.#.#.#.g.e.g.#.#.#.#.#.#.#.#.#.#.#.#.#.#.#.#.#.#.#.g.#.#.#.#.b.#.#.#.#.#.#.#.#.#.#.#.#.#.#.#.#",
".#.#.#.#.#.#.#.#.#.#.#.#.#.#.#.b.#.#.#.#.g.g.#.#.#.#.g.g.g.i.i.#.#.#.#.#.#.#.#.#.g.i.k.#.#.#.#.b.#.#.#.#.#.#.#.#.#.#.#.#.#.#.#.#",
".#.#.#.#.#.#.#.#.#.#.#.#.#.#.#.b.#.#.#.#.#.#.#.#.#.#.#.#.#.#.#.#.#.#.#.#.#.#.#.#.i.i.l.#.#.#.#.b.#.#.#.#.#.#.#.#.#.#.#.#.#.#.#.#",
".#.#.#.#.#.#.#.#.#.#.#.#.#.#Qt.bQt.#.#.#.m.n.e.e.o.p.o.o.l.o.q.l.f.f.p.o.o.r.s.t.u.v.i.w.#.#Qt.bQt.#.#.#.#.#.#.#.#.#.#.#.#.#.#.#",
".b.b.b.b.b.b.b.b.b.b.b.b.b.b.b.b.b.b.b.b.x.y.b.b.b.b.z.A.B.C.z.z.C.D.E.F.G.H.I.J.K.L.M.N.b.b.b.b.b.b.b.b.b.b.b.b.b.b.b.b.b.b.b.b",
"Qt.#.#.#.#.a.a.a.a.a.#.#.a.#.#.#.#.#.#.i.o.o.l.i.i.e.k.g.O.P.p.r.h.r.o.f.i.i.f.e.p.r.Q.R.#.#.#.#.#.#.#.#.#.#.#.#.#.#.#.#.#.#Qt.b",
".#.#.#.#.#.#.#.#.#.#.#.#.#.#.#.#.#.#.#.g.#.#.#.#.#.#.#.#.S.T.#.#.#.#.#.#.#.#.#.#.#.#.#.p.#.#.#.#.#.#.#.#.#.#.#.#.#.#.#.#.#.#.#.b",
".#.#.#.#.#.#.#.#.#.#.#.#.#.#.#.#.#.#.#.#.#.#.#.#.#.#.#.#.U.V.#.#.#.#.#.#.#.#.#.#.#.#.#.l.#.#.#.#.#.#.#.#Qt.#QtQtQtQtQt.#.#.b.b.b",
".#.#.#.#.#.#.#.#.#.#.#.#.#.#.#.#.#.#.#.#.g.g.g.e.p.p.p.g.W.X.#.#.#.#.#.#.#.#.g.#.#.#.Y.#.#.#.#.#.#.#.#.#.#.a.#.a.a.a.#.#.#.#.c.b",
".#.#.#.#.#.#.#.#.#.#.#.#.#.#.#.#.#.#.#.#.#.#.#.#.#.#.#.#.g.Z.g.#.#.o.0.l.f.f.g.i.#.#.g.#.#.#.#.#.#.#.#.#.#.#.#.#.#.#.#.#.#.#.#.b",
".#.#.#.#.#.#.#.#.#.#.#.#.#.#.#.#.#.#.g.#.#.#.#.#.#.#.#.#.#.V.#.#.#.g.#.#.#.g.g.#.#.g.g.#.#.#.#.#.#.#.#.#.#.#.#.#.#.#.#.#.#.#.#.b",
"Qt.#.#.#.#.#.#.#.#.#.#.#.#.#.#.#.#.#.v.i.g.g.o.p.e.p.t.1.2.3.r.k.Y.h.v.Y.4.5.6.g.#.p.7.R.#.#.#.#.#.#.#.#.#.#.#.#.#.#.#.#.#.#Qt.b",
".b.b.b.b.b.b.b.b.b.b.b.b.b.b.b.b.b.b.b.V.8.9.9#.###a#b#c#a#d#e#f.A#g#h#h#h#h#i#j.H#k#l#m.b.b.b.b.b.b.b.b.b.b.b.b.b.b.b.b.b.b.b.b",
".a.a.a.#.#.#.#.#.#.#.#.#.#.#Qt.bQt.#.#.##n#o.g.##p#q#r.o.i.i.e.f.g.i.g.g.g.g.g.g.g.g.f#s.#.#Qt.bQt.#.#.#.a.#.a.a.a.a.a.#.#.#.#.#",
".#.#.#.#.#.#.#.#.#.#.#.#.#.#.#.b.#.#.#.#.#.#.#.#.g.e.0.e.#.#.#.#.#.#.#.#.#.g.g.#.#.f.i.f.#.#.#.b.#.#.#.#.#.#.#.#.#.#.#.#.#.#.#.#",
".#.#.#.#.#.#.#QtQt.#Qt.#.#.b.b.b.#.#.#.#.#.#.#.#.#.#.#.#.#.#.#.#.#.f.e.p.e.f.i.#.#.#.#.#.#.#.#.b.#.#.#.#.#.#.#.#.#.#.#.#.#.#.#.#",
".#.#.#.#.#.#.a.#.a.a.#.#.#.#.c.b.#.#.#.#.#.#.#.#.#.#.#.#.#.#.#.#.#.#.#.#.#.#.#QtQt.#Qt.#.b.b.b.b.#.#.#.#.#.#.#.#.#.#.#.#.#.#.#.#",
".#.#.#.#.#.#.#.#.#.#.#.#.#.#.#.b.#.#.#.#.#.#.#.#.#.#.#.#.#.#.#.#.#.#.#.#.#.#.a.#.a.a.#.#.#.#.c.b.#.#.#.#.#.#.#.#.#.#.#.#.#.#.#.#",
".#.#.#.#.#.#.#.#.#.#.#.#.#.#.#.b.#.#.#.#.#.#.#.#.#.#.#.#.#.#.#.#.#.#.#.#.#.#.#.#.#.#.#.#.#.#.#.b.#.#.#.#.#.#.#.#.#.#.#.#.#.#.#.#",
".#.#.#.#.#.#.#.#.#.#.#.#.#.#Qt.bQt.#.#.#.#.#.#.#.#.#.#.#.#.#.#.#.#.#.#.#.#.#.#.#.#.#.#.#.#.#Qt.bQt.#.#.#.#.#.#.#.#.#.#.#.#.#.#.#",
".b.b.b.b.b.b.b.b.b.b.b.b.b.b.b.b.b.b.b.b.b.b.b.b.b.b.b.b.b.b.b.b.b.b.b.b.b.b.b.b.b.b.b.b.b.b.b.b.b.b.b.b.b.b.b.b.b.b.b.b.b.b.b.b",
"Qt.#.#.#.a.#.a.a.d.d.d.a.#.a.a.#.#.#.#.#.#.#.#.#.#.#.#.#.#.#Qt.bQt.#.#.#.a.#.a.a.d.d.d.a.#.a.a.#.#.#.#.#.#.#.#.#.#.#.#.#.#.#Qt.b",
".#.#.#.#.#.#.#.#.#.#.#.#.#.#.#.#.#.#.#.#.#.#.#.#.#.#.#.#.#.#.#.b.#.#.#.#.#.#.#.#.#.#.#.#.#.#.#.#.#.#.#.#.#.#.#.#.#.#.#.#.#.#.#.b",
".#.#.#.#.#.#.#.#.#.#.#.#.#.#.#.#.#.#.#.#.#.#.#.#.#.#.#.#.#.#.#.b.#.#.#.#.#.#.#.#.#.#.#.#.#.#.#.#.#.#.#.#.#.#.#.#.#.#.#.#.#.#.#.b",
".#.#.#.#.#.#.#.#.#.#.#.#.#.#.#.#.#.#.#.#.#.#.#.#.#.#.#.#.#.#.c.b.#.#.#.#.#.#.#.#.#.#.#.#.#.#.#.#.#.#.#.#.#.#.#.#.#.#.#.#.#.#.c.b",
".#.#.#.#.#.#.#.#.#.#.#.#.#.#.#.#.#.#.#.#.#.#QtQt.#Qt.#.b.b.b.b.b.#.#.#.#.#.#.#.#.#.#.#.#.#.#.#.#.#.#.#.#.#.#QtQt.#Qt.#.b.b.b.b.b",
".#.#.#.#.#.#.#.#.#.#.#.#.#.#.#.#.#.#.#.#.#.#.#.#.a.#.a.a.#.#.#.b.#.#.#.#.#.#.#.#.#.#.#.#.#.#.#.#.#.#.#.#.#.#.#.#.a.#.a.a.#.#.#.b",
"Qt.#.#.#.#.#.#.#.#.#.#.#.#.#.#.#.#.#.#.#.#.#.#.#.#.#.#.#.#.#Qt.bQt.#.#.#.#.#.#.#.#.#.#.#.#.#.#.#.#.#.#.#.#.#.#.#.#.#.#.#.#.#Qt.b",
".b.b.b.b.b.b.b.b.b.b.b.b.b.b.b.b.b.b.b.b.b.b.b.b.b.b.b.b.b.b.b.b.b.b.b.b.b.b.b.b.b.b.b.b.b.b.b.b.b.b.b.b.b.b.b.b.b.b.b.b.b.b.b.b",
".#.#.#.#.#.#.#.#.#.#.#.#.#.#Qt.bQt.#.#.#.a.#.a.a.a.d.d.d.a.a.#.#.#.#.#.#.#.#.#.#.#.#.#.#.#.#Qt.bQt.#.#.#.a.#.a.a.a.d.d.d.a.a.#.#",
".#.#.#.#.#.#.#.#.#.#.#.#.#.#.#.b.#.#.#.#.#.#.#.#.#.#.#.#.#.#.#.#.#.#.#.#.#.#.#.#.#.#.#.#.#.#.#.b.#.#.#.#.#.#.#.#.#.#.#.#.#.#.#.#",
".#.#.#.#QtQtQt.#.#Qt.#.#.b.b.b.b.#.#.#.#.#.#.#.#.#.#.#.#.#.#.#.#.#.#.#.#QtQtQt.#.#Qt.#.#.b.b.b.b.#.#.#.#.#.#.#.#.#.#.#.#.#.#.#.#",
".#.#.#.#.#.a.#.#.#.a.a.#.a.#.c.b.#.#.#.#.#.#.#.#.#.#.#.#.#.#.#.#.#.#.#.#.#.a.#.#.#.a.a.#.a.#.c.b.#.#.#.#.#.#.#.#.#.#.#.#.#.#.#.#",
".#.#.#.#.#.#.#.#.#.#.#.#.#.#.#.b.#.#.#.#.#.#.#.#.#.#.#.#.#.#.#.#.#.#.#.#.#.#.#.#.#.#.#.#.#.#.#.b.#.#.#.#.#.#.#.#.#.#.#.#.#.#.#.#",
".#.#.#.#.#.#.#.#.#.#.#.#.#.#.#.b.#.#.#.#.#.#.#.#.#.#.#.#.#.#.#.#.#.#.#.#.#.#.#.#.#.#.#.#.#.#.#.b.#.#.#.#.#.#.#.#.#.#.#.#.#.#.#.#",
".#.#.#.#.#.#.#.#.#.#.#.#.#.#Qt.bQt.#.#.#.#.##t#u#v#w.U.#.#.#.#.#.U#x#y#z#A#B#C#D#E.#.#.#.#.#Qt.b#F#G#H#I.#.#.##J#K#J#L#D#M#N#N.O",
"#O.z.z#P.C#Q#R#S#T#U#V#W#U#U#X#Y#d#V.b#U#m#W.b#W#W#Z#m#W#V#U#m#W#W#e#d#0#b#1#X#1#2#3#Y#l#Z#W.b.b.b#W#W#V#m#4#5#6#7#7#0#m#m#m#d#d"};
