/* XPM */
static char * heart_xpm[] = {
"64 64 34 1",
" 	c None",
".	c #2F2E2F",
"+	c #85578E",
"@	c #BE9BB0",
"#	c #564064",
"$	c #3E2F5A",
"%	c #9D303B",
"&	c #9D2F3B",
"*	c #E76F71",
"=	c #D65658",
"-	c #D75658",
";	c #9C2E3A",
">	c #E66D70",
",	c #E66D6F",
"'	c #D65457",
")	c #D65557",
"!	c #9C2F3A",
"~	c #FFE7C7",
"{	c #FAA2A4",
"]	c #FAA3A5",
"^	c #E66E70",
"/	c #FFE7C6",
"(	c #D55456",
"_	c #E76E70",
":	c #FBA3A5",
"<	c #9C2E39",
"[	c #9E303B",
"}	c #9D2F3A",
"|	c #9D2E39",
"1	c #6C5672",
"2	c #6B5672",
"3	c #9B2C38",
"4	c #6C5671",
"5	c #9E2F3A",
"................................................................",
".++@@@@@@@@@@@@@@@@@@@@@++..++@@@@@@@@@@@@@@@@@@@@@@@@@@@@@@@++.",
".++@@@@@@@@@@@@@@@@@@@@@++..++@@@@@@@@@@@@@@@@@@@@@@@@@@@@@@@++.",
".@@@++++++++++++++++++++@@..@@++++++++++##++++++##++++++++++@@@.",
".@@@++++++++++++++++++++@@..@@++++++++++##++++++##++++++++++@@@.",
".+++++########++######++++..++++####++######++########++##+++++.",
".+++++########++######++++..++++####++######++########++##+++++.",
".+++################$$$$++..++$$$$##########################+++.",
".+++################$$$$++..++$$$$##########################+++.",
".###++####$$$$$$$$$$$$$$$$..$$$$$$$$$$$$####$$$$$$$$$$########..",
".###++####$$$$$$$$$$$$$$$$..$$$$$$$$$$$$####$$$$$$$$$$########..",
".$$$####$$$$$$$$$$$$$$$$......$$$$$$$$$$$$$$$$$$$$$$$$$$####$$$.",
".$$$####$$$$$$$$$$$$$$$$......$$$$$$$$$$$$$$$$$$$$$$$$$$####$$$.",
"................................................................",
"................................................................",
".###++++++++++++++++++++++++++++++++++++++++++++++++++++++++###.",
".###++++++++++++++++++++++++++++++++++++++++++++++++++++++++###.",
".+++++++++++++++++++++++++++++####+++++++++++++++++++++++++++++.",
".+++++++++++++++++++++++++++++####+++++++++++++++++++++++++++++.",
".+++++######++####++######++########++##++++##++++##++####+++++.",
".+++++######++####++##%%%%%%########%%%%%%++##++++##++####+++++.",
".+++##++##############&&%%%%##$$$$$$%%%%%%##############++##+++.",
".+++##++############%&**=---%%$$$$%%------%%############++##+++.",
".+++##########$$####&;>,''))!%####&!=====-!%##$$##$$###########.",
".+++##########$$##%&*>~~~~{])-%%%&**^^^^==--%%$$##$$###########.",
".###++######$$$$$$%&*,~///{]()!&&;*^^^^^==))%%$$$$$$$$#########.",
".###++######$$$$$$%&*^{{{{{{]]_***^^^^^^=)]:<%$$$$$$$$#########.",
".$$$####$$$$$$$$$$%&*^]{{{{{{]^^^^^^^^^^=)]:;%$$$$$$$$$$####$$$.",
".$$$####$$$$$$$$$$%&*^]{{{{{{]^^^^^^^^^^=)]:;%$$$$$$$$$$####$$$.",
"..................[}*_]]]]]]]]^^^^^^^^^^)(::|[..................",
"..................12}!))^^^^^^^^^^^^===)]:3|21..................",
".###++++++++++++++415}-=^^^^^^^^^^^^==)(::|514++++++++++++++###.",
".###++++++++++++++++12}!==^^^^^^^^===)]:3|21++++++++++++++++###.",
".+++++++++++++##++++415}-=^^^^^^^^==)(::|514+++++++++++++++++++.",
".+++++++++++++##++++++12}!==^^^^===)]:3|21+++++++++++++++++++++.",
".+++++++##++######++++415}-=^^^^==)(::|514++####++++++##+++++++.",
".+++++++##++######++++..12}!=====)]:3|21##++####++++++##+++++++.",
".+++++####$$########++..415}--===)::|514##$$######++##++##+++++.",
".+++++####$$########++..++12}!-==-<|21####$$######++##++##+++++.",
".+++##++####$$######$$..$$415}----}514######$$##############+++.",
".+++##++####$$######$$..$$##12}%%}21$$######$$##############+++.",
".+++########$$$$##$$$$..$$$$415[[514####$$######$$$$###########.",
".+++########$$$$##$$$$..$$$$##1111$$####$$######$$$$###########.",
".###++####$$$$$$$$$$$$..$$$$$$4444$$$$$$$$$$##$$$$$$$$#########.",
".###++####$$$$$$$$$$$$..$$$$$$$$$$$$$$$$$$$$##$$$$$$$$#########.",
".$$$##$$$$$$$$$$$$$$......$$$$$$$$$$$$$$$$$$$$$$$$$$$$$$####$$$.",
".$$$##$$$$$$$$$$$$$$......$$$$$$$$$$$$$$$$$$$$$$$$$$$$$$####$$$.",
"................................................................",
"................................................................",
".###++++++++++++++++++++++++++++++++++++++++++++++++++++++++###.",
".###++++++++++++++++++++++++++++++++++++++++++++++++++++++++###.",
".+++++++##++++++++++++++++##++++++##+++++++++++++++++++++++++++.",
".+++++++##++++++++++++++++##++++++##+++++++++++++++++++++++++++.",
".+++++++++##++++++####++######++######++++++++++####++++##+++++.",
".+++++++++##++++++####++######++######++++++++++####++++##+++++.",
".+++++####++$$++$$############$$########++##++##########+++++++.",
".+++++####++$$++$$############$$########++##++##########+++++++.",
".+++########$$$$$$$$##$$$$##########$$##########$$##########+++.",
".+++########$$$$$$$$##$$$$##########$$##########$$##########+++.",
".###++####$$$$$$$$$$$$$$$$$$$$$$##$$$$$$$$$$$$$$$$$$###########.",
".###++####$$$$$$$$$$$$$$$$$$$$$$##$$$$$$$$$$$$$$$$$$###########.",
".$$$##$$$$$$$$$$$$$$$$$$$$$$$$$$$$$$$$$$$$$$$$$$$$$$$$$$####$$$.",
".$$$##$$$$$$$$$$$$$$$$$$$$$$$$$$$$$$$$$$$$$$$$$$$$$$$$$$####$$$.",
"................................................................"};
