/* XPM */
static char *dummy[]={
"64 64 5 1",
". c #2f2e2f",
"c c #3e2f5a",
"b c #564064",
"# c #85578e",
"a c #be9bb0",
"................................................................",
".##aaaaaaaaaaaaaaaaaaaaa##..##aaaaaaaaaaaaaaaaaaaaaaaaaaaaaaa##.",
".##aaaaaaaaaaaaaaaaaaaaa##..##aaaaaaaaaaaaaaaaaaaaaaaaaaaaaaa##.",
".aaa####################aa..aa##########bb######bb##########aaa.",
".aaa####################aa..aa##########bb######bb##########aaa.",
".#####bbbbbbbb##bbbbbb####..####bbbb##bbbbbb##bbbbbbbb##bb#####.",
".#####bbbbbbbb##bbbbbb####..####bbbb##bbbbbb##bbbbbbbb##bb#####.",
".###bbbbbbbbbbbbbbbbcccc##..##ccccbbbbbbbbbbbbbbbbbbbbbbbbbb###.",
".###bbbbbbbbbbbbbbbbcccc##..##ccccbbbbbbbbbbbbbbbbbbbbbbbbbb###.",
".bbb##bbbbcccccccccccccccc..ccccccccccccbbbbccccccccccbbbbbbbb..",
".bbb##bbbbcccccccccccccccc..ccccccccccccbbbbccccccccccbbbbbbbb..",
".cccbbbbcccccccccccccccc......ccccccccccccccccccccccccccbbbbccc.",
".cccbbbbcccccccccccccccc......ccccccccccccccccccccccccccbbbbccc.",
"................................................................",
"................................................................",
".bbb########################################################bbb.",
".bbb########################################################bbb.",
".#############################bbbb#############################.",
".#############################bbbb#############################.",
".#####bbbbbb##bbbb##bbbbbb##bbbbbbbb##bb####bb####bb##bbbb#####.",
".#####bbbbbb##bbbb##bbbbbb##bbbbbbbb##bb####bb####bb##bbbb#####.",
".###bb##bbbbbbbbbbbbbbccbbbbbbccccccbbbbbbbbbbbbbbbbbbbb##bb###.",
".###bb##bbbbbbbbbbbbbbccbbbbbbccccccbbbbbbbbbbbbbbbbbbbb##bb###.",
".###bbbbbbbbbbccbbbbccccccbbbbbbbbbbbbccccbbbbccbbccbbbbbbbbbbb.",
".###bbbbbbbbbbccbbbbccccccbbbbbbbbbbbbccccbbbbccbbccbbbbbbbbbbb.",
".bbb##bbbbbbccccccccccccccccccccbbbbccccccccccccccccccbbbbbbbbb.",
".bbb##bbbbbbccccccccccccccccccccbbbbccccccccccccccccccbbbbbbbbb.",
".cccbbbbccccccccccccccccccccccccccccccccccccccccccccccccbbbbccc.",
".cccbbbbccccccccccccccccccccccccccccccccccccccccccccccccbbbbccc.",
"................................................................",
"................................................................",
".bbb################......##################################bbb.",
".bbb################......##################################bbb.",
".#############bb######..############bb#########################.",
".#############bb######..############bb#########################.",
".#######bb##bbbbbb####..####bbbb##bbbbbbbb##bbbb######bb#######.",
".#######bb##bbbbbb####..####bbbb##bbbbbbbb##bbbb######bb#######.",
".#####bbbbccbbbbbbbb##..##bbbbbbbbbbccbbbbccbbbbbb##bb##bb#####.",
".#####bbbbccbbbbbbbb##..##bbbbbbbbbbccbbbbccbbbbbb##bb##bb#####.",
".###bb##bbbbccbbbbbbcc..ccbbbbbbbbccccbbbbbbccbbbbbbbbbbbbbb###.",
".###bb##bbbbccbbbbbbcc..ccbbbbbbbbccccbbbbbbccbbbbbbbbbbbbbb###.",
".###bbbbbbbbccccbbcccc..ccccbbccccccbbbbccbbbbbbccccbbbbbbbbbbb.",
".###bbbbbbbbccccbbcccc..ccccbbccccccbbbbccbbbbbbccccbbbbbbbbbbb.",
".bbb##bbbbcccccccccccc..ccccccccccccccccccccbbccccccccbbbbbbbbb.",
".bbb##bbbbcccccccccccc..ccccccccccccccccccccbbccccccccbbbbbbbbb.",
".cccbbcccccccccccccc......ccccccccccccccccccccccccccccccbbbbccc.",
".cccbbcccccccccccccc......ccccccccccccccccccccccccccccccbbbbccc.",
"................................................................",
"................................................................",
".bbb########################################################bbb.",
".bbb########################################################bbb.",
".#######bb################bb######bb###########################.",
".#######bb################bb######bb###########################.",
".#########bb######bbbb##bbbbbb##bbbbbb##########bbbb####bb#####.",
".#########bb######bbbb##bbbbbb##bbbbbb##########bbbb####bb#####.",
".#####bbbb##cc##ccbbbbbbbbbbbbccbbbbbbbb##bb##bbbbbbbbbb#######.",
".#####bbbb##cc##ccbbbbbbbbbbbbccbbbbbbbb##bb##bbbbbbbbbb#######.",
".###bbbbbbbbccccccccbbccccbbbbbbbbbbccbbbbbbbbbbccbbbbbbbbbb###.",
".###bbbbbbbbccccccccbbccccbbbbbbbbbbccbbbbbbbbbbccbbbbbbbbbb###.",
".bbb##bbbbccccccccccccccccccccccbbccccccccccccccccccbbbbbbbbbbb.",
".bbb##bbbbccccccccccccccccccccccbbccccccccccccccccccbbbbbbbbbbb.",
".cccbbccccccccccccccccccccccccccccccccccccccccccccccccccbbbbccc.",
".cccbbccccccccccccccccccccccccccccccccccccccccccccccccccbbbbccc.",
"................................................................"};
