/* XPM */
static char * water_xpm[] = {
"64 64 632 2",
"  	c None",
". 	c #AD707B",
"+ 	c #C39490",
"@ 	c #D1B1A5",
"# 	c #6E5967",
"$ 	c #B77F83",
"% 	c #C39491",
"& 	c #C19393",
"* 	c #B590A4",
"= 	c #AE8EAB",
"- 	c #B08FA9",
"; 	c #AE8FAB",
"> 	c #B9919E",
", 	c #7E84D1",
"' 	c #4E7DE4",
") 	c #597FE0",
"! 	c #5E7FDF",
"~ 	c #4E7FE4",
"{ 	c #7E86D1",
"] 	c #B9929E",
"^ 	c #B08EA8",
"/ 	c #B58FA2",
"( 	c #9E8FBC",
"_ 	c #508EE9",
": 	c #2D8EF1",
"< 	c #2C8EF1",
"[ 	c #298DF1",
"} 	c #208AF0",
"| 	c #4989E8",
"1 	c #9D8DBC",
"2 	c #6E5968",
"3 	c #685C7F",
"4 	c #456EC9",
"5 	c #2A74E0",
"6 	c #3170DB",
"7 	c #3B85E1",
"8 	c #52A8F3",
"9 	c #5BB3F7",
"0 	c #59B1F6",
"a 	c #58B1F6",
"b 	c #5AB2F6",
"c 	c #53AEF6",
"d 	c #42A5F4",
"e 	c #3298F1",
"f 	c #2D7EE0",
"g 	c #DCCABE",
"h 	c #508FE9",
"i 	c #268CF1",
"j 	c #0784F0",
"k 	c #2991F1",
"l 	c #52AFF6",
"m 	c #61BCF8",
"n 	c #5FBBF8",
"o 	c #5FBAF8",
"p 	c #60BBF8",
"q 	c #5AB7F8",
"r 	c #4BAFF6",
"s 	c #3BA3F4",
"t 	c #3093F2",
"u 	c #2B8CF1",
"v 	c #5895EC",
"w 	c #B2B4D3",
"x 	c #C2A9B2",
"y 	c #C2AAB3",
"z 	c #CFB0A7",
"A 	c #BA919D",
"B 	c #517CE3",
"C 	c #5D7ADE",
"D 	c #5A8CE4",
"E 	c #58AAF3",
"F 	c #53AFF6",
"G 	c #339FF4",
"H 	c #249CF3",
"I 	c #38A5F5",
"J 	c #43ABF6",
"K 	c #48ADF6",
"L 	c #4AADF6",
"M 	c #47ACF6",
"N 	c #3EA8F5",
"O 	c #43A9F5",
"P 	c #54AFF6",
"Q 	c #5BB2F6",
"R 	c #55A9F3",
"S 	c #598BE4",
"T 	c #9D8FBD",
"U 	c #4F8EE9",
"V 	c #2B8DF1",
"W 	c #278BF0",
"X 	c #3997F2",
"Y 	c #53B0F6",
"Z 	c #61BBF8",
"` 	c #63BAF8",
" .	c #62B8F7",
"..	c #5DB5F7",
"+.	c #3FA7F5",
"@.	c #35A4F4",
"#.	c #3BA6F5",
"$.	c #3DA7F5",
"%.	c #3CA6F5",
"&.	c #44AAF5",
"*.	c #4EAFF6",
"=.	c #5BB7F8",
"-.	c #63BDF9",
";.	c #57B2F6",
">.	c #3A98F2",
",.	c #51A9F5",
"'.	c #50ADF6",
").	c #35A5F5",
"!.	c #59B4F7",
"~.	c #8FD2FB",
"{.	c #9EDDFD",
"].	c #94D7FC",
"^.	c #7DC8F9",
"/.	c #4BACF5",
"(.	c #209FF4",
"_.	c #3FA8F5",
":.	c #3DA6F5",
"<.	c #47ABF5",
"[.	c #58B4F7",
"}.	c #5AB6F7",
"|.	c #48ACF6",
"1.	c #4DAEF6",
"2.	c #56B0F6",
"3.	c #5AB1F6",
"4.	c #517DE3",
"5.	c #5CB8F8",
"6.	c #59B3F6",
"7.	c #76C1F8",
"8.	c #9FDDFD",
"9.	c #ABE7FE",
"0.	c #A3E2FD",
"a.	c #92D6FB",
"b.	c #74C1F8",
"c.	c #58B2F6",
"d.	c #45AAF5",
"e.	c #3EA7F5",
"f.	c #46ABF5",
"g.	c #49ACF6",
"h.	c #60B9F8",
"i.	c #5FB9F8",
"j.	c #38A5F4",
"k.	c #45ABF5",
"l.	c #59B6F7",
"m.	c #62BCF8",
"n.	c #64BEF9",
"o.	c #268BF0",
"p.	c #5D7CDF",
"q.	c #1586F0",
"r.	c #40A3F4",
"s.	c #49AEF6",
"t.	c #3DA9F5",
"u.	c #61B7F7",
"v.	c #91D3FB",
"w.	c #A1DFFD",
"x.	c #9EDEFD",
"y.	c #9BDCFC",
"z.	c #98DBFC",
"A.	c #A2E0FD",
"B.	c #92D4FB",
"C.	c #5BB3F6",
"D.	c #37A6F5",
"E.	c #55B3F7",
"F.	c #41A9F5",
"G.	c #4BAEF6",
"H.	c #4DB0F6",
"I.	c #BA909D",
"J.	c #9E8EBC",
"K.	c #5C8DE4",
"L.	c #34A0F4",
"M.	c #36A6F5",
"N.	c #63B8F7",
"O.	c #95D7FC",
"P.	c #A5E2FE",
"Q.	c #9DDDFD",
"R.	c #9FDEFD",
"S.	c #A3E0FD",
"T.	c #61B6F7",
"U.	c #45ABF6",
"V.	c #5EB8F8",
"W.	c #47ABF6",
"X.	c #58B5F7",
"Y.	c #3CA7F5",
"Z.	c #3DA8F5",
"`.	c #3AA2F4",
" +	c #3294F2",
".+	c #695A7D",
"++	c #466AC6",
"@+	c #3687E7",
"#+	c #54A9F3",
"$+	c #54B0F6",
"%+	c #33A5F5",
"&+	c #52B2F7",
"*+	c #63BBF8",
"=+	c #6EC0F9",
"-+	c #84CDFA",
";+	c #A0DFFD",
">+	c #ADE8FE",
",+	c #AEE9FF",
"'+	c #77C2F9",
")+	c #5BB4F7",
"!+	c #5AB5F7",
"~+	c #5DB8F8",
"{+	c #62BBF8",
"]+	c #5CB7F7",
"^+	c #42A9F5",
"/+	c #57B2F7",
"(+	c #53A9F3",
"_+	c #3587E7",
":+	c #BA929D",
"<+	c #9B8DBD",
"[+	c #3A81E7",
"}+	c #2F93F2",
"|+	c #65BDF8",
"1+	c #68BAF7",
"2+	c #65B8F7",
"3+	c #5DB6F7",
"4+	c #56B5F7",
"5+	c #52B4F7",
"6+	c #6CC0F9",
"7+	c #8CD0FB",
"8+	c #50AEF6",
"9+	c #2DA3F5",
"0+	c #66BDF9",
"a+	c #65BCF8",
"b+	c #5DB9F8",
"c+	c #57B1F6",
"d+	c #4285E8",
"e+	c #4788E9",
"f+	c #3099F3",
"g+	c #36A2F4",
"h+	c #38A6F5",
"i+	c #69BBF8",
"j+	c #9ED9FC",
"k+	c #9BD7FC",
"l+	c #5EB4F7",
"m+	c #31A6F5",
"n+	c #55B4F7",
"o+	c #68BEF9",
"p+	c #74C4F9",
"q+	c #74C3F9",
"r+	c #59B2F6",
"s+	c #41A8F5",
"t+	c #57B4F7",
"u+	c #56B3F7",
"v+	c #B08FA8",
"w+	c #2A75E0",
"x+	c #1D89F0",
"y+	c #42A5F5",
"z+	c #47AFF6",
"A+	c #30A5F5",
"B+	c #60B4F6",
"C+	c #A0DAFC",
"D+	c #79C1F8",
"E+	c #5DB4F7",
"F+	c #5BB5F7",
"G+	c #56B4F7",
"H+	c #4CAFF6",
"I+	c #2DA2F4",
"J+	c #5DB7F8",
"K+	c #4FAFF6",
"L+	c #40A9F5",
"M+	c #4CB0F6",
"N+	c #6482E2",
"O+	c #2389F0",
"P+	c #54AEF6",
"Q+	c #5BB8F8",
"R+	c #43A8F5",
"S+	c #58B0F6",
"T+	c #7AC2F8",
"U+	c #3AA6F5",
"V+	c #60BAF8",
"W+	c #50B0F6",
"X+	c #61BAF8",
"Y+	c #46ABF6",
"Z+	c #5D7BDF",
"`+	c #3B98F2",
" @	c #22A2F4",
".@	c #5FB5F7",
"+@	c #9CD7FC",
"@@	c #9DD8FC",
"#@	c #66B8F7",
"$@	c #38A7F5",
"%@	c #43AAF5",
"&@	c #39A5F5",
"*@	c #40A8F5",
"=@	c #5AB7F7",
"-@	c #4EAEF6",
";@	c #5CB6F7",
">@	c #64B7F7",
",@	c #65B7F7",
"'@	c #5FB7F7",
")@	c #3AA5F5",
"!@	c #62BCF9",
"~@	c #51B0F6",
"{@	c #42ABF6",
"]@	c #3FAAF5",
"^@	c #57B5F7",
"/@	c #4FB0F6",
"(@	c #5CB7F8",
"_@	c #49ADF6",
":@	c #62BDF9",
"<@	c #636091",
"[@	c #2F74DD",
"}@	c #5EBAF8",
"|@	c #57B6F7",
"1@	c #4EB0F6",
"2@	c #48AEF6",
"3@	c #4FB1F6",
"4@	c #45ACF6",
"5@	c #4FB1F7",
"6@	c #47ADF6",
"7@	c #40AAF5",
"8@	c #42ABF5",
"9@	c #BDA7B7",
"0@	c #4CAEF6",
"a@	c #59B5F7",
"b@	c #5EB9F8",
"c@	c #55ADF6",
"d@	c #41A3F4",
"e@	c #349DF3",
"f@	c #349EF3",
"g@	c #55AEF6",
"h@	c #5DB3F7",
"i@	c #359EF3",
"j@	c #3AA0F4",
"k@	c #3CA1F4",
"l@	c #3BA0F4",
"m@	c #389FF3",
"n@	c #3CA2F4",
"o@	c #46ACF6",
"p@	c #56AFF6",
"q@	c #64BDF9",
"r@	c #4AAFF6",
"s@	c #47A9F5",
"t@	c #3D96F2",
"u@	c #348AF0",
"v@	c #2D89F0",
"w@	c #2888F0",
"x@	c #2988F0",
"y@	c #2E8AF0",
"z@	c #368EF1",
"A@	c #3A90F1",
"B@	c #368DF1",
"C@	c #3A8FF1",
"D@	c #2C88F0",
"E@	c #2C89F0",
"F@	c #2A88F0",
"G@	c #2485EF",
"H@	c #3A95F2",
"I@	c #58B2F7",
"J@	c #5BB9F8",
"K@	c #57B0F6",
"L@	c #65BDF9",
"M@	c #3AA3F4",
"N@	c #3499F3",
"O@	c #2487F0",
"P@	c #1C7EEF",
"Q@	c #2281EF",
"R@	c #2481EF",
"S@	c #2380EF",
"T@	c #207FEF",
"U@	c #1C7DEF",
"V@	c #1A7DEF",
"W@	c #217FEF",
"X@	c #1F80EF",
"Y@	c #1D80EF",
"Z@	c #2381EF",
"`@	c #2482EF",
" #	c #2182EF",
".#	c #2081EF",
"+#	c #2180EF",
"@#	c #1F7DEF",
"##	c #187BEE",
"$#	c #348CF1",
"%#	c #54A9F5",
"&#	c #5AB3F7",
"*#	c #53ADF6",
"=#	c #2A8DF1",
"-#	c #5E80DF",
";#	c #9C729C",
">#	c #51B1F6",
",#	c #43ACF6",
"'#	c #3CA4F4",
")#	c #3090F1",
"!#	c #2887F0",
"~#	c #288DF1",
"{#	c #288FF1",
"]#	c #2A8FF1",
"^#	c #2387F1",
"/#	c #2085F0",
"(#	c #1F85F0",
"_#	c #278CF1",
":#	c #298FF1",
"<#	c #288EF1",
"[#	c #298EF1",
"}#	c #2A8EF1",
"|#	c #1F90F1",
"1#	c #1C8EF1",
"2#	c #2088F1",
"3#	c #2185F0",
"4#	c #2587F0",
"5#	c #3089F0",
"6#	c #4499F2",
"7#	c #41A4F4",
"8#	c #6588E2",
"9#	c #39A5F4",
"0#	c #379AF3",
"a#	c #2785F0",
"b#	c #2080EF",
"c#	c #278DF1",
"d#	c #2A94F2",
"e#	c #2A95F2",
"f#	c #2793F2",
"g#	c #228EF2",
"h#	c #1F8BF1",
"i#	c #1F8CF1",
"j#	c #208CF1",
"k#	c #2995F2",
"l#	c #2994F2",
"m#	c #2695F2",
"n#	c #1D96F2",
"o#	c #1A93F2",
"p#	c #1E8EF2",
"q#	c #208BF1",
"r#	c #218AF1",
"s#	c #1D86F0",
"t#	c #147EEF",
"u#	c #328CF0",
"v#	c #54AAF5",
"w#	c #59B2F7",
"x#	c #36A0F4",
"y#	c #1A88F0",
"z#	c #5981E0",
"A#	c #4BB0F6",
"B#	c #41ABF5",
"C#	c #38A0F4",
"D#	c #2285F0",
"E#	c #2086F1",
"F#	c #2389F1",
"G#	c #238DF1",
"H#	c #2093F2",
"I#	c #1E94F2",
"J#	c #1D93F2",
"K#	c #1C92F2",
"L#	c #1D92F2",
"M#	c #1F94F2",
"N#	c #1C95F2",
"O#	c #1B94F2",
"P#	c #1B93F2",
"Q#	c #1D90F2",
"R#	c #208AF1",
"S#	c #258DF1",
"T#	c #2C8FF1",
"U#	c #44ACF6",
"V#	c #1B89F0",
"W#	c #4E80E4",
"X#	c #3999F1",
"Y#	c #44A4F4",
"Z#	c #2D88F0",
"`#	c #1E7DEF",
" $	c #2288F1",
".$	c #238CF1",
"+$	c #1E8CF1",
"@$	c #1B92F2",
"#$	c #1995F2",
"$$	c #1A95F2",
"%$	c #1B95F2",
"&$	c #1A94F2",
"*$	c #1994F2",
"=$	c #1E8DF1",
"-$	c #2992F2",
";$	c #268DF1",
">$	c #2986F0",
",$	c #43A4F4",
"'$	c #3FA6F5",
")$	c #3B9BF1",
"!$	c #6D5A6D",
"~$	c #685D7F",
"{$	c #586AAC",
"]$	c #3194F2",
"^$	c #55B1F6",
"/$	c #1E7FEF",
"($	c #2893F2",
"_$	c #2092F2",
":$	c #1A92F2",
"<$	c #1E91F2",
"[$	c #2187F1",
"}$	c #3295F2",
"|$	c #2E7EE1",
"1$	c #586BAC",
"2$	c #5FB6F7",
"3$	c #3B90F1",
"4$	c #1D7FEF",
"5$	c #1E95F2",
"6$	c #1A96F2",
"7$	c #1E84F0",
"8$	c #3B91F1",
"9$	c #5CB5F7",
"0$	c #60B7F7",
"a$	c #2187F0",
"b$	c #1C93F2",
"c$	c #388AE7",
"d$	c #53ABF3",
"e$	c #52AAF5",
"f$	c #348CF0",
"g$	c #1E85F0",
"h$	c #57ABF3",
"i$	c #9E90BC",
"j$	c #578DE4",
"k$	c #2A8BF0",
"l$	c #1B7DEF",
"m$	c #1F86F0",
"n$	c #218BF1",
"o$	c #1E8EF1",
"p$	c #1F8EF2",
"q$	c #1F86F1",
"r$	c #5C90E5",
"s$	c #B590A3",
"t$	c #5D7EDF",
"u$	c #0B7FEF",
"v$	c #338DF1",
"w$	c #3890F1",
"x$	c #2989F1",
"y$	c #1F84F0",
"z$	c #1F88F1",
"A$	c #1F91F2",
"B$	c #1F95F2",
"C$	c #1D8FF2",
"D$	c #1E88F1",
"E$	c #54ACF6",
"F$	c #59AEF6",
"G$	c #1679EE",
"H$	c #187AEE",
"I$	c #1E82EF",
"J$	c #2690F2",
"K$	c #2A96F2",
"L$	c #208DF2",
"M$	c #1E89F1",
"N$	c #1B80EF",
"O$	c #167AEE",
"P$	c #6F75CC",
"Q$	c #388BE8",
"R$	c #378EF1",
"S$	c #2E8FF1",
"T$	c #268EF1",
"U$	c #1D8FF1",
"V$	c #1A8DF1",
"W$	c #2888F1",
"X$	c #388FF1",
"Y$	c #54ADF6",
"Z$	c #498CE8",
"`$	c #6D596C",
" %	c #695C7E",
".%	c #596EAF",
"+%	c #3588E8",
"@%	c #389EF3",
"#%	c #48A9F5",
"$%	c #5AB4F7",
"%%	c #56ACF5",
"&%	c #1C7FEF",
"*%	c #1C80EF",
"=%	c #1980EF",
"-%	c #1E80EF",
";%	c #1B7EEF",
">%	c #197CEF",
",%	c #358CF1",
"'%	c #BB909C",
")%	c #8081CF",
"!%	c #4286E8",
"~%	c #329BF3",
"{%	c #44A9F5",
"]%	c #3A94F2",
"^%	c #2B87F0",
"/%	c #2F8BF0",
"(%	c #308BF0",
"_%	c #2B88F0",
":%	c #4889E9",
"<%	c #298CF1",
"[%	c #3193F2",
"}%	c #47A8F5",
"|%	c #5EB5F7",
"1%	c #43A6F5",
"2%	c #44A6F5",
"3%	c #517EE3",
"4%	c #5387E4",
"5%	c #3A9BF1",
"6%	c #5CB4F7",
"7%	c #3FA5F4",
"8%	c #40A5F4",
"9%	c #55B0F6",
"0%	c #218BF0",
"a%	c #1F8AF0",
"b%	c #208BF0",
"c%	c #2B8EF1",
"d%	c #2D8FF1",
"e%	c #6F78CC",
"f%	c #457AE2",
"g%	c #5277DD",
"h%	c #3274DB",
"i%	c #3275DB",
"j%	c #5E81DF",
"k%	c #BCA7B7",
"l%	c #C2938F",
"m%	c #AC8485",
"n%	c #B38988",
"o%	c #B58A89",
"p%	c #C0928F",
"q%	c #B98D8B",
"r%	c #B28888",
"s%	c #AA8284",
"t%	c #AB8384",
"u%	c #AD8485",
"v%	c #B18887",
"w%	c #B68B8A",
"x%	c #C1928F",
"y%	c #A66E79",
"z%	c #B88D8B",
"A%	c #BB8E8C",
"B%	c #C1938F",
"C%	c #BC8F8D",
"D%	c #BB8F8C",
"E%	c #BC8F8C",
"F%	c #B48989",
"G%	c #BA8E8C",
"H%	c #B48A89",
"I%	c #715B69",
"J%	c #6F5967",
"K%	c #6F5A68",
"L%	c #6F5A67",
"M%	c #705B68",
"N%	c #765E6B",
"O%	c #725B69",
". + + + + @ @ @ @ @ + + @ + + + + + + + + + + + + + + + + + . # . + + + + @ @ @ @ @ + + @ + + + + + + + + + + + + + + + + + . # ",
"+ + + + + + + + + + + + + + + + + + + + + + + + + + + + + + + # + + + + + + + + + + + + + + + + + + + + + + + + + + + + + + + # ",
"+ + + + + + + + + + + + + + + + + + + + . + . . . . . + + # # # + + + + + + + + + + + + + + + + + + + + . + . . . . . + + # # # ",
"+ + + + + + + + + + + + + + + + + + + + + @ + @ @ @ + + + + $ # + + + + + + + + + + + + + + + + + + + + + @ + @ @ @ + + + + $ # ",
"+ + + + + + + + + + + + + + + + + + + + + + + + + + + + + + + # + + + + + + + + + + + + + + + + + + + + + + + + + + + + + + + # ",
"+ + + + + + + + + + + + + + + + + + + + + + + + + + + + + + + # + + + + + + + + + + + + + + + + + + + + + + + + + + + + + + + # ",
". + + + + + + + + + + + + + + + + + + + + + + + + + + + + + . # . + + + + + + + + + + + + + + + + + + + + + + + + + + + + + . # ",
"# # # # # # # # # # # # # # # # # # # # # # # # # # # # # # # # # # # # # # # # # # # # # # # # # # # # # # # # # # # # # # # # ",
"@ @ @ + + + + + + + + + + + . # . + + + @ + @ @ @ @ @ + + + + + @ @ @ + + + + + + + + + + + . # . + + + @ + @ @ @ @ @ + + + + + ",
"+ + + + + + + + + + + + + + + # + + + + + + + + + + + + + + + + + + + + + + + + + + + + + + + # + + + + + + + + + + + + + + + + ",
"+ + + + + + + . . + . + + # # # + + + + + + + + + + + + + + + + + + + + + + + . . + . + + # # # + + + + + + + + + + + + + + + + ",
"+ + + + + + @ + @ @ + + + + $ # + + + + + + + + % + + + + + + + + + + + + + @ % @ @ + + + + $ # + + + + + + + + + + + + + + + + ",
"+ + + + + + + + + + + + + + + # + + + + + + + + + & * = - - - - - - - - ; * & + + + + + + + + # + + + + + + + + + + + + + + + + ",
"+ + + + + + + + + + + + + + + # + + + + % + + + + > , ' ) ! ! ! ! ! ! ) ~ { ] + + + + % + + + # + + + + + + + + + + + + + + + + ",
"+ + + + + + + + + + + + + + . # . + + + + & * ^ / ( _ : : < < < < : : [ } | 1 / ^ * & + + + . # . + + + + + + + + + + + + + + + ",
"# # # # # # # # # # # # # # # # 2 # # # # 3 4 5 6 7 8 9 0 a a a a 0 b c d e f 6 5 4 3 # # # # 2 # # # # # # # # # # # # # # # # ",
". + + + @ + @ @ g g g @ + @ @ + + & * ^ / ( h i j k l m n o o o o o p q r s t u < v w x ^ y z + + + + + + + + + + + + + + + . # ",
"+ + + + + + + + + + + + + + % + + A , B C D E F G H I J K L L L L L L M N O P Q 9 R S C B , A + + % + + + + + + + + + + + + + # ",
"+ + + + + + + + + + + + + + + & A T U V W X Y Z `  ...l +.@.#.$.%.%.%.+.&.*.=.m -.;.>.W V U T A & + + + + + + + + + + + + + + # ",
"+ + + + + + + + + + + + + + + * , U ,.9 Q '.).!.~.{.].^./.(.I _.:.#.%.<.[.}.*.|.K 1.2.3.9 ,.U , * + + + + + + + + + + + + + $ # ",
"+ + + + + + + + + + + + + + + ^ 4.W c -.n 5.6.7.8.9.0.a.b.c.d.e.f.f.+.g.h.i.|.j.j.k.l.m.n.c o.4.^ + + + + + . . + . + # # # # # ",
"+ + + + + + + + + + + + % + + / p.q.r.s.t.u.v.w.x.y.z.y.A.B.C.D.E.[.&.|.i.i.g.#.$.F.|.G.H.r.q.p./ + + % + + + + @ + @ @ + + + # ",
". + + + + + + + + + + + + + I.J.K.t L.M.M.N.O.P.x.y.Q.R.S.B.T.U.V.V.W.&.[.X.W.$.+.e.%.Y.Z.`. +K.J.I.+ + + + + + + + + + + + . # ",
"# # # # # # # # # # 2 # # .+++@+#+$+).%+&+*+=+-+;+>+,+8.'+)+!+~+{+]+|.+.f.W.^++.$.%.%.%.Y.<./+(+_+++.+# # 2 # # # # # # # # # # ",
"+ + + + + + + + + + + & :+<+[+}+$+|+1+2+3+4+5+6+].S.w.7+8+9+X.0+a+]+g.%.%.$.+.^+<.g.g.f.e.|.b+c+t d+<+:+z + @ @ @ g g g @ @ + + ",
"+ + + + + + + + + + + * { e+f+g+h+i+j+k+l+m+n+o+p+q+i+r+s+F.}.a+|+~+g.%.e.e.$.<.t+V.V.u+&.e.|.<.s f+e+{ * + + + + + + + + + + + ",
"+ + + + . . . + + . + v+w+x+y+z+A+B+k+C+D+E+F+l.G+H+M.I+I g.J+*+i.u+f.$.e.e.%.g.V.0+|+V.K+O $.L+M+y+x+4.v++ + + + + + + + + + + ",
"+ + + + + @ + + % @ @ / N+O+P+Q+U.R+S+T+C+k+2+M.N L+Y.U+#.L i.V+W+&.s++.$.%.%.g.V.|+*+X+V.E.O Y+5.P+O+Z+/ + + % + + + + + + + + ",
"+ + + + + + + + + & > ( S `+c+=.|.). @.@+@@@#@$@%@d.s+e.%.<.X.[.&.&@$.^+|.W.*@f.u+V.X+*+|+~+<.k.=@c+`+S ( > & + + + + + + + + + ",
"+ + + + + + + + + * , _ R /+-@k.$.^+&+;@>@,@'@~+V.t+d.)@#.*@W.<.+.)@&@f.}.}.W.e.%@K+V.|+0+~+|.e.k.-@/+R _ , * + + + + + + + + + ",
"+ + + + + + + + + = ' : 9 !@M )@O ~@X+V.{@]@^@V+V+}.*.|.L M _._.M L |./@(@}.|.Y.U+k.t+V.~+u+<.%.&@_@:@9 : ' = + + + + + + + + + ",
"# # # # # # # # # <@[@: 0 o k.s+t+X+*+{+}@|@1@2@K 3@Q+p p l.4@4@l.p p Q+5@6@J 7@7@8@2@s.M &.s+e.%._@p 0 : [@<@# # # # # # # # # ",
". + + + + @ @ @ @ 9@! < S+V+1@0@a@b@~+;@E+c@d@e@f@d@g@h@h@g@d@d@g@h@h@g@d@i@j@k@k@l@m@n@d.o@F.e.%.L o 0 : ! - + + + + + + + . # ",
"+ + + + + + + + + - ! V p@q@V+a@*.|.r@s@t@u@v@w@x@y@z@A@A@z@y@y@B@C@C@B@v@x@D@v@E@F@G@H@I@J@o@&@#.L p b : ! - + + + + + + + + # ",
"+ + + + + + + + + - ! < K@L@X+X.U.)@M@N@O@P@Q@R@S@T@U@V@V@P@W@W@X@Y@Y@X@Z@`@ #.#+#@###$#%#&#K+Y+_.M =@*#=#-#;#. . . . + + # # # ",
"+ + + + + + + + + - ! : 3.m.>#U.,#'#)#!#~#{#]#[ ^#/#(#(#(#(#/#^#_#:#<#[#}#{#|#1#2#3#(#4#5#6#&#J@K *@K 7#} 8#- @ @ @ + + + + $ # ",
"+ + + + + + + + + - ) =#c q U.9#'#0#a#b#c#d#e#f#g#h#i#j#j#i#h#g#f#k#k#l#d#m#n#o#p#q#r#s#t#u#v#w#<.Z.]@x#y#z#- + + + + + + + + # ",
"+ + + + + + + + + ; ~ } y+A#B#C#)#!#D#E#F#G#H#I#J#K#K#K#K#K#K#L#M#M#M#M#M#I#N#O#P#Q#R#F#S#T#z@H@n@]@U#`.V#W#; + + + + + + + + # ",
". + + + + + + + + * { | X#'#6@Y#Z#`# $.$R#+$@$#$$$%$%$%$%$%$%$$$&$*$*$*$*$&$O#O#$$P#=$G#-$;$V@>$,$K '$)$| { * + + + + + + + . # ",
"# # # # # # # # # !$~${$f ]$^$K@B@/$c#($_$:$&$&$O#O#O#O#O#O#O#O#O#&$O#O#&$O#O#O#O#O#P#<$g#[$V@B@2.^$}$|$1$~$!$# # # # # # # # # ",
"@ @ @ + + + + + % + + / p.V )+2$3$4$c#($5$#$&$O#O#O#O#O#O#O#O#O#O#O#O#O#O#O#O#O#O#O#6$P#h#7$V@8$2$)+V p.x + @ @ @ @ @ + + + + + ",
"+ + + + + + + + + + + ^ 4.: 9$0$8$V@a$g#b$$$O#O#O#O#O#O#O#O#O#O#O#O#O#O#O#O#O#O#O#O#6$b$i#(#V@8$u.9$: 4.^ + + + + + + + + + + + ",
"+ + + + + + + . . + . * , c$d$e$f$V@g$h#Q#b$O#&$&$O#O#O#O#O#O#O#O#O#O#&$&$O#O#O#O#O#b$Q#j#(#V@f$e$h$h , * + + + + + + + + + + + ",
"+ + + + + + @ + @ @ + & > i$j$k$T@l$m$n$q#o$P##$*$&$O#O#%$$$%$%$%$$$&$*$*$&$$$$$$$b$p$q#n$q$l$T@k$r$i$> & + + + + + + + + + + + ",
"+ + + + + + + + + + % + + s$t$u$v$w$x$g$y$z$A$B$B$I#N#O#b$K#K#K#K#L#M#M#M#M#L#K#b$C$D$y$g$x$w$v$u$t$s$+ + % + + + + + + + + + + ",
"+ + + + + + + + + + + + + v+4.W E$F$z@G$H$I$J$K$e#m#n#o#p#q#j#i#h#g#f#k#k#f#g#i#L$M$N$##O$z@F$E$W 4.v++ + + + + + + + + + + + + ",
"+ + + + + + + + + + + + + * P$Q$c@g@H@D@R$w$S$[#[#T$U$V$2#3#/#(#/#^#_#:#:#_#a$7$7$W$R$X$D@H@g@Y$Z$, * + + + + + + + + + + + + + ",
"# # # # # # # # # # # # # `$ %.%+%t @%#%$%%%R$V@&%*%=%N$T@W@U@U@T@W@X@-%-%4$;%>%O$,%%%$%#%@%t +%.% %`$# # # # # # # # # # # # # ",
". + + + @ + @ @ g g g @ % @ @ '%)%!%~%{%/+Y$]%^%B@3$3$R$/%/%X$X$(%/%R$A@C@A@A@z@_%]%Y$/+{%~%:%)%'%+ + % + + + + + + + + + + . # ",
"+ + + + + + + + + + + + + + + + '%<+:%} <%[%@%}%c+|%|%2.1%2%a a 2%1%2.|%E+E+|%c+}%@%[%<%} :%<+'%+ + + + + + + + + + + + + + + # ",
"+ + + + + + + + + + + + + + % + + :+{ 3%p.4%5%R+$+6%6%F 7%8%9%9%8%7%F )+&#&#)+$+R+5%4%p.3%{ :++ + % + + + + + + + + + + + + + # ",
"+ + + + + + + + + + + + + + + + + & * v+/ 1 | 0%}#S$S$}#a%b%c%c%b%a%}#S$d%d%S$}#0%| 1 / v+* & + + + + + + + + + + + + + + + $ # ",
"+ + + + + + + + + + + + + + + + % + + + + ] e%f%) g%! h%i%i%h%h%j%j%-#! ! ! ! ) ~ { ] + + + + % + + + + + + . . + . + # # # # # ",
"+ + + + + + + + + + + + + + + + + + + + + & * ; k%- 9@9@- - - <@- - - - - - - - ; * & + + + + + + + + + + + + + @ + @ @ + + + # ",
". + + + + + + + + + + + + + + + + + + + % + + + + + + + + + . # . + + + + + + + + + + % + + + + + + + + + + + + + + + + + + . # ",
"# # # # # # # # # # # # # # # # # # # # # # # # # # # # # # # # # # # # # # # # # # # # # # # # # # # # # # # # # # # # # # # # ",
"+ + + + + + + + + + + + + + . # . + + + @ + @ @ @ g g g @ @ + + + + + + + + + + + + + + + + . # . + + + @ + @ @ @ g g g @ @ + + ",
"+ + + + + + + + + + + + + + + # + + + + + + + + + + + + + + + + + + + + + + + + + + + + + + + # + + + + + + + + + + + + + + + + ",
"+ + + + . . . + + . + + # # # # + + + + + + + + + + + + + + + + + + + + . . . + + . + + # # # # + + + + + + + + + + + + + + + + ",
"+ + + + + @ + + + @ @ + @ + $ # + + + + + + + + + + + + + + + + + + + + + @ + + + @ @ + @ + $ # + + + + + + + + + + + + + + + + ",
"+ + + + + + + + + + + + + + + # + + + + + + + + + + + + + + + + + + + + + + + + + + + + + + + # + + + + + + + + + + + + + + + + ",
"+ + + + + + + + + + + + + + + # + + + + + + + + + + + + + + + + + + + + + + + + + + + + + + + # + + + + + + + + + + + + + + + + ",
"+ + + + + + + + + + + + + + . # . + + + + + l%m%n%o%p%+ + + + + p%q%r%s%t%u%v%w%x%+ + + + + . # y%z%A%B%+ + + C%D%C%E%w%F%G%G%H%",
"I%J%J%K%L%M%N%O%L%# # # # # # # # # # # # # # # # # # # # # # # # # # # # # # # # # # # # # # # # # # # # # # # # # # # # # # # "};
