/* XPM */
static char *dummy[]={
"64 64 60 1",
"1 c #6e5967",
"R c #6e5967",
"0 c #6e5967",
"3 c #6e5967",
"2 c #6e5967",
"L c #725b69",
"5 c #6e5967",
"Z c #6e5967",
"X c #6e5967",
"4 c #6e5967",
"Y c #6e5967",
"Q c #6e5967",
"W c #6e5967",
"V c #6e5967",
"U c #6e5967",
"M c #6f5a67",
"S c #6e5967",
"T c #6e5967",
"K c #765e6b",
"N c #6e5967",
"O c #6e5967",
"P c #6e5967",
"d c #693f55",
"b c #6e5967",
"G c #6f5967",
"I c #6f5a67",
"H c #6f5a68",
"J c #705b68",
"F c #715b69",
"g c #964b4c",
"v c #a66e79",
"p c #aa8284",
"q c #ab8384",
"j c #ac8485",
". c #ad707b",
"r c #ad8485",
"s c #b18887",
"o c #b28888",
"f c #b36950",
"k c #b38988",
"C c #b48989",
"E c #b48a89",
"l c #b58a89",
"t c #b68b8a",
"c c #b77f83",
"w c #b88d8b",
"n c #b98d8b",
"D c #ba8e8c",
"x c #bb8e8c",
"A c #bb8f8c",
"B c #bc8f8c",
"z c #bc8f8d",
"m c #c0928f",
"u c #c1928f",
"y c #c1938f",
"i c #c2938f",
"# c #c39490",
"a c #d1b1a5",
"e c #dccabe",
"h c #de9a60",
".####aaaaa##a#################.b.####aaaaa##a#################.b",
"###############################b###############################b",
"####################.#.....##bbb####################.#.....##bbb",
"#####################a#aaa####cb#####################a#aaa####cb",
"###############################b###############################b",
"###############################b###############################b",
".#############################.b.#############################.b",
"bbbbbbbbbbbbbbbbbbbbbbbbbbbbbbbbbbbbbbbbbbbbbbbbbbbbbbbbbbbbbbbb",
"aaa###########.b.###a#aaaaa#####aaa###########.b.###a#aaaaa#####",
"###############b###############################b################",
"#######..#.##bbb#######################..#.##bbb################",
"######a#aa####cb######################a#aa####cb################",
"###############b###############################b################",
"###############b###############################b################",
"##############.b.#############################.b.###############",
"bbbbbbbbbbbbbbbddddddddddddddddddddddddddddddddbbbbbbbbbbbbbbbbb",
".###a#aaeeea#aadfffgfggffffffffffggfffgfffgfffd###############.b",
"###############dffgggggggggggggggggggggggggggfd################b",
"###############dfghhhhhhhhhhhhhhhhhhhhhhhhhhdfd################b",
"###############dggfffffffffffffhfffhhffhffffdgd###############cb",
"###############dfgfffggffggfggggggggggggggggdgd#######..#.#bbbbb",
"###############dfgfffddddddddddddddddddddddddgd#########a#aa###b",
".##############dfgfffdddggddgggdddgggggggddgggd###############.b",
"bbbbbbbbbbbbbbbdggdgfddggddfggggddgggggddffgggdbbbbbbbbbbbbbbbbb",
"##############.dfghhfdgggdffgggggdddgggdfgggggdb.###a#aaaeeeaa##",
"###############dfgfffdgggfgggggggggdgggdggggggdb################",
"####...##.##bbbdggfffdgghhhhhhhhhhhhhhhhhhhhhgdb################",
"#####a###aa#a#cdfgfffdgghhffffffhhfhhffffffffgdb################",
"###############dggfffdgghffggggggggggggggggffgdb################",
"###############dggfffdgghffdddddddddddddddgffgdb################",
"##############.dggfffdggfffddgggggggggggggfffgdb.###############",
"bbbbbbbbbbbbbbbdggffgdggfffdggdddggghhhdggfffgdbbbbbbbbbbbbbbbbb",
".####aaaaa##a##dggfgfdggfffdggddfggghffdggfffgd###############.b",
"###############dggdgfdgghffdggffggggfffdggfffgd################b",
"###############dggdhfdggfffdggggggggfffddgfffgd#####.#.....##bbb",
"###############dgghffdggffffhhhhhhhhfffddggffgd######a#aaa####cb",
"###############dggfffdggffffffhffhfffffdddhgfgd################b",
"###############dggfffdgggggggfggfgggfgfdgdfhggd################b",
".##############dggfffdggddddddddddddddddggffhgd###############.b",
"bbbbbbbbbbbbbbbdgggffddgggggggdfggggggggggfffgdbbbbbbbbbbbbbbbbb",
"aaa###########.dgggffdddgggggdfgggggggggggfffgdb.###a#aaaaa#####",
"###############dgggffhhhhhhhhhhhhhhhhhhhhhfffgdb################",
"#######..#.##bbdgggffffhffhffffffffffffffffffgdb################",
"######a#aa####cdggggggggggggggggggggggggggggggdb################",
"###############dggdddddddddddddddddddddddddddgdb################",
"###############dggggggdgggggggggggggggggggggggdb################",
"##############.ddddddddddddddddddddddddddddddddb.###############",
"bbbbbbbbbbbbbbbbbbbbbbbbbbbbbbbbbbbbbbbbbbbbbbbbbbbbbbbbbbbbbbbb",
".###a#aaeeea#aa###############.b.###a#aaeeea#aa###############.b",
"###############################b###############################b",
"###############################b###############################b",
"##############################cb##############################cb",
"######################..#.#bbbbb######################..#.#bbbbb",
"########################a#aa###b########################a#aa###b",
".#############################.b.#############################.b",
"bbbbbbbbbbbbbbbbbbbbbbbbbbbbbbbbbbbbbbbbbbbbbbbbbbbbbbbbbbbbbbbb",
"##############.b.###a#aaaeeeaa################.b.###a#aaaeeeaa##",
"###############b###############################b################",
"####...##.##bbbb####################...##.##bbbb################",
"#####a###aa#a#cb#####################a###aa#a#cb################",
"###############b###############################b################",
"###############b###############################b################",
"##############.b.#####ijklm#####mnopqrstu#####.bvwxy###zAzBtCDDE",
"FGGHIJKLMNOPNNQRSObNTPbPPUTPONTPPVSWXYQYZ0R1UPbbbPPOT23455WTTTSS"};
